%TF.GenerationSoftware,KiCad,Pcbnew,8.0.8*%
%TF.CreationDate,2025-04-09T23:46:09+08:00*%
%TF.ProjectId,usb-4uart,7573622d-3475-4617-9274-2e6b69636164,rev?*%
%TF.SameCoordinates,Original*%
%TF.FileFunction,Soldermask,Top*%
%TF.FilePolarity,Negative*%
%FSLAX46Y46*%
G04 Gerber Fmt 4.6, Leading zero omitted, Abs format (unit mm)*
G04 Created by KiCad (PCBNEW 8.0.8) date 2025-04-09 23:46:09*
%MOMM*%
%LPD*%
G01*
G04 APERTURE LIST*
G04 Aperture macros list*
%AMRoundRect*
0 Rectangle with rounded corners*
0 $1 Rounding radius*
0 $2 $3 $4 $5 $6 $7 $8 $9 X,Y pos of 4 corners*
0 Add a 4 corners polygon primitive as box body*
4,1,4,$2,$3,$4,$5,$6,$7,$8,$9,$2,$3,0*
0 Add four circle primitives for the rounded corners*
1,1,$1+$1,$2,$3*
1,1,$1+$1,$4,$5*
1,1,$1+$1,$6,$7*
1,1,$1+$1,$8,$9*
0 Add four rect primitives between the rounded corners*
20,1,$1+$1,$2,$3,$4,$5,0*
20,1,$1+$1,$4,$5,$6,$7,0*
20,1,$1+$1,$6,$7,$8,$9,0*
20,1,$1+$1,$8,$9,$2,$3,0*%
G04 Aperture macros list end*
%ADD10RoundRect,0.100000X0.130000X0.100000X-0.130000X0.100000X-0.130000X-0.100000X0.130000X-0.100000X0*%
%ADD11RoundRect,0.100000X-0.130000X-0.100000X0.130000X-0.100000X0.130000X0.100000X-0.130000X0.100000X0*%
%ADD12RoundRect,0.100000X0.100000X-0.130000X0.100000X0.130000X-0.100000X0.130000X-0.100000X-0.130000X0*%
%ADD13O,0.280000X1.100000*%
%ADD14O,1.100000X0.280000*%
%ADD15R,4.100000X4.100000*%
%ADD16RoundRect,0.100000X-0.100000X0.130000X-0.100000X-0.130000X0.100000X-0.130000X0.100000X0.130000X0*%
%ADD17O,0.900000X0.280000*%
%ADD18O,0.280000X0.900000*%
%ADD19R,3.200000X3.200000*%
%ADD20O,1.000000X2.100000*%
%ADD21O,1.000000X1.800000*%
%ADD22R,0.600000X1.150000*%
%ADD23R,0.300000X1.150000*%
%ADD24R,1.700000X1.700000*%
%ADD25O,1.700000X1.700000*%
%ADD26RoundRect,0.250000X-0.275000X0.287500X-0.275000X-0.287500X0.275000X-0.287500X0.275000X0.287500X0*%
%ADD27R,1.200000X1.400000*%
%ADD28R,2.500000X1.100000*%
%ADD29R,2.340000X3.600000*%
G04 APERTURE END LIST*
D10*
%TO.C,C8*%
X31820000Y-46500000D03*
X31180000Y-46500000D03*
%TD*%
%TO.C,R2*%
X27820000Y-26500000D03*
X27180000Y-26500000D03*
%TD*%
D11*
%TO.C,C4*%
X42835000Y-45000000D03*
X43475000Y-45000000D03*
%TD*%
D12*
%TO.C,C19*%
X31000000Y-58665000D03*
X31000000Y-58025000D03*
%TD*%
%TO.C,C21*%
X31500000Y-67820000D03*
X31500000Y-67180000D03*
%TD*%
D10*
%TO.C,R4*%
X43475000Y-46000000D03*
X42835000Y-46000000D03*
%TD*%
D11*
%TO.C,D1*%
X24180000Y-36500000D03*
X24820000Y-36500000D03*
%TD*%
D12*
%TO.C,R12*%
X36500000Y-40320000D03*
X36500000Y-39680000D03*
%TD*%
D11*
%TO.C,R1*%
X37335000Y-26500000D03*
X37975000Y-26500000D03*
%TD*%
D13*
%TO.C,U2*%
X36000000Y-47472000D03*
X36500000Y-47472000D03*
X37000000Y-47472000D03*
X37500000Y-47472000D03*
X38000000Y-47472000D03*
X38500000Y-47472000D03*
X39000000Y-47472000D03*
X39500000Y-47472000D03*
X40000000Y-47472000D03*
D14*
X40972000Y-46500000D03*
X40972000Y-46000000D03*
X40972000Y-45500000D03*
X40972000Y-45000000D03*
X40972000Y-44500000D03*
X40972000Y-44000000D03*
X40972000Y-43500000D03*
X40972000Y-43000000D03*
X40972000Y-42500000D03*
D13*
X40000000Y-41528000D03*
X39500000Y-41528000D03*
X39000000Y-41528000D03*
X38500000Y-41528000D03*
X38000000Y-41528000D03*
X37500000Y-41528000D03*
X37000000Y-41528000D03*
X36500000Y-41528000D03*
X36000000Y-41528000D03*
D14*
X35028000Y-42500000D03*
X35028000Y-43000000D03*
X35028000Y-43500000D03*
X35028000Y-44000000D03*
X35028000Y-44500000D03*
X35028000Y-45000000D03*
X35028000Y-45500000D03*
X35028000Y-46000000D03*
X35028000Y-46500000D03*
D15*
X38000000Y-44500000D03*
%TD*%
D16*
%TO.C,R6*%
X22000000Y-48180000D03*
X22000000Y-48820000D03*
%TD*%
D12*
%TO.C,R9*%
X38500000Y-37975000D03*
X38500000Y-37335000D03*
%TD*%
%TO.C,R13*%
X39000000Y-39820000D03*
X39000000Y-39180000D03*
%TD*%
D10*
%TO.C,C10*%
X35500000Y-38000000D03*
X34860000Y-38000000D03*
%TD*%
D17*
%TO.C,U6*%
X39500000Y-72001500D03*
X39500000Y-71501000D03*
X39500000Y-71000500D03*
X39500000Y-70500000D03*
X39500000Y-69999500D03*
X39500000Y-69499500D03*
X39500000Y-68999000D03*
D18*
X38501500Y-68000000D03*
X38001000Y-68000000D03*
X37500500Y-68000000D03*
X37000000Y-68000000D03*
X36499500Y-68000000D03*
X35999500Y-68000000D03*
X35499000Y-68000000D03*
D17*
X34500000Y-68999000D03*
X34500000Y-69499500D03*
X34500000Y-69999500D03*
X34500000Y-70500000D03*
X34500000Y-71000500D03*
X34500000Y-71501000D03*
X34500000Y-72001500D03*
D18*
X35499000Y-73000000D03*
X35999500Y-73000000D03*
X36499500Y-73000000D03*
X37000000Y-73000000D03*
X37500500Y-73000000D03*
X38001000Y-73000000D03*
X38501500Y-73000000D03*
D19*
X37000000Y-70500000D03*
%TD*%
D10*
%TO.C,C14*%
X35500000Y-39000000D03*
X34860000Y-39000000D03*
%TD*%
D20*
%TO.C,USB1*%
X36820000Y-24382200D03*
X28180000Y-24382200D03*
D21*
X36820000Y-20232200D03*
X28180000Y-20232200D03*
D22*
X35700000Y-24957200D03*
X34900000Y-24957200D03*
D23*
X33750000Y-24957200D03*
X32750000Y-24957200D03*
X32250000Y-24957200D03*
X31250000Y-24957200D03*
D22*
X29300000Y-24957200D03*
X30100000Y-24957200D03*
D23*
X30750000Y-24957200D03*
X31750000Y-24957200D03*
X33250000Y-24957200D03*
X34250000Y-24957200D03*
%TD*%
D12*
%TO.C,C18*%
X30000000Y-58665000D03*
X30000000Y-58025000D03*
%TD*%
D17*
%TO.C,U4*%
X30500000Y-72001500D03*
X30500000Y-71501000D03*
X30500000Y-71000500D03*
X30500000Y-70500000D03*
X30500000Y-69999500D03*
X30500000Y-69499500D03*
X30500000Y-68999000D03*
D18*
X29501500Y-68000000D03*
X29001000Y-68000000D03*
X28500500Y-68000000D03*
X28000000Y-68000000D03*
X27499500Y-68000000D03*
X26999500Y-68000000D03*
X26499000Y-68000000D03*
D17*
X25500000Y-68999000D03*
X25500000Y-69499500D03*
X25500000Y-69999500D03*
X25500000Y-70500000D03*
X25500000Y-71000500D03*
X25500000Y-71501000D03*
X25500000Y-72001500D03*
D18*
X26499000Y-73000000D03*
X26999500Y-73000000D03*
X27499500Y-73000000D03*
X28000000Y-73000000D03*
X28500500Y-73000000D03*
X29001000Y-73000000D03*
X29501500Y-73000000D03*
D19*
X28000000Y-70500000D03*
%TD*%
D16*
%TO.C,C15*%
X34000000Y-47680000D03*
X34000000Y-48320000D03*
%TD*%
D24*
%TO.C,J1*%
X37575000Y-76850000D03*
D25*
X37575000Y-79390000D03*
X35035000Y-76850000D03*
X35035000Y-79390000D03*
X32495000Y-76850000D03*
X32495000Y-79390000D03*
X29955000Y-76850000D03*
X29955000Y-79390000D03*
X27415000Y-76850000D03*
X27415000Y-79390000D03*
%TD*%
D12*
%TO.C,C25*%
X41500000Y-67320000D03*
X41500000Y-66680000D03*
%TD*%
%TO.C,C20*%
X30500000Y-66975000D03*
X30500000Y-66335000D03*
%TD*%
D11*
%TO.C,C6*%
X24150000Y-51400000D03*
X24790000Y-51400000D03*
%TD*%
D17*
%TO.C,U5*%
X39500000Y-64001500D03*
X39500000Y-63501000D03*
X39500000Y-63000500D03*
X39500000Y-62500000D03*
X39500000Y-61999500D03*
X39500000Y-61499500D03*
X39500000Y-60999000D03*
D18*
X38501500Y-60000000D03*
X38001000Y-60000000D03*
X37500500Y-60000000D03*
X37000000Y-60000000D03*
X36499500Y-60000000D03*
X35999500Y-60000000D03*
X35499000Y-60000000D03*
D17*
X34500000Y-60999000D03*
X34500000Y-61499500D03*
X34500000Y-61999500D03*
X34500000Y-62500000D03*
X34500000Y-63000500D03*
X34500000Y-63501000D03*
X34500000Y-64001500D03*
D18*
X35499000Y-65000000D03*
X35999500Y-65000000D03*
X36499500Y-65000000D03*
X37000000Y-65000000D03*
X37500500Y-65000000D03*
X38001000Y-65000000D03*
X38501500Y-65000000D03*
D19*
X37000000Y-62500000D03*
%TD*%
D16*
%TO.C,C23*%
X38000000Y-57680000D03*
X38000000Y-58320000D03*
%TD*%
D12*
%TO.C,C11*%
X37500000Y-37475000D03*
X37500000Y-36835000D03*
%TD*%
%TO.C,R7*%
X36500000Y-37975000D03*
X36500000Y-37335000D03*
%TD*%
D16*
%TO.C,R10*%
X31000000Y-39680000D03*
X31000000Y-40320000D03*
%TD*%
D11*
%TO.C,C5*%
X42835000Y-44000000D03*
X43475000Y-44000000D03*
%TD*%
D16*
%TO.C,C22*%
X39000000Y-57680000D03*
X39000000Y-58320000D03*
%TD*%
D17*
%TO.C,U3*%
X30500500Y-64001500D03*
X30500500Y-63501000D03*
X30500500Y-63000500D03*
X30500500Y-62500000D03*
X30500500Y-61999500D03*
X30500500Y-61499500D03*
X30500500Y-60999000D03*
D18*
X29502000Y-60000000D03*
X29001500Y-60000000D03*
X28501000Y-60000000D03*
X28000500Y-60000000D03*
X27500000Y-60000000D03*
X27000000Y-60000000D03*
X26499500Y-60000000D03*
D17*
X25500500Y-60999000D03*
X25500500Y-61499500D03*
X25500500Y-61999500D03*
X25500500Y-62500000D03*
X25500500Y-63000500D03*
X25500500Y-63501000D03*
X25500500Y-64001500D03*
D18*
X26499500Y-65000000D03*
X27000000Y-65000000D03*
X27500000Y-65000000D03*
X28000500Y-65000000D03*
X28501000Y-65000000D03*
X29001500Y-65000000D03*
X29502000Y-65000000D03*
D19*
X28000500Y-62500000D03*
%TD*%
D10*
%TO.C,C9*%
X31820000Y-45500000D03*
X31180000Y-45500000D03*
%TD*%
D26*
%TO.C,C3*%
X30500000Y-32575000D03*
X30500000Y-34000000D03*
%TD*%
D10*
%TO.C,C2*%
X29820000Y-26500000D03*
X29180000Y-26500000D03*
%TD*%
D12*
%TO.C,C13*%
X34000000Y-40820000D03*
X34000000Y-40180000D03*
%TD*%
D11*
%TO.C,C17*%
X42835000Y-47000000D03*
X43475000Y-47000000D03*
%TD*%
D12*
%TO.C,R14*%
X40000000Y-39820000D03*
X40000000Y-39180000D03*
%TD*%
D27*
%TO.C,X1*%
X23800000Y-47300000D03*
X23800000Y-49500000D03*
X25500000Y-49500000D03*
X25500000Y-47300000D03*
%TD*%
D11*
%TO.C,C1*%
X35000000Y-26500000D03*
X35640000Y-26500000D03*
%TD*%
%TO.C,C12*%
X42835000Y-43000000D03*
X43475000Y-43000000D03*
%TD*%
%TO.C,C7*%
X24150000Y-45400000D03*
X24790000Y-45400000D03*
%TD*%
D16*
%TO.C,R11*%
X29680000Y-39680000D03*
X29680000Y-40320000D03*
%TD*%
D12*
%TO.C,C24*%
X40500000Y-67320000D03*
X40500000Y-66680000D03*
%TD*%
D16*
%TO.C,C16*%
X37000000Y-56180000D03*
X37000000Y-56820000D03*
%TD*%
D10*
%TO.C,R5*%
X43475000Y-42000000D03*
X42835000Y-42000000D03*
%TD*%
D12*
%TO.C,R8*%
X37500000Y-39975000D03*
X37500000Y-39335000D03*
%TD*%
D10*
%TO.C,R3*%
X31820000Y-47500000D03*
X31180000Y-47500000D03*
%TD*%
D28*
%TO.C,U1*%
X27970000Y-34300000D03*
X27970000Y-32000000D03*
X27970000Y-29700000D03*
D29*
X22030000Y-32000000D03*
%TD*%
M02*
