%TF.GenerationSoftware,KiCad,Pcbnew,8.0.8*%
%TF.CreationDate,2025-04-09T23:46:09+08:00*%
%TF.ProjectId,usb-4uart,7573622d-3475-4617-9274-2e6b69636164,rev?*%
%TF.SameCoordinates,Original*%
%TF.FileFunction,Legend,Top*%
%TF.FilePolarity,Positive*%
%FSLAX46Y46*%
G04 Gerber Fmt 4.6, Leading zero omitted, Abs format (unit mm)*
G04 Created by KiCad (PCBNEW 8.0.8) date 2025-04-09 23:46:09*
%MOMM*%
%LPD*%
G01*
G04 APERTURE LIST*
G04 Aperture macros list*
%AMRoundRect*
0 Rectangle with rounded corners*
0 $1 Rounding radius*
0 $2 $3 $4 $5 $6 $7 $8 $9 X,Y pos of 4 corners*
0 Add a 4 corners polygon primitive as box body*
4,1,4,$2,$3,$4,$5,$6,$7,$8,$9,$2,$3,0*
0 Add four circle primitives for the rounded corners*
1,1,$1+$1,$2,$3*
1,1,$1+$1,$4,$5*
1,1,$1+$1,$6,$7*
1,1,$1+$1,$8,$9*
0 Add four rect primitives between the rounded corners*
20,1,$1+$1,$2,$3,$4,$5,0*
20,1,$1+$1,$4,$5,$6,$7,0*
20,1,$1+$1,$6,$7,$8,$9,0*
20,1,$1+$1,$8,$9,$2,$3,0*%
G04 Aperture macros list end*
%ADD10C,0.100000*%
%ADD11C,0.150000*%
%ADD12C,0.254000*%
%ADD13C,0.300000*%
%ADD14C,0.200000*%
%ADD15C,0.120000*%
%ADD16C,0.152500*%
%ADD17RoundRect,0.100000X0.130000X0.100000X-0.130000X0.100000X-0.130000X-0.100000X0.130000X-0.100000X0*%
%ADD18RoundRect,0.100000X-0.130000X-0.100000X0.130000X-0.100000X0.130000X0.100000X-0.130000X0.100000X0*%
%ADD19RoundRect,0.100000X0.100000X-0.130000X0.100000X0.130000X-0.100000X0.130000X-0.100000X-0.130000X0*%
%ADD20O,0.280000X1.100000*%
%ADD21O,1.100000X0.280000*%
%ADD22R,4.100000X4.100000*%
%ADD23RoundRect,0.100000X-0.100000X0.130000X-0.100000X-0.130000X0.100000X-0.130000X0.100000X0.130000X0*%
%ADD24O,0.900000X0.280000*%
%ADD25O,0.280000X0.900000*%
%ADD26R,3.200000X3.200000*%
%ADD27O,1.000000X2.100000*%
%ADD28O,1.000000X1.800000*%
%ADD29R,0.600000X1.150000*%
%ADD30R,0.300000X1.150000*%
%ADD31R,1.700000X1.700000*%
%ADD32O,1.700000X1.700000*%
%ADD33RoundRect,0.250000X-0.275000X0.287500X-0.275000X-0.287500X0.275000X-0.287500X0.275000X0.287500X0*%
%ADD34R,1.200000X1.400000*%
%ADD35R,2.500000X1.100000*%
%ADD36R,2.340000X3.600000*%
G04 APERTURE END LIST*
D10*
X40000000Y-40500000D02*
X37000000Y-40500000D01*
X21899122Y-54787651D02*
X21899122Y-55320985D01*
X21684836Y-54787651D02*
X21684836Y-55206699D01*
X21684836Y-55206699D02*
X21708646Y-55282890D01*
X21708646Y-55282890D02*
X21756265Y-55320985D01*
X21756265Y-55320985D02*
X21827693Y-55320985D01*
X21827693Y-55320985D02*
X21875312Y-55282890D01*
X21875312Y-55282890D02*
X21899122Y-55244794D01*
X22113408Y-55282890D02*
X22161027Y-55320985D01*
X22161027Y-55320985D02*
X22256265Y-55320985D01*
X22256265Y-55320985D02*
X22303884Y-55282890D01*
X22303884Y-55282890D02*
X22327693Y-55206699D01*
X22327693Y-55206699D02*
X22327693Y-55168604D01*
X22327693Y-55168604D02*
X22303884Y-55092413D01*
X22303884Y-55092413D02*
X22256265Y-55054318D01*
X22256265Y-55054318D02*
X22184836Y-55054318D01*
X22184836Y-55054318D02*
X22137217Y-55016223D01*
X22137217Y-55016223D02*
X22113408Y-54940032D01*
X22113408Y-54940032D02*
X22113408Y-54901937D01*
X22113408Y-54901937D02*
X22137217Y-54825747D01*
X22137217Y-54825747D02*
X22184836Y-54787651D01*
X22184836Y-54787651D02*
X22256265Y-54787651D01*
X22256265Y-54787651D02*
X22303884Y-54825747D01*
X22541979Y-55320985D02*
X22541979Y-54520985D01*
X22541979Y-54825747D02*
X22589598Y-54787651D01*
X22589598Y-54787651D02*
X22684836Y-54787651D01*
X22684836Y-54787651D02*
X22732455Y-54825747D01*
X22732455Y-54825747D02*
X22756265Y-54863842D01*
X22756265Y-54863842D02*
X22780074Y-54940032D01*
X22780074Y-54940032D02*
X22780074Y-55168604D01*
X22780074Y-55168604D02*
X22756265Y-55244794D01*
X22756265Y-55244794D02*
X22732455Y-55282890D01*
X22732455Y-55282890D02*
X22684836Y-55320985D01*
X22684836Y-55320985D02*
X22589598Y-55320985D01*
X22589598Y-55320985D02*
X22541979Y-55282890D01*
X22994360Y-55016223D02*
X23375313Y-55016223D01*
X23899122Y-55244794D02*
X23875313Y-55282890D01*
X23875313Y-55282890D02*
X23803884Y-55320985D01*
X23803884Y-55320985D02*
X23756265Y-55320985D01*
X23756265Y-55320985D02*
X23684837Y-55282890D01*
X23684837Y-55282890D02*
X23637218Y-55206699D01*
X23637218Y-55206699D02*
X23613408Y-55130509D01*
X23613408Y-55130509D02*
X23589599Y-54978128D01*
X23589599Y-54978128D02*
X23589599Y-54863842D01*
X23589599Y-54863842D02*
X23613408Y-54711461D01*
X23613408Y-54711461D02*
X23637218Y-54635270D01*
X23637218Y-54635270D02*
X23684837Y-54559080D01*
X23684837Y-54559080D02*
X23756265Y-54520985D01*
X23756265Y-54520985D02*
X23803884Y-54520985D01*
X23803884Y-54520985D02*
X23875313Y-54559080D01*
X23875313Y-54559080D02*
X23899122Y-54597175D01*
X24422932Y-54787651D02*
X24613408Y-54787651D01*
X24494360Y-54520985D02*
X24494360Y-55206699D01*
X24494360Y-55206699D02*
X24518170Y-55282890D01*
X24518170Y-55282890D02*
X24565789Y-55320985D01*
X24565789Y-55320985D02*
X24613408Y-55320985D01*
X24851503Y-55320985D02*
X24803884Y-55282890D01*
X24803884Y-55282890D02*
X24780074Y-55244794D01*
X24780074Y-55244794D02*
X24756265Y-55168604D01*
X24756265Y-55168604D02*
X24756265Y-54940032D01*
X24756265Y-54940032D02*
X24780074Y-54863842D01*
X24780074Y-54863842D02*
X24803884Y-54825747D01*
X24803884Y-54825747D02*
X24851503Y-54787651D01*
X24851503Y-54787651D02*
X24922931Y-54787651D01*
X24922931Y-54787651D02*
X24970550Y-54825747D01*
X24970550Y-54825747D02*
X24994360Y-54863842D01*
X24994360Y-54863842D02*
X25018169Y-54940032D01*
X25018169Y-54940032D02*
X25018169Y-55168604D01*
X25018169Y-55168604D02*
X24994360Y-55244794D01*
X24994360Y-55244794D02*
X24970550Y-55282890D01*
X24970550Y-55282890D02*
X24922931Y-55320985D01*
X24922931Y-55320985D02*
X24851503Y-55320985D01*
X25827693Y-54787651D02*
X25827693Y-55320985D01*
X25708645Y-54482890D02*
X25589598Y-55054318D01*
X25589598Y-55054318D02*
X25899121Y-55054318D01*
X26041978Y-55320985D02*
X26303883Y-54787651D01*
X26041978Y-54787651D02*
X26303883Y-55320985D01*
X26875311Y-54520985D02*
X26875311Y-55168604D01*
X26875311Y-55168604D02*
X26899121Y-55244794D01*
X26899121Y-55244794D02*
X26922930Y-55282890D01*
X26922930Y-55282890D02*
X26970549Y-55320985D01*
X26970549Y-55320985D02*
X27065787Y-55320985D01*
X27065787Y-55320985D02*
X27113406Y-55282890D01*
X27113406Y-55282890D02*
X27137216Y-55244794D01*
X27137216Y-55244794D02*
X27161025Y-55168604D01*
X27161025Y-55168604D02*
X27161025Y-54520985D01*
X27613407Y-55320985D02*
X27613407Y-54901937D01*
X27613407Y-54901937D02*
X27589597Y-54825747D01*
X27589597Y-54825747D02*
X27541978Y-54787651D01*
X27541978Y-54787651D02*
X27446740Y-54787651D01*
X27446740Y-54787651D02*
X27399121Y-54825747D01*
X27613407Y-55282890D02*
X27565788Y-55320985D01*
X27565788Y-55320985D02*
X27446740Y-55320985D01*
X27446740Y-55320985D02*
X27399121Y-55282890D01*
X27399121Y-55282890D02*
X27375312Y-55206699D01*
X27375312Y-55206699D02*
X27375312Y-55130509D01*
X27375312Y-55130509D02*
X27399121Y-55054318D01*
X27399121Y-55054318D02*
X27446740Y-55016223D01*
X27446740Y-55016223D02*
X27565788Y-55016223D01*
X27565788Y-55016223D02*
X27613407Y-54978128D01*
X27851502Y-55320985D02*
X27851502Y-54787651D01*
X27851502Y-54940032D02*
X27875312Y-54863842D01*
X27875312Y-54863842D02*
X27899121Y-54825747D01*
X27899121Y-54825747D02*
X27946740Y-54787651D01*
X27946740Y-54787651D02*
X27994359Y-54787651D01*
X28089598Y-54787651D02*
X28280074Y-54787651D01*
X28161026Y-54520985D02*
X28161026Y-55206699D01*
X28161026Y-55206699D02*
X28184836Y-55282890D01*
X28184836Y-55282890D02*
X28232455Y-55320985D01*
X28232455Y-55320985D02*
X28280074Y-55320985D01*
X21970550Y-56608940D02*
X21803884Y-56227987D01*
X21684836Y-56608940D02*
X21684836Y-55808940D01*
X21684836Y-55808940D02*
X21875312Y-55808940D01*
X21875312Y-55808940D02*
X21922931Y-55847035D01*
X21922931Y-55847035D02*
X21946741Y-55885130D01*
X21946741Y-55885130D02*
X21970550Y-55961321D01*
X21970550Y-55961321D02*
X21970550Y-56075606D01*
X21970550Y-56075606D02*
X21946741Y-56151797D01*
X21946741Y-56151797D02*
X21922931Y-56189892D01*
X21922931Y-56189892D02*
X21875312Y-56227987D01*
X21875312Y-56227987D02*
X21684836Y-56227987D01*
X22375312Y-56570845D02*
X22327693Y-56608940D01*
X22327693Y-56608940D02*
X22232455Y-56608940D01*
X22232455Y-56608940D02*
X22184836Y-56570845D01*
X22184836Y-56570845D02*
X22161027Y-56494654D01*
X22161027Y-56494654D02*
X22161027Y-56189892D01*
X22161027Y-56189892D02*
X22184836Y-56113702D01*
X22184836Y-56113702D02*
X22232455Y-56075606D01*
X22232455Y-56075606D02*
X22327693Y-56075606D01*
X22327693Y-56075606D02*
X22375312Y-56113702D01*
X22375312Y-56113702D02*
X22399122Y-56189892D01*
X22399122Y-56189892D02*
X22399122Y-56266083D01*
X22399122Y-56266083D02*
X22161027Y-56342273D01*
X22565788Y-56075606D02*
X22684836Y-56608940D01*
X22684836Y-56608940D02*
X22803883Y-56075606D01*
X22994359Y-56532749D02*
X23018169Y-56570845D01*
X23018169Y-56570845D02*
X22994359Y-56608940D01*
X22994359Y-56608940D02*
X22970550Y-56570845D01*
X22970550Y-56570845D02*
X22994359Y-56532749D01*
X22994359Y-56532749D02*
X22994359Y-56608940D01*
X23589597Y-56380368D02*
X23827692Y-56380368D01*
X23541978Y-56608940D02*
X23708644Y-55808940D01*
X23708644Y-55808940D02*
X23875311Y-56608940D01*
X24018168Y-56380368D02*
X24256263Y-56380368D01*
X23970549Y-56608940D02*
X24137215Y-55808940D01*
X24137215Y-55808940D02*
X24303882Y-56608940D01*
X21922931Y-57896895D02*
X21684836Y-57896895D01*
X21684836Y-57896895D02*
X21684836Y-57096895D01*
X22303884Y-57363561D02*
X22303884Y-57896895D01*
X22089598Y-57363561D02*
X22089598Y-57782609D01*
X22089598Y-57782609D02*
X22113408Y-57858800D01*
X22113408Y-57858800D02*
X22161027Y-57896895D01*
X22161027Y-57896895D02*
X22232455Y-57896895D01*
X22232455Y-57896895D02*
X22280074Y-57858800D01*
X22280074Y-57858800D02*
X22303884Y-57820704D01*
X22541979Y-57896895D02*
X22541979Y-57363561D01*
X22541979Y-57096895D02*
X22518170Y-57134990D01*
X22518170Y-57134990D02*
X22541979Y-57173085D01*
X22541979Y-57173085D02*
X22565789Y-57134990D01*
X22565789Y-57134990D02*
X22541979Y-57096895D01*
X22541979Y-57096895D02*
X22541979Y-57173085D01*
X22756265Y-57858800D02*
X22803884Y-57896895D01*
X22803884Y-57896895D02*
X22899122Y-57896895D01*
X22899122Y-57896895D02*
X22946741Y-57858800D01*
X22946741Y-57858800D02*
X22970550Y-57782609D01*
X22970550Y-57782609D02*
X22970550Y-57744514D01*
X22970550Y-57744514D02*
X22946741Y-57668323D01*
X22946741Y-57668323D02*
X22899122Y-57630228D01*
X22899122Y-57630228D02*
X22827693Y-57630228D01*
X22827693Y-57630228D02*
X22780074Y-57592133D01*
X22780074Y-57592133D02*
X22756265Y-57515942D01*
X22756265Y-57515942D02*
X22756265Y-57477847D01*
X22756265Y-57477847D02*
X22780074Y-57401657D01*
X22780074Y-57401657D02*
X22827693Y-57363561D01*
X22827693Y-57363561D02*
X22899122Y-57363561D01*
X22899122Y-57363561D02*
X22946741Y-57401657D01*
X23541979Y-57668323D02*
X23780074Y-57668323D01*
X23494360Y-57896895D02*
X23661026Y-57096895D01*
X23661026Y-57096895D02*
X23827693Y-57896895D01*
X24065788Y-57896895D02*
X24018169Y-57858800D01*
X24018169Y-57858800D02*
X23994359Y-57782609D01*
X23994359Y-57782609D02*
X23994359Y-57096895D01*
X24208645Y-57363561D02*
X24327693Y-57896895D01*
X24327693Y-57896895D02*
X24446740Y-57363561D01*
X24851502Y-57896895D02*
X24851502Y-57477847D01*
X24851502Y-57477847D02*
X24827692Y-57401657D01*
X24827692Y-57401657D02*
X24780073Y-57363561D01*
X24780073Y-57363561D02*
X24684835Y-57363561D01*
X24684835Y-57363561D02*
X24637216Y-57401657D01*
X24851502Y-57858800D02*
X24803883Y-57896895D01*
X24803883Y-57896895D02*
X24684835Y-57896895D01*
X24684835Y-57896895D02*
X24637216Y-57858800D01*
X24637216Y-57858800D02*
X24613407Y-57782609D01*
X24613407Y-57782609D02*
X24613407Y-57706419D01*
X24613407Y-57706419D02*
X24637216Y-57630228D01*
X24637216Y-57630228D02*
X24684835Y-57592133D01*
X24684835Y-57592133D02*
X24803883Y-57592133D01*
X24803883Y-57592133D02*
X24851502Y-57554038D01*
X25089597Y-57896895D02*
X25089597Y-57363561D01*
X25089597Y-57515942D02*
X25113407Y-57439752D01*
X25113407Y-57439752D02*
X25137216Y-57401657D01*
X25137216Y-57401657D02*
X25184835Y-57363561D01*
X25184835Y-57363561D02*
X25232454Y-57363561D01*
X25589597Y-57858800D02*
X25541978Y-57896895D01*
X25541978Y-57896895D02*
X25446740Y-57896895D01*
X25446740Y-57896895D02*
X25399121Y-57858800D01*
X25399121Y-57858800D02*
X25375312Y-57782609D01*
X25375312Y-57782609D02*
X25375312Y-57477847D01*
X25375312Y-57477847D02*
X25399121Y-57401657D01*
X25399121Y-57401657D02*
X25446740Y-57363561D01*
X25446740Y-57363561D02*
X25541978Y-57363561D01*
X25541978Y-57363561D02*
X25589597Y-57401657D01*
X25589597Y-57401657D02*
X25613407Y-57477847D01*
X25613407Y-57477847D02*
X25613407Y-57554038D01*
X25613407Y-57554038D02*
X25375312Y-57630228D01*
X25780073Y-57363561D02*
X26041978Y-57363561D01*
X26041978Y-57363561D02*
X25780073Y-57896895D01*
X25780073Y-57896895D02*
X26041978Y-57896895D01*
D11*
X29333333Y-46859580D02*
X29285714Y-46907200D01*
X29285714Y-46907200D02*
X29142857Y-46954819D01*
X29142857Y-46954819D02*
X29047619Y-46954819D01*
X29047619Y-46954819D02*
X28904762Y-46907200D01*
X28904762Y-46907200D02*
X28809524Y-46811961D01*
X28809524Y-46811961D02*
X28761905Y-46716723D01*
X28761905Y-46716723D02*
X28714286Y-46526247D01*
X28714286Y-46526247D02*
X28714286Y-46383390D01*
X28714286Y-46383390D02*
X28761905Y-46192914D01*
X28761905Y-46192914D02*
X28809524Y-46097676D01*
X28809524Y-46097676D02*
X28904762Y-46002438D01*
X28904762Y-46002438D02*
X29047619Y-45954819D01*
X29047619Y-45954819D02*
X29142857Y-45954819D01*
X29142857Y-45954819D02*
X29285714Y-46002438D01*
X29285714Y-46002438D02*
X29333333Y-46050057D01*
X29904762Y-46383390D02*
X29809524Y-46335771D01*
X29809524Y-46335771D02*
X29761905Y-46288152D01*
X29761905Y-46288152D02*
X29714286Y-46192914D01*
X29714286Y-46192914D02*
X29714286Y-46145295D01*
X29714286Y-46145295D02*
X29761905Y-46050057D01*
X29761905Y-46050057D02*
X29809524Y-46002438D01*
X29809524Y-46002438D02*
X29904762Y-45954819D01*
X29904762Y-45954819D02*
X30095238Y-45954819D01*
X30095238Y-45954819D02*
X30190476Y-46002438D01*
X30190476Y-46002438D02*
X30238095Y-46050057D01*
X30238095Y-46050057D02*
X30285714Y-46145295D01*
X30285714Y-46145295D02*
X30285714Y-46192914D01*
X30285714Y-46192914D02*
X30238095Y-46288152D01*
X30238095Y-46288152D02*
X30190476Y-46335771D01*
X30190476Y-46335771D02*
X30095238Y-46383390D01*
X30095238Y-46383390D02*
X29904762Y-46383390D01*
X29904762Y-46383390D02*
X29809524Y-46431009D01*
X29809524Y-46431009D02*
X29761905Y-46478628D01*
X29761905Y-46478628D02*
X29714286Y-46573866D01*
X29714286Y-46573866D02*
X29714286Y-46764342D01*
X29714286Y-46764342D02*
X29761905Y-46859580D01*
X29761905Y-46859580D02*
X29809524Y-46907200D01*
X29809524Y-46907200D02*
X29904762Y-46954819D01*
X29904762Y-46954819D02*
X30095238Y-46954819D01*
X30095238Y-46954819D02*
X30190476Y-46907200D01*
X30190476Y-46907200D02*
X30238095Y-46859580D01*
X30238095Y-46859580D02*
X30285714Y-46764342D01*
X30285714Y-46764342D02*
X30285714Y-46573866D01*
X30285714Y-46573866D02*
X30238095Y-46478628D01*
X30238095Y-46478628D02*
X30190476Y-46431009D01*
X30190476Y-46431009D02*
X30095238Y-46383390D01*
X27333333Y-28004819D02*
X27000000Y-27528628D01*
X26761905Y-28004819D02*
X26761905Y-27004819D01*
X26761905Y-27004819D02*
X27142857Y-27004819D01*
X27142857Y-27004819D02*
X27238095Y-27052438D01*
X27238095Y-27052438D02*
X27285714Y-27100057D01*
X27285714Y-27100057D02*
X27333333Y-27195295D01*
X27333333Y-27195295D02*
X27333333Y-27338152D01*
X27333333Y-27338152D02*
X27285714Y-27433390D01*
X27285714Y-27433390D02*
X27238095Y-27481009D01*
X27238095Y-27481009D02*
X27142857Y-27528628D01*
X27142857Y-27528628D02*
X26761905Y-27528628D01*
X27714286Y-27100057D02*
X27761905Y-27052438D01*
X27761905Y-27052438D02*
X27857143Y-27004819D01*
X27857143Y-27004819D02*
X28095238Y-27004819D01*
X28095238Y-27004819D02*
X28190476Y-27052438D01*
X28190476Y-27052438D02*
X28238095Y-27100057D01*
X28238095Y-27100057D02*
X28285714Y-27195295D01*
X28285714Y-27195295D02*
X28285714Y-27290533D01*
X28285714Y-27290533D02*
X28238095Y-27433390D01*
X28238095Y-27433390D02*
X27666667Y-28004819D01*
X27666667Y-28004819D02*
X28285714Y-28004819D01*
X42833333Y-52859580D02*
X42785714Y-52907200D01*
X42785714Y-52907200D02*
X42642857Y-52954819D01*
X42642857Y-52954819D02*
X42547619Y-52954819D01*
X42547619Y-52954819D02*
X42404762Y-52907200D01*
X42404762Y-52907200D02*
X42309524Y-52811961D01*
X42309524Y-52811961D02*
X42261905Y-52716723D01*
X42261905Y-52716723D02*
X42214286Y-52526247D01*
X42214286Y-52526247D02*
X42214286Y-52383390D01*
X42214286Y-52383390D02*
X42261905Y-52192914D01*
X42261905Y-52192914D02*
X42309524Y-52097676D01*
X42309524Y-52097676D02*
X42404762Y-52002438D01*
X42404762Y-52002438D02*
X42547619Y-51954819D01*
X42547619Y-51954819D02*
X42642857Y-51954819D01*
X42642857Y-51954819D02*
X42785714Y-52002438D01*
X42785714Y-52002438D02*
X42833333Y-52050057D01*
X43690476Y-52288152D02*
X43690476Y-52954819D01*
X43452381Y-51907200D02*
X43214286Y-52621485D01*
X43214286Y-52621485D02*
X43833333Y-52621485D01*
X31859580Y-56832857D02*
X31907200Y-56880476D01*
X31907200Y-56880476D02*
X31954819Y-57023333D01*
X31954819Y-57023333D02*
X31954819Y-57118571D01*
X31954819Y-57118571D02*
X31907200Y-57261428D01*
X31907200Y-57261428D02*
X31811961Y-57356666D01*
X31811961Y-57356666D02*
X31716723Y-57404285D01*
X31716723Y-57404285D02*
X31526247Y-57451904D01*
X31526247Y-57451904D02*
X31383390Y-57451904D01*
X31383390Y-57451904D02*
X31192914Y-57404285D01*
X31192914Y-57404285D02*
X31097676Y-57356666D01*
X31097676Y-57356666D02*
X31002438Y-57261428D01*
X31002438Y-57261428D02*
X30954819Y-57118571D01*
X30954819Y-57118571D02*
X30954819Y-57023333D01*
X30954819Y-57023333D02*
X31002438Y-56880476D01*
X31002438Y-56880476D02*
X31050057Y-56832857D01*
X31954819Y-55880476D02*
X31954819Y-56451904D01*
X31954819Y-56166190D02*
X30954819Y-56166190D01*
X30954819Y-56166190D02*
X31097676Y-56261428D01*
X31097676Y-56261428D02*
X31192914Y-56356666D01*
X31192914Y-56356666D02*
X31240533Y-56451904D01*
X31954819Y-55404285D02*
X31954819Y-55213809D01*
X31954819Y-55213809D02*
X31907200Y-55118571D01*
X31907200Y-55118571D02*
X31859580Y-55070952D01*
X31859580Y-55070952D02*
X31716723Y-54975714D01*
X31716723Y-54975714D02*
X31526247Y-54928095D01*
X31526247Y-54928095D02*
X31145295Y-54928095D01*
X31145295Y-54928095D02*
X31050057Y-54975714D01*
X31050057Y-54975714D02*
X31002438Y-55023333D01*
X31002438Y-55023333D02*
X30954819Y-55118571D01*
X30954819Y-55118571D02*
X30954819Y-55309047D01*
X30954819Y-55309047D02*
X31002438Y-55404285D01*
X31002438Y-55404285D02*
X31050057Y-55451904D01*
X31050057Y-55451904D02*
X31145295Y-55499523D01*
X31145295Y-55499523D02*
X31383390Y-55499523D01*
X31383390Y-55499523D02*
X31478628Y-55451904D01*
X31478628Y-55451904D02*
X31526247Y-55404285D01*
X31526247Y-55404285D02*
X31573866Y-55309047D01*
X31573866Y-55309047D02*
X31573866Y-55118571D01*
X31573866Y-55118571D02*
X31526247Y-55023333D01*
X31526247Y-55023333D02*
X31478628Y-54975714D01*
X31478628Y-54975714D02*
X31383390Y-54928095D01*
X34359580Y-67142857D02*
X34407200Y-67190476D01*
X34407200Y-67190476D02*
X34454819Y-67333333D01*
X34454819Y-67333333D02*
X34454819Y-67428571D01*
X34454819Y-67428571D02*
X34407200Y-67571428D01*
X34407200Y-67571428D02*
X34311961Y-67666666D01*
X34311961Y-67666666D02*
X34216723Y-67714285D01*
X34216723Y-67714285D02*
X34026247Y-67761904D01*
X34026247Y-67761904D02*
X33883390Y-67761904D01*
X33883390Y-67761904D02*
X33692914Y-67714285D01*
X33692914Y-67714285D02*
X33597676Y-67666666D01*
X33597676Y-67666666D02*
X33502438Y-67571428D01*
X33502438Y-67571428D02*
X33454819Y-67428571D01*
X33454819Y-67428571D02*
X33454819Y-67333333D01*
X33454819Y-67333333D02*
X33502438Y-67190476D01*
X33502438Y-67190476D02*
X33550057Y-67142857D01*
X33550057Y-66761904D02*
X33502438Y-66714285D01*
X33502438Y-66714285D02*
X33454819Y-66619047D01*
X33454819Y-66619047D02*
X33454819Y-66380952D01*
X33454819Y-66380952D02*
X33502438Y-66285714D01*
X33502438Y-66285714D02*
X33550057Y-66238095D01*
X33550057Y-66238095D02*
X33645295Y-66190476D01*
X33645295Y-66190476D02*
X33740533Y-66190476D01*
X33740533Y-66190476D02*
X33883390Y-66238095D01*
X33883390Y-66238095D02*
X34454819Y-66809523D01*
X34454819Y-66809523D02*
X34454819Y-66190476D01*
X34454819Y-65238095D02*
X34454819Y-65809523D01*
X34454819Y-65523809D02*
X33454819Y-65523809D01*
X33454819Y-65523809D02*
X33597676Y-65619047D01*
X33597676Y-65619047D02*
X33692914Y-65714285D01*
X33692914Y-65714285D02*
X33740533Y-65809523D01*
X42988333Y-54454819D02*
X42655000Y-53978628D01*
X42416905Y-54454819D02*
X42416905Y-53454819D01*
X42416905Y-53454819D02*
X42797857Y-53454819D01*
X42797857Y-53454819D02*
X42893095Y-53502438D01*
X42893095Y-53502438D02*
X42940714Y-53550057D01*
X42940714Y-53550057D02*
X42988333Y-53645295D01*
X42988333Y-53645295D02*
X42988333Y-53788152D01*
X42988333Y-53788152D02*
X42940714Y-53883390D01*
X42940714Y-53883390D02*
X42893095Y-53931009D01*
X42893095Y-53931009D02*
X42797857Y-53978628D01*
X42797857Y-53978628D02*
X42416905Y-53978628D01*
X43845476Y-53788152D02*
X43845476Y-54454819D01*
X43607381Y-53407200D02*
X43369286Y-54121485D01*
X43369286Y-54121485D02*
X43988333Y-54121485D01*
X23761905Y-37954819D02*
X23761905Y-36954819D01*
X23761905Y-36954819D02*
X24000000Y-36954819D01*
X24000000Y-36954819D02*
X24142857Y-37002438D01*
X24142857Y-37002438D02*
X24238095Y-37097676D01*
X24238095Y-37097676D02*
X24285714Y-37192914D01*
X24285714Y-37192914D02*
X24333333Y-37383390D01*
X24333333Y-37383390D02*
X24333333Y-37526247D01*
X24333333Y-37526247D02*
X24285714Y-37716723D01*
X24285714Y-37716723D02*
X24238095Y-37811961D01*
X24238095Y-37811961D02*
X24142857Y-37907200D01*
X24142857Y-37907200D02*
X24000000Y-37954819D01*
X24000000Y-37954819D02*
X23761905Y-37954819D01*
X25285714Y-37954819D02*
X24714286Y-37954819D01*
X25000000Y-37954819D02*
X25000000Y-36954819D01*
X25000000Y-36954819D02*
X24904762Y-37097676D01*
X24904762Y-37097676D02*
X24809524Y-37192914D01*
X24809524Y-37192914D02*
X24714286Y-37240533D01*
X41454819Y-40142857D02*
X40978628Y-40476190D01*
X41454819Y-40714285D02*
X40454819Y-40714285D01*
X40454819Y-40714285D02*
X40454819Y-40333333D01*
X40454819Y-40333333D02*
X40502438Y-40238095D01*
X40502438Y-40238095D02*
X40550057Y-40190476D01*
X40550057Y-40190476D02*
X40645295Y-40142857D01*
X40645295Y-40142857D02*
X40788152Y-40142857D01*
X40788152Y-40142857D02*
X40883390Y-40190476D01*
X40883390Y-40190476D02*
X40931009Y-40238095D01*
X40931009Y-40238095D02*
X40978628Y-40333333D01*
X40978628Y-40333333D02*
X40978628Y-40714285D01*
X41454819Y-39190476D02*
X41454819Y-39761904D01*
X41454819Y-39476190D02*
X40454819Y-39476190D01*
X40454819Y-39476190D02*
X40597676Y-39571428D01*
X40597676Y-39571428D02*
X40692914Y-39666666D01*
X40692914Y-39666666D02*
X40740533Y-39761904D01*
X40550057Y-38809523D02*
X40502438Y-38761904D01*
X40502438Y-38761904D02*
X40454819Y-38666666D01*
X40454819Y-38666666D02*
X40454819Y-38428571D01*
X40454819Y-38428571D02*
X40502438Y-38333333D01*
X40502438Y-38333333D02*
X40550057Y-38285714D01*
X40550057Y-38285714D02*
X40645295Y-38238095D01*
X40645295Y-38238095D02*
X40740533Y-38238095D01*
X40740533Y-38238095D02*
X40883390Y-38285714D01*
X40883390Y-38285714D02*
X41454819Y-38857142D01*
X41454819Y-38857142D02*
X41454819Y-38238095D01*
X39333333Y-26954819D02*
X39000000Y-26478628D01*
X38761905Y-26954819D02*
X38761905Y-25954819D01*
X38761905Y-25954819D02*
X39142857Y-25954819D01*
X39142857Y-25954819D02*
X39238095Y-26002438D01*
X39238095Y-26002438D02*
X39285714Y-26050057D01*
X39285714Y-26050057D02*
X39333333Y-26145295D01*
X39333333Y-26145295D02*
X39333333Y-26288152D01*
X39333333Y-26288152D02*
X39285714Y-26383390D01*
X39285714Y-26383390D02*
X39238095Y-26431009D01*
X39238095Y-26431009D02*
X39142857Y-26478628D01*
X39142857Y-26478628D02*
X38761905Y-26478628D01*
X40285714Y-26954819D02*
X39714286Y-26954819D01*
X40000000Y-26954819D02*
X40000000Y-25954819D01*
X40000000Y-25954819D02*
X39904762Y-26097676D01*
X39904762Y-26097676D02*
X39809524Y-26192914D01*
X39809524Y-26192914D02*
X39714286Y-26240533D01*
X41738095Y-40454819D02*
X41738095Y-41264342D01*
X41738095Y-41264342D02*
X41785714Y-41359580D01*
X41785714Y-41359580D02*
X41833333Y-41407200D01*
X41833333Y-41407200D02*
X41928571Y-41454819D01*
X41928571Y-41454819D02*
X42119047Y-41454819D01*
X42119047Y-41454819D02*
X42214285Y-41407200D01*
X42214285Y-41407200D02*
X42261904Y-41359580D01*
X42261904Y-41359580D02*
X42309523Y-41264342D01*
X42309523Y-41264342D02*
X42309523Y-40454819D01*
X42738095Y-40550057D02*
X42785714Y-40502438D01*
X42785714Y-40502438D02*
X42880952Y-40454819D01*
X42880952Y-40454819D02*
X43119047Y-40454819D01*
X43119047Y-40454819D02*
X43214285Y-40502438D01*
X43214285Y-40502438D02*
X43261904Y-40550057D01*
X43261904Y-40550057D02*
X43309523Y-40645295D01*
X43309523Y-40645295D02*
X43309523Y-40740533D01*
X43309523Y-40740533D02*
X43261904Y-40883390D01*
X43261904Y-40883390D02*
X42690476Y-41454819D01*
X42690476Y-41454819D02*
X43309523Y-41454819D01*
X21454819Y-48666666D02*
X20978628Y-48999999D01*
X21454819Y-49238094D02*
X20454819Y-49238094D01*
X20454819Y-49238094D02*
X20454819Y-48857142D01*
X20454819Y-48857142D02*
X20502438Y-48761904D01*
X20502438Y-48761904D02*
X20550057Y-48714285D01*
X20550057Y-48714285D02*
X20645295Y-48666666D01*
X20645295Y-48666666D02*
X20788152Y-48666666D01*
X20788152Y-48666666D02*
X20883390Y-48714285D01*
X20883390Y-48714285D02*
X20931009Y-48761904D01*
X20931009Y-48761904D02*
X20978628Y-48857142D01*
X20978628Y-48857142D02*
X20978628Y-49238094D01*
X20454819Y-47809523D02*
X20454819Y-47999999D01*
X20454819Y-47999999D02*
X20502438Y-48095237D01*
X20502438Y-48095237D02*
X20550057Y-48142856D01*
X20550057Y-48142856D02*
X20692914Y-48238094D01*
X20692914Y-48238094D02*
X20883390Y-48285713D01*
X20883390Y-48285713D02*
X21264342Y-48285713D01*
X21264342Y-48285713D02*
X21359580Y-48238094D01*
X21359580Y-48238094D02*
X21407200Y-48190475D01*
X21407200Y-48190475D02*
X21454819Y-48095237D01*
X21454819Y-48095237D02*
X21454819Y-47904761D01*
X21454819Y-47904761D02*
X21407200Y-47809523D01*
X21407200Y-47809523D02*
X21359580Y-47761904D01*
X21359580Y-47761904D02*
X21264342Y-47714285D01*
X21264342Y-47714285D02*
X21026247Y-47714285D01*
X21026247Y-47714285D02*
X20931009Y-47761904D01*
X20931009Y-47761904D02*
X20883390Y-47809523D01*
X20883390Y-47809523D02*
X20835771Y-47904761D01*
X20835771Y-47904761D02*
X20835771Y-48095237D01*
X20835771Y-48095237D02*
X20883390Y-48190475D01*
X20883390Y-48190475D02*
X20931009Y-48238094D01*
X20931009Y-48238094D02*
X21026247Y-48285713D01*
X39454819Y-34166666D02*
X38978628Y-34499999D01*
X39454819Y-34738094D02*
X38454819Y-34738094D01*
X38454819Y-34738094D02*
X38454819Y-34357142D01*
X38454819Y-34357142D02*
X38502438Y-34261904D01*
X38502438Y-34261904D02*
X38550057Y-34214285D01*
X38550057Y-34214285D02*
X38645295Y-34166666D01*
X38645295Y-34166666D02*
X38788152Y-34166666D01*
X38788152Y-34166666D02*
X38883390Y-34214285D01*
X38883390Y-34214285D02*
X38931009Y-34261904D01*
X38931009Y-34261904D02*
X38978628Y-34357142D01*
X38978628Y-34357142D02*
X38978628Y-34738094D01*
X39454819Y-33690475D02*
X39454819Y-33499999D01*
X39454819Y-33499999D02*
X39407200Y-33404761D01*
X39407200Y-33404761D02*
X39359580Y-33357142D01*
X39359580Y-33357142D02*
X39216723Y-33261904D01*
X39216723Y-33261904D02*
X39026247Y-33214285D01*
X39026247Y-33214285D02*
X38645295Y-33214285D01*
X38645295Y-33214285D02*
X38550057Y-33261904D01*
X38550057Y-33261904D02*
X38502438Y-33309523D01*
X38502438Y-33309523D02*
X38454819Y-33404761D01*
X38454819Y-33404761D02*
X38454819Y-33595237D01*
X38454819Y-33595237D02*
X38502438Y-33690475D01*
X38502438Y-33690475D02*
X38550057Y-33738094D01*
X38550057Y-33738094D02*
X38645295Y-33785713D01*
X38645295Y-33785713D02*
X38883390Y-33785713D01*
X38883390Y-33785713D02*
X38978628Y-33738094D01*
X38978628Y-33738094D02*
X39026247Y-33690475D01*
X39026247Y-33690475D02*
X39073866Y-33595237D01*
X39073866Y-33595237D02*
X39073866Y-33404761D01*
X39073866Y-33404761D02*
X39026247Y-33309523D01*
X39026247Y-33309523D02*
X38978628Y-33261904D01*
X38978628Y-33261904D02*
X38883390Y-33214285D01*
X39954819Y-37642857D02*
X39478628Y-37976190D01*
X39954819Y-38214285D02*
X38954819Y-38214285D01*
X38954819Y-38214285D02*
X38954819Y-37833333D01*
X38954819Y-37833333D02*
X39002438Y-37738095D01*
X39002438Y-37738095D02*
X39050057Y-37690476D01*
X39050057Y-37690476D02*
X39145295Y-37642857D01*
X39145295Y-37642857D02*
X39288152Y-37642857D01*
X39288152Y-37642857D02*
X39383390Y-37690476D01*
X39383390Y-37690476D02*
X39431009Y-37738095D01*
X39431009Y-37738095D02*
X39478628Y-37833333D01*
X39478628Y-37833333D02*
X39478628Y-38214285D01*
X39954819Y-36690476D02*
X39954819Y-37261904D01*
X39954819Y-36976190D02*
X38954819Y-36976190D01*
X38954819Y-36976190D02*
X39097676Y-37071428D01*
X39097676Y-37071428D02*
X39192914Y-37166666D01*
X39192914Y-37166666D02*
X39240533Y-37261904D01*
X38954819Y-36357142D02*
X38954819Y-35738095D01*
X38954819Y-35738095D02*
X39335771Y-36071428D01*
X39335771Y-36071428D02*
X39335771Y-35928571D01*
X39335771Y-35928571D02*
X39383390Y-35833333D01*
X39383390Y-35833333D02*
X39431009Y-35785714D01*
X39431009Y-35785714D02*
X39526247Y-35738095D01*
X39526247Y-35738095D02*
X39764342Y-35738095D01*
X39764342Y-35738095D02*
X39859580Y-35785714D01*
X39859580Y-35785714D02*
X39907200Y-35833333D01*
X39907200Y-35833333D02*
X39954819Y-35928571D01*
X39954819Y-35928571D02*
X39954819Y-36214285D01*
X39954819Y-36214285D02*
X39907200Y-36309523D01*
X39907200Y-36309523D02*
X39859580Y-36357142D01*
X33717142Y-36859580D02*
X33669523Y-36907200D01*
X33669523Y-36907200D02*
X33526666Y-36954819D01*
X33526666Y-36954819D02*
X33431428Y-36954819D01*
X33431428Y-36954819D02*
X33288571Y-36907200D01*
X33288571Y-36907200D02*
X33193333Y-36811961D01*
X33193333Y-36811961D02*
X33145714Y-36716723D01*
X33145714Y-36716723D02*
X33098095Y-36526247D01*
X33098095Y-36526247D02*
X33098095Y-36383390D01*
X33098095Y-36383390D02*
X33145714Y-36192914D01*
X33145714Y-36192914D02*
X33193333Y-36097676D01*
X33193333Y-36097676D02*
X33288571Y-36002438D01*
X33288571Y-36002438D02*
X33431428Y-35954819D01*
X33431428Y-35954819D02*
X33526666Y-35954819D01*
X33526666Y-35954819D02*
X33669523Y-36002438D01*
X33669523Y-36002438D02*
X33717142Y-36050057D01*
X34669523Y-36954819D02*
X34098095Y-36954819D01*
X34383809Y-36954819D02*
X34383809Y-35954819D01*
X34383809Y-35954819D02*
X34288571Y-36097676D01*
X34288571Y-36097676D02*
X34193333Y-36192914D01*
X34193333Y-36192914D02*
X34098095Y-36240533D01*
X35288571Y-35954819D02*
X35383809Y-35954819D01*
X35383809Y-35954819D02*
X35479047Y-36002438D01*
X35479047Y-36002438D02*
X35526666Y-36050057D01*
X35526666Y-36050057D02*
X35574285Y-36145295D01*
X35574285Y-36145295D02*
X35621904Y-36335771D01*
X35621904Y-36335771D02*
X35621904Y-36573866D01*
X35621904Y-36573866D02*
X35574285Y-36764342D01*
X35574285Y-36764342D02*
X35526666Y-36859580D01*
X35526666Y-36859580D02*
X35479047Y-36907200D01*
X35479047Y-36907200D02*
X35383809Y-36954819D01*
X35383809Y-36954819D02*
X35288571Y-36954819D01*
X35288571Y-36954819D02*
X35193333Y-36907200D01*
X35193333Y-36907200D02*
X35145714Y-36859580D01*
X35145714Y-36859580D02*
X35098095Y-36764342D01*
X35098095Y-36764342D02*
X35050476Y-36573866D01*
X35050476Y-36573866D02*
X35050476Y-36335771D01*
X35050476Y-36335771D02*
X35098095Y-36145295D01*
X35098095Y-36145295D02*
X35145714Y-36050057D01*
X35145714Y-36050057D02*
X35193333Y-36002438D01*
X35193333Y-36002438D02*
X35288571Y-35954819D01*
X32804819Y-71261904D02*
X33614342Y-71261904D01*
X33614342Y-71261904D02*
X33709580Y-71214285D01*
X33709580Y-71214285D02*
X33757200Y-71166666D01*
X33757200Y-71166666D02*
X33804819Y-71071428D01*
X33804819Y-71071428D02*
X33804819Y-70880952D01*
X33804819Y-70880952D02*
X33757200Y-70785714D01*
X33757200Y-70785714D02*
X33709580Y-70738095D01*
X33709580Y-70738095D02*
X33614342Y-70690476D01*
X33614342Y-70690476D02*
X32804819Y-70690476D01*
X32804819Y-69785714D02*
X32804819Y-69976190D01*
X32804819Y-69976190D02*
X32852438Y-70071428D01*
X32852438Y-70071428D02*
X32900057Y-70119047D01*
X32900057Y-70119047D02*
X33042914Y-70214285D01*
X33042914Y-70214285D02*
X33233390Y-70261904D01*
X33233390Y-70261904D02*
X33614342Y-70261904D01*
X33614342Y-70261904D02*
X33709580Y-70214285D01*
X33709580Y-70214285D02*
X33757200Y-70166666D01*
X33757200Y-70166666D02*
X33804819Y-70071428D01*
X33804819Y-70071428D02*
X33804819Y-69880952D01*
X33804819Y-69880952D02*
X33757200Y-69785714D01*
X33757200Y-69785714D02*
X33709580Y-69738095D01*
X33709580Y-69738095D02*
X33614342Y-69690476D01*
X33614342Y-69690476D02*
X33376247Y-69690476D01*
X33376247Y-69690476D02*
X33281009Y-69738095D01*
X33281009Y-69738095D02*
X33233390Y-69785714D01*
X33233390Y-69785714D02*
X33185771Y-69880952D01*
X33185771Y-69880952D02*
X33185771Y-70071428D01*
X33185771Y-70071428D02*
X33233390Y-70166666D01*
X33233390Y-70166666D02*
X33281009Y-70214285D01*
X33281009Y-70214285D02*
X33376247Y-70261904D01*
X32357142Y-38359580D02*
X32309523Y-38407200D01*
X32309523Y-38407200D02*
X32166666Y-38454819D01*
X32166666Y-38454819D02*
X32071428Y-38454819D01*
X32071428Y-38454819D02*
X31928571Y-38407200D01*
X31928571Y-38407200D02*
X31833333Y-38311961D01*
X31833333Y-38311961D02*
X31785714Y-38216723D01*
X31785714Y-38216723D02*
X31738095Y-38026247D01*
X31738095Y-38026247D02*
X31738095Y-37883390D01*
X31738095Y-37883390D02*
X31785714Y-37692914D01*
X31785714Y-37692914D02*
X31833333Y-37597676D01*
X31833333Y-37597676D02*
X31928571Y-37502438D01*
X31928571Y-37502438D02*
X32071428Y-37454819D01*
X32071428Y-37454819D02*
X32166666Y-37454819D01*
X32166666Y-37454819D02*
X32309523Y-37502438D01*
X32309523Y-37502438D02*
X32357142Y-37550057D01*
X33309523Y-38454819D02*
X32738095Y-38454819D01*
X33023809Y-38454819D02*
X33023809Y-37454819D01*
X33023809Y-37454819D02*
X32928571Y-37597676D01*
X32928571Y-37597676D02*
X32833333Y-37692914D01*
X32833333Y-37692914D02*
X32738095Y-37740533D01*
X34166666Y-37788152D02*
X34166666Y-38454819D01*
X33928571Y-37407200D02*
X33690476Y-38121485D01*
X33690476Y-38121485D02*
X34309523Y-38121485D01*
X30761905Y-22049519D02*
X30761905Y-22859042D01*
X30761905Y-22859042D02*
X30809524Y-22954280D01*
X30809524Y-22954280D02*
X30857143Y-23001900D01*
X30857143Y-23001900D02*
X30952381Y-23049519D01*
X30952381Y-23049519D02*
X31142857Y-23049519D01*
X31142857Y-23049519D02*
X31238095Y-23001900D01*
X31238095Y-23001900D02*
X31285714Y-22954280D01*
X31285714Y-22954280D02*
X31333333Y-22859042D01*
X31333333Y-22859042D02*
X31333333Y-22049519D01*
X31761905Y-23001900D02*
X31904762Y-23049519D01*
X31904762Y-23049519D02*
X32142857Y-23049519D01*
X32142857Y-23049519D02*
X32238095Y-23001900D01*
X32238095Y-23001900D02*
X32285714Y-22954280D01*
X32285714Y-22954280D02*
X32333333Y-22859042D01*
X32333333Y-22859042D02*
X32333333Y-22763804D01*
X32333333Y-22763804D02*
X32285714Y-22668566D01*
X32285714Y-22668566D02*
X32238095Y-22620947D01*
X32238095Y-22620947D02*
X32142857Y-22573328D01*
X32142857Y-22573328D02*
X31952381Y-22525709D01*
X31952381Y-22525709D02*
X31857143Y-22478090D01*
X31857143Y-22478090D02*
X31809524Y-22430471D01*
X31809524Y-22430471D02*
X31761905Y-22335233D01*
X31761905Y-22335233D02*
X31761905Y-22239995D01*
X31761905Y-22239995D02*
X31809524Y-22144757D01*
X31809524Y-22144757D02*
X31857143Y-22097138D01*
X31857143Y-22097138D02*
X31952381Y-22049519D01*
X31952381Y-22049519D02*
X32190476Y-22049519D01*
X32190476Y-22049519D02*
X32333333Y-22097138D01*
X33095238Y-22525709D02*
X33238095Y-22573328D01*
X33238095Y-22573328D02*
X33285714Y-22620947D01*
X33285714Y-22620947D02*
X33333333Y-22716185D01*
X33333333Y-22716185D02*
X33333333Y-22859042D01*
X33333333Y-22859042D02*
X33285714Y-22954280D01*
X33285714Y-22954280D02*
X33238095Y-23001900D01*
X33238095Y-23001900D02*
X33142857Y-23049519D01*
X33142857Y-23049519D02*
X32761905Y-23049519D01*
X32761905Y-23049519D02*
X32761905Y-22049519D01*
X32761905Y-22049519D02*
X33095238Y-22049519D01*
X33095238Y-22049519D02*
X33190476Y-22097138D01*
X33190476Y-22097138D02*
X33238095Y-22144757D01*
X33238095Y-22144757D02*
X33285714Y-22239995D01*
X33285714Y-22239995D02*
X33285714Y-22335233D01*
X33285714Y-22335233D02*
X33238095Y-22430471D01*
X33238095Y-22430471D02*
X33190476Y-22478090D01*
X33190476Y-22478090D02*
X33095238Y-22525709D01*
X33095238Y-22525709D02*
X32761905Y-22525709D01*
X34285714Y-23049519D02*
X33714286Y-23049519D01*
X34000000Y-23049519D02*
X34000000Y-22049519D01*
X34000000Y-22049519D02*
X33904762Y-22192376D01*
X33904762Y-22192376D02*
X33809524Y-22287614D01*
X33809524Y-22287614D02*
X33714286Y-22335233D01*
X29859580Y-56832857D02*
X29907200Y-56880476D01*
X29907200Y-56880476D02*
X29954819Y-57023333D01*
X29954819Y-57023333D02*
X29954819Y-57118571D01*
X29954819Y-57118571D02*
X29907200Y-57261428D01*
X29907200Y-57261428D02*
X29811961Y-57356666D01*
X29811961Y-57356666D02*
X29716723Y-57404285D01*
X29716723Y-57404285D02*
X29526247Y-57451904D01*
X29526247Y-57451904D02*
X29383390Y-57451904D01*
X29383390Y-57451904D02*
X29192914Y-57404285D01*
X29192914Y-57404285D02*
X29097676Y-57356666D01*
X29097676Y-57356666D02*
X29002438Y-57261428D01*
X29002438Y-57261428D02*
X28954819Y-57118571D01*
X28954819Y-57118571D02*
X28954819Y-57023333D01*
X28954819Y-57023333D02*
X29002438Y-56880476D01*
X29002438Y-56880476D02*
X29050057Y-56832857D01*
X29954819Y-55880476D02*
X29954819Y-56451904D01*
X29954819Y-56166190D02*
X28954819Y-56166190D01*
X28954819Y-56166190D02*
X29097676Y-56261428D01*
X29097676Y-56261428D02*
X29192914Y-56356666D01*
X29192914Y-56356666D02*
X29240533Y-56451904D01*
X29383390Y-55309047D02*
X29335771Y-55404285D01*
X29335771Y-55404285D02*
X29288152Y-55451904D01*
X29288152Y-55451904D02*
X29192914Y-55499523D01*
X29192914Y-55499523D02*
X29145295Y-55499523D01*
X29145295Y-55499523D02*
X29050057Y-55451904D01*
X29050057Y-55451904D02*
X29002438Y-55404285D01*
X29002438Y-55404285D02*
X28954819Y-55309047D01*
X28954819Y-55309047D02*
X28954819Y-55118571D01*
X28954819Y-55118571D02*
X29002438Y-55023333D01*
X29002438Y-55023333D02*
X29050057Y-54975714D01*
X29050057Y-54975714D02*
X29145295Y-54928095D01*
X29145295Y-54928095D02*
X29192914Y-54928095D01*
X29192914Y-54928095D02*
X29288152Y-54975714D01*
X29288152Y-54975714D02*
X29335771Y-55023333D01*
X29335771Y-55023333D02*
X29383390Y-55118571D01*
X29383390Y-55118571D02*
X29383390Y-55309047D01*
X29383390Y-55309047D02*
X29431009Y-55404285D01*
X29431009Y-55404285D02*
X29478628Y-55451904D01*
X29478628Y-55451904D02*
X29573866Y-55499523D01*
X29573866Y-55499523D02*
X29764342Y-55499523D01*
X29764342Y-55499523D02*
X29859580Y-55451904D01*
X29859580Y-55451904D02*
X29907200Y-55404285D01*
X29907200Y-55404285D02*
X29954819Y-55309047D01*
X29954819Y-55309047D02*
X29954819Y-55118571D01*
X29954819Y-55118571D02*
X29907200Y-55023333D01*
X29907200Y-55023333D02*
X29859580Y-54975714D01*
X29859580Y-54975714D02*
X29764342Y-54928095D01*
X29764342Y-54928095D02*
X29573866Y-54928095D01*
X29573866Y-54928095D02*
X29478628Y-54975714D01*
X29478628Y-54975714D02*
X29431009Y-55023333D01*
X29431009Y-55023333D02*
X29383390Y-55118571D01*
X23804819Y-71261904D02*
X24614342Y-71261904D01*
X24614342Y-71261904D02*
X24709580Y-71214285D01*
X24709580Y-71214285D02*
X24757200Y-71166666D01*
X24757200Y-71166666D02*
X24804819Y-71071428D01*
X24804819Y-71071428D02*
X24804819Y-70880952D01*
X24804819Y-70880952D02*
X24757200Y-70785714D01*
X24757200Y-70785714D02*
X24709580Y-70738095D01*
X24709580Y-70738095D02*
X24614342Y-70690476D01*
X24614342Y-70690476D02*
X23804819Y-70690476D01*
X24138152Y-69785714D02*
X24804819Y-69785714D01*
X23757200Y-70023809D02*
X24471485Y-70261904D01*
X24471485Y-70261904D02*
X24471485Y-69642857D01*
X31857142Y-50359580D02*
X31809523Y-50407200D01*
X31809523Y-50407200D02*
X31666666Y-50454819D01*
X31666666Y-50454819D02*
X31571428Y-50454819D01*
X31571428Y-50454819D02*
X31428571Y-50407200D01*
X31428571Y-50407200D02*
X31333333Y-50311961D01*
X31333333Y-50311961D02*
X31285714Y-50216723D01*
X31285714Y-50216723D02*
X31238095Y-50026247D01*
X31238095Y-50026247D02*
X31238095Y-49883390D01*
X31238095Y-49883390D02*
X31285714Y-49692914D01*
X31285714Y-49692914D02*
X31333333Y-49597676D01*
X31333333Y-49597676D02*
X31428571Y-49502438D01*
X31428571Y-49502438D02*
X31571428Y-49454819D01*
X31571428Y-49454819D02*
X31666666Y-49454819D01*
X31666666Y-49454819D02*
X31809523Y-49502438D01*
X31809523Y-49502438D02*
X31857142Y-49550057D01*
X32809523Y-50454819D02*
X32238095Y-50454819D01*
X32523809Y-50454819D02*
X32523809Y-49454819D01*
X32523809Y-49454819D02*
X32428571Y-49597676D01*
X32428571Y-49597676D02*
X32333333Y-49692914D01*
X32333333Y-49692914D02*
X32238095Y-49740533D01*
X33714285Y-49454819D02*
X33238095Y-49454819D01*
X33238095Y-49454819D02*
X33190476Y-49931009D01*
X33190476Y-49931009D02*
X33238095Y-49883390D01*
X33238095Y-49883390D02*
X33333333Y-49835771D01*
X33333333Y-49835771D02*
X33571428Y-49835771D01*
X33571428Y-49835771D02*
X33666666Y-49883390D01*
X33666666Y-49883390D02*
X33714285Y-49931009D01*
X33714285Y-49931009D02*
X33761904Y-50026247D01*
X33761904Y-50026247D02*
X33761904Y-50264342D01*
X33761904Y-50264342D02*
X33714285Y-50359580D01*
X33714285Y-50359580D02*
X33666666Y-50407200D01*
X33666666Y-50407200D02*
X33571428Y-50454819D01*
X33571428Y-50454819D02*
X33333333Y-50454819D01*
X33333333Y-50454819D02*
X33238095Y-50407200D01*
X33238095Y-50407200D02*
X33190476Y-50359580D01*
X39299819Y-82838333D02*
X40014104Y-82838333D01*
X40014104Y-82838333D02*
X40156961Y-82885952D01*
X40156961Y-82885952D02*
X40252200Y-82981190D01*
X40252200Y-82981190D02*
X40299819Y-83124047D01*
X40299819Y-83124047D02*
X40299819Y-83219285D01*
X40299819Y-81838333D02*
X40299819Y-82409761D01*
X40299819Y-82124047D02*
X39299819Y-82124047D01*
X39299819Y-82124047D02*
X39442676Y-82219285D01*
X39442676Y-82219285D02*
X39537914Y-82314523D01*
X39537914Y-82314523D02*
X39585533Y-82409761D01*
X42859580Y-65142857D02*
X42907200Y-65190476D01*
X42907200Y-65190476D02*
X42954819Y-65333333D01*
X42954819Y-65333333D02*
X42954819Y-65428571D01*
X42954819Y-65428571D02*
X42907200Y-65571428D01*
X42907200Y-65571428D02*
X42811961Y-65666666D01*
X42811961Y-65666666D02*
X42716723Y-65714285D01*
X42716723Y-65714285D02*
X42526247Y-65761904D01*
X42526247Y-65761904D02*
X42383390Y-65761904D01*
X42383390Y-65761904D02*
X42192914Y-65714285D01*
X42192914Y-65714285D02*
X42097676Y-65666666D01*
X42097676Y-65666666D02*
X42002438Y-65571428D01*
X42002438Y-65571428D02*
X41954819Y-65428571D01*
X41954819Y-65428571D02*
X41954819Y-65333333D01*
X41954819Y-65333333D02*
X42002438Y-65190476D01*
X42002438Y-65190476D02*
X42050057Y-65142857D01*
X42050057Y-64761904D02*
X42002438Y-64714285D01*
X42002438Y-64714285D02*
X41954819Y-64619047D01*
X41954819Y-64619047D02*
X41954819Y-64380952D01*
X41954819Y-64380952D02*
X42002438Y-64285714D01*
X42002438Y-64285714D02*
X42050057Y-64238095D01*
X42050057Y-64238095D02*
X42145295Y-64190476D01*
X42145295Y-64190476D02*
X42240533Y-64190476D01*
X42240533Y-64190476D02*
X42383390Y-64238095D01*
X42383390Y-64238095D02*
X42954819Y-64809523D01*
X42954819Y-64809523D02*
X42954819Y-64190476D01*
X41954819Y-63285714D02*
X41954819Y-63761904D01*
X41954819Y-63761904D02*
X42431009Y-63809523D01*
X42431009Y-63809523D02*
X42383390Y-63761904D01*
X42383390Y-63761904D02*
X42335771Y-63666666D01*
X42335771Y-63666666D02*
X42335771Y-63428571D01*
X42335771Y-63428571D02*
X42383390Y-63333333D01*
X42383390Y-63333333D02*
X42431009Y-63285714D01*
X42431009Y-63285714D02*
X42526247Y-63238095D01*
X42526247Y-63238095D02*
X42764342Y-63238095D01*
X42764342Y-63238095D02*
X42859580Y-63285714D01*
X42859580Y-63285714D02*
X42907200Y-63333333D01*
X42907200Y-63333333D02*
X42954819Y-63428571D01*
X42954819Y-63428571D02*
X42954819Y-63666666D01*
X42954819Y-63666666D02*
X42907200Y-63761904D01*
X42907200Y-63761904D02*
X42859580Y-63809523D01*
X32859580Y-66797857D02*
X32907200Y-66845476D01*
X32907200Y-66845476D02*
X32954819Y-66988333D01*
X32954819Y-66988333D02*
X32954819Y-67083571D01*
X32954819Y-67083571D02*
X32907200Y-67226428D01*
X32907200Y-67226428D02*
X32811961Y-67321666D01*
X32811961Y-67321666D02*
X32716723Y-67369285D01*
X32716723Y-67369285D02*
X32526247Y-67416904D01*
X32526247Y-67416904D02*
X32383390Y-67416904D01*
X32383390Y-67416904D02*
X32192914Y-67369285D01*
X32192914Y-67369285D02*
X32097676Y-67321666D01*
X32097676Y-67321666D02*
X32002438Y-67226428D01*
X32002438Y-67226428D02*
X31954819Y-67083571D01*
X31954819Y-67083571D02*
X31954819Y-66988333D01*
X31954819Y-66988333D02*
X32002438Y-66845476D01*
X32002438Y-66845476D02*
X32050057Y-66797857D01*
X32050057Y-66416904D02*
X32002438Y-66369285D01*
X32002438Y-66369285D02*
X31954819Y-66274047D01*
X31954819Y-66274047D02*
X31954819Y-66035952D01*
X31954819Y-66035952D02*
X32002438Y-65940714D01*
X32002438Y-65940714D02*
X32050057Y-65893095D01*
X32050057Y-65893095D02*
X32145295Y-65845476D01*
X32145295Y-65845476D02*
X32240533Y-65845476D01*
X32240533Y-65845476D02*
X32383390Y-65893095D01*
X32383390Y-65893095D02*
X32954819Y-66464523D01*
X32954819Y-66464523D02*
X32954819Y-65845476D01*
X31954819Y-65226428D02*
X31954819Y-65131190D01*
X31954819Y-65131190D02*
X32002438Y-65035952D01*
X32002438Y-65035952D02*
X32050057Y-64988333D01*
X32050057Y-64988333D02*
X32145295Y-64940714D01*
X32145295Y-64940714D02*
X32335771Y-64893095D01*
X32335771Y-64893095D02*
X32573866Y-64893095D01*
X32573866Y-64893095D02*
X32764342Y-64940714D01*
X32764342Y-64940714D02*
X32859580Y-64988333D01*
X32859580Y-64988333D02*
X32907200Y-65035952D01*
X32907200Y-65035952D02*
X32954819Y-65131190D01*
X32954819Y-65131190D02*
X32954819Y-65226428D01*
X32954819Y-65226428D02*
X32907200Y-65321666D01*
X32907200Y-65321666D02*
X32859580Y-65369285D01*
X32859580Y-65369285D02*
X32764342Y-65416904D01*
X32764342Y-65416904D02*
X32573866Y-65464523D01*
X32573866Y-65464523D02*
X32335771Y-65464523D01*
X32335771Y-65464523D02*
X32145295Y-65416904D01*
X32145295Y-65416904D02*
X32050057Y-65369285D01*
X32050057Y-65369285D02*
X32002438Y-65321666D01*
X32002438Y-65321666D02*
X31954819Y-65226428D01*
X24303333Y-52859580D02*
X24255714Y-52907200D01*
X24255714Y-52907200D02*
X24112857Y-52954819D01*
X24112857Y-52954819D02*
X24017619Y-52954819D01*
X24017619Y-52954819D02*
X23874762Y-52907200D01*
X23874762Y-52907200D02*
X23779524Y-52811961D01*
X23779524Y-52811961D02*
X23731905Y-52716723D01*
X23731905Y-52716723D02*
X23684286Y-52526247D01*
X23684286Y-52526247D02*
X23684286Y-52383390D01*
X23684286Y-52383390D02*
X23731905Y-52192914D01*
X23731905Y-52192914D02*
X23779524Y-52097676D01*
X23779524Y-52097676D02*
X23874762Y-52002438D01*
X23874762Y-52002438D02*
X24017619Y-51954819D01*
X24017619Y-51954819D02*
X24112857Y-51954819D01*
X24112857Y-51954819D02*
X24255714Y-52002438D01*
X24255714Y-52002438D02*
X24303333Y-52050057D01*
X25160476Y-51954819D02*
X24970000Y-51954819D01*
X24970000Y-51954819D02*
X24874762Y-52002438D01*
X24874762Y-52002438D02*
X24827143Y-52050057D01*
X24827143Y-52050057D02*
X24731905Y-52192914D01*
X24731905Y-52192914D02*
X24684286Y-52383390D01*
X24684286Y-52383390D02*
X24684286Y-52764342D01*
X24684286Y-52764342D02*
X24731905Y-52859580D01*
X24731905Y-52859580D02*
X24779524Y-52907200D01*
X24779524Y-52907200D02*
X24874762Y-52954819D01*
X24874762Y-52954819D02*
X25065238Y-52954819D01*
X25065238Y-52954819D02*
X25160476Y-52907200D01*
X25160476Y-52907200D02*
X25208095Y-52859580D01*
X25208095Y-52859580D02*
X25255714Y-52764342D01*
X25255714Y-52764342D02*
X25255714Y-52526247D01*
X25255714Y-52526247D02*
X25208095Y-52431009D01*
X25208095Y-52431009D02*
X25160476Y-52383390D01*
X25160476Y-52383390D02*
X25065238Y-52335771D01*
X25065238Y-52335771D02*
X24874762Y-52335771D01*
X24874762Y-52335771D02*
X24779524Y-52383390D01*
X24779524Y-52383390D02*
X24731905Y-52431009D01*
X24731905Y-52431009D02*
X24684286Y-52526247D01*
X32804819Y-63261904D02*
X33614342Y-63261904D01*
X33614342Y-63261904D02*
X33709580Y-63214285D01*
X33709580Y-63214285D02*
X33757200Y-63166666D01*
X33757200Y-63166666D02*
X33804819Y-63071428D01*
X33804819Y-63071428D02*
X33804819Y-62880952D01*
X33804819Y-62880952D02*
X33757200Y-62785714D01*
X33757200Y-62785714D02*
X33709580Y-62738095D01*
X33709580Y-62738095D02*
X33614342Y-62690476D01*
X33614342Y-62690476D02*
X32804819Y-62690476D01*
X32804819Y-61738095D02*
X32804819Y-62214285D01*
X32804819Y-62214285D02*
X33281009Y-62261904D01*
X33281009Y-62261904D02*
X33233390Y-62214285D01*
X33233390Y-62214285D02*
X33185771Y-62119047D01*
X33185771Y-62119047D02*
X33185771Y-61880952D01*
X33185771Y-61880952D02*
X33233390Y-61785714D01*
X33233390Y-61785714D02*
X33281009Y-61738095D01*
X33281009Y-61738095D02*
X33376247Y-61690476D01*
X33376247Y-61690476D02*
X33614342Y-61690476D01*
X33614342Y-61690476D02*
X33709580Y-61738095D01*
X33709580Y-61738095D02*
X33757200Y-61785714D01*
X33757200Y-61785714D02*
X33804819Y-61880952D01*
X33804819Y-61880952D02*
X33804819Y-62119047D01*
X33804819Y-62119047D02*
X33757200Y-62214285D01*
X33757200Y-62214285D02*
X33709580Y-62261904D01*
X39357142Y-56359580D02*
X39309523Y-56407200D01*
X39309523Y-56407200D02*
X39166666Y-56454819D01*
X39166666Y-56454819D02*
X39071428Y-56454819D01*
X39071428Y-56454819D02*
X38928571Y-56407200D01*
X38928571Y-56407200D02*
X38833333Y-56311961D01*
X38833333Y-56311961D02*
X38785714Y-56216723D01*
X38785714Y-56216723D02*
X38738095Y-56026247D01*
X38738095Y-56026247D02*
X38738095Y-55883390D01*
X38738095Y-55883390D02*
X38785714Y-55692914D01*
X38785714Y-55692914D02*
X38833333Y-55597676D01*
X38833333Y-55597676D02*
X38928571Y-55502438D01*
X38928571Y-55502438D02*
X39071428Y-55454819D01*
X39071428Y-55454819D02*
X39166666Y-55454819D01*
X39166666Y-55454819D02*
X39309523Y-55502438D01*
X39309523Y-55502438D02*
X39357142Y-55550057D01*
X39738095Y-55550057D02*
X39785714Y-55502438D01*
X39785714Y-55502438D02*
X39880952Y-55454819D01*
X39880952Y-55454819D02*
X40119047Y-55454819D01*
X40119047Y-55454819D02*
X40214285Y-55502438D01*
X40214285Y-55502438D02*
X40261904Y-55550057D01*
X40261904Y-55550057D02*
X40309523Y-55645295D01*
X40309523Y-55645295D02*
X40309523Y-55740533D01*
X40309523Y-55740533D02*
X40261904Y-55883390D01*
X40261904Y-55883390D02*
X39690476Y-56454819D01*
X39690476Y-56454819D02*
X40309523Y-56454819D01*
X40642857Y-55454819D02*
X41261904Y-55454819D01*
X41261904Y-55454819D02*
X40928571Y-55835771D01*
X40928571Y-55835771D02*
X41071428Y-55835771D01*
X41071428Y-55835771D02*
X41166666Y-55883390D01*
X41166666Y-55883390D02*
X41214285Y-55931009D01*
X41214285Y-55931009D02*
X41261904Y-56026247D01*
X41261904Y-56026247D02*
X41261904Y-56264342D01*
X41261904Y-56264342D02*
X41214285Y-56359580D01*
X41214285Y-56359580D02*
X41166666Y-56407200D01*
X41166666Y-56407200D02*
X41071428Y-56454819D01*
X41071428Y-56454819D02*
X40785714Y-56454819D01*
X40785714Y-56454819D02*
X40690476Y-56407200D01*
X40690476Y-56407200D02*
X40642857Y-56359580D01*
X37859580Y-35642857D02*
X37907200Y-35690476D01*
X37907200Y-35690476D02*
X37954819Y-35833333D01*
X37954819Y-35833333D02*
X37954819Y-35928571D01*
X37954819Y-35928571D02*
X37907200Y-36071428D01*
X37907200Y-36071428D02*
X37811961Y-36166666D01*
X37811961Y-36166666D02*
X37716723Y-36214285D01*
X37716723Y-36214285D02*
X37526247Y-36261904D01*
X37526247Y-36261904D02*
X37383390Y-36261904D01*
X37383390Y-36261904D02*
X37192914Y-36214285D01*
X37192914Y-36214285D02*
X37097676Y-36166666D01*
X37097676Y-36166666D02*
X37002438Y-36071428D01*
X37002438Y-36071428D02*
X36954819Y-35928571D01*
X36954819Y-35928571D02*
X36954819Y-35833333D01*
X36954819Y-35833333D02*
X37002438Y-35690476D01*
X37002438Y-35690476D02*
X37050057Y-35642857D01*
X37954819Y-34690476D02*
X37954819Y-35261904D01*
X37954819Y-34976190D02*
X36954819Y-34976190D01*
X36954819Y-34976190D02*
X37097676Y-35071428D01*
X37097676Y-35071428D02*
X37192914Y-35166666D01*
X37192914Y-35166666D02*
X37240533Y-35261904D01*
X37954819Y-33738095D02*
X37954819Y-34309523D01*
X37954819Y-34023809D02*
X36954819Y-34023809D01*
X36954819Y-34023809D02*
X37097676Y-34119047D01*
X37097676Y-34119047D02*
X37192914Y-34214285D01*
X37192914Y-34214285D02*
X37240533Y-34309523D01*
X36454819Y-36166666D02*
X35978628Y-36499999D01*
X36454819Y-36738094D02*
X35454819Y-36738094D01*
X35454819Y-36738094D02*
X35454819Y-36357142D01*
X35454819Y-36357142D02*
X35502438Y-36261904D01*
X35502438Y-36261904D02*
X35550057Y-36214285D01*
X35550057Y-36214285D02*
X35645295Y-36166666D01*
X35645295Y-36166666D02*
X35788152Y-36166666D01*
X35788152Y-36166666D02*
X35883390Y-36214285D01*
X35883390Y-36214285D02*
X35931009Y-36261904D01*
X35931009Y-36261904D02*
X35978628Y-36357142D01*
X35978628Y-36357142D02*
X35978628Y-36738094D01*
X35454819Y-35833332D02*
X35454819Y-35166666D01*
X35454819Y-35166666D02*
X36454819Y-35595237D01*
X31454819Y-38642857D02*
X30978628Y-38976190D01*
X31454819Y-39214285D02*
X30454819Y-39214285D01*
X30454819Y-39214285D02*
X30454819Y-38833333D01*
X30454819Y-38833333D02*
X30502438Y-38738095D01*
X30502438Y-38738095D02*
X30550057Y-38690476D01*
X30550057Y-38690476D02*
X30645295Y-38642857D01*
X30645295Y-38642857D02*
X30788152Y-38642857D01*
X30788152Y-38642857D02*
X30883390Y-38690476D01*
X30883390Y-38690476D02*
X30931009Y-38738095D01*
X30931009Y-38738095D02*
X30978628Y-38833333D01*
X30978628Y-38833333D02*
X30978628Y-39214285D01*
X31454819Y-37690476D02*
X31454819Y-38261904D01*
X31454819Y-37976190D02*
X30454819Y-37976190D01*
X30454819Y-37976190D02*
X30597676Y-38071428D01*
X30597676Y-38071428D02*
X30692914Y-38166666D01*
X30692914Y-38166666D02*
X30740533Y-38261904D01*
X30454819Y-37071428D02*
X30454819Y-36976190D01*
X30454819Y-36976190D02*
X30502438Y-36880952D01*
X30502438Y-36880952D02*
X30550057Y-36833333D01*
X30550057Y-36833333D02*
X30645295Y-36785714D01*
X30645295Y-36785714D02*
X30835771Y-36738095D01*
X30835771Y-36738095D02*
X31073866Y-36738095D01*
X31073866Y-36738095D02*
X31264342Y-36785714D01*
X31264342Y-36785714D02*
X31359580Y-36833333D01*
X31359580Y-36833333D02*
X31407200Y-36880952D01*
X31407200Y-36880952D02*
X31454819Y-36976190D01*
X31454819Y-36976190D02*
X31454819Y-37071428D01*
X31454819Y-37071428D02*
X31407200Y-37166666D01*
X31407200Y-37166666D02*
X31359580Y-37214285D01*
X31359580Y-37214285D02*
X31264342Y-37261904D01*
X31264342Y-37261904D02*
X31073866Y-37309523D01*
X31073866Y-37309523D02*
X30835771Y-37309523D01*
X30835771Y-37309523D02*
X30645295Y-37261904D01*
X30645295Y-37261904D02*
X30550057Y-37214285D01*
X30550057Y-37214285D02*
X30502438Y-37166666D01*
X30502438Y-37166666D02*
X30454819Y-37071428D01*
X42833333Y-51359580D02*
X42785714Y-51407200D01*
X42785714Y-51407200D02*
X42642857Y-51454819D01*
X42642857Y-51454819D02*
X42547619Y-51454819D01*
X42547619Y-51454819D02*
X42404762Y-51407200D01*
X42404762Y-51407200D02*
X42309524Y-51311961D01*
X42309524Y-51311961D02*
X42261905Y-51216723D01*
X42261905Y-51216723D02*
X42214286Y-51026247D01*
X42214286Y-51026247D02*
X42214286Y-50883390D01*
X42214286Y-50883390D02*
X42261905Y-50692914D01*
X42261905Y-50692914D02*
X42309524Y-50597676D01*
X42309524Y-50597676D02*
X42404762Y-50502438D01*
X42404762Y-50502438D02*
X42547619Y-50454819D01*
X42547619Y-50454819D02*
X42642857Y-50454819D01*
X42642857Y-50454819D02*
X42785714Y-50502438D01*
X42785714Y-50502438D02*
X42833333Y-50550057D01*
X43738095Y-50454819D02*
X43261905Y-50454819D01*
X43261905Y-50454819D02*
X43214286Y-50931009D01*
X43214286Y-50931009D02*
X43261905Y-50883390D01*
X43261905Y-50883390D02*
X43357143Y-50835771D01*
X43357143Y-50835771D02*
X43595238Y-50835771D01*
X43595238Y-50835771D02*
X43690476Y-50883390D01*
X43690476Y-50883390D02*
X43738095Y-50931009D01*
X43738095Y-50931009D02*
X43785714Y-51026247D01*
X43785714Y-51026247D02*
X43785714Y-51264342D01*
X43785714Y-51264342D02*
X43738095Y-51359580D01*
X43738095Y-51359580D02*
X43690476Y-51407200D01*
X43690476Y-51407200D02*
X43595238Y-51454819D01*
X43595238Y-51454819D02*
X43357143Y-51454819D01*
X43357143Y-51454819D02*
X43261905Y-51407200D01*
X43261905Y-51407200D02*
X43214286Y-51359580D01*
X40857142Y-59859580D02*
X40809523Y-59907200D01*
X40809523Y-59907200D02*
X40666666Y-59954819D01*
X40666666Y-59954819D02*
X40571428Y-59954819D01*
X40571428Y-59954819D02*
X40428571Y-59907200D01*
X40428571Y-59907200D02*
X40333333Y-59811961D01*
X40333333Y-59811961D02*
X40285714Y-59716723D01*
X40285714Y-59716723D02*
X40238095Y-59526247D01*
X40238095Y-59526247D02*
X40238095Y-59383390D01*
X40238095Y-59383390D02*
X40285714Y-59192914D01*
X40285714Y-59192914D02*
X40333333Y-59097676D01*
X40333333Y-59097676D02*
X40428571Y-59002438D01*
X40428571Y-59002438D02*
X40571428Y-58954819D01*
X40571428Y-58954819D02*
X40666666Y-58954819D01*
X40666666Y-58954819D02*
X40809523Y-59002438D01*
X40809523Y-59002438D02*
X40857142Y-59050057D01*
X41238095Y-59050057D02*
X41285714Y-59002438D01*
X41285714Y-59002438D02*
X41380952Y-58954819D01*
X41380952Y-58954819D02*
X41619047Y-58954819D01*
X41619047Y-58954819D02*
X41714285Y-59002438D01*
X41714285Y-59002438D02*
X41761904Y-59050057D01*
X41761904Y-59050057D02*
X41809523Y-59145295D01*
X41809523Y-59145295D02*
X41809523Y-59240533D01*
X41809523Y-59240533D02*
X41761904Y-59383390D01*
X41761904Y-59383390D02*
X41190476Y-59954819D01*
X41190476Y-59954819D02*
X41809523Y-59954819D01*
X42190476Y-59050057D02*
X42238095Y-59002438D01*
X42238095Y-59002438D02*
X42333333Y-58954819D01*
X42333333Y-58954819D02*
X42571428Y-58954819D01*
X42571428Y-58954819D02*
X42666666Y-59002438D01*
X42666666Y-59002438D02*
X42714285Y-59050057D01*
X42714285Y-59050057D02*
X42761904Y-59145295D01*
X42761904Y-59145295D02*
X42761904Y-59240533D01*
X42761904Y-59240533D02*
X42714285Y-59383390D01*
X42714285Y-59383390D02*
X42142857Y-59954819D01*
X42142857Y-59954819D02*
X42761904Y-59954819D01*
X23805319Y-63261904D02*
X24614842Y-63261904D01*
X24614842Y-63261904D02*
X24710080Y-63214285D01*
X24710080Y-63214285D02*
X24757700Y-63166666D01*
X24757700Y-63166666D02*
X24805319Y-63071428D01*
X24805319Y-63071428D02*
X24805319Y-62880952D01*
X24805319Y-62880952D02*
X24757700Y-62785714D01*
X24757700Y-62785714D02*
X24710080Y-62738095D01*
X24710080Y-62738095D02*
X24614842Y-62690476D01*
X24614842Y-62690476D02*
X23805319Y-62690476D01*
X23805319Y-62309523D02*
X23805319Y-61690476D01*
X23805319Y-61690476D02*
X24186271Y-62023809D01*
X24186271Y-62023809D02*
X24186271Y-61880952D01*
X24186271Y-61880952D02*
X24233890Y-61785714D01*
X24233890Y-61785714D02*
X24281509Y-61738095D01*
X24281509Y-61738095D02*
X24376747Y-61690476D01*
X24376747Y-61690476D02*
X24614842Y-61690476D01*
X24614842Y-61690476D02*
X24710080Y-61738095D01*
X24710080Y-61738095D02*
X24757700Y-61785714D01*
X24757700Y-61785714D02*
X24805319Y-61880952D01*
X24805319Y-61880952D02*
X24805319Y-62166666D01*
X24805319Y-62166666D02*
X24757700Y-62261904D01*
X24757700Y-62261904D02*
X24710080Y-62309523D01*
X29333333Y-45609580D02*
X29285714Y-45657200D01*
X29285714Y-45657200D02*
X29142857Y-45704819D01*
X29142857Y-45704819D02*
X29047619Y-45704819D01*
X29047619Y-45704819D02*
X28904762Y-45657200D01*
X28904762Y-45657200D02*
X28809524Y-45561961D01*
X28809524Y-45561961D02*
X28761905Y-45466723D01*
X28761905Y-45466723D02*
X28714286Y-45276247D01*
X28714286Y-45276247D02*
X28714286Y-45133390D01*
X28714286Y-45133390D02*
X28761905Y-44942914D01*
X28761905Y-44942914D02*
X28809524Y-44847676D01*
X28809524Y-44847676D02*
X28904762Y-44752438D01*
X28904762Y-44752438D02*
X29047619Y-44704819D01*
X29047619Y-44704819D02*
X29142857Y-44704819D01*
X29142857Y-44704819D02*
X29285714Y-44752438D01*
X29285714Y-44752438D02*
X29333333Y-44800057D01*
X29809524Y-45704819D02*
X30000000Y-45704819D01*
X30000000Y-45704819D02*
X30095238Y-45657200D01*
X30095238Y-45657200D02*
X30142857Y-45609580D01*
X30142857Y-45609580D02*
X30238095Y-45466723D01*
X30238095Y-45466723D02*
X30285714Y-45276247D01*
X30285714Y-45276247D02*
X30285714Y-44895295D01*
X30285714Y-44895295D02*
X30238095Y-44800057D01*
X30238095Y-44800057D02*
X30190476Y-44752438D01*
X30190476Y-44752438D02*
X30095238Y-44704819D01*
X30095238Y-44704819D02*
X29904762Y-44704819D01*
X29904762Y-44704819D02*
X29809524Y-44752438D01*
X29809524Y-44752438D02*
X29761905Y-44800057D01*
X29761905Y-44800057D02*
X29714286Y-44895295D01*
X29714286Y-44895295D02*
X29714286Y-45133390D01*
X29714286Y-45133390D02*
X29761905Y-45228628D01*
X29761905Y-45228628D02*
X29809524Y-45276247D01*
X29809524Y-45276247D02*
X29904762Y-45323866D01*
X29904762Y-45323866D02*
X30095238Y-45323866D01*
X30095238Y-45323866D02*
X30190476Y-45276247D01*
X30190476Y-45276247D02*
X30238095Y-45228628D01*
X30238095Y-45228628D02*
X30285714Y-45133390D01*
X30859580Y-35954166D02*
X30907200Y-36001785D01*
X30907200Y-36001785D02*
X30954819Y-36144642D01*
X30954819Y-36144642D02*
X30954819Y-36239880D01*
X30954819Y-36239880D02*
X30907200Y-36382737D01*
X30907200Y-36382737D02*
X30811961Y-36477975D01*
X30811961Y-36477975D02*
X30716723Y-36525594D01*
X30716723Y-36525594D02*
X30526247Y-36573213D01*
X30526247Y-36573213D02*
X30383390Y-36573213D01*
X30383390Y-36573213D02*
X30192914Y-36525594D01*
X30192914Y-36525594D02*
X30097676Y-36477975D01*
X30097676Y-36477975D02*
X30002438Y-36382737D01*
X30002438Y-36382737D02*
X29954819Y-36239880D01*
X29954819Y-36239880D02*
X29954819Y-36144642D01*
X29954819Y-36144642D02*
X30002438Y-36001785D01*
X30002438Y-36001785D02*
X30050057Y-35954166D01*
X29954819Y-35620832D02*
X29954819Y-35001785D01*
X29954819Y-35001785D02*
X30335771Y-35335118D01*
X30335771Y-35335118D02*
X30335771Y-35192261D01*
X30335771Y-35192261D02*
X30383390Y-35097023D01*
X30383390Y-35097023D02*
X30431009Y-35049404D01*
X30431009Y-35049404D02*
X30526247Y-35001785D01*
X30526247Y-35001785D02*
X30764342Y-35001785D01*
X30764342Y-35001785D02*
X30859580Y-35049404D01*
X30859580Y-35049404D02*
X30907200Y-35097023D01*
X30907200Y-35097023D02*
X30954819Y-35192261D01*
X30954819Y-35192261D02*
X30954819Y-35477975D01*
X30954819Y-35477975D02*
X30907200Y-35573213D01*
X30907200Y-35573213D02*
X30859580Y-35620832D01*
X29333333Y-27909580D02*
X29285714Y-27957200D01*
X29285714Y-27957200D02*
X29142857Y-28004819D01*
X29142857Y-28004819D02*
X29047619Y-28004819D01*
X29047619Y-28004819D02*
X28904762Y-27957200D01*
X28904762Y-27957200D02*
X28809524Y-27861961D01*
X28809524Y-27861961D02*
X28761905Y-27766723D01*
X28761905Y-27766723D02*
X28714286Y-27576247D01*
X28714286Y-27576247D02*
X28714286Y-27433390D01*
X28714286Y-27433390D02*
X28761905Y-27242914D01*
X28761905Y-27242914D02*
X28809524Y-27147676D01*
X28809524Y-27147676D02*
X28904762Y-27052438D01*
X28904762Y-27052438D02*
X29047619Y-27004819D01*
X29047619Y-27004819D02*
X29142857Y-27004819D01*
X29142857Y-27004819D02*
X29285714Y-27052438D01*
X29285714Y-27052438D02*
X29333333Y-27100057D01*
X29714286Y-27100057D02*
X29761905Y-27052438D01*
X29761905Y-27052438D02*
X29857143Y-27004819D01*
X29857143Y-27004819D02*
X30095238Y-27004819D01*
X30095238Y-27004819D02*
X30190476Y-27052438D01*
X30190476Y-27052438D02*
X30238095Y-27100057D01*
X30238095Y-27100057D02*
X30285714Y-27195295D01*
X30285714Y-27195295D02*
X30285714Y-27290533D01*
X30285714Y-27290533D02*
X30238095Y-27433390D01*
X30238095Y-27433390D02*
X29666667Y-28004819D01*
X29666667Y-28004819D02*
X30285714Y-28004819D01*
X33309580Y-42487857D02*
X33357200Y-42535476D01*
X33357200Y-42535476D02*
X33404819Y-42678333D01*
X33404819Y-42678333D02*
X33404819Y-42773571D01*
X33404819Y-42773571D02*
X33357200Y-42916428D01*
X33357200Y-42916428D02*
X33261961Y-43011666D01*
X33261961Y-43011666D02*
X33166723Y-43059285D01*
X33166723Y-43059285D02*
X32976247Y-43106904D01*
X32976247Y-43106904D02*
X32833390Y-43106904D01*
X32833390Y-43106904D02*
X32642914Y-43059285D01*
X32642914Y-43059285D02*
X32547676Y-43011666D01*
X32547676Y-43011666D02*
X32452438Y-42916428D01*
X32452438Y-42916428D02*
X32404819Y-42773571D01*
X32404819Y-42773571D02*
X32404819Y-42678333D01*
X32404819Y-42678333D02*
X32452438Y-42535476D01*
X32452438Y-42535476D02*
X32500057Y-42487857D01*
X33404819Y-41535476D02*
X33404819Y-42106904D01*
X33404819Y-41821190D02*
X32404819Y-41821190D01*
X32404819Y-41821190D02*
X32547676Y-41916428D01*
X32547676Y-41916428D02*
X32642914Y-42011666D01*
X32642914Y-42011666D02*
X32690533Y-42106904D01*
X32404819Y-41202142D02*
X32404819Y-40583095D01*
X32404819Y-40583095D02*
X32785771Y-40916428D01*
X32785771Y-40916428D02*
X32785771Y-40773571D01*
X32785771Y-40773571D02*
X32833390Y-40678333D01*
X32833390Y-40678333D02*
X32881009Y-40630714D01*
X32881009Y-40630714D02*
X32976247Y-40583095D01*
X32976247Y-40583095D02*
X33214342Y-40583095D01*
X33214342Y-40583095D02*
X33309580Y-40630714D01*
X33309580Y-40630714D02*
X33357200Y-40678333D01*
X33357200Y-40678333D02*
X33404819Y-40773571D01*
X33404819Y-40773571D02*
X33404819Y-41059285D01*
X33404819Y-41059285D02*
X33357200Y-41154523D01*
X33357200Y-41154523D02*
X33309580Y-41202142D01*
X42357142Y-55859580D02*
X42309523Y-55907200D01*
X42309523Y-55907200D02*
X42166666Y-55954819D01*
X42166666Y-55954819D02*
X42071428Y-55954819D01*
X42071428Y-55954819D02*
X41928571Y-55907200D01*
X41928571Y-55907200D02*
X41833333Y-55811961D01*
X41833333Y-55811961D02*
X41785714Y-55716723D01*
X41785714Y-55716723D02*
X41738095Y-55526247D01*
X41738095Y-55526247D02*
X41738095Y-55383390D01*
X41738095Y-55383390D02*
X41785714Y-55192914D01*
X41785714Y-55192914D02*
X41833333Y-55097676D01*
X41833333Y-55097676D02*
X41928571Y-55002438D01*
X41928571Y-55002438D02*
X42071428Y-54954819D01*
X42071428Y-54954819D02*
X42166666Y-54954819D01*
X42166666Y-54954819D02*
X42309523Y-55002438D01*
X42309523Y-55002438D02*
X42357142Y-55050057D01*
X43309523Y-55954819D02*
X42738095Y-55954819D01*
X43023809Y-55954819D02*
X43023809Y-54954819D01*
X43023809Y-54954819D02*
X42928571Y-55097676D01*
X42928571Y-55097676D02*
X42833333Y-55192914D01*
X42833333Y-55192914D02*
X42738095Y-55240533D01*
X43642857Y-54954819D02*
X44309523Y-54954819D01*
X44309523Y-54954819D02*
X43880952Y-55954819D01*
X41454819Y-37142857D02*
X40978628Y-37476190D01*
X41454819Y-37714285D02*
X40454819Y-37714285D01*
X40454819Y-37714285D02*
X40454819Y-37333333D01*
X40454819Y-37333333D02*
X40502438Y-37238095D01*
X40502438Y-37238095D02*
X40550057Y-37190476D01*
X40550057Y-37190476D02*
X40645295Y-37142857D01*
X40645295Y-37142857D02*
X40788152Y-37142857D01*
X40788152Y-37142857D02*
X40883390Y-37190476D01*
X40883390Y-37190476D02*
X40931009Y-37238095D01*
X40931009Y-37238095D02*
X40978628Y-37333333D01*
X40978628Y-37333333D02*
X40978628Y-37714285D01*
X41454819Y-36190476D02*
X41454819Y-36761904D01*
X41454819Y-36476190D02*
X40454819Y-36476190D01*
X40454819Y-36476190D02*
X40597676Y-36571428D01*
X40597676Y-36571428D02*
X40692914Y-36666666D01*
X40692914Y-36666666D02*
X40740533Y-36761904D01*
X40788152Y-35333333D02*
X41454819Y-35333333D01*
X40407200Y-35571428D02*
X41121485Y-35809523D01*
X41121485Y-35809523D02*
X41121485Y-35190476D01*
X26559569Y-51809523D02*
X27559569Y-51142857D01*
X26559569Y-51142857D02*
X27559569Y-51809523D01*
X27559569Y-50238095D02*
X27559569Y-50809523D01*
X27559569Y-50523809D02*
X26559569Y-50523809D01*
X26559569Y-50523809D02*
X26702426Y-50619047D01*
X26702426Y-50619047D02*
X26797664Y-50714285D01*
X26797664Y-50714285D02*
X26845283Y-50809523D01*
X35153333Y-27859580D02*
X35105714Y-27907200D01*
X35105714Y-27907200D02*
X34962857Y-27954819D01*
X34962857Y-27954819D02*
X34867619Y-27954819D01*
X34867619Y-27954819D02*
X34724762Y-27907200D01*
X34724762Y-27907200D02*
X34629524Y-27811961D01*
X34629524Y-27811961D02*
X34581905Y-27716723D01*
X34581905Y-27716723D02*
X34534286Y-27526247D01*
X34534286Y-27526247D02*
X34534286Y-27383390D01*
X34534286Y-27383390D02*
X34581905Y-27192914D01*
X34581905Y-27192914D02*
X34629524Y-27097676D01*
X34629524Y-27097676D02*
X34724762Y-27002438D01*
X34724762Y-27002438D02*
X34867619Y-26954819D01*
X34867619Y-26954819D02*
X34962857Y-26954819D01*
X34962857Y-26954819D02*
X35105714Y-27002438D01*
X35105714Y-27002438D02*
X35153333Y-27050057D01*
X36105714Y-27954819D02*
X35534286Y-27954819D01*
X35820000Y-27954819D02*
X35820000Y-26954819D01*
X35820000Y-26954819D02*
X35724762Y-27097676D01*
X35724762Y-27097676D02*
X35629524Y-27192914D01*
X35629524Y-27192914D02*
X35534286Y-27240533D01*
X42357142Y-49859580D02*
X42309523Y-49907200D01*
X42309523Y-49907200D02*
X42166666Y-49954819D01*
X42166666Y-49954819D02*
X42071428Y-49954819D01*
X42071428Y-49954819D02*
X41928571Y-49907200D01*
X41928571Y-49907200D02*
X41833333Y-49811961D01*
X41833333Y-49811961D02*
X41785714Y-49716723D01*
X41785714Y-49716723D02*
X41738095Y-49526247D01*
X41738095Y-49526247D02*
X41738095Y-49383390D01*
X41738095Y-49383390D02*
X41785714Y-49192914D01*
X41785714Y-49192914D02*
X41833333Y-49097676D01*
X41833333Y-49097676D02*
X41928571Y-49002438D01*
X41928571Y-49002438D02*
X42071428Y-48954819D01*
X42071428Y-48954819D02*
X42166666Y-48954819D01*
X42166666Y-48954819D02*
X42309523Y-49002438D01*
X42309523Y-49002438D02*
X42357142Y-49050057D01*
X43309523Y-49954819D02*
X42738095Y-49954819D01*
X43023809Y-49954819D02*
X43023809Y-48954819D01*
X43023809Y-48954819D02*
X42928571Y-49097676D01*
X42928571Y-49097676D02*
X42833333Y-49192914D01*
X42833333Y-49192914D02*
X42738095Y-49240533D01*
X43690476Y-49050057D02*
X43738095Y-49002438D01*
X43738095Y-49002438D02*
X43833333Y-48954819D01*
X43833333Y-48954819D02*
X44071428Y-48954819D01*
X44071428Y-48954819D02*
X44166666Y-49002438D01*
X44166666Y-49002438D02*
X44214285Y-49050057D01*
X44214285Y-49050057D02*
X44261904Y-49145295D01*
X44261904Y-49145295D02*
X44261904Y-49240533D01*
X44261904Y-49240533D02*
X44214285Y-49383390D01*
X44214285Y-49383390D02*
X43642857Y-49954819D01*
X43642857Y-49954819D02*
X44261904Y-49954819D01*
X24333333Y-44859580D02*
X24285714Y-44907200D01*
X24285714Y-44907200D02*
X24142857Y-44954819D01*
X24142857Y-44954819D02*
X24047619Y-44954819D01*
X24047619Y-44954819D02*
X23904762Y-44907200D01*
X23904762Y-44907200D02*
X23809524Y-44811961D01*
X23809524Y-44811961D02*
X23761905Y-44716723D01*
X23761905Y-44716723D02*
X23714286Y-44526247D01*
X23714286Y-44526247D02*
X23714286Y-44383390D01*
X23714286Y-44383390D02*
X23761905Y-44192914D01*
X23761905Y-44192914D02*
X23809524Y-44097676D01*
X23809524Y-44097676D02*
X23904762Y-44002438D01*
X23904762Y-44002438D02*
X24047619Y-43954819D01*
X24047619Y-43954819D02*
X24142857Y-43954819D01*
X24142857Y-43954819D02*
X24285714Y-44002438D01*
X24285714Y-44002438D02*
X24333333Y-44050057D01*
X24666667Y-43954819D02*
X25333333Y-43954819D01*
X25333333Y-43954819D02*
X24904762Y-44954819D01*
X29954819Y-38642857D02*
X29478628Y-38976190D01*
X29954819Y-39214285D02*
X28954819Y-39214285D01*
X28954819Y-39214285D02*
X28954819Y-38833333D01*
X28954819Y-38833333D02*
X29002438Y-38738095D01*
X29002438Y-38738095D02*
X29050057Y-38690476D01*
X29050057Y-38690476D02*
X29145295Y-38642857D01*
X29145295Y-38642857D02*
X29288152Y-38642857D01*
X29288152Y-38642857D02*
X29383390Y-38690476D01*
X29383390Y-38690476D02*
X29431009Y-38738095D01*
X29431009Y-38738095D02*
X29478628Y-38833333D01*
X29478628Y-38833333D02*
X29478628Y-39214285D01*
X29954819Y-37690476D02*
X29954819Y-38261904D01*
X29954819Y-37976190D02*
X28954819Y-37976190D01*
X28954819Y-37976190D02*
X29097676Y-38071428D01*
X29097676Y-38071428D02*
X29192914Y-38166666D01*
X29192914Y-38166666D02*
X29240533Y-38261904D01*
X29954819Y-36738095D02*
X29954819Y-37309523D01*
X29954819Y-37023809D02*
X28954819Y-37023809D01*
X28954819Y-37023809D02*
X29097676Y-37119047D01*
X29097676Y-37119047D02*
X29192914Y-37214285D01*
X29192914Y-37214285D02*
X29240533Y-37309523D01*
X41859580Y-65142857D02*
X41907200Y-65190476D01*
X41907200Y-65190476D02*
X41954819Y-65333333D01*
X41954819Y-65333333D02*
X41954819Y-65428571D01*
X41954819Y-65428571D02*
X41907200Y-65571428D01*
X41907200Y-65571428D02*
X41811961Y-65666666D01*
X41811961Y-65666666D02*
X41716723Y-65714285D01*
X41716723Y-65714285D02*
X41526247Y-65761904D01*
X41526247Y-65761904D02*
X41383390Y-65761904D01*
X41383390Y-65761904D02*
X41192914Y-65714285D01*
X41192914Y-65714285D02*
X41097676Y-65666666D01*
X41097676Y-65666666D02*
X41002438Y-65571428D01*
X41002438Y-65571428D02*
X40954819Y-65428571D01*
X40954819Y-65428571D02*
X40954819Y-65333333D01*
X40954819Y-65333333D02*
X41002438Y-65190476D01*
X41002438Y-65190476D02*
X41050057Y-65142857D01*
X41050057Y-64761904D02*
X41002438Y-64714285D01*
X41002438Y-64714285D02*
X40954819Y-64619047D01*
X40954819Y-64619047D02*
X40954819Y-64380952D01*
X40954819Y-64380952D02*
X41002438Y-64285714D01*
X41002438Y-64285714D02*
X41050057Y-64238095D01*
X41050057Y-64238095D02*
X41145295Y-64190476D01*
X41145295Y-64190476D02*
X41240533Y-64190476D01*
X41240533Y-64190476D02*
X41383390Y-64238095D01*
X41383390Y-64238095D02*
X41954819Y-64809523D01*
X41954819Y-64809523D02*
X41954819Y-64190476D01*
X41288152Y-63333333D02*
X41954819Y-63333333D01*
X40907200Y-63571428D02*
X41621485Y-63809523D01*
X41621485Y-63809523D02*
X41621485Y-63190476D01*
X36359580Y-57142857D02*
X36407200Y-57190476D01*
X36407200Y-57190476D02*
X36454819Y-57333333D01*
X36454819Y-57333333D02*
X36454819Y-57428571D01*
X36454819Y-57428571D02*
X36407200Y-57571428D01*
X36407200Y-57571428D02*
X36311961Y-57666666D01*
X36311961Y-57666666D02*
X36216723Y-57714285D01*
X36216723Y-57714285D02*
X36026247Y-57761904D01*
X36026247Y-57761904D02*
X35883390Y-57761904D01*
X35883390Y-57761904D02*
X35692914Y-57714285D01*
X35692914Y-57714285D02*
X35597676Y-57666666D01*
X35597676Y-57666666D02*
X35502438Y-57571428D01*
X35502438Y-57571428D02*
X35454819Y-57428571D01*
X35454819Y-57428571D02*
X35454819Y-57333333D01*
X35454819Y-57333333D02*
X35502438Y-57190476D01*
X35502438Y-57190476D02*
X35550057Y-57142857D01*
X36454819Y-56190476D02*
X36454819Y-56761904D01*
X36454819Y-56476190D02*
X35454819Y-56476190D01*
X35454819Y-56476190D02*
X35597676Y-56571428D01*
X35597676Y-56571428D02*
X35692914Y-56666666D01*
X35692914Y-56666666D02*
X35740533Y-56761904D01*
X35454819Y-55333333D02*
X35454819Y-55523809D01*
X35454819Y-55523809D02*
X35502438Y-55619047D01*
X35502438Y-55619047D02*
X35550057Y-55666666D01*
X35550057Y-55666666D02*
X35692914Y-55761904D01*
X35692914Y-55761904D02*
X35883390Y-55809523D01*
X35883390Y-55809523D02*
X36264342Y-55809523D01*
X36264342Y-55809523D02*
X36359580Y-55761904D01*
X36359580Y-55761904D02*
X36407200Y-55714285D01*
X36407200Y-55714285D02*
X36454819Y-55619047D01*
X36454819Y-55619047D02*
X36454819Y-55428571D01*
X36454819Y-55428571D02*
X36407200Y-55333333D01*
X36407200Y-55333333D02*
X36359580Y-55285714D01*
X36359580Y-55285714D02*
X36264342Y-55238095D01*
X36264342Y-55238095D02*
X36026247Y-55238095D01*
X36026247Y-55238095D02*
X35931009Y-55285714D01*
X35931009Y-55285714D02*
X35883390Y-55333333D01*
X35883390Y-55333333D02*
X35835771Y-55428571D01*
X35835771Y-55428571D02*
X35835771Y-55619047D01*
X35835771Y-55619047D02*
X35883390Y-55714285D01*
X35883390Y-55714285D02*
X35931009Y-55761904D01*
X35931009Y-55761904D02*
X36026247Y-55809523D01*
X42833333Y-48454819D02*
X42500000Y-47978628D01*
X42261905Y-48454819D02*
X42261905Y-47454819D01*
X42261905Y-47454819D02*
X42642857Y-47454819D01*
X42642857Y-47454819D02*
X42738095Y-47502438D01*
X42738095Y-47502438D02*
X42785714Y-47550057D01*
X42785714Y-47550057D02*
X42833333Y-47645295D01*
X42833333Y-47645295D02*
X42833333Y-47788152D01*
X42833333Y-47788152D02*
X42785714Y-47883390D01*
X42785714Y-47883390D02*
X42738095Y-47931009D01*
X42738095Y-47931009D02*
X42642857Y-47978628D01*
X42642857Y-47978628D02*
X42261905Y-47978628D01*
X43738095Y-47454819D02*
X43261905Y-47454819D01*
X43261905Y-47454819D02*
X43214286Y-47931009D01*
X43214286Y-47931009D02*
X43261905Y-47883390D01*
X43261905Y-47883390D02*
X43357143Y-47835771D01*
X43357143Y-47835771D02*
X43595238Y-47835771D01*
X43595238Y-47835771D02*
X43690476Y-47883390D01*
X43690476Y-47883390D02*
X43738095Y-47931009D01*
X43738095Y-47931009D02*
X43785714Y-48026247D01*
X43785714Y-48026247D02*
X43785714Y-48264342D01*
X43785714Y-48264342D02*
X43738095Y-48359580D01*
X43738095Y-48359580D02*
X43690476Y-48407200D01*
X43690476Y-48407200D02*
X43595238Y-48454819D01*
X43595238Y-48454819D02*
X43357143Y-48454819D01*
X43357143Y-48454819D02*
X43261905Y-48407200D01*
X43261905Y-48407200D02*
X43214286Y-48359580D01*
X42954819Y-39166666D02*
X42478628Y-39499999D01*
X42954819Y-39738094D02*
X41954819Y-39738094D01*
X41954819Y-39738094D02*
X41954819Y-39357142D01*
X41954819Y-39357142D02*
X42002438Y-39261904D01*
X42002438Y-39261904D02*
X42050057Y-39214285D01*
X42050057Y-39214285D02*
X42145295Y-39166666D01*
X42145295Y-39166666D02*
X42288152Y-39166666D01*
X42288152Y-39166666D02*
X42383390Y-39214285D01*
X42383390Y-39214285D02*
X42431009Y-39261904D01*
X42431009Y-39261904D02*
X42478628Y-39357142D01*
X42478628Y-39357142D02*
X42478628Y-39738094D01*
X42383390Y-38595237D02*
X42335771Y-38690475D01*
X42335771Y-38690475D02*
X42288152Y-38738094D01*
X42288152Y-38738094D02*
X42192914Y-38785713D01*
X42192914Y-38785713D02*
X42145295Y-38785713D01*
X42145295Y-38785713D02*
X42050057Y-38738094D01*
X42050057Y-38738094D02*
X42002438Y-38690475D01*
X42002438Y-38690475D02*
X41954819Y-38595237D01*
X41954819Y-38595237D02*
X41954819Y-38404761D01*
X41954819Y-38404761D02*
X42002438Y-38309523D01*
X42002438Y-38309523D02*
X42050057Y-38261904D01*
X42050057Y-38261904D02*
X42145295Y-38214285D01*
X42145295Y-38214285D02*
X42192914Y-38214285D01*
X42192914Y-38214285D02*
X42288152Y-38261904D01*
X42288152Y-38261904D02*
X42335771Y-38309523D01*
X42335771Y-38309523D02*
X42383390Y-38404761D01*
X42383390Y-38404761D02*
X42383390Y-38595237D01*
X42383390Y-38595237D02*
X42431009Y-38690475D01*
X42431009Y-38690475D02*
X42478628Y-38738094D01*
X42478628Y-38738094D02*
X42573866Y-38785713D01*
X42573866Y-38785713D02*
X42764342Y-38785713D01*
X42764342Y-38785713D02*
X42859580Y-38738094D01*
X42859580Y-38738094D02*
X42907200Y-38690475D01*
X42907200Y-38690475D02*
X42954819Y-38595237D01*
X42954819Y-38595237D02*
X42954819Y-38404761D01*
X42954819Y-38404761D02*
X42907200Y-38309523D01*
X42907200Y-38309523D02*
X42859580Y-38261904D01*
X42859580Y-38261904D02*
X42764342Y-38214285D01*
X42764342Y-38214285D02*
X42573866Y-38214285D01*
X42573866Y-38214285D02*
X42478628Y-38261904D01*
X42478628Y-38261904D02*
X42431009Y-38309523D01*
X42431009Y-38309523D02*
X42383390Y-38404761D01*
X31333333Y-49004819D02*
X31000000Y-48528628D01*
X30761905Y-49004819D02*
X30761905Y-48004819D01*
X30761905Y-48004819D02*
X31142857Y-48004819D01*
X31142857Y-48004819D02*
X31238095Y-48052438D01*
X31238095Y-48052438D02*
X31285714Y-48100057D01*
X31285714Y-48100057D02*
X31333333Y-48195295D01*
X31333333Y-48195295D02*
X31333333Y-48338152D01*
X31333333Y-48338152D02*
X31285714Y-48433390D01*
X31285714Y-48433390D02*
X31238095Y-48481009D01*
X31238095Y-48481009D02*
X31142857Y-48528628D01*
X31142857Y-48528628D02*
X30761905Y-48528628D01*
X31666667Y-48004819D02*
X32285714Y-48004819D01*
X32285714Y-48004819D02*
X31952381Y-48385771D01*
X31952381Y-48385771D02*
X32095238Y-48385771D01*
X32095238Y-48385771D02*
X32190476Y-48433390D01*
X32190476Y-48433390D02*
X32238095Y-48481009D01*
X32238095Y-48481009D02*
X32285714Y-48576247D01*
X32285714Y-48576247D02*
X32285714Y-48814342D01*
X32285714Y-48814342D02*
X32238095Y-48909580D01*
X32238095Y-48909580D02*
X32190476Y-48957200D01*
X32190476Y-48957200D02*
X32095238Y-49004819D01*
X32095238Y-49004819D02*
X31809524Y-49004819D01*
X31809524Y-49004819D02*
X31714286Y-48957200D01*
X31714286Y-48957200D02*
X31666667Y-48909580D01*
X24278095Y-29454819D02*
X24278095Y-30264342D01*
X24278095Y-30264342D02*
X24325714Y-30359580D01*
X24325714Y-30359580D02*
X24373333Y-30407200D01*
X24373333Y-30407200D02*
X24468571Y-30454819D01*
X24468571Y-30454819D02*
X24659047Y-30454819D01*
X24659047Y-30454819D02*
X24754285Y-30407200D01*
X24754285Y-30407200D02*
X24801904Y-30359580D01*
X24801904Y-30359580D02*
X24849523Y-30264342D01*
X24849523Y-30264342D02*
X24849523Y-29454819D01*
X25849523Y-30454819D02*
X25278095Y-30454819D01*
X25563809Y-30454819D02*
X25563809Y-29454819D01*
X25563809Y-29454819D02*
X25468571Y-29597676D01*
X25468571Y-29597676D02*
X25373333Y-29692914D01*
X25373333Y-29692914D02*
X25278095Y-29740533D01*
D10*
%TO.C,D1*%
X23690000Y-36500000D02*
G75*
G02*
X23590000Y-36500000I-50000J0D01*
G01*
X23590000Y-36500000D02*
G75*
G02*
X23690000Y-36500000I50000J0D01*
G01*
D12*
%TO.C,U2*%
X34800000Y-41300000D02*
X35500000Y-41300000D01*
X34800000Y-42000000D02*
X34800000Y-41300000D01*
X34800000Y-47700000D02*
X34800000Y-47000000D01*
X35500000Y-47700000D02*
X34800000Y-47700000D01*
X41200000Y-41300000D02*
X40500000Y-41300000D01*
X41200000Y-42000000D02*
X41200000Y-41300000D01*
X41200000Y-47000000D02*
X41200000Y-47700000D01*
X41200000Y-47700000D02*
X40500000Y-47700000D01*
D13*
X34977500Y-48099000D02*
G75*
G02*
X34975000Y-48099000I-1250J-150001D01*
G01*
D14*
%TO.C,U6*%
X34350000Y-67850000D02*
X34350000Y-68500000D01*
X34350000Y-72500000D02*
X34350000Y-73150000D01*
X34350000Y-73150000D02*
X35000000Y-73150000D01*
X35000000Y-67850000D02*
X34350000Y-67850000D01*
X39650000Y-67850000D02*
X39000000Y-67850000D01*
X39650000Y-68500000D02*
X39650000Y-67850000D01*
X39650000Y-72500000D02*
X39650000Y-73150000D01*
X39650000Y-73150000D02*
X39000000Y-73150000D01*
D13*
X40000000Y-72949000D02*
G75*
G02*
X40000000Y-72951500I149999J-1250D01*
G01*
D12*
%TO.C,USB1*%
X28050000Y-17594700D02*
X28050000Y-19112700D01*
X28050000Y-21351700D02*
X28050000Y-23112700D01*
X36950000Y-17594700D02*
X28050000Y-17594700D01*
X36950000Y-19112700D02*
X36950000Y-17594700D01*
X36950000Y-23112700D02*
X36950000Y-21351700D01*
D14*
%TO.C,U4*%
X25350000Y-67850000D02*
X25350000Y-68500000D01*
X25350000Y-72500000D02*
X25350000Y-73150000D01*
X25350000Y-73150000D02*
X26000000Y-73150000D01*
X26000000Y-67850000D02*
X25350000Y-67850000D01*
X30650000Y-67850000D02*
X30000000Y-67850000D01*
X30650000Y-68500000D02*
X30650000Y-67850000D01*
X30650000Y-72500000D02*
X30650000Y-73150000D01*
X30650000Y-73150000D02*
X30000000Y-73150000D01*
D13*
X31000000Y-72949000D02*
G75*
G02*
X31000000Y-72951500I149999J-1250D01*
G01*
D15*
%TO.C,J1*%
X26085000Y-80830000D02*
X26085000Y-83490000D01*
X26085000Y-83490000D02*
X38905000Y-83490000D01*
X27035000Y-77892929D02*
X27035000Y-78347071D01*
X27035000Y-80432929D02*
X27035000Y-80830000D01*
X27035000Y-89490000D02*
X27035000Y-83490000D01*
X27795000Y-77892929D02*
X27795000Y-78347071D01*
X27795000Y-80432929D02*
X27795000Y-80830000D01*
X27795000Y-83490000D02*
X27795000Y-89490000D01*
X27795000Y-89490000D02*
X27035000Y-89490000D01*
X28685000Y-80830000D02*
X28685000Y-83490000D01*
X29575000Y-77892929D02*
X29575000Y-78347071D01*
X29575000Y-80432929D02*
X29575000Y-80830000D01*
X29575000Y-89490000D02*
X29575000Y-83490000D01*
X30335000Y-77892929D02*
X30335000Y-78347071D01*
X30335000Y-80432929D02*
X30335000Y-80830000D01*
X30335000Y-83490000D02*
X30335000Y-89490000D01*
X30335000Y-89490000D02*
X29575000Y-89490000D01*
X31225000Y-80830000D02*
X31225000Y-83490000D01*
X32115000Y-77892929D02*
X32115000Y-78347071D01*
X32115000Y-80432929D02*
X32115000Y-80830000D01*
X32115000Y-89490000D02*
X32115000Y-83490000D01*
X32875000Y-77892929D02*
X32875000Y-78347071D01*
X32875000Y-80432929D02*
X32875000Y-80830000D01*
X32875000Y-83490000D02*
X32875000Y-89490000D01*
X32875000Y-89490000D02*
X32115000Y-89490000D01*
X33765000Y-80830000D02*
X33765000Y-83490000D01*
X34655000Y-77892929D02*
X34655000Y-78347071D01*
X34655000Y-80432929D02*
X34655000Y-80830000D01*
X34655000Y-89490000D02*
X34655000Y-83490000D01*
X35415000Y-77892929D02*
X35415000Y-78347071D01*
X35415000Y-80432929D02*
X35415000Y-80830000D01*
X35415000Y-83490000D02*
X35415000Y-89490000D01*
X35415000Y-89490000D02*
X34655000Y-89490000D01*
X36305000Y-80830000D02*
X36305000Y-83490000D01*
X37195000Y-77960000D02*
X37195000Y-78347071D01*
X37195000Y-80432929D02*
X37195000Y-80830000D01*
X37195000Y-89490000D02*
X37195000Y-83490000D01*
X37295000Y-83490000D02*
X37295000Y-89490000D01*
X37415000Y-83490000D02*
X37415000Y-89490000D01*
X37535000Y-83490000D02*
X37535000Y-89490000D01*
X37575000Y-75580000D02*
X38845000Y-75580000D01*
X37655000Y-83490000D02*
X37655000Y-89490000D01*
X37775000Y-83490000D02*
X37775000Y-89490000D01*
X37895000Y-83490000D02*
X37895000Y-89490000D01*
X37955000Y-77960000D02*
X37955000Y-78347071D01*
X37955000Y-80432929D02*
X37955000Y-80830000D01*
X37955000Y-83490000D02*
X37955000Y-89490000D01*
X37955000Y-89490000D02*
X37195000Y-89490000D01*
X38845000Y-75580000D02*
X38845000Y-76850000D01*
X38905000Y-80830000D02*
X26085000Y-80830000D01*
X38905000Y-83490000D02*
X38905000Y-80830000D01*
D14*
%TO.C,U5*%
X34350000Y-59850000D02*
X34350000Y-60500000D01*
X34350000Y-64500000D02*
X34350000Y-65150000D01*
X34350000Y-65150000D02*
X35000000Y-65150000D01*
X35000000Y-59850000D02*
X34350000Y-59850000D01*
X39650000Y-59850000D02*
X39000000Y-59850000D01*
X39650000Y-60500000D02*
X39650000Y-59850000D01*
X39650000Y-64500000D02*
X39650000Y-65150000D01*
X39650000Y-65150000D02*
X39000000Y-65150000D01*
D13*
X40000000Y-64949000D02*
G75*
G02*
X40000000Y-64951500I149999J-1250D01*
G01*
D14*
%TO.C,U3*%
X25350500Y-59850000D02*
X25350500Y-60500000D01*
X25350500Y-64500000D02*
X25350500Y-65150000D01*
X25350500Y-65150000D02*
X26000500Y-65150000D01*
X26000500Y-59850000D02*
X25350500Y-59850000D01*
X30650500Y-59850000D02*
X30000500Y-59850000D01*
X30650500Y-60500000D02*
X30650500Y-59850000D01*
X30650500Y-64500000D02*
X30650500Y-65150000D01*
X30650500Y-65150000D02*
X30000500Y-65150000D01*
D13*
X31000500Y-64949000D02*
G75*
G02*
X31000500Y-64951500I149999J-1250D01*
G01*
D15*
%TO.C,C3*%
X29715000Y-31777500D02*
X29715000Y-34087500D01*
X31285000Y-31777500D02*
X29715000Y-31777500D01*
X31285000Y-34087500D02*
X31285000Y-31777500D01*
D16*
%TO.C,X1*%
X22743000Y-46143000D02*
X22743000Y-48000000D01*
X22971500Y-46371500D02*
X26328500Y-46371500D01*
X22971500Y-50428500D02*
X22971500Y-46371500D01*
X24400000Y-46143000D02*
X22743000Y-46143000D01*
X26328500Y-46371500D02*
X26328500Y-50428500D01*
X26328500Y-50428500D02*
X22971500Y-50428500D01*
%TO.C,U1*%
X23428500Y-28674000D02*
X26371500Y-28674000D01*
X23428500Y-35326000D02*
X23428500Y-28674000D01*
X26371500Y-28674000D02*
X26371500Y-35326000D01*
X26371500Y-35326000D02*
X23428500Y-35326000D01*
%TD*%
%LPC*%
D17*
%TO.C,C8*%
X31820000Y-46500000D03*
X31180000Y-46500000D03*
%TD*%
%TO.C,R2*%
X27820000Y-26500000D03*
X27180000Y-26500000D03*
%TD*%
D18*
%TO.C,C4*%
X42835000Y-45000000D03*
X43475000Y-45000000D03*
%TD*%
D19*
%TO.C,C19*%
X31000000Y-58665000D03*
X31000000Y-58025000D03*
%TD*%
%TO.C,C21*%
X31500000Y-67820000D03*
X31500000Y-67180000D03*
%TD*%
D17*
%TO.C,R4*%
X43475000Y-46000000D03*
X42835000Y-46000000D03*
%TD*%
D18*
%TO.C,D1*%
X24180000Y-36500000D03*
X24820000Y-36500000D03*
%TD*%
D19*
%TO.C,R12*%
X36500000Y-40320000D03*
X36500000Y-39680000D03*
%TD*%
D18*
%TO.C,R1*%
X37335000Y-26500000D03*
X37975000Y-26500000D03*
%TD*%
D20*
%TO.C,U2*%
X36000000Y-47472000D03*
X36500000Y-47472000D03*
X37000000Y-47472000D03*
X37500000Y-47472000D03*
X38000000Y-47472000D03*
X38500000Y-47472000D03*
X39000000Y-47472000D03*
X39500000Y-47472000D03*
X40000000Y-47472000D03*
D21*
X40972000Y-46500000D03*
X40972000Y-46000000D03*
X40972000Y-45500000D03*
X40972000Y-45000000D03*
X40972000Y-44500000D03*
X40972000Y-44000000D03*
X40972000Y-43500000D03*
X40972000Y-43000000D03*
X40972000Y-42500000D03*
D20*
X40000000Y-41528000D03*
X39500000Y-41528000D03*
X39000000Y-41528000D03*
X38500000Y-41528000D03*
X38000000Y-41528000D03*
X37500000Y-41528000D03*
X37000000Y-41528000D03*
X36500000Y-41528000D03*
X36000000Y-41528000D03*
D21*
X35028000Y-42500000D03*
X35028000Y-43000000D03*
X35028000Y-43500000D03*
X35028000Y-44000000D03*
X35028000Y-44500000D03*
X35028000Y-45000000D03*
X35028000Y-45500000D03*
X35028000Y-46000000D03*
X35028000Y-46500000D03*
D22*
X38000000Y-44500000D03*
%TD*%
D23*
%TO.C,R6*%
X22000000Y-48180000D03*
X22000000Y-48820000D03*
%TD*%
D19*
%TO.C,R9*%
X38500000Y-37975000D03*
X38500000Y-37335000D03*
%TD*%
%TO.C,R13*%
X39000000Y-39820000D03*
X39000000Y-39180000D03*
%TD*%
D17*
%TO.C,C10*%
X35500000Y-38000000D03*
X34860000Y-38000000D03*
%TD*%
D24*
%TO.C,U6*%
X39500000Y-72001500D03*
X39500000Y-71501000D03*
X39500000Y-71000500D03*
X39500000Y-70500000D03*
X39500000Y-69999500D03*
X39500000Y-69499500D03*
X39500000Y-68999000D03*
D25*
X38501500Y-68000000D03*
X38001000Y-68000000D03*
X37500500Y-68000000D03*
X37000000Y-68000000D03*
X36499500Y-68000000D03*
X35999500Y-68000000D03*
X35499000Y-68000000D03*
D24*
X34500000Y-68999000D03*
X34500000Y-69499500D03*
X34500000Y-69999500D03*
X34500000Y-70500000D03*
X34500000Y-71000500D03*
X34500000Y-71501000D03*
X34500000Y-72001500D03*
D25*
X35499000Y-73000000D03*
X35999500Y-73000000D03*
X36499500Y-73000000D03*
X37000000Y-73000000D03*
X37500500Y-73000000D03*
X38001000Y-73000000D03*
X38501500Y-73000000D03*
D26*
X37000000Y-70500000D03*
%TD*%
D17*
%TO.C,C14*%
X35500000Y-39000000D03*
X34860000Y-39000000D03*
%TD*%
D27*
%TO.C,USB1*%
X36820000Y-24382200D03*
X28180000Y-24382200D03*
D28*
X36820000Y-20232200D03*
X28180000Y-20232200D03*
D29*
X35700000Y-24957200D03*
X34900000Y-24957200D03*
D30*
X33750000Y-24957200D03*
X32750000Y-24957200D03*
X32250000Y-24957200D03*
X31250000Y-24957200D03*
D29*
X29300000Y-24957200D03*
X30100000Y-24957200D03*
D30*
X30750000Y-24957200D03*
X31750000Y-24957200D03*
X33250000Y-24957200D03*
X34250000Y-24957200D03*
%TD*%
D19*
%TO.C,C18*%
X30000000Y-58665000D03*
X30000000Y-58025000D03*
%TD*%
D24*
%TO.C,U4*%
X30500000Y-72001500D03*
X30500000Y-71501000D03*
X30500000Y-71000500D03*
X30500000Y-70500000D03*
X30500000Y-69999500D03*
X30500000Y-69499500D03*
X30500000Y-68999000D03*
D25*
X29501500Y-68000000D03*
X29001000Y-68000000D03*
X28500500Y-68000000D03*
X28000000Y-68000000D03*
X27499500Y-68000000D03*
X26999500Y-68000000D03*
X26499000Y-68000000D03*
D24*
X25500000Y-68999000D03*
X25500000Y-69499500D03*
X25500000Y-69999500D03*
X25500000Y-70500000D03*
X25500000Y-71000500D03*
X25500000Y-71501000D03*
X25500000Y-72001500D03*
D25*
X26499000Y-73000000D03*
X26999500Y-73000000D03*
X27499500Y-73000000D03*
X28000000Y-73000000D03*
X28500500Y-73000000D03*
X29001000Y-73000000D03*
X29501500Y-73000000D03*
D26*
X28000000Y-70500000D03*
%TD*%
D23*
%TO.C,C15*%
X34000000Y-47680000D03*
X34000000Y-48320000D03*
%TD*%
D31*
%TO.C,J1*%
X37575000Y-76850000D03*
D32*
X37575000Y-79390000D03*
X35035000Y-76850000D03*
X35035000Y-79390000D03*
X32495000Y-76850000D03*
X32495000Y-79390000D03*
X29955000Y-76850000D03*
X29955000Y-79390000D03*
X27415000Y-76850000D03*
X27415000Y-79390000D03*
%TD*%
D19*
%TO.C,C25*%
X41500000Y-67320000D03*
X41500000Y-66680000D03*
%TD*%
%TO.C,C20*%
X30500000Y-66975000D03*
X30500000Y-66335000D03*
%TD*%
D18*
%TO.C,C6*%
X24150000Y-51400000D03*
X24790000Y-51400000D03*
%TD*%
D24*
%TO.C,U5*%
X39500000Y-64001500D03*
X39500000Y-63501000D03*
X39500000Y-63000500D03*
X39500000Y-62500000D03*
X39500000Y-61999500D03*
X39500000Y-61499500D03*
X39500000Y-60999000D03*
D25*
X38501500Y-60000000D03*
X38001000Y-60000000D03*
X37500500Y-60000000D03*
X37000000Y-60000000D03*
X36499500Y-60000000D03*
X35999500Y-60000000D03*
X35499000Y-60000000D03*
D24*
X34500000Y-60999000D03*
X34500000Y-61499500D03*
X34500000Y-61999500D03*
X34500000Y-62500000D03*
X34500000Y-63000500D03*
X34500000Y-63501000D03*
X34500000Y-64001500D03*
D25*
X35499000Y-65000000D03*
X35999500Y-65000000D03*
X36499500Y-65000000D03*
X37000000Y-65000000D03*
X37500500Y-65000000D03*
X38001000Y-65000000D03*
X38501500Y-65000000D03*
D26*
X37000000Y-62500000D03*
%TD*%
D23*
%TO.C,C23*%
X38000000Y-57680000D03*
X38000000Y-58320000D03*
%TD*%
D19*
%TO.C,C11*%
X37500000Y-37475000D03*
X37500000Y-36835000D03*
%TD*%
%TO.C,R7*%
X36500000Y-37975000D03*
X36500000Y-37335000D03*
%TD*%
D23*
%TO.C,R10*%
X31000000Y-39680000D03*
X31000000Y-40320000D03*
%TD*%
D18*
%TO.C,C5*%
X42835000Y-44000000D03*
X43475000Y-44000000D03*
%TD*%
D23*
%TO.C,C22*%
X39000000Y-57680000D03*
X39000000Y-58320000D03*
%TD*%
D24*
%TO.C,U3*%
X30500500Y-64001500D03*
X30500500Y-63501000D03*
X30500500Y-63000500D03*
X30500500Y-62500000D03*
X30500500Y-61999500D03*
X30500500Y-61499500D03*
X30500500Y-60999000D03*
D25*
X29502000Y-60000000D03*
X29001500Y-60000000D03*
X28501000Y-60000000D03*
X28000500Y-60000000D03*
X27500000Y-60000000D03*
X27000000Y-60000000D03*
X26499500Y-60000000D03*
D24*
X25500500Y-60999000D03*
X25500500Y-61499500D03*
X25500500Y-61999500D03*
X25500500Y-62500000D03*
X25500500Y-63000500D03*
X25500500Y-63501000D03*
X25500500Y-64001500D03*
D25*
X26499500Y-65000000D03*
X27000000Y-65000000D03*
X27500000Y-65000000D03*
X28000500Y-65000000D03*
X28501000Y-65000000D03*
X29001500Y-65000000D03*
X29502000Y-65000000D03*
D26*
X28000500Y-62500000D03*
%TD*%
D17*
%TO.C,C9*%
X31820000Y-45500000D03*
X31180000Y-45500000D03*
%TD*%
D33*
%TO.C,C3*%
X30500000Y-32575000D03*
X30500000Y-34000000D03*
%TD*%
D17*
%TO.C,C2*%
X29820000Y-26500000D03*
X29180000Y-26500000D03*
%TD*%
D19*
%TO.C,C13*%
X34000000Y-40820000D03*
X34000000Y-40180000D03*
%TD*%
D18*
%TO.C,C17*%
X42835000Y-47000000D03*
X43475000Y-47000000D03*
%TD*%
D19*
%TO.C,R14*%
X40000000Y-39820000D03*
X40000000Y-39180000D03*
%TD*%
D34*
%TO.C,X1*%
X23800000Y-47300000D03*
X23800000Y-49500000D03*
X25500000Y-49500000D03*
X25500000Y-47300000D03*
%TD*%
D18*
%TO.C,C1*%
X35000000Y-26500000D03*
X35640000Y-26500000D03*
%TD*%
%TO.C,C12*%
X42835000Y-43000000D03*
X43475000Y-43000000D03*
%TD*%
%TO.C,C7*%
X24150000Y-45400000D03*
X24790000Y-45400000D03*
%TD*%
D23*
%TO.C,R11*%
X29680000Y-39680000D03*
X29680000Y-40320000D03*
%TD*%
D19*
%TO.C,C24*%
X40500000Y-67320000D03*
X40500000Y-66680000D03*
%TD*%
D23*
%TO.C,C16*%
X37000000Y-56180000D03*
X37000000Y-56820000D03*
%TD*%
D17*
%TO.C,R5*%
X43475000Y-42000000D03*
X42835000Y-42000000D03*
%TD*%
D19*
%TO.C,R8*%
X37500000Y-39975000D03*
X37500000Y-39335000D03*
%TD*%
D17*
%TO.C,R3*%
X31820000Y-47500000D03*
X31180000Y-47500000D03*
%TD*%
D35*
%TO.C,U1*%
X27970000Y-34300000D03*
X27970000Y-32000000D03*
X27970000Y-29700000D03*
D36*
X22030000Y-32000000D03*
%TD*%
%LPD*%
M02*
