%TF.GenerationSoftware,KiCad,Pcbnew,8.0.8*%
%TF.CreationDate,2025-04-09T23:46:09+08:00*%
%TF.ProjectId,usb-4uart,7573622d-3475-4617-9274-2e6b69636164,rev?*%
%TF.SameCoordinates,Original*%
%TF.FileFunction,Copper,L1,Top*%
%TF.FilePolarity,Positive*%
%FSLAX46Y46*%
G04 Gerber Fmt 4.6, Leading zero omitted, Abs format (unit mm)*
G04 Created by KiCad (PCBNEW 8.0.8) date 2025-04-09 23:46:09*
%MOMM*%
%LPD*%
G01*
G04 APERTURE LIST*
G04 Aperture macros list*
%AMRoundRect*
0 Rectangle with rounded corners*
0 $1 Rounding radius*
0 $2 $3 $4 $5 $6 $7 $8 $9 X,Y pos of 4 corners*
0 Add a 4 corners polygon primitive as box body*
4,1,4,$2,$3,$4,$5,$6,$7,$8,$9,$2,$3,0*
0 Add four circle primitives for the rounded corners*
1,1,$1+$1,$2,$3*
1,1,$1+$1,$4,$5*
1,1,$1+$1,$6,$7*
1,1,$1+$1,$8,$9*
0 Add four rect primitives between the rounded corners*
20,1,$1+$1,$2,$3,$4,$5,0*
20,1,$1+$1,$4,$5,$6,$7,0*
20,1,$1+$1,$6,$7,$8,$9,0*
20,1,$1+$1,$8,$9,$2,$3,0*%
G04 Aperture macros list end*
%TA.AperFunction,SMDPad,CuDef*%
%ADD10RoundRect,0.100000X0.130000X0.100000X-0.130000X0.100000X-0.130000X-0.100000X0.130000X-0.100000X0*%
%TD*%
%TA.AperFunction,SMDPad,CuDef*%
%ADD11RoundRect,0.100000X-0.130000X-0.100000X0.130000X-0.100000X0.130000X0.100000X-0.130000X0.100000X0*%
%TD*%
%TA.AperFunction,SMDPad,CuDef*%
%ADD12RoundRect,0.100000X0.100000X-0.130000X0.100000X0.130000X-0.100000X0.130000X-0.100000X-0.130000X0*%
%TD*%
%TA.AperFunction,SMDPad,CuDef*%
%ADD13O,0.280000X1.100000*%
%TD*%
%TA.AperFunction,SMDPad,CuDef*%
%ADD14O,1.100000X0.280000*%
%TD*%
%TA.AperFunction,SMDPad,CuDef*%
%ADD15R,4.100000X4.100000*%
%TD*%
%TA.AperFunction,SMDPad,CuDef*%
%ADD16RoundRect,0.100000X-0.100000X0.130000X-0.100000X-0.130000X0.100000X-0.130000X0.100000X0.130000X0*%
%TD*%
%TA.AperFunction,SMDPad,CuDef*%
%ADD17O,0.900000X0.280000*%
%TD*%
%TA.AperFunction,SMDPad,CuDef*%
%ADD18O,0.280000X0.900000*%
%TD*%
%TA.AperFunction,SMDPad,CuDef*%
%ADD19R,3.200000X3.200000*%
%TD*%
%TA.AperFunction,ComponentPad*%
%ADD20O,1.000000X2.100000*%
%TD*%
%TA.AperFunction,ComponentPad*%
%ADD21O,1.000000X1.800000*%
%TD*%
%TA.AperFunction,SMDPad,CuDef*%
%ADD22R,0.600000X1.150000*%
%TD*%
%TA.AperFunction,SMDPad,CuDef*%
%ADD23R,0.300000X1.150000*%
%TD*%
%TA.AperFunction,ComponentPad*%
%ADD24R,1.700000X1.700000*%
%TD*%
%TA.AperFunction,ComponentPad*%
%ADD25O,1.700000X1.700000*%
%TD*%
%TA.AperFunction,SMDPad,CuDef*%
%ADD26RoundRect,0.250000X-0.275000X0.287500X-0.275000X-0.287500X0.275000X-0.287500X0.275000X0.287500X0*%
%TD*%
%TA.AperFunction,SMDPad,CuDef*%
%ADD27R,1.200000X1.400000*%
%TD*%
%TA.AperFunction,SMDPad,CuDef*%
%ADD28R,2.500000X1.100000*%
%TD*%
%TA.AperFunction,SMDPad,CuDef*%
%ADD29R,2.340000X3.600000*%
%TD*%
%TA.AperFunction,ViaPad*%
%ADD30C,0.600000*%
%TD*%
%TA.AperFunction,Conductor*%
%ADD31C,0.200000*%
%TD*%
%TA.AperFunction,Conductor*%
%ADD32C,0.500000*%
%TD*%
%TA.AperFunction,Conductor*%
%ADD33C,0.300000*%
%TD*%
G04 APERTURE END LIST*
D10*
%TO.P,C8,1*%
%TO.N,Net-(U2-PLLFILT)*%
X31820000Y-46500000D03*
%TO.P,C8,2*%
%TO.N,GND*%
X31180000Y-46500000D03*
%TD*%
%TO.P,R2,1*%
%TO.N,Net-(USB1-CC2)*%
X27820000Y-26500000D03*
%TO.P,R2,2*%
%TO.N,GND*%
X27180000Y-26500000D03*
%TD*%
D11*
%TO.P,C4,1*%
%TO.N,Net-(U2-CRFILT)*%
X42835000Y-45000000D03*
%TO.P,C4,2*%
%TO.N,GND*%
X43475000Y-45000000D03*
%TD*%
D12*
%TO.P,C19,1*%
%TO.N,+3.3V*%
X31000000Y-58665000D03*
%TO.P,C19,2*%
%TO.N,GND*%
X31000000Y-58025000D03*
%TD*%
%TO.P,C21,1*%
%TO.N,+3.3V*%
X31500000Y-67820000D03*
%TO.P,C21,2*%
%TO.N,GND*%
X31500000Y-67180000D03*
%TD*%
D10*
%TO.P,R4,1*%
%TO.N,+3.3V*%
X43475000Y-46000000D03*
%TO.P,R4,2*%
%TO.N,Net-(U2-OCS_N1)*%
X42835000Y-46000000D03*
%TD*%
D11*
%TO.P,D1,1,K*%
%TO.N,SUSP_IND*%
X24180000Y-36500000D03*
%TO.P,D1,2,A*%
%TO.N,Net-(D1-A)*%
X24820000Y-36500000D03*
%TD*%
D12*
%TO.P,R12,1*%
%TO.N,Net-(U2-RESET_N)*%
X36500000Y-40320000D03*
%TO.P,R12,2*%
%TO.N,+3.3V*%
X36500000Y-39680000D03*
%TD*%
D11*
%TO.P,R1,1*%
%TO.N,Net-(USB1-CC1)*%
X37335000Y-26500000D03*
%TO.P,R1,2*%
%TO.N,GND*%
X37975000Y-26500000D03*
%TD*%
D13*
%TO.P,U2,1,USBDM_DN1/PRT_DIS_M1*%
%TO.N,D1+*%
X36000000Y-47472000D03*
%TO.P,U2,2,USBDP_DN1/PRT_DIS_P1*%
%TO.N,D1-*%
X36500000Y-47472000D03*
%TO.P,U2,3,USBDM_DN2/PRT_DIS_M2*%
%TO.N,D2+*%
X37000000Y-47472000D03*
%TO.P,U2,4,USBDP_DN2/PRT_DIS_P2*%
%TO.N,D2-*%
X37500000Y-47472000D03*
%TO.P,U2,5,VDDA33*%
%TO.N,+3.3V*%
X38000000Y-47472000D03*
%TO.P,U2,6,USBDM_DN3/PRT_DOS_M3*%
%TO.N,D3+*%
X38500000Y-47472000D03*
%TO.P,U2,7,USBDP_DN3/PRT_DIS_P3*%
%TO.N,D3-*%
X39000000Y-47472000D03*
%TO.P,U2,8,USBDM_DN4/PRT_DIS_M4*%
%TO.N,D4+*%
X39500000Y-47472000D03*
%TO.P,U2,9,USBDP_DN4/PRT_DIS_P4*%
%TO.N,D4-*%
X40000000Y-47472000D03*
D14*
%TO.P,U2,10,VDDA33*%
%TO.N,+3.3V*%
X40972000Y-46500000D03*
%TO.P,U2,11,TEST*%
%TO.N,GND*%
X40972000Y-46000000D03*
%TO.P,U2,12,PRTPWR1/BC_EN1*%
%TO.N,unconnected-(U2-PRTPWR1{slash}BC_EN1-Pad12)*%
X40972000Y-45500000D03*
%TO.P,U2,13,OCS_N1*%
%TO.N,Net-(U2-OCS_N1)*%
X40972000Y-45000000D03*
%TO.P,U2,14,CRFILT*%
%TO.N,Net-(U2-CRFILT)*%
X40972000Y-44500000D03*
%TO.P,U2,15,VDD33*%
%TO.N,+3.3V*%
X40972000Y-44000000D03*
%TO.P,U2,16,PRTPWR2/BC_EN2*%
%TO.N,unconnected-(U2-PRTPWR2{slash}BC_EN2-Pad16)*%
X40972000Y-43500000D03*
%TO.P,U2,17,OCS_N2*%
%TO.N,Net-(U2-OCS_N2)*%
X40972000Y-43000000D03*
%TO.P,U2,18,PRTPWR3/BC_EN3*%
%TO.N,unconnected-(U2-PRTPWR3{slash}BC_EN3-Pad18)*%
X40972000Y-42500000D03*
D13*
%TO.P,U2,19,OCS_N3*%
%TO.N,Net-(U2-OCS_N3)*%
X40000000Y-41528000D03*
%TO.P,U2,20,PRTPWR4/BC_EN4*%
%TO.N,unconnected-(U2-PRTPWR4{slash}BC_EN4-Pad20)*%
X39500000Y-41528000D03*
%TO.P,U2,21,OCS_N4*%
%TO.N,Net-(U2-OCS_N4)*%
X39000000Y-41528000D03*
%TO.P,U2,22,SDA/SMBDATA/NON_REM1*%
%TO.N,Net-(U2-SDA{slash}SMBDATA{slash}NON_REM1)*%
X38500000Y-41528000D03*
%TO.P,U2,23,VDD33*%
%TO.N,+3.3V*%
X38000000Y-41528000D03*
%TO.P,U2,24,SCL/SMBCLK/CFG_SEL0*%
%TO.N,Net-(U2-SCL{slash}SMBCLK{slash}CFG_SEL0)*%
X37500000Y-41528000D03*
%TO.P,U2,25,HS_IND/CFG_SEL1*%
%TO.N,Net-(U2-HS_IND{slash}CFG_SEL1)*%
X37000000Y-41528000D03*
%TO.P,U2,26,RESET_N*%
%TO.N,Net-(U2-RESET_N)*%
X36500000Y-41528000D03*
%TO.P,U2,27,VBUS_DET*%
%TO.N,+3.3V*%
X36000000Y-41528000D03*
D14*
%TO.P,U2,28,SUSP_IND/LOCAL_PWR/NON_REM0*%
%TO.N,SUSP_IND*%
X35028000Y-42500000D03*
%TO.P,U2,29,VDDA33*%
%TO.N,+3.3V*%
X35028000Y-43000000D03*
%TO.P,U2,30,USBDM_UP*%
%TO.N,USB_IN-*%
X35028000Y-43500000D03*
%TO.P,U2,31,USBDP_UP*%
%TO.N,USB_IN+*%
X35028000Y-44000000D03*
%TO.P,U2,32,XTALOUT*%
%TO.N,XTAL_OUT*%
X35028000Y-44500000D03*
%TO.P,U2,33,XTALIN/CLKIN*%
%TO.N,XTAL_IN*%
X35028000Y-45000000D03*
%TO.P,U2,34,PLLFILT*%
%TO.N,Net-(U2-PLLFILT)*%
X35028000Y-45500000D03*
%TO.P,U2,35,RBIAS*%
%TO.N,Net-(U2-RBIAS)*%
X35028000Y-46000000D03*
%TO.P,U2,36,VDD33*%
%TO.N,+3.3V*%
X35028000Y-46500000D03*
D15*
%TO.P,U2,37,EP*%
%TO.N,GND*%
X38000000Y-44500000D03*
%TD*%
D16*
%TO.P,R6,1*%
%TO.N,Net-(C7-Pad1)*%
X22000000Y-48180000D03*
%TO.P,R6,2*%
%TO.N,Net-(C6-Pad1)*%
X22000000Y-48820000D03*
%TD*%
D12*
%TO.P,R9,1*%
%TO.N,Net-(U2-SDA{slash}SMBDATA{slash}NON_REM1)*%
X38500000Y-37975000D03*
%TO.P,R9,2*%
%TO.N,+3.3V*%
X38500000Y-37335000D03*
%TD*%
%TO.P,R13,1*%
%TO.N,Net-(U2-OCS_N4)*%
X39000000Y-39820000D03*
%TO.P,R13,2*%
%TO.N,+3.3V*%
X39000000Y-39180000D03*
%TD*%
D10*
%TO.P,C10,1*%
%TO.N,+3.3V*%
X35500000Y-38000000D03*
%TO.P,C10,2*%
%TO.N,GND*%
X34860000Y-38000000D03*
%TD*%
D17*
%TO.P,U6,1,DCD*%
%TO.N,unconnected-(U6-DCD-Pad1)*%
X39500000Y-72001500D03*
%TO.P,U6,2,RI*%
%TO.N,unconnected-(U6-RI-Pad2)*%
X39500000Y-71501000D03*
%TO.P,U6,3,GND*%
%TO.N,GND*%
X39500000Y-71000500D03*
%TO.P,U6,4,D+*%
%TO.N,D4+*%
X39500000Y-70500000D03*
%TO.P,U6,5,D-*%
%TO.N,D4-*%
X39500000Y-69999500D03*
%TO.P,U6,6,VDD*%
%TO.N,+3.3V*%
X39500000Y-69499500D03*
%TO.P,U6,7,REGIN*%
X39500000Y-68999000D03*
D18*
%TO.P,U6,8,VBUS*%
%TO.N,+5V*%
X38501500Y-68000000D03*
%TO.P,U6,9,RST#*%
%TO.N,unconnected-(U6-RST#-Pad9)*%
X38001000Y-68000000D03*
%TO.P,U6,10,NC*%
%TO.N,unconnected-(U6-NC-Pad10)*%
X37500500Y-68000000D03*
%TO.P,U6,11,SUSPEND#*%
%TO.N,unconnected-(U6-SUSPEND#-Pad11)*%
X37000000Y-68000000D03*
%TO.P,U6,12,SUSPEND*%
%TO.N,unconnected-(U6-SUSPEND-Pad12)*%
X36499500Y-68000000D03*
%TO.P,U6,13,NC*%
%TO.N,unconnected-(U6-NC-Pad13)*%
X35999500Y-68000000D03*
%TO.P,U6,14,NC*%
%TO.N,unconnected-(U6-NC-Pad14)*%
X35499000Y-68000000D03*
D17*
%TO.P,U6,15,NC*%
%TO.N,unconnected-(U6-NC-Pad15)*%
X34500000Y-68999000D03*
%TO.P,U6,16,NC*%
%TO.N,unconnected-(U6-NC-Pad16)*%
X34500000Y-69499500D03*
%TO.P,U6,17,NC*%
%TO.N,unconnected-(U6-NC-Pad17)*%
X34500000Y-69999500D03*
%TO.P,U6,18,NC*%
%TO.N,unconnected-(U6-NC-Pad18)*%
X34500000Y-70500000D03*
%TO.P,U6,19,NC*%
%TO.N,unconnected-(U6-NC-Pad19)*%
X34500000Y-71000500D03*
%TO.P,U6,20,NC*%
%TO.N,unconnected-(U6-NC-Pad20)*%
X34500000Y-71501000D03*
%TO.P,U6,21,NC*%
%TO.N,unconnected-(U6-NC-Pad21)*%
X34500000Y-72001500D03*
D18*
%TO.P,U6,22,NC*%
%TO.N,unconnected-(U6-NC-Pad22)*%
X35499000Y-73000000D03*
%TO.P,U6,23,CTS*%
%TO.N,unconnected-(U6-CTS-Pad23)*%
X35999500Y-73000000D03*
%TO.P,U6,24,RTS*%
%TO.N,unconnected-(U6-RTS-Pad24)*%
X36499500Y-73000000D03*
%TO.P,U6,25,RXD*%
%TO.N,RX4*%
X37000000Y-73000000D03*
%TO.P,U6,26,TXD*%
%TO.N,TX4*%
X37500500Y-73000000D03*
%TO.P,U6,27,DSR*%
%TO.N,unconnected-(U6-DSR-Pad27)*%
X38001000Y-73000000D03*
%TO.P,U6,28,DTR*%
%TO.N,unconnected-(U6-DTR-Pad28)*%
X38501500Y-73000000D03*
D19*
%TO.P,U6,29,EP*%
%TO.N,GND*%
X37000000Y-70500000D03*
%TD*%
D10*
%TO.P,C14,1*%
%TO.N,+3.3V*%
X35500000Y-39000000D03*
%TO.P,C14,2*%
%TO.N,GND*%
X34860000Y-39000000D03*
%TD*%
D20*
%TO.P,USB1,1,SHELL*%
%TO.N,GND*%
X36820000Y-24382200D03*
%TO.P,USB1,2,SHELL*%
X28180000Y-24382200D03*
D21*
%TO.P,USB1,3,SHELL*%
X36820000Y-20232200D03*
%TO.P,USB1,4,SHELL*%
X28180000Y-20232200D03*
D22*
%TO.P,USB1,A1B12,GND*%
X35700000Y-24957200D03*
%TO.P,USB1,A4B9,VBUS*%
%TO.N,+5V*%
X34900000Y-24957200D03*
D23*
%TO.P,USB1,A5,CC1*%
%TO.N,Net-(USB1-CC1)*%
X33750000Y-24957200D03*
%TO.P,USB1,A6,DP1*%
%TO.N,USB_IN+*%
X32750000Y-24957200D03*
%TO.P,USB1,A7,DN1*%
%TO.N,USB_IN-*%
X32250000Y-24957200D03*
%TO.P,USB1,A8,SBU1*%
%TO.N,unconnected-(USB1-SBU1-PadA8)*%
X31250000Y-24957200D03*
D22*
%TO.P,USB1,B1A12,GND*%
%TO.N,GND*%
X29300000Y-24957200D03*
%TO.P,USB1,B4A9,VBUS*%
%TO.N,+5V*%
X30100000Y-24957200D03*
D23*
%TO.P,USB1,B5,CC2*%
%TO.N,Net-(USB1-CC2)*%
X30750000Y-24957200D03*
%TO.P,USB1,B6,DP2*%
%TO.N,USB_IN+*%
X31750000Y-24957200D03*
%TO.P,USB1,B7,DN2*%
%TO.N,USB_IN-*%
X33250000Y-24957200D03*
%TO.P,USB1,B8,SBU2*%
%TO.N,unconnected-(USB1-SBU2-PadB8)*%
X34250000Y-24957200D03*
%TD*%
D12*
%TO.P,C18,1*%
%TO.N,+3.3V*%
X30000000Y-58665000D03*
%TO.P,C18,2*%
%TO.N,GND*%
X30000000Y-58025000D03*
%TD*%
D17*
%TO.P,U4,1,DCD*%
%TO.N,unconnected-(U4-DCD-Pad1)*%
X30500000Y-72001500D03*
%TO.P,U4,2,RI*%
%TO.N,unconnected-(U4-RI-Pad2)*%
X30500000Y-71501000D03*
%TO.P,U4,3,GND*%
%TO.N,GND*%
X30500000Y-71000500D03*
%TO.P,U4,4,D+*%
%TO.N,D2+*%
X30500000Y-70500000D03*
%TO.P,U4,5,D-*%
%TO.N,D2-*%
X30500000Y-69999500D03*
%TO.P,U4,6,VDD*%
%TO.N,+3.3V*%
X30500000Y-69499500D03*
%TO.P,U4,7,REGIN*%
X30500000Y-68999000D03*
D18*
%TO.P,U4,8,VBUS*%
%TO.N,+5V*%
X29501500Y-68000000D03*
%TO.P,U4,9,RST#*%
%TO.N,unconnected-(U4-RST#-Pad9)*%
X29001000Y-68000000D03*
%TO.P,U4,10,NC*%
%TO.N,unconnected-(U4-NC-Pad10)*%
X28500500Y-68000000D03*
%TO.P,U4,11,SUSPEND#*%
%TO.N,unconnected-(U4-SUSPEND#-Pad11)*%
X28000000Y-68000000D03*
%TO.P,U4,12,SUSPEND*%
%TO.N,unconnected-(U4-SUSPEND-Pad12)*%
X27499500Y-68000000D03*
%TO.P,U4,13,NC*%
%TO.N,unconnected-(U4-NC-Pad13)*%
X26999500Y-68000000D03*
%TO.P,U4,14,NC*%
%TO.N,unconnected-(U4-NC-Pad14)*%
X26499000Y-68000000D03*
D17*
%TO.P,U4,15,NC*%
%TO.N,unconnected-(U4-NC-Pad15)*%
X25500000Y-68999000D03*
%TO.P,U4,16,NC*%
%TO.N,unconnected-(U4-NC-Pad16)*%
X25500000Y-69499500D03*
%TO.P,U4,17,NC*%
%TO.N,unconnected-(U4-NC-Pad17)*%
X25500000Y-69999500D03*
%TO.P,U4,18,NC*%
%TO.N,unconnected-(U4-NC-Pad18)*%
X25500000Y-70500000D03*
%TO.P,U4,19,NC*%
%TO.N,unconnected-(U4-NC-Pad19)*%
X25500000Y-71000500D03*
%TO.P,U4,20,NC*%
%TO.N,unconnected-(U4-NC-Pad20)*%
X25500000Y-71501000D03*
%TO.P,U4,21,NC*%
%TO.N,unconnected-(U4-NC-Pad21)*%
X25500000Y-72001500D03*
D18*
%TO.P,U4,22,NC*%
%TO.N,unconnected-(U4-NC-Pad22)*%
X26499000Y-73000000D03*
%TO.P,U4,23,CTS*%
%TO.N,unconnected-(U4-CTS-Pad23)*%
X26999500Y-73000000D03*
%TO.P,U4,24,RTS*%
%TO.N,unconnected-(U4-RTS-Pad24)*%
X27499500Y-73000000D03*
%TO.P,U4,25,RXD*%
%TO.N,RX2*%
X28000000Y-73000000D03*
%TO.P,U4,26,TXD*%
%TO.N,TX2*%
X28500500Y-73000000D03*
%TO.P,U4,27,DSR*%
%TO.N,unconnected-(U4-DSR-Pad27)*%
X29001000Y-73000000D03*
%TO.P,U4,28,DTR*%
%TO.N,unconnected-(U4-DTR-Pad28)*%
X29501500Y-73000000D03*
D19*
%TO.P,U4,29,EP*%
%TO.N,GND*%
X28000000Y-70500000D03*
%TD*%
D16*
%TO.P,C15,1*%
%TO.N,+3.3V*%
X34000000Y-47680000D03*
%TO.P,C15,2*%
%TO.N,GND*%
X34000000Y-48320000D03*
%TD*%
D24*
%TO.P,J1,1,Pin_1*%
%TO.N,GND*%
X37575000Y-76850000D03*
D25*
%TO.P,J1,2,Pin_2*%
X37575000Y-79390000D03*
%TO.P,J1,3,Pin_3*%
%TO.N,RX4*%
X35035000Y-76850000D03*
%TO.P,J1,4,Pin_4*%
%TO.N,TX4*%
X35035000Y-79390000D03*
%TO.P,J1,5,Pin_5*%
%TO.N,RX3*%
X32495000Y-76850000D03*
%TO.P,J1,6,Pin_6*%
%TO.N,TX3*%
X32495000Y-79390000D03*
%TO.P,J1,7,Pin_7*%
%TO.N,RX2*%
X29955000Y-76850000D03*
%TO.P,J1,8,Pin_8*%
%TO.N,TX2*%
X29955000Y-79390000D03*
%TO.P,J1,9,Pin_9*%
%TO.N,RX1*%
X27415000Y-76850000D03*
%TO.P,J1,10,Pin_10*%
%TO.N,TX1*%
X27415000Y-79390000D03*
%TD*%
D12*
%TO.P,C25,1*%
%TO.N,+3.3V*%
X41500000Y-67320000D03*
%TO.P,C25,2*%
%TO.N,GND*%
X41500000Y-66680000D03*
%TD*%
%TO.P,C20,1*%
%TO.N,+3.3V*%
X30500000Y-66975000D03*
%TO.P,C20,2*%
%TO.N,GND*%
X30500000Y-66335000D03*
%TD*%
D11*
%TO.P,C6,1*%
%TO.N,Net-(C6-Pad1)*%
X24150000Y-51400000D03*
%TO.P,C6,2*%
%TO.N,GND*%
X24790000Y-51400000D03*
%TD*%
D17*
%TO.P,U5,1,DCD*%
%TO.N,unconnected-(U5-DCD-Pad1)*%
X39500000Y-64001500D03*
%TO.P,U5,2,RI*%
%TO.N,unconnected-(U5-RI-Pad2)*%
X39500000Y-63501000D03*
%TO.P,U5,3,GND*%
%TO.N,GND*%
X39500000Y-63000500D03*
%TO.P,U5,4,D+*%
%TO.N,D3+*%
X39500000Y-62500000D03*
%TO.P,U5,5,D-*%
%TO.N,D3-*%
X39500000Y-61999500D03*
%TO.P,U5,6,VDD*%
%TO.N,+3.3V*%
X39500000Y-61499500D03*
%TO.P,U5,7,REGIN*%
X39500000Y-60999000D03*
D18*
%TO.P,U5,8,VBUS*%
%TO.N,+5V*%
X38501500Y-60000000D03*
%TO.P,U5,9,RST#*%
%TO.N,unconnected-(U5-RST#-Pad9)*%
X38001000Y-60000000D03*
%TO.P,U5,10,NC*%
%TO.N,unconnected-(U5-NC-Pad10)*%
X37500500Y-60000000D03*
%TO.P,U5,11,SUSPEND#*%
%TO.N,unconnected-(U5-SUSPEND#-Pad11)*%
X37000000Y-60000000D03*
%TO.P,U5,12,SUSPEND*%
%TO.N,unconnected-(U5-SUSPEND-Pad12)*%
X36499500Y-60000000D03*
%TO.P,U5,13,NC*%
%TO.N,unconnected-(U5-NC-Pad13)*%
X35999500Y-60000000D03*
%TO.P,U5,14,NC*%
%TO.N,unconnected-(U5-NC-Pad14)*%
X35499000Y-60000000D03*
D17*
%TO.P,U5,15,NC*%
%TO.N,unconnected-(U5-NC-Pad15)*%
X34500000Y-60999000D03*
%TO.P,U5,16,NC*%
%TO.N,unconnected-(U5-NC-Pad16)*%
X34500000Y-61499500D03*
%TO.P,U5,17,NC*%
%TO.N,unconnected-(U5-NC-Pad17)*%
X34500000Y-61999500D03*
%TO.P,U5,18,NC*%
%TO.N,unconnected-(U5-NC-Pad18)*%
X34500000Y-62500000D03*
%TO.P,U5,19,NC*%
%TO.N,unconnected-(U5-NC-Pad19)*%
X34500000Y-63000500D03*
%TO.P,U5,20,NC*%
%TO.N,unconnected-(U5-NC-Pad20)*%
X34500000Y-63501000D03*
%TO.P,U5,21,NC*%
%TO.N,unconnected-(U5-NC-Pad21)*%
X34500000Y-64001500D03*
D18*
%TO.P,U5,22,NC*%
%TO.N,unconnected-(U5-NC-Pad22)*%
X35499000Y-65000000D03*
%TO.P,U5,23,CTS*%
%TO.N,unconnected-(U5-CTS-Pad23)*%
X35999500Y-65000000D03*
%TO.P,U5,24,RTS*%
%TO.N,unconnected-(U5-RTS-Pad24)*%
X36499500Y-65000000D03*
%TO.P,U5,25,RXD*%
%TO.N,RX3*%
X37000000Y-65000000D03*
%TO.P,U5,26,TXD*%
%TO.N,TX3*%
X37500500Y-65000000D03*
%TO.P,U5,27,DSR*%
%TO.N,unconnected-(U5-DSR-Pad27)*%
X38001000Y-65000000D03*
%TO.P,U5,28,DTR*%
%TO.N,unconnected-(U5-DTR-Pad28)*%
X38501500Y-65000000D03*
D19*
%TO.P,U5,29,EP*%
%TO.N,GND*%
X37000000Y-62500000D03*
%TD*%
D16*
%TO.P,C23,1*%
%TO.N,+3.3V*%
X38000000Y-57680000D03*
%TO.P,C23,2*%
%TO.N,GND*%
X38000000Y-58320000D03*
%TD*%
D12*
%TO.P,C11,1*%
%TO.N,+3.3V*%
X37500000Y-37475000D03*
%TO.P,C11,2*%
%TO.N,GND*%
X37500000Y-36835000D03*
%TD*%
%TO.P,R7,1*%
%TO.N,Net-(U2-HS_IND{slash}CFG_SEL1)*%
X36500000Y-37975000D03*
%TO.P,R7,2*%
%TO.N,GND*%
X36500000Y-37335000D03*
%TD*%
D16*
%TO.P,R10,1*%
%TO.N,+3.3V*%
X31000000Y-39680000D03*
%TO.P,R10,2*%
%TO.N,SUSP_IND*%
X31000000Y-40320000D03*
%TD*%
D11*
%TO.P,C5,1*%
%TO.N,Net-(U2-CRFILT)*%
X42835000Y-44000000D03*
%TO.P,C5,2*%
%TO.N,GND*%
X43475000Y-44000000D03*
%TD*%
D16*
%TO.P,C22,1*%
%TO.N,+3.3V*%
X39000000Y-57680000D03*
%TO.P,C22,2*%
%TO.N,GND*%
X39000000Y-58320000D03*
%TD*%
D17*
%TO.P,U3,1,DCD*%
%TO.N,unconnected-(U3-DCD-Pad1)*%
X30500500Y-64001500D03*
%TO.P,U3,2,RI*%
%TO.N,unconnected-(U3-RI-Pad2)*%
X30500500Y-63501000D03*
%TO.P,U3,3,GND*%
%TO.N,GND*%
X30500500Y-63000500D03*
%TO.P,U3,4,D+*%
%TO.N,D1+*%
X30500500Y-62500000D03*
%TO.P,U3,5,D-*%
%TO.N,D1-*%
X30500500Y-61999500D03*
%TO.P,U3,6,VDD*%
%TO.N,+3.3V*%
X30500500Y-61499500D03*
%TO.P,U3,7,REGIN*%
X30500500Y-60999000D03*
D18*
%TO.P,U3,8,VBUS*%
%TO.N,+5V*%
X29502000Y-60000000D03*
%TO.P,U3,9,RST#*%
%TO.N,unconnected-(U3-RST#-Pad9)*%
X29001500Y-60000000D03*
%TO.P,U3,10,NC*%
%TO.N,unconnected-(U3-NC-Pad10)*%
X28501000Y-60000000D03*
%TO.P,U3,11,SUSPEND#*%
%TO.N,unconnected-(U3-SUSPEND#-Pad11)*%
X28000500Y-60000000D03*
%TO.P,U3,12,SUSPEND*%
%TO.N,unconnected-(U3-SUSPEND-Pad12)*%
X27500000Y-60000000D03*
%TO.P,U3,13,NC*%
%TO.N,unconnected-(U3-NC-Pad13)*%
X27000000Y-60000000D03*
%TO.P,U3,14,NC*%
%TO.N,unconnected-(U3-NC-Pad14)*%
X26499500Y-60000000D03*
D17*
%TO.P,U3,15,NC*%
%TO.N,unconnected-(U3-NC-Pad15)*%
X25500500Y-60999000D03*
%TO.P,U3,16,NC*%
%TO.N,unconnected-(U3-NC-Pad16)*%
X25500500Y-61499500D03*
%TO.P,U3,17,NC*%
%TO.N,unconnected-(U3-NC-Pad17)*%
X25500500Y-61999500D03*
%TO.P,U3,18,NC*%
%TO.N,unconnected-(U3-NC-Pad18)*%
X25500500Y-62500000D03*
%TO.P,U3,19,NC*%
%TO.N,unconnected-(U3-NC-Pad19)*%
X25500500Y-63000500D03*
%TO.P,U3,20,NC*%
%TO.N,unconnected-(U3-NC-Pad20)*%
X25500500Y-63501000D03*
%TO.P,U3,21,NC*%
%TO.N,unconnected-(U3-NC-Pad21)*%
X25500500Y-64001500D03*
D18*
%TO.P,U3,22,NC*%
%TO.N,unconnected-(U3-NC-Pad22)*%
X26499500Y-65000000D03*
%TO.P,U3,23,CTS*%
%TO.N,unconnected-(U3-CTS-Pad23)*%
X27000000Y-65000000D03*
%TO.P,U3,24,RTS*%
%TO.N,unconnected-(U3-RTS-Pad24)*%
X27500000Y-65000000D03*
%TO.P,U3,25,RXD*%
%TO.N,RX1*%
X28000500Y-65000000D03*
%TO.P,U3,26,TXD*%
%TO.N,TX1*%
X28501000Y-65000000D03*
%TO.P,U3,27,DSR*%
%TO.N,unconnected-(U3-DSR-Pad27)*%
X29001500Y-65000000D03*
%TO.P,U3,28,DTR*%
%TO.N,unconnected-(U3-DTR-Pad28)*%
X29502000Y-65000000D03*
D19*
%TO.P,U3,29,EP*%
%TO.N,GND*%
X28000500Y-62500000D03*
%TD*%
D10*
%TO.P,C9,1*%
%TO.N,Net-(U2-PLLFILT)*%
X31820000Y-45500000D03*
%TO.P,C9,2*%
%TO.N,GND*%
X31180000Y-45500000D03*
%TD*%
D26*
%TO.P,C3,1*%
%TO.N,+3.3V*%
X30500000Y-32575000D03*
%TO.P,C3,2*%
%TO.N,GND*%
X30500000Y-34000000D03*
%TD*%
D10*
%TO.P,C2,1*%
%TO.N,+5V*%
X29820000Y-26500000D03*
%TO.P,C2,2*%
%TO.N,GND*%
X29180000Y-26500000D03*
%TD*%
D12*
%TO.P,C13,1*%
%TO.N,+3.3V*%
X34000000Y-40820000D03*
%TO.P,C13,2*%
%TO.N,GND*%
X34000000Y-40180000D03*
%TD*%
D11*
%TO.P,C17,1*%
%TO.N,+3.3V*%
X42835000Y-47000000D03*
%TO.P,C17,2*%
%TO.N,GND*%
X43475000Y-47000000D03*
%TD*%
D12*
%TO.P,R14,1*%
%TO.N,Net-(U2-OCS_N3)*%
X40000000Y-39820000D03*
%TO.P,R14,2*%
%TO.N,+3.3V*%
X40000000Y-39180000D03*
%TD*%
D27*
%TO.P,X1,1,OSC1*%
%TO.N,XTAL_OUT*%
X23800000Y-47300000D03*
%TO.P,X1,2,GND*%
%TO.N,Net-(C6-Pad1)*%
X23800000Y-49500000D03*
%TO.P,X1,3,OSC2*%
%TO.N,XTAL_IN*%
X25500000Y-49500000D03*
%TO.P,X1,4,GND*%
%TO.N,Net-(C7-Pad1)*%
X25500000Y-47300000D03*
%TD*%
D11*
%TO.P,C1,1*%
%TO.N,+5V*%
X35000000Y-26500000D03*
%TO.P,C1,2*%
%TO.N,GND*%
X35640000Y-26500000D03*
%TD*%
%TO.P,C12,1*%
%TO.N,+3.3V*%
X42835000Y-43000000D03*
%TO.P,C12,2*%
%TO.N,GND*%
X43475000Y-43000000D03*
%TD*%
%TO.P,C7,1*%
%TO.N,Net-(C7-Pad1)*%
X24150000Y-45400000D03*
%TO.P,C7,2*%
%TO.N,GND*%
X24790000Y-45400000D03*
%TD*%
D16*
%TO.P,R11,1*%
%TO.N,+3.3V*%
X29680000Y-39680000D03*
%TO.P,R11,2*%
%TO.N,Net-(D1-A)*%
X29680000Y-40320000D03*
%TD*%
D12*
%TO.P,C24,1*%
%TO.N,+3.3V*%
X40500000Y-67320000D03*
%TO.P,C24,2*%
%TO.N,GND*%
X40500000Y-66680000D03*
%TD*%
D16*
%TO.P,C16,1*%
%TO.N,+3.3V*%
X37000000Y-56180000D03*
%TO.P,C16,2*%
%TO.N,GND*%
X37000000Y-56820000D03*
%TD*%
D10*
%TO.P,R5,1*%
%TO.N,+3.3V*%
X43475000Y-42000000D03*
%TO.P,R5,2*%
%TO.N,Net-(U2-OCS_N2)*%
X42835000Y-42000000D03*
%TD*%
D12*
%TO.P,R8,1*%
%TO.N,Net-(U2-SCL{slash}SMBCLK{slash}CFG_SEL0)*%
X37500000Y-39975000D03*
%TO.P,R8,2*%
%TO.N,GND*%
X37500000Y-39335000D03*
%TD*%
D10*
%TO.P,R3,1*%
%TO.N,Net-(U2-RBIAS)*%
X31820000Y-47500000D03*
%TO.P,R3,2*%
%TO.N,GND*%
X31180000Y-47500000D03*
%TD*%
D28*
%TO.P,U1,1,GND*%
%TO.N,GND*%
X27970000Y-34300000D03*
%TO.P,U1,2,VOUT*%
%TO.N,+3.3V*%
X27970000Y-32000000D03*
%TO.P,U1,3,VIN*%
%TO.N,+5V*%
X27970000Y-29700000D03*
D29*
%TO.P,U1,4,VOUT*%
%TO.N,+3.3V*%
X22030000Y-32000000D03*
%TD*%
D30*
%TO.N,GND*%
X28000500Y-62500000D03*
X36500000Y-43000000D03*
X37000000Y-71500000D03*
X29000000Y-62500000D03*
X29000000Y-70500000D03*
X37000000Y-61500000D03*
X37500000Y-34500000D03*
X36000000Y-70500000D03*
X28000000Y-70500000D03*
X37000000Y-69500000D03*
X39500000Y-43000000D03*
X28000000Y-61500000D03*
X28000000Y-37000000D03*
X41500000Y-21000000D03*
X36500000Y-46000000D03*
X37000000Y-44500000D03*
X42500000Y-49000000D03*
X38000000Y-62500000D03*
X24000000Y-21000000D03*
X37000000Y-70500000D03*
X38000000Y-45500000D03*
X38000000Y-44500000D03*
X35000000Y-37000000D03*
X39000000Y-44500000D03*
X37000000Y-62500000D03*
X28000000Y-63500000D03*
X34500000Y-74000000D03*
X39500000Y-59000000D03*
X41500000Y-76500000D03*
X39500000Y-46000000D03*
X23000000Y-76500000D03*
X28000000Y-69500000D03*
X27000000Y-62500000D03*
X37000000Y-63500000D03*
X27000000Y-70500000D03*
X38000000Y-43500000D03*
X36000000Y-62500000D03*
X35000000Y-48500000D03*
X24500000Y-73500000D03*
X24500000Y-41500000D03*
X31500000Y-66000000D03*
X26500000Y-58000000D03*
X28000000Y-71500000D03*
X34000000Y-39000000D03*
X38000000Y-70500000D03*
%TO.N,+3.3V*%
X30500000Y-57000000D03*
X37500000Y-33000000D03*
X31500000Y-64500000D03*
X38000000Y-56000000D03*
X35000000Y-40000000D03*
X33500000Y-47000000D03*
X43500000Y-48000000D03*
X40500000Y-65500000D03*
X32000000Y-33000000D03*
X35600000Y-36000000D03*
%TO.N,+5V*%
X30500000Y-27500000D03*
X27500000Y-59000000D03*
X29500000Y-66500000D03*
X35000000Y-27500000D03*
X35500000Y-58624265D03*
X38500000Y-66500000D03*
%TO.N,TX1*%
X28500000Y-66500000D03*
%TO.N,SUSP_IND*%
X35024263Y-40824266D03*
X32000000Y-41500000D03*
%TO.N,RX3*%
X36500000Y-66500000D03*
%TO.N,RX1*%
X27500000Y-66500000D03*
%TO.N,TX3*%
X37500000Y-66500000D03*
%TO.N,D1-*%
X33500000Y-53000000D03*
X31900000Y-55000000D03*
%TO.N,D4-*%
X40500000Y-49500000D03*
X41500000Y-53500000D03*
%TO.N,D3-*%
X40775735Y-58124265D03*
X39100000Y-54500000D03*
%TO.N,D2-*%
X32400000Y-63500000D03*
X33724265Y-58624265D03*
%TO.N,USB_IN+*%
X31500000Y-26500000D03*
X33500000Y-28000000D03*
%TO.N,USB_IN-*%
X33500000Y-33000000D03*
X32000000Y-28000000D03*
X33500000Y-26500000D03*
%TD*%
D31*
%TO.N,GND*%
X34000000Y-39000000D02*
X34860000Y-39000000D01*
X30000000Y-57500000D02*
X30000000Y-58025000D01*
X30000000Y-57500000D02*
X27000000Y-57500000D01*
X35640000Y-26500000D02*
X36140000Y-27000000D01*
X29180000Y-26500000D02*
X28680000Y-27000000D01*
X29180000Y-25077200D02*
X29180000Y-26500000D01*
X43475000Y-43000000D02*
X43475000Y-45000000D01*
X43704999Y-47000000D02*
X44005000Y-46699999D01*
X34900000Y-58375736D02*
X34900000Y-60400000D01*
X31500000Y-67180000D02*
X31500000Y-66000000D01*
X31100000Y-57925000D02*
X31100000Y-52400000D01*
X31000000Y-58025000D02*
X31100000Y-57925000D01*
X30000000Y-34000000D02*
X27770000Y-34000000D01*
X28500500Y-71000500D02*
X30500000Y-71000500D01*
X38000000Y-58320000D02*
X39000000Y-58320000D01*
X37975000Y-26699999D02*
X37975000Y-26500000D01*
X44000000Y-49000000D02*
X44400000Y-48600000D01*
X43475000Y-47000000D02*
X43704999Y-47000000D01*
X39500000Y-46000000D02*
X38000000Y-44500000D01*
X35700000Y-26440000D02*
X35640000Y-26500000D01*
X36699999Y-37335000D02*
X36500000Y-37335000D01*
X39800001Y-66680000D02*
X40500000Y-66680000D01*
X37000000Y-62500000D02*
X37500500Y-63000500D01*
X38941500Y-68558500D02*
X38941500Y-67538501D01*
X34820000Y-48320000D02*
X35000000Y-48500000D01*
X29300000Y-24957200D02*
X29180000Y-25077200D01*
X34000000Y-39000000D02*
X34000000Y-40180000D01*
X37500500Y-63000500D02*
X39500000Y-63000500D01*
X44400000Y-47925000D02*
X43475000Y-47000000D01*
X44400000Y-48600000D02*
X44400000Y-47925000D01*
X30500500Y-63000500D02*
X28501000Y-63000500D01*
X27770000Y-34000000D02*
X27470000Y-34300000D01*
X31100000Y-52400000D02*
X35000000Y-48500000D01*
X27180000Y-26699999D02*
X27180000Y-26500000D01*
X44005000Y-45530000D02*
X43475000Y-45000000D01*
X42500000Y-49000000D02*
X44000000Y-49000000D01*
X27000000Y-57500000D02*
X26500000Y-58000000D01*
X37500500Y-71000500D02*
X39500000Y-71000500D01*
X37000000Y-37635001D02*
X36699999Y-37335000D01*
X35700000Y-24957200D02*
X35700000Y-26440000D01*
X36500000Y-37335000D02*
X36500000Y-35500000D01*
X37674999Y-27000000D02*
X37975000Y-26699999D01*
X34900000Y-60400000D02*
X37000000Y-62500000D01*
X36140000Y-27000000D02*
X37674999Y-27000000D01*
X28501000Y-63000500D02*
X28000500Y-62500000D01*
X30500000Y-66335000D02*
X30500000Y-64999500D01*
X28000000Y-70500000D02*
X28500500Y-71000500D01*
X34000000Y-48320000D02*
X34820000Y-48320000D01*
X37500000Y-36835000D02*
X37500000Y-34500000D01*
X28680000Y-27000000D02*
X27480001Y-27000000D01*
X35000000Y-37000000D02*
X35000000Y-38000000D01*
X41500000Y-64501000D02*
X41500000Y-66680000D01*
X30500000Y-64999500D02*
X28000500Y-62500000D01*
X44005000Y-46699999D02*
X44005000Y-45530000D01*
X37000000Y-56820000D02*
X36455736Y-56820000D01*
X39500000Y-58820000D02*
X39000000Y-58320000D01*
X37500000Y-39335000D02*
X37500000Y-38335000D01*
X37000000Y-70500000D02*
X37500500Y-71000500D01*
X39500000Y-59000000D02*
X39500000Y-58820000D01*
X39500000Y-63000500D02*
X39999500Y-63000500D01*
X27480001Y-27000000D02*
X27180000Y-26699999D01*
X38941500Y-67538501D02*
X39800001Y-66680000D01*
X37500000Y-38335000D02*
X37000000Y-37835000D01*
X40972000Y-46000000D02*
X39500000Y-46000000D01*
X39999500Y-63000500D02*
X41500000Y-64501000D01*
X37000000Y-70500000D02*
X38941500Y-68558500D01*
X36500000Y-35500000D02*
X37500000Y-34500000D01*
X36455736Y-56820000D02*
X34900000Y-58375736D01*
X37000000Y-37835000D02*
X37000000Y-37635001D01*
%TO.N,+3.3V*%
X30000000Y-58665000D02*
X30000000Y-59000000D01*
X34000000Y-38000000D02*
X34000000Y-37151471D01*
X40000500Y-61499500D02*
X39500000Y-61499500D01*
X38000000Y-55180000D02*
X38000000Y-55000000D01*
X39000000Y-39180000D02*
X40000000Y-39180000D01*
X31000000Y-60500000D02*
X30999500Y-60500000D01*
X38350000Y-58850000D02*
X39500000Y-60000000D01*
X31500000Y-59820000D02*
X31000000Y-59320000D01*
X31000000Y-66348529D02*
X30900000Y-66248529D01*
X37500000Y-57980001D02*
X37500000Y-58618456D01*
X41500000Y-67866068D02*
X39866568Y-69499500D01*
X31000000Y-39680000D02*
X31320000Y-39680000D01*
X34000000Y-42704999D02*
X34295001Y-43000000D01*
X42835000Y-42841544D02*
X42835000Y-43000000D01*
X38000000Y-57680000D02*
X37800001Y-57680000D01*
X40500000Y-59000000D02*
X40500000Y-61000000D01*
X42835000Y-47335000D02*
X43500000Y-48000000D01*
X41000000Y-66000000D02*
X41000000Y-67320000D01*
X39500000Y-68999000D02*
X40500000Y-67999000D01*
X34500000Y-38500000D02*
X34000000Y-38000000D01*
X38000000Y-41528000D02*
X38000000Y-40000000D01*
X41000000Y-67320000D02*
X41500000Y-67320000D01*
X40500000Y-65500000D02*
X41000000Y-66000000D01*
X38699999Y-37335000D02*
X39000000Y-37635001D01*
X42335000Y-46500000D02*
X42835000Y-47000000D01*
X31500000Y-67820000D02*
X32000000Y-68320000D01*
X35500000Y-39000000D02*
X35500000Y-40000000D01*
X38000000Y-55000000D02*
X38000000Y-56000000D01*
X32000000Y-68320000D02*
X32000000Y-69368628D01*
X30900000Y-65100000D02*
X31500000Y-64500000D01*
X31300001Y-67820000D02*
X31000000Y-67519999D01*
X37731544Y-58850000D02*
X38350000Y-58850000D01*
X43475000Y-42201544D02*
X42835000Y-42841544D01*
X35500000Y-40000000D02*
X36000000Y-40500000D01*
X39866568Y-69499500D02*
X39500000Y-69499500D01*
X34000000Y-40975000D02*
X34000000Y-42704999D01*
X30000000Y-58665000D02*
X30500000Y-58665000D01*
X30500000Y-66975000D02*
X30500000Y-68999000D01*
X41500000Y-32500000D02*
X43475000Y-34475000D01*
X31000000Y-60000000D02*
X31000000Y-60500000D01*
X38500000Y-57680000D02*
X39000000Y-57680000D01*
X40500000Y-67999000D02*
X40500000Y-67320000D01*
X37500000Y-33000000D02*
X38500000Y-34000000D01*
X37839999Y-37475000D02*
X38000000Y-37635001D01*
X27470000Y-32000000D02*
X29425000Y-32000000D01*
X38500000Y-56500000D02*
X38500000Y-57680000D01*
X42835000Y-46839999D02*
X42835000Y-47000000D01*
X39000000Y-37635001D02*
X39000000Y-39180000D01*
X30955001Y-66975000D02*
X31000000Y-67019999D01*
X31575000Y-32575000D02*
X32000000Y-33000000D01*
X38300001Y-37335000D02*
X38500000Y-37335000D01*
X34000000Y-37151471D02*
X35151471Y-36000000D01*
X31100000Y-58580000D02*
X31000000Y-58680000D01*
X35500000Y-38000000D02*
X36500000Y-39000000D01*
X30000000Y-59000000D02*
X31000000Y-60000000D01*
X32000000Y-39000000D02*
X32000000Y-33000000D01*
X34295001Y-43000000D02*
X35028000Y-43000000D01*
X43475000Y-42000000D02*
X43475000Y-42201544D01*
X30999500Y-60500000D02*
X30500500Y-60999000D01*
X35500000Y-38500000D02*
X34500000Y-38500000D01*
X31500000Y-61000000D02*
X31500000Y-59820000D01*
X43475000Y-46199999D02*
X42835000Y-46839999D01*
X30500000Y-57000000D02*
X30500000Y-50000000D01*
X38000000Y-37635001D02*
X38300001Y-37335000D01*
X39180000Y-57680000D02*
X40500000Y-59000000D01*
X34000000Y-47528000D02*
X35028000Y-46500000D01*
X37500000Y-58618456D02*
X37731544Y-58850000D01*
X39000000Y-57680000D02*
X39180000Y-57680000D01*
X38500000Y-37335000D02*
X38699999Y-37335000D01*
X41500000Y-67320000D02*
X41500000Y-67866068D01*
X35151471Y-36000000D02*
X35600000Y-36000000D01*
X31000000Y-58665000D02*
X31000000Y-59320000D01*
X37000000Y-56180000D02*
X38000000Y-55180000D01*
X31000000Y-67519999D02*
X31000000Y-67019999D01*
X30500000Y-66975000D02*
X30955001Y-66975000D01*
D32*
X27970000Y-32000000D02*
X22030000Y-32000000D01*
D31*
X43475000Y-34475000D02*
X43475000Y-42000000D01*
X38000000Y-57680000D02*
X38500000Y-57680000D01*
X38000000Y-40000000D02*
X38000000Y-37635001D01*
X38000000Y-32500000D02*
X41500000Y-32500000D01*
X37500000Y-37475000D02*
X37839999Y-37475000D01*
X31000500Y-61499500D02*
X31500000Y-61000000D01*
X30500000Y-58665000D02*
X31000000Y-58665000D01*
X37800001Y-57680000D02*
X37500000Y-57980001D01*
X30900000Y-66248529D02*
X30900000Y-65100000D01*
X42835000Y-47000000D02*
X42835000Y-47335000D01*
X38500000Y-34000000D02*
X38500000Y-37335000D01*
X29425000Y-32000000D02*
X30000000Y-32575000D01*
X31000000Y-67019999D02*
X31000000Y-66348529D01*
X35000000Y-40000000D02*
X34180000Y-40820000D01*
X35028000Y-46500000D02*
X34000000Y-46500000D01*
X31500000Y-67820000D02*
X31300001Y-67820000D01*
X38000000Y-47472000D02*
X38000000Y-55000000D01*
X34000000Y-47680000D02*
X34000000Y-47528000D01*
X34000000Y-40975000D02*
X34044803Y-40930197D01*
X31320000Y-39680000D02*
X32000000Y-39000000D01*
X36500000Y-39000000D02*
X36500000Y-39680000D01*
X40500000Y-61000000D02*
X40000500Y-61499500D01*
X30500500Y-61499500D02*
X31000500Y-61499500D01*
X34180000Y-40820000D02*
X34000000Y-40820000D01*
X36000000Y-41528000D02*
X36000000Y-40500000D01*
X41835000Y-44000000D02*
X42835000Y-43000000D01*
X30500000Y-50000000D02*
X33500000Y-47000000D01*
X35500000Y-38000000D02*
X35500000Y-38500000D01*
X43475000Y-46000000D02*
X43475000Y-46199999D01*
X37500000Y-33000000D02*
X38000000Y-32500000D01*
X34000000Y-46500000D02*
X33500000Y-47000000D01*
X29680000Y-39680000D02*
X31000000Y-39680000D01*
X32000000Y-69368628D02*
X31869128Y-69499500D01*
X35500000Y-38500000D02*
X35500000Y-39000000D01*
X40972000Y-44000000D02*
X41835000Y-44000000D01*
X39500000Y-60000000D02*
X39500000Y-60999000D01*
X40972000Y-46500000D02*
X42335000Y-46500000D01*
X40500000Y-67320000D02*
X41500000Y-67320000D01*
X38000000Y-56000000D02*
X38500000Y-56500000D01*
X30500000Y-32575000D02*
X31575000Y-32575000D01*
X31869128Y-69499500D02*
X30500000Y-69499500D01*
X30500000Y-57000000D02*
X30500000Y-58665000D01*
%TO.N,Net-(USB1-CC1)*%
X33750000Y-24957200D02*
X33750000Y-24182200D01*
X37620000Y-25880000D02*
X37335000Y-26165000D01*
X33750000Y-24182200D02*
X35432200Y-22500000D01*
X36619171Y-22500000D02*
X37620000Y-23500829D01*
X35432200Y-22500000D02*
X36619171Y-22500000D01*
X37335000Y-26165000D02*
X37335000Y-26500000D01*
X37620000Y-23500829D02*
X37620000Y-25880000D01*
%TO.N,Net-(USB1-CC2)*%
X27380000Y-25380000D02*
X27820000Y-25820000D01*
X29996336Y-22962637D02*
X27918192Y-22962637D01*
X27820000Y-25820000D02*
X27820000Y-26500000D01*
X30750000Y-24957200D02*
X30750000Y-23716301D01*
X27918192Y-22962637D02*
X27380000Y-23500829D01*
X27380000Y-23500829D02*
X27380000Y-25380000D01*
X30750000Y-23716301D02*
X29996336Y-22962637D01*
%TO.N,+5V*%
X38183254Y-59250000D02*
X38501500Y-59568246D01*
X29502000Y-59568246D02*
X29502000Y-60000000D01*
X38501500Y-59568246D02*
X38501500Y-60000000D01*
D33*
X29820000Y-26500000D02*
X29820000Y-26820000D01*
D31*
X34900000Y-26400000D02*
X35000000Y-26500000D01*
D33*
X35000000Y-26500000D02*
X35000000Y-27500000D01*
D31*
X38500000Y-67998500D02*
X38501500Y-68000000D01*
D33*
X30500000Y-27500000D02*
X28300000Y-29700000D01*
D31*
X35500000Y-58624265D02*
X36125735Y-59250000D01*
D33*
X30100000Y-26220000D02*
X29820000Y-26500000D01*
X28300000Y-29700000D02*
X27970000Y-29700000D01*
X34900000Y-24957200D02*
X34900000Y-26400000D01*
X29820000Y-26820000D02*
X30500000Y-27500000D01*
X30100000Y-24957200D02*
X30100000Y-26220000D01*
D31*
X29500000Y-66500000D02*
X29500000Y-67998500D01*
X28933754Y-59000000D02*
X29502000Y-59568246D01*
X36125735Y-59250000D02*
X38183254Y-59250000D01*
X29500000Y-67998500D02*
X29501500Y-68000000D01*
X27500000Y-59000000D02*
X28933754Y-59000000D01*
X38500000Y-66500000D02*
X38500000Y-67998500D01*
%TO.N,Net-(U2-CRFILT)*%
X42180000Y-44500000D02*
X42680000Y-45000000D01*
X42680000Y-44000000D02*
X42180000Y-44500000D01*
X40972000Y-44500000D02*
X42180000Y-44500000D01*
%TO.N,TX1*%
X28501000Y-65000000D02*
X28501000Y-66499000D01*
X28501000Y-66499000D02*
X28500000Y-66500000D01*
%TO.N,TX4*%
X36185000Y-78240000D02*
X35035000Y-79390000D01*
X36185000Y-75940000D02*
X36185000Y-78240000D01*
X37500500Y-73000000D02*
X37500500Y-74624500D01*
X37500500Y-74624500D02*
X36185000Y-75940000D01*
%TO.N,Net-(C6-Pad1)*%
X24150000Y-49850000D02*
X23800000Y-49500000D01*
X23120000Y-48820000D02*
X23800000Y-49500000D01*
X24150000Y-51400000D02*
X24150000Y-49850000D01*
X22000000Y-48820000D02*
X23120000Y-48820000D01*
%TO.N,Net-(C7-Pad1)*%
X23020000Y-48300000D02*
X24600000Y-48300000D01*
X23100000Y-45400000D02*
X24150000Y-45400000D01*
X22900000Y-48180000D02*
X23020000Y-48300000D01*
X22000000Y-46500000D02*
X23100000Y-45400000D01*
X25500000Y-47400000D02*
X25500000Y-47300000D01*
X24600000Y-48300000D02*
X25500000Y-47400000D01*
X22000000Y-48180000D02*
X22000000Y-46500000D01*
X22000000Y-48180000D02*
X22900000Y-48180000D01*
%TO.N,Net-(U2-PLLFILT)*%
X35028000Y-45500000D02*
X33000000Y-45500000D01*
X32000000Y-46500000D02*
X33000000Y-45500000D01*
X33000000Y-45500000D02*
X31820000Y-45500000D01*
X31820000Y-46500000D02*
X32000000Y-46500000D01*
%TO.N,Net-(D1-A)*%
X28640000Y-40320000D02*
X24820000Y-36500000D01*
X29680000Y-40320000D02*
X28640000Y-40320000D01*
%TO.N,SUSP_IND*%
X28330001Y-40850000D02*
X24180000Y-36699999D01*
X24180000Y-36699999D02*
X24180000Y-36500000D01*
X31000000Y-40320000D02*
X30470000Y-40850000D01*
X32000000Y-41500000D02*
X32000000Y-41320000D01*
X32000000Y-41320000D02*
X31000000Y-40320000D01*
X35024263Y-40824266D02*
X35028000Y-40828003D01*
X35028000Y-40828003D02*
X35028000Y-42500000D01*
X30470000Y-40850000D02*
X28330001Y-40850000D01*
%TO.N,RX4*%
X36000000Y-75000000D02*
X35500000Y-75000000D01*
X37000000Y-74000000D02*
X36000000Y-75000000D01*
X35500000Y-75000000D02*
X35035000Y-75465000D01*
X35035000Y-75465000D02*
X35035000Y-76850000D01*
X37000000Y-73000000D02*
X37000000Y-74000000D01*
%TO.N,TX2*%
X28500500Y-73000000D02*
X28500500Y-73769154D01*
X31000000Y-75500000D02*
X31000000Y-76268654D01*
X30500000Y-75000000D02*
X31000000Y-75500000D01*
X31000000Y-76268654D02*
X31105000Y-76373654D01*
X29731346Y-75000000D02*
X30500000Y-75000000D01*
X31105000Y-78240000D02*
X29955000Y-79390000D01*
X31105000Y-76373654D02*
X31105000Y-78240000D01*
X28500500Y-73769154D02*
X29731346Y-75000000D01*
%TO.N,Net-(U2-OCS_N1)*%
X40972000Y-45000000D02*
X41835000Y-45000000D01*
X41835000Y-45000000D02*
X42835000Y-46000000D01*
%TO.N,Net-(U2-OCS_N2)*%
X41835000Y-43000000D02*
X40972000Y-43000000D01*
X42835000Y-42000000D02*
X41835000Y-43000000D01*
%TO.N,Net-(U2-HS_IND{slash}CFG_SEL1)*%
X37000000Y-41528000D02*
X37000000Y-38475000D01*
X37000000Y-41528000D02*
X37030000Y-41498000D01*
X37000000Y-38475000D02*
X36500000Y-37975000D01*
%TO.N,Net-(U2-SCL{slash}SMBCLK{slash}CFG_SEL0)*%
X37500000Y-39975000D02*
X37500000Y-41528000D01*
%TO.N,RX3*%
X36500000Y-66500000D02*
X37000000Y-66000000D01*
X37000000Y-66000000D02*
X37000000Y-65000000D01*
%TO.N,Net-(U2-SDA{slash}SMBDATA{slash}NON_REM1)*%
X38500000Y-37975000D02*
X38500000Y-41528000D01*
%TO.N,Net-(U2-RESET_N)*%
X36500000Y-40320000D02*
X36500000Y-41528000D01*
%TO.N,Net-(U2-OCS_N4)*%
X39000000Y-39820000D02*
X39000000Y-41528000D01*
%TO.N,Net-(U2-OCS_N3)*%
X40000000Y-39820000D02*
X40000000Y-41528000D01*
%TO.N,XTAL_OUT*%
X27300000Y-44500000D02*
X35028000Y-44500000D01*
X23800000Y-47100000D02*
X24600000Y-46300000D01*
X24600000Y-46300000D02*
X25500000Y-46300000D01*
X25500000Y-46300000D02*
X27300000Y-44500000D01*
X23800000Y-47300000D02*
X23800000Y-47100000D01*
%TO.N,XTAL_IN*%
X29000000Y-46577000D02*
X29045255Y-46622255D01*
X27496826Y-47503174D02*
X25500000Y-49500000D01*
X35028000Y-45000000D02*
X30000000Y-45000000D01*
X27701754Y-47298250D02*
X27557502Y-47442499D01*
X29045254Y-47199255D02*
X28901006Y-47343504D01*
X30000000Y-45000000D02*
X29000000Y-46000000D01*
X28324006Y-47343505D02*
X28278752Y-47298251D01*
X27557502Y-47442499D02*
X27496826Y-47503174D01*
X29000000Y-46000000D02*
G75*
G03*
X29000000Y-46577000I288500J-288500D01*
G01*
X28901006Y-47343504D02*
G75*
G02*
X28324001Y-47343511I-288506J288504D01*
G01*
X29045255Y-46622255D02*
G75*
G02*
X29045300Y-47199301I-288455J-288545D01*
G01*
X28278752Y-47298251D02*
G75*
G03*
X27701801Y-47298297I-288452J-288549D01*
G01*
%TO.N,RX1*%
X27500000Y-66500000D02*
X28000500Y-65999500D01*
X28000500Y-65999500D02*
X28000500Y-65000000D01*
%TO.N,RX2*%
X28000000Y-74895000D02*
X29955000Y-76850000D01*
X28000000Y-73000000D02*
X28000000Y-74895000D01*
%TO.N,TX3*%
X37500500Y-65000000D02*
X37500500Y-66499500D01*
X37500500Y-66499500D02*
X37500000Y-66500000D01*
%TO.N,Net-(U2-RBIAS)*%
X33320000Y-46000000D02*
X35028000Y-46000000D01*
X31820000Y-47500000D02*
X33320000Y-46000000D01*
%TO.N,D1-*%
X32000000Y-61500000D02*
X31500500Y-61999500D01*
X31500500Y-61999500D02*
X30500500Y-61999500D01*
X33500000Y-53000000D02*
X36500000Y-50000000D01*
X31900000Y-55000000D02*
X32000000Y-55100000D01*
X32000000Y-55100000D02*
X32000000Y-61500000D01*
X36500000Y-50000000D02*
X36500000Y-47472000D01*
%TO.N,D4-*%
X40000000Y-49000000D02*
X40000000Y-47472000D01*
X41500000Y-53500000D02*
X42000000Y-54000000D01*
X40500000Y-49500000D02*
X40000000Y-49000000D01*
X42000000Y-54000000D02*
X42000000Y-67931754D01*
X42000000Y-67931754D02*
X39932254Y-69999500D01*
X39932254Y-69999500D02*
X39500000Y-69999500D01*
%TO.N,D1+*%
X36000000Y-47472000D02*
X36000000Y-49000000D01*
X32500000Y-57727947D02*
X32500000Y-58026559D01*
X32500000Y-57607947D02*
X32500000Y-57727947D01*
X32740000Y-56767947D02*
X33140000Y-56767947D01*
X32500000Y-56407947D02*
X32500000Y-56527947D01*
X32740000Y-55567947D02*
X33140000Y-55567947D01*
X33140000Y-57367947D02*
X32740000Y-57367947D01*
X33140000Y-56167947D02*
X32740000Y-56167947D01*
X32500000Y-52500000D02*
X32500000Y-55327947D01*
X32500000Y-62000000D02*
X32000000Y-62500000D01*
X36000000Y-49000000D02*
X32500000Y-52500000D01*
X33380000Y-57007947D02*
X33380000Y-57127947D01*
X32000000Y-62500000D02*
X30500500Y-62500000D01*
X33380000Y-55807947D02*
X33380000Y-55927947D01*
X32500000Y-58026559D02*
X32500000Y-62000000D01*
X33140000Y-55567947D02*
G75*
G02*
X33379953Y-55807947I0J-239953D01*
G01*
X33140000Y-56767947D02*
G75*
G02*
X33379953Y-57007947I0J-239953D01*
G01*
X33380000Y-57127947D02*
G75*
G02*
X33140000Y-57367900I-240000J47D01*
G01*
X33380000Y-55927947D02*
G75*
G02*
X33140000Y-56167900I-240000J47D01*
G01*
X32740000Y-57367947D02*
G75*
G03*
X32500047Y-57607947I0J-239953D01*
G01*
X32500000Y-55327947D02*
G75*
G03*
X32740000Y-55567900I240000J47D01*
G01*
X32500000Y-56527947D02*
G75*
G03*
X32740000Y-56767900I240000J47D01*
G01*
X32740000Y-56167947D02*
G75*
G03*
X32500047Y-56407947I0J-239953D01*
G01*
%TO.N,D2+*%
X36326000Y-53940950D02*
X36704000Y-53940950D01*
X37000000Y-52756950D02*
X37000000Y-52904950D01*
X33000000Y-58500000D02*
X33000000Y-69500000D01*
X36030000Y-53496950D02*
X36030000Y-53644950D01*
X33000000Y-69500000D02*
X32000000Y-70500000D01*
X37000000Y-54384950D02*
X37000000Y-54500000D01*
X37000000Y-54500000D02*
X33000000Y-58500000D01*
X32000000Y-70500000D02*
X30500000Y-70500000D01*
X36704000Y-53200950D02*
X36326000Y-53200950D01*
X36326000Y-52460950D02*
X36704000Y-52460950D01*
X37000000Y-54236950D02*
X37000000Y-54384950D01*
X36704000Y-51720950D02*
X36326000Y-51720950D01*
X36030000Y-52016950D02*
X36030000Y-52164950D01*
X37000000Y-47472000D02*
X37000000Y-51424950D01*
X37000000Y-52904950D02*
G75*
G02*
X36704000Y-53201000I-296000J-50D01*
G01*
X36326000Y-53200950D02*
G75*
G03*
X36030050Y-53496950I0J-295950D01*
G01*
X36704000Y-52460950D02*
G75*
G02*
X36999950Y-52756950I0J-295950D01*
G01*
X36326000Y-51720950D02*
G75*
G03*
X36030050Y-52016950I0J-295950D01*
G01*
X36704000Y-53940950D02*
G75*
G02*
X36999950Y-54236950I0J-295950D01*
G01*
X37000000Y-51424950D02*
G75*
G02*
X36704000Y-51721000I-296000J-50D01*
G01*
X36030000Y-52164950D02*
G75*
G03*
X36326000Y-52461000I296000J-50D01*
G01*
X36030000Y-53644950D02*
G75*
G03*
X36326000Y-53941000I296000J-50D01*
G01*
%TO.N,D3-*%
X39100000Y-52100000D02*
X39000000Y-52000000D01*
X40434814Y-61999500D02*
X39500000Y-61999500D01*
X40775735Y-58124265D02*
X41000000Y-58348530D01*
X39100000Y-54500000D02*
X39100000Y-52100000D01*
X41000000Y-58348530D02*
X41000000Y-61434314D01*
X39000000Y-52000000D02*
X39000000Y-47472000D01*
X41000000Y-61434314D02*
X40434814Y-61999500D01*
%TO.N,D2-*%
X37500000Y-54848530D02*
X33724265Y-58624265D01*
X37500000Y-47472000D02*
X37500000Y-54848530D01*
X32400000Y-69534314D02*
X31934814Y-69999500D01*
X31934814Y-69999500D02*
X30500000Y-69999500D01*
X32400000Y-63500000D02*
X32400000Y-69534314D01*
%TO.N,D4+*%
X42764000Y-55926957D02*
X42826000Y-55926957D01*
X43090000Y-54870957D02*
X43090000Y-55002957D01*
X42500000Y-56850957D02*
X42500000Y-56982957D01*
X42500000Y-57000000D02*
X42500000Y-69000000D01*
X43090000Y-56190957D02*
X43090000Y-56322957D01*
X42826000Y-56586957D02*
X42764000Y-56586957D01*
X42826000Y-55266957D02*
X42764000Y-55266957D01*
X42500000Y-53000000D02*
X42500000Y-54342957D01*
X41000000Y-70500000D02*
X39500000Y-70500000D01*
X42500000Y-56982957D02*
X42500000Y-57000000D01*
X42500000Y-69000000D02*
X41000000Y-70500000D01*
X42764000Y-54606957D02*
X42826000Y-54606957D01*
X39500000Y-47472000D02*
X39500000Y-50000000D01*
X39500000Y-50000000D02*
X42500000Y-53000000D01*
X42500000Y-55530957D02*
X42500000Y-55662957D01*
X43090000Y-55002957D02*
G75*
G02*
X42826000Y-55267000I-264000J-43D01*
G01*
X42764000Y-55266957D02*
G75*
G03*
X42499957Y-55530957I0J-264043D01*
G01*
X42500000Y-55662957D02*
G75*
G03*
X42764000Y-55927000I264000J-43D01*
G01*
X42764000Y-56586957D02*
G75*
G03*
X42499957Y-56850957I0J-264043D01*
G01*
X42500000Y-54342957D02*
G75*
G03*
X42764000Y-54607000I264000J-43D01*
G01*
X42826000Y-54606957D02*
G75*
G02*
X43090043Y-54870957I0J-264043D01*
G01*
X42826000Y-55926957D02*
G75*
G02*
X43090043Y-56190957I0J-264043D01*
G01*
X43090000Y-56322957D02*
G75*
G02*
X42826000Y-56587000I-264000J-43D01*
G01*
%TO.N,D3+*%
X39980366Y-55880739D02*
X39946423Y-55914679D01*
X40611102Y-57111102D02*
X40744039Y-57244039D01*
X40744039Y-57244039D02*
X40930183Y-57430183D01*
X39847430Y-55216059D02*
X39980366Y-55348995D01*
X39946423Y-55914679D02*
X39680551Y-56180551D01*
X40930183Y-57430183D02*
X41500000Y-58000000D01*
X39380737Y-57012108D02*
X39513673Y-57145044D01*
X40045417Y-57145044D02*
X40079358Y-57111102D01*
X41500000Y-61500000D02*
X40500000Y-62500000D01*
X39281744Y-55250000D02*
X39315686Y-55216059D01*
X39414678Y-56446423D02*
X39380737Y-56480364D01*
X38500000Y-47472000D02*
X38500000Y-55000000D01*
X40500000Y-62500000D02*
X39500000Y-62500000D01*
X38500000Y-55000000D02*
X38750000Y-55250000D01*
X41500000Y-58000000D02*
X41500000Y-61500000D01*
X39680551Y-56180551D02*
X39414678Y-56446423D01*
X38750000Y-55250000D02*
G75*
G03*
X39281744Y-55250000I265872J265871D01*
G01*
X39315686Y-55216059D02*
G75*
G02*
X39847430Y-55216059I265872J-265871D01*
G01*
X39980366Y-55348995D02*
G75*
G02*
X39980399Y-55880772I-265866J-265905D01*
G01*
X39380737Y-56480364D02*
G75*
G03*
X39380773Y-57012072I265863J-265836D01*
G01*
X39513673Y-57145044D02*
G75*
G03*
X40045417Y-57145044I265872J265871D01*
G01*
X40079358Y-57111102D02*
G75*
G02*
X40611102Y-57111102I265872J-265871D01*
G01*
%TO.N,USB_IN+*%
X30020000Y-29628000D02*
X30020000Y-29410000D01*
X32750000Y-34870284D02*
X32750000Y-35527967D01*
X32750000Y-35527967D02*
X32750000Y-43250000D01*
X32750000Y-43250000D02*
X33500000Y-44000000D01*
X32750000Y-28320000D02*
X32750000Y-28000000D01*
X30456000Y-28974000D02*
X32314000Y-28974000D01*
X33500000Y-44000000D02*
X35028000Y-44000000D01*
X32750000Y-28538000D02*
X32750000Y-28320000D01*
X32750000Y-28000000D02*
X32750000Y-24957200D01*
X33500000Y-28000000D02*
X33500000Y-31750000D01*
X33500000Y-31750000D02*
X32750000Y-32500000D01*
X32750000Y-32500000D02*
X32750000Y-34870284D01*
X31750000Y-26250000D02*
X31500000Y-26500000D01*
X32750000Y-32500000D02*
X32750000Y-30500000D01*
X31750000Y-24957200D02*
X31750000Y-26250000D01*
X32314000Y-30064000D02*
X30456000Y-30064000D01*
X30456000Y-30064000D02*
G75*
G02*
X30020000Y-29628000I0J436000D01*
G01*
X30020000Y-29410000D02*
G75*
G02*
X30456000Y-28974000I436000J0D01*
G01*
X32750000Y-30500000D02*
G75*
G03*
X32314000Y-30064000I-436000J0D01*
G01*
X32314000Y-28974000D02*
G75*
G03*
X32750000Y-28538000I0J436000D01*
G01*
%TO.N,USB_IN-*%
X33150000Y-33500000D02*
X33150000Y-33350000D01*
X35028000Y-43500000D02*
X33565686Y-43500000D01*
X33150000Y-33840000D02*
X33150000Y-33500000D01*
X33150000Y-33350000D02*
X33500000Y-33000000D01*
X33565686Y-43500000D02*
X33150000Y-43084314D01*
X33250000Y-24957200D02*
X33250000Y-26250000D01*
X33250000Y-26250000D02*
X33500000Y-26500000D01*
X32250000Y-27750000D02*
X32000000Y-28000000D01*
X34170000Y-34836000D02*
X34170000Y-34670000D01*
X32250000Y-24957200D02*
X32250000Y-27750000D01*
X33150000Y-43084314D02*
X33150000Y-35500000D01*
X33838000Y-34338000D02*
X33482000Y-34338000D01*
X33150000Y-34006000D02*
X33150000Y-33840000D01*
X33482000Y-35168000D02*
X33838000Y-35168000D01*
X33482000Y-34338000D02*
G75*
G02*
X33150000Y-34006000I0J332000D01*
G01*
X33838000Y-35168000D02*
G75*
G03*
X34170000Y-34836000I0J332000D01*
G01*
X33150000Y-35500000D02*
G75*
G02*
X33482000Y-35168000I332000J0D01*
G01*
X34170000Y-34670000D02*
G75*
G03*
X33838000Y-34338000I-332000J0D01*
G01*
%TD*%
%TA.AperFunction,Conductor*%
%TO.N,GND*%
G36*
X27368085Y-19020185D02*
G01*
X27413840Y-19072989D01*
X27423784Y-19142147D01*
X27404148Y-19193391D01*
X27293814Y-19358515D01*
X27293807Y-19358528D01*
X27218430Y-19540506D01*
X27218427Y-19540518D01*
X27180000Y-19733704D01*
X27180000Y-19982200D01*
X27880000Y-19982200D01*
X27880000Y-20482200D01*
X27180000Y-20482200D01*
X27180000Y-20730695D01*
X27218427Y-20923881D01*
X27218430Y-20923893D01*
X27293807Y-21105871D01*
X27293814Y-21105884D01*
X27403248Y-21269662D01*
X27403251Y-21269666D01*
X27542533Y-21408948D01*
X27542537Y-21408951D01*
X27706315Y-21518385D01*
X27706328Y-21518392D01*
X27888308Y-21593769D01*
X27930000Y-21602062D01*
X27930000Y-20799188D01*
X27939940Y-20816405D01*
X27995795Y-20872260D01*
X28064204Y-20911756D01*
X28140504Y-20932200D01*
X28219496Y-20932200D01*
X28295796Y-20911756D01*
X28364205Y-20872260D01*
X28420060Y-20816405D01*
X28430000Y-20799188D01*
X28430000Y-21602062D01*
X28471690Y-21593769D01*
X28471692Y-21593769D01*
X28653671Y-21518392D01*
X28653684Y-21518385D01*
X28817462Y-21408951D01*
X28817466Y-21408948D01*
X28956748Y-21269666D01*
X28956751Y-21269662D01*
X29066185Y-21105884D01*
X29066192Y-21105871D01*
X29141569Y-20923893D01*
X29141572Y-20923881D01*
X29179999Y-20730695D01*
X29180000Y-20730692D01*
X29180000Y-20482200D01*
X28480000Y-20482200D01*
X28480000Y-19982200D01*
X29180000Y-19982200D01*
X29180000Y-19733708D01*
X29179999Y-19733704D01*
X29141572Y-19540518D01*
X29141569Y-19540506D01*
X29066192Y-19358528D01*
X29066185Y-19358515D01*
X28955852Y-19193391D01*
X28934974Y-19126714D01*
X28953458Y-19059333D01*
X29005437Y-19012643D01*
X29058954Y-19000500D01*
X35941046Y-19000500D01*
X36008085Y-19020185D01*
X36053840Y-19072989D01*
X36063784Y-19142147D01*
X36044148Y-19193391D01*
X35933814Y-19358515D01*
X35933807Y-19358528D01*
X35858430Y-19540506D01*
X35858427Y-19540518D01*
X35820000Y-19733704D01*
X35820000Y-19982200D01*
X36520000Y-19982200D01*
X36520000Y-20482200D01*
X35820000Y-20482200D01*
X35820000Y-20730695D01*
X35858427Y-20923881D01*
X35858430Y-20923893D01*
X35933807Y-21105871D01*
X35933814Y-21105884D01*
X36043248Y-21269662D01*
X36043251Y-21269666D01*
X36182533Y-21408948D01*
X36182537Y-21408951D01*
X36346315Y-21518385D01*
X36346328Y-21518392D01*
X36528308Y-21593769D01*
X36570000Y-21602062D01*
X36570000Y-20799188D01*
X36579940Y-20816405D01*
X36635795Y-20872260D01*
X36704204Y-20911756D01*
X36780504Y-20932200D01*
X36859496Y-20932200D01*
X36935796Y-20911756D01*
X37004205Y-20872260D01*
X37060060Y-20816405D01*
X37070000Y-20799188D01*
X37070000Y-21602062D01*
X37111690Y-21593769D01*
X37111692Y-21593769D01*
X37293671Y-21518392D01*
X37293684Y-21518385D01*
X37457462Y-21408951D01*
X37457466Y-21408948D01*
X37596748Y-21269666D01*
X37596751Y-21269662D01*
X37706185Y-21105884D01*
X37706192Y-21105871D01*
X37781569Y-20923893D01*
X37781572Y-20923881D01*
X37819999Y-20730695D01*
X37820000Y-20730692D01*
X37820000Y-20482200D01*
X37120000Y-20482200D01*
X37120000Y-19982200D01*
X37820000Y-19982200D01*
X37820000Y-19733708D01*
X37819999Y-19733704D01*
X37781572Y-19540518D01*
X37781569Y-19540506D01*
X37706192Y-19358528D01*
X37706185Y-19358515D01*
X37595852Y-19193391D01*
X37574974Y-19126714D01*
X37593458Y-19059333D01*
X37645437Y-19012643D01*
X37698954Y-19000500D01*
X44375500Y-19000500D01*
X44442539Y-19020185D01*
X44488294Y-19072989D01*
X44499500Y-19124500D01*
X44499500Y-82875500D01*
X44479815Y-82942539D01*
X44427011Y-82988294D01*
X44375500Y-82999500D01*
X20624500Y-82999500D01*
X20557461Y-82979815D01*
X20511706Y-82927011D01*
X20500500Y-82875500D01*
X20500500Y-76850000D01*
X26259571Y-76850000D01*
X26279244Y-77062310D01*
X26332675Y-77250099D01*
X26337596Y-77267392D01*
X26337596Y-77267394D01*
X26432632Y-77458253D01*
X26432634Y-77458255D01*
X26561128Y-77628407D01*
X26718698Y-77772052D01*
X26899981Y-77884298D01*
X27098802Y-77961321D01*
X27295613Y-77998111D01*
X27357893Y-78029779D01*
X27393166Y-78090092D01*
X27390232Y-78159900D01*
X27350023Y-78217040D01*
X27295613Y-78241888D01*
X27098802Y-78278679D01*
X27098799Y-78278679D01*
X27098799Y-78278680D01*
X26899982Y-78355701D01*
X26899980Y-78355702D01*
X26718699Y-78467947D01*
X26561127Y-78611593D01*
X26432632Y-78781746D01*
X26337596Y-78972605D01*
X26337596Y-78972607D01*
X26279244Y-79177689D01*
X26265671Y-79324174D01*
X26259571Y-79390000D01*
X26279244Y-79602310D01*
X26332675Y-79790099D01*
X26337596Y-79807392D01*
X26337596Y-79807394D01*
X26432632Y-79998253D01*
X26561127Y-80168406D01*
X26561128Y-80168407D01*
X26718698Y-80312052D01*
X26899981Y-80424298D01*
X27098802Y-80501321D01*
X27308390Y-80540500D01*
X27308392Y-80540500D01*
X27521608Y-80540500D01*
X27521610Y-80540500D01*
X27731198Y-80501321D01*
X27930019Y-80424298D01*
X28111302Y-80312052D01*
X28268872Y-80168407D01*
X28397366Y-79998255D01*
X28451270Y-79890000D01*
X28492403Y-79807394D01*
X28492403Y-79807393D01*
X28492405Y-79807389D01*
X28550756Y-79602310D01*
X28561529Y-79486047D01*
X28587315Y-79421111D01*
X28631869Y-79389194D01*
X28595497Y-79368331D01*
X28563307Y-79306318D01*
X28561529Y-79293951D01*
X28560849Y-79286613D01*
X28550756Y-79177690D01*
X28492405Y-78972611D01*
X28492403Y-78972606D01*
X28492403Y-78972605D01*
X28397367Y-78781746D01*
X28268872Y-78611593D01*
X28212804Y-78560480D01*
X28111302Y-78467948D01*
X27930019Y-78355702D01*
X27930017Y-78355701D01*
X27767455Y-78292725D01*
X27731198Y-78278679D01*
X27534385Y-78241888D01*
X27472106Y-78210221D01*
X27436833Y-78149908D01*
X27439767Y-78080100D01*
X27479976Y-78022960D01*
X27534384Y-77998111D01*
X27731198Y-77961321D01*
X27930019Y-77884298D01*
X28111302Y-77772052D01*
X28268872Y-77628407D01*
X28397366Y-77458255D01*
X28451270Y-77350000D01*
X28492403Y-77267394D01*
X28492403Y-77267393D01*
X28492405Y-77267389D01*
X28550756Y-77062310D01*
X28561529Y-76946047D01*
X28587315Y-76881111D01*
X28631869Y-76849194D01*
X28595497Y-76828331D01*
X28563307Y-76766318D01*
X28561529Y-76753951D01*
X28560849Y-76746613D01*
X28550756Y-76637690D01*
X28492405Y-76432611D01*
X28492403Y-76432606D01*
X28492403Y-76432605D01*
X28397367Y-76241746D01*
X28292668Y-76103104D01*
X28267976Y-76037743D01*
X28275659Y-76001695D01*
X28257045Y-76008638D01*
X28188772Y-75993786D01*
X28164661Y-75976591D01*
X28111303Y-75927949D01*
X28111302Y-75927948D01*
X27930019Y-75815702D01*
X27930017Y-75815701D01*
X27780829Y-75757906D01*
X27731198Y-75738679D01*
X27521610Y-75699500D01*
X27308390Y-75699500D01*
X27098802Y-75738679D01*
X27098799Y-75738679D01*
X27098799Y-75738680D01*
X26899982Y-75815701D01*
X26899980Y-75815702D01*
X26718699Y-75927947D01*
X26561127Y-76071593D01*
X26432632Y-76241746D01*
X26337596Y-76432605D01*
X26337596Y-76432607D01*
X26279244Y-76637689D01*
X26265671Y-76784174D01*
X26259571Y-76850000D01*
X20500500Y-76850000D01*
X20500500Y-34897844D01*
X26220000Y-34897844D01*
X26226401Y-34957372D01*
X26226403Y-34957379D01*
X26276645Y-35092086D01*
X26276649Y-35092093D01*
X26362809Y-35207187D01*
X26362812Y-35207190D01*
X26477906Y-35293350D01*
X26477913Y-35293354D01*
X26612620Y-35343596D01*
X26612627Y-35343598D01*
X26672155Y-35349999D01*
X26672172Y-35350000D01*
X27720000Y-35350000D01*
X27720000Y-34550000D01*
X26220000Y-34550000D01*
X26220000Y-34897844D01*
X20500500Y-34897844D01*
X20500500Y-34159534D01*
X20520185Y-34092495D01*
X20572989Y-34046740D01*
X20642147Y-34036796D01*
X20675703Y-34049879D01*
X20676725Y-34047565D01*
X20687234Y-34052205D01*
X20687235Y-34052206D01*
X20790009Y-34097585D01*
X20815135Y-34100500D01*
X23244864Y-34100499D01*
X23244879Y-34100497D01*
X23244882Y-34100497D01*
X23269987Y-34097586D01*
X23269988Y-34097585D01*
X23269991Y-34097585D01*
X23372765Y-34052206D01*
X23452206Y-33972765D01*
X23497585Y-33869991D01*
X23500500Y-33844865D01*
X23500500Y-33702155D01*
X26220000Y-33702155D01*
X26220000Y-34050000D01*
X27720000Y-34050000D01*
X27720000Y-33250000D01*
X26672155Y-33250000D01*
X26612627Y-33256401D01*
X26612620Y-33256403D01*
X26477913Y-33306645D01*
X26477906Y-33306649D01*
X26362812Y-33392809D01*
X26362809Y-33392812D01*
X26276649Y-33507906D01*
X26276645Y-33507913D01*
X26226403Y-33642620D01*
X26226401Y-33642627D01*
X26220000Y-33702155D01*
X23500500Y-33702155D01*
X23500500Y-32674500D01*
X23520185Y-32607461D01*
X23572989Y-32561706D01*
X23624500Y-32550500D01*
X26310934Y-32550500D01*
X26377973Y-32570185D01*
X26423728Y-32622989D01*
X26424311Y-32624285D01*
X26467794Y-32722765D01*
X26547235Y-32802206D01*
X26650009Y-32847585D01*
X26675135Y-32850500D01*
X29264864Y-32850499D01*
X29264879Y-32850497D01*
X29264882Y-32850497D01*
X29289987Y-32847586D01*
X29289988Y-32847585D01*
X29289991Y-32847585D01*
X29392765Y-32802206D01*
X29439108Y-32755863D01*
X29500431Y-32722378D01*
X29570123Y-32727362D01*
X29614470Y-32755863D01*
X29638181Y-32779574D01*
X29671666Y-32840897D01*
X29674500Y-32867255D01*
X29674500Y-32905602D01*
X29678249Y-32936819D01*
X29685122Y-32994061D01*
X29711186Y-33060154D01*
X29717467Y-33129741D01*
X29685130Y-33191677D01*
X29683514Y-33193324D01*
X29632680Y-33244159D01*
X29622609Y-33260487D01*
X29570660Y-33307211D01*
X29501697Y-33318431D01*
X29470867Y-33308488D01*
X29470398Y-33309747D01*
X29327376Y-33256402D01*
X29327372Y-33256401D01*
X29267844Y-33250000D01*
X28220000Y-33250000D01*
X28220000Y-35350000D01*
X29267828Y-35350000D01*
X29267844Y-35349999D01*
X29327372Y-35343598D01*
X29327379Y-35343596D01*
X29462086Y-35293354D01*
X29462093Y-35293350D01*
X29577187Y-35207190D01*
X29577190Y-35207187D01*
X29663350Y-35092093D01*
X29663355Y-35092084D01*
X29692402Y-35014205D01*
X29734272Y-34958271D01*
X29799737Y-34933853D01*
X29868010Y-34948704D01*
X29873681Y-34951999D01*
X29905869Y-34971853D01*
X29905880Y-34971858D01*
X30072302Y-35027005D01*
X30072309Y-35027006D01*
X30175019Y-35037499D01*
X30249999Y-35037498D01*
X30250000Y-35037498D01*
X30250000Y-34124000D01*
X30269685Y-34056961D01*
X30322489Y-34011206D01*
X30374000Y-34000000D01*
X30626000Y-34000000D01*
X30693039Y-34019685D01*
X30738794Y-34072489D01*
X30750000Y-34124000D01*
X30750000Y-35037499D01*
X30824972Y-35037499D01*
X30824986Y-35037498D01*
X30927697Y-35027005D01*
X31094119Y-34971858D01*
X31094124Y-34971856D01*
X31243345Y-34879815D01*
X31367316Y-34755844D01*
X31367317Y-34755842D01*
X31369960Y-34751559D01*
X31421906Y-34704833D01*
X31490869Y-34693609D01*
X31554952Y-34721451D01*
X31593809Y-34779519D01*
X31599500Y-34816653D01*
X31599500Y-38782744D01*
X31579815Y-38849783D01*
X31563181Y-38870425D01*
X31307919Y-39125686D01*
X31246596Y-39159171D01*
X31200841Y-39160478D01*
X31131525Y-39149500D01*
X30868482Y-39149500D01*
X30787519Y-39162323D01*
X30774696Y-39164354D01*
X30661658Y-39221950D01*
X30661657Y-39221951D01*
X30661652Y-39221954D01*
X30640426Y-39243181D01*
X30579103Y-39276666D01*
X30552745Y-39279500D01*
X30127255Y-39279500D01*
X30060216Y-39259815D01*
X30039574Y-39243181D01*
X30018347Y-39221954D01*
X30018344Y-39221952D01*
X30018342Y-39221950D01*
X29934417Y-39179188D01*
X29905301Y-39164352D01*
X29811524Y-39149500D01*
X29548482Y-39149500D01*
X29467519Y-39162323D01*
X29454696Y-39164354D01*
X29341658Y-39221950D01*
X29341657Y-39221951D01*
X29341652Y-39221954D01*
X29251954Y-39311652D01*
X29251951Y-39311657D01*
X29251950Y-39311658D01*
X29233395Y-39348074D01*
X29194352Y-39424698D01*
X29179500Y-39518475D01*
X29179500Y-39518480D01*
X29179500Y-39518481D01*
X29179500Y-39658482D01*
X29179501Y-39795500D01*
X29159817Y-39862539D01*
X29107013Y-39908294D01*
X29055501Y-39919500D01*
X28857255Y-39919500D01*
X28790216Y-39899815D01*
X28769574Y-39883181D01*
X25386818Y-36500425D01*
X25353333Y-36439102D01*
X25350499Y-36412744D01*
X25350499Y-36368482D01*
X25340103Y-36302841D01*
X25335646Y-36274696D01*
X25278050Y-36161658D01*
X25278046Y-36161654D01*
X25278045Y-36161652D01*
X25188347Y-36071954D01*
X25188344Y-36071952D01*
X25188342Y-36071950D01*
X25109014Y-36031530D01*
X25075301Y-36014352D01*
X24981524Y-35999500D01*
X24658482Y-35999500D01*
X24564693Y-36014354D01*
X24564688Y-36014356D01*
X24556289Y-36018636D01*
X24487620Y-36031530D01*
X24443709Y-36018636D01*
X24435302Y-36014353D01*
X24341524Y-35999500D01*
X24018482Y-35999500D01*
X23937519Y-36012323D01*
X23924696Y-36014354D01*
X23811658Y-36071950D01*
X23811657Y-36071951D01*
X23811652Y-36071954D01*
X23721954Y-36161652D01*
X23721951Y-36161657D01*
X23721950Y-36161658D01*
X23705806Y-36193343D01*
X23664352Y-36274698D01*
X23649500Y-36368475D01*
X23649500Y-36631517D01*
X23657023Y-36679016D01*
X23664354Y-36725304D01*
X23721950Y-36838342D01*
X23721952Y-36838344D01*
X23721954Y-36838347D01*
X23811652Y-36928045D01*
X23811654Y-36928046D01*
X23811658Y-36928050D01*
X23855326Y-36950300D01*
X23886711Y-36973103D01*
X28005180Y-41091571D01*
X28005190Y-41091582D01*
X28009520Y-41095912D01*
X28009521Y-41095913D01*
X28084088Y-41170480D01*
X28137314Y-41201210D01*
X28175414Y-41223207D01*
X28277274Y-41250501D01*
X28277276Y-41250501D01*
X28390324Y-41250501D01*
X28390340Y-41250500D01*
X30522725Y-41250500D01*
X30522727Y-41250500D01*
X30624588Y-41223207D01*
X30715913Y-41170480D01*
X30912320Y-40974071D01*
X30973641Y-40940588D01*
X31043333Y-40945572D01*
X31087681Y-40974073D01*
X31376589Y-41262981D01*
X31410074Y-41324304D01*
X31411847Y-41366847D01*
X31394318Y-41499998D01*
X31394318Y-41500001D01*
X31414955Y-41656760D01*
X31414956Y-41656762D01*
X31475464Y-41802841D01*
X31571718Y-41928282D01*
X31697159Y-42024536D01*
X31843238Y-42085044D01*
X31921619Y-42095363D01*
X31999999Y-42105682D01*
X32000000Y-42105682D01*
X32000001Y-42105682D01*
X32052254Y-42098802D01*
X32156762Y-42085044D01*
X32178048Y-42076226D01*
X32247516Y-42068758D01*
X32309995Y-42100033D01*
X32345648Y-42160122D01*
X32349500Y-42190788D01*
X32349500Y-43197273D01*
X32349500Y-43302727D01*
X32359043Y-43338342D01*
X32376793Y-43404589D01*
X32390339Y-43428050D01*
X32429520Y-43495913D01*
X32429522Y-43495915D01*
X32821426Y-43887819D01*
X32854911Y-43949142D01*
X32849927Y-44018834D01*
X32808055Y-44074767D01*
X32742591Y-44099184D01*
X32733745Y-44099500D01*
X27247273Y-44099500D01*
X27145413Y-44126793D01*
X27145410Y-44126794D01*
X27054090Y-44179517D01*
X27054085Y-44179521D01*
X25662440Y-45571165D01*
X25601117Y-45604650D01*
X25536095Y-45600000D01*
X24914000Y-45600000D01*
X24846961Y-45580315D01*
X24801206Y-45527511D01*
X24790000Y-45476000D01*
X24790000Y-45400000D01*
X24783972Y-45393972D01*
X24737460Y-45380315D01*
X24691705Y-45327511D01*
X24680499Y-45276000D01*
X24680499Y-45268482D01*
X24677572Y-45250000D01*
X24669653Y-45200000D01*
X24990000Y-45200000D01*
X25512010Y-45200000D01*
X25512011Y-45199998D01*
X25504557Y-45143372D01*
X25504555Y-45143366D01*
X25444100Y-44997414D01*
X25347924Y-44872075D01*
X25222586Y-44775899D01*
X25076631Y-44715444D01*
X24990000Y-44704038D01*
X24990000Y-45200000D01*
X24669653Y-45200000D01*
X24665646Y-45174696D01*
X24608050Y-45061658D01*
X24608048Y-45061656D01*
X24603619Y-45052963D01*
X24607128Y-45051174D01*
X24590183Y-45003252D01*
X24590000Y-44996524D01*
X24590000Y-44704038D01*
X24503369Y-44715444D01*
X24503365Y-44715445D01*
X24357412Y-44775900D01*
X24357410Y-44775901D01*
X24229726Y-44873876D01*
X24164557Y-44899070D01*
X24154241Y-44899500D01*
X23988482Y-44899500D01*
X23907519Y-44912323D01*
X23894696Y-44914354D01*
X23781658Y-44971950D01*
X23781657Y-44971950D01*
X23781653Y-44971953D01*
X23776329Y-44975821D01*
X23710522Y-44999298D01*
X23703448Y-44999500D01*
X23047273Y-44999500D01*
X22945410Y-45026793D01*
X22854087Y-45079520D01*
X22854084Y-45079522D01*
X21679522Y-46254084D01*
X21679518Y-46254090D01*
X21626792Y-46345413D01*
X21626791Y-46345414D01*
X21612033Y-46400498D01*
X21612033Y-46400499D01*
X21599500Y-46447273D01*
X21599500Y-47733448D01*
X21579815Y-47800487D01*
X21575821Y-47806329D01*
X21571953Y-47811653D01*
X21514352Y-47924698D01*
X21499500Y-48018475D01*
X21499500Y-48341517D01*
X21514354Y-48435306D01*
X21514355Y-48435307D01*
X21518635Y-48443707D01*
X21531530Y-48512376D01*
X21518637Y-48556288D01*
X21514353Y-48564695D01*
X21514353Y-48564697D01*
X21499500Y-48658475D01*
X21499500Y-48981517D01*
X21507901Y-49034557D01*
X21514354Y-49075304D01*
X21571950Y-49188342D01*
X21571952Y-49188344D01*
X21571954Y-49188347D01*
X21661652Y-49278045D01*
X21661654Y-49278046D01*
X21661658Y-49278050D01*
X21774694Y-49335645D01*
X21774698Y-49335647D01*
X21868475Y-49350499D01*
X21868481Y-49350500D01*
X22131518Y-49350499D01*
X22225304Y-49335646D01*
X22338342Y-49278050D01*
X22338347Y-49278045D01*
X22359574Y-49256819D01*
X22420897Y-49223334D01*
X22447255Y-49220500D01*
X22775500Y-49220500D01*
X22842539Y-49240185D01*
X22888294Y-49292989D01*
X22899500Y-49344500D01*
X22899500Y-50244856D01*
X22899502Y-50244882D01*
X22902413Y-50269987D01*
X22902415Y-50269991D01*
X22947793Y-50372764D01*
X22947794Y-50372765D01*
X23027235Y-50452206D01*
X23130009Y-50497585D01*
X23155135Y-50500500D01*
X23625500Y-50500499D01*
X23692539Y-50520183D01*
X23738294Y-50572987D01*
X23749500Y-50624499D01*
X23749500Y-50952745D01*
X23729815Y-51019784D01*
X23713181Y-51040426D01*
X23691954Y-51061652D01*
X23691951Y-51061657D01*
X23634352Y-51174698D01*
X23619500Y-51268475D01*
X23619500Y-51531517D01*
X23626064Y-51572959D01*
X23634354Y-51625304D01*
X23691950Y-51738342D01*
X23691952Y-51738344D01*
X23691954Y-51738347D01*
X23781652Y-51828045D01*
X23781654Y-51828046D01*
X23781658Y-51828050D01*
X23894696Y-51885646D01*
X23894698Y-51885647D01*
X23988475Y-51900499D01*
X23988481Y-51900500D01*
X24154241Y-51900499D01*
X24221280Y-51920183D01*
X24229728Y-51926123D01*
X24357413Y-52024100D01*
X24503365Y-52084554D01*
X24503369Y-52084555D01*
X24590000Y-52095961D01*
X24590000Y-52095959D01*
X24990000Y-52095959D01*
X24990001Y-52095960D01*
X25076627Y-52084557D01*
X25076633Y-52084555D01*
X25222585Y-52024100D01*
X25347924Y-51927924D01*
X25444100Y-51802586D01*
X25504555Y-51656631D01*
X25512012Y-51600000D01*
X24990000Y-51600000D01*
X24990000Y-52095959D01*
X24590000Y-52095959D01*
X24590000Y-51803475D01*
X24606187Y-51748345D01*
X24603619Y-51747037D01*
X24608048Y-51738343D01*
X24608050Y-51738342D01*
X24665646Y-51625304D01*
X24665646Y-51625302D01*
X24665647Y-51625301D01*
X24679625Y-51537042D01*
X24680500Y-51531519D01*
X24680499Y-51268482D01*
X24665646Y-51174696D01*
X24608050Y-51061658D01*
X24608048Y-51061656D01*
X24603619Y-51052963D01*
X24607128Y-51051174D01*
X24590183Y-51003252D01*
X24590000Y-50996524D01*
X24590000Y-50702121D01*
X24555317Y-50647441D01*
X24550500Y-50613215D01*
X24550500Y-50564470D01*
X24570185Y-50497431D01*
X24622989Y-50451676D01*
X24692147Y-50441732D01*
X24724587Y-50451036D01*
X24727233Y-50452204D01*
X24727235Y-50452206D01*
X24830009Y-50497585D01*
X24855135Y-50500500D01*
X24892630Y-50500499D01*
X24959667Y-50520182D01*
X25005423Y-50572985D01*
X25015368Y-50642143D01*
X24990000Y-50697695D01*
X24990000Y-51200000D01*
X25512010Y-51200000D01*
X25512011Y-51199998D01*
X25504557Y-51143372D01*
X25504555Y-51143366D01*
X25444100Y-50997414D01*
X25347924Y-50872075D01*
X25222587Y-50775900D01*
X25133647Y-50739060D01*
X25079244Y-50695219D01*
X25057179Y-50628925D01*
X25074458Y-50561225D01*
X25125596Y-50513615D01*
X25181096Y-50500499D01*
X26144864Y-50500499D01*
X26144879Y-50500497D01*
X26144882Y-50500497D01*
X26169987Y-50497586D01*
X26169988Y-50497585D01*
X26169991Y-50497585D01*
X26272765Y-50452206D01*
X26352206Y-50372765D01*
X26397585Y-50269991D01*
X26400500Y-50244865D01*
X26400499Y-49217254D01*
X26420183Y-49150216D01*
X26436818Y-49129574D01*
X27874575Y-47691819D01*
X27895417Y-47670977D01*
X27895421Y-47670972D01*
X27902566Y-47663827D01*
X27963888Y-47630343D01*
X28033580Y-47635327D01*
X28077925Y-47663826D01*
X28088292Y-47674192D01*
X28097118Y-47683018D01*
X28097121Y-47683020D01*
X28229532Y-47771491D01*
X28229537Y-47771494D01*
X28229540Y-47771496D01*
X28376678Y-47832440D01*
X28532879Y-47863508D01*
X28692138Y-47863506D01*
X28692140Y-47863506D01*
X28692140Y-47863505D01*
X28848339Y-47832435D01*
X28848341Y-47832433D01*
X28848345Y-47832433D01*
X28976131Y-47779500D01*
X28995476Y-47771487D01*
X29102461Y-47700001D01*
X30457988Y-47700001D01*
X30465442Y-47756627D01*
X30465444Y-47756633D01*
X30525899Y-47902585D01*
X30622075Y-48027924D01*
X30747413Y-48124100D01*
X30893365Y-48184554D01*
X30893369Y-48184555D01*
X30980000Y-48195961D01*
X30980000Y-47700000D01*
X30457990Y-47700000D01*
X30457988Y-47700001D01*
X29102461Y-47700001D01*
X29127896Y-47683006D01*
X29136705Y-47674196D01*
X29136711Y-47674193D01*
X29136710Y-47674192D01*
X29146918Y-47663983D01*
X29146920Y-47663983D01*
X29292087Y-47518814D01*
X29292285Y-47518706D01*
X29328494Y-47482496D01*
X29328495Y-47482497D01*
X29384807Y-47426184D01*
X29469117Y-47300000D01*
X30457987Y-47300000D01*
X30980000Y-47300000D01*
X30980000Y-46700000D01*
X30457990Y-46700000D01*
X30457988Y-46700001D01*
X30465442Y-46756627D01*
X30465444Y-46756633D01*
X30525900Y-46902589D01*
X30542724Y-46924514D01*
X30567918Y-46989684D01*
X30553879Y-47058128D01*
X30542724Y-47075486D01*
X30525900Y-47097410D01*
X30465444Y-47243368D01*
X30457987Y-47300000D01*
X29469117Y-47300000D01*
X29473294Y-47293748D01*
X29534241Y-47146594D01*
X29565305Y-46990376D01*
X29565293Y-46831099D01*
X29534205Y-46674886D01*
X29534204Y-46674883D01*
X29534204Y-46674882D01*
X29474174Y-46530008D01*
X29473235Y-46527741D01*
X29470956Y-46524331D01*
X29384731Y-46395323D01*
X29384727Y-46395318D01*
X29365591Y-46376188D01*
X29332097Y-46314870D01*
X29333158Y-46300000D01*
X30457987Y-46300000D01*
X30980000Y-46300000D01*
X30980000Y-45700000D01*
X30457990Y-45700000D01*
X30457988Y-45700001D01*
X30465442Y-45756627D01*
X30465444Y-45756633D01*
X30525900Y-45902589D01*
X30542724Y-45924514D01*
X30567918Y-45989684D01*
X30553879Y-46058128D01*
X30542724Y-46075486D01*
X30525900Y-46097410D01*
X30465444Y-46243368D01*
X30457987Y-46300000D01*
X29333158Y-46300000D01*
X29337071Y-46245178D01*
X29365576Y-46200815D01*
X30129573Y-45436819D01*
X30190896Y-45403334D01*
X30217254Y-45400500D01*
X31056000Y-45400500D01*
X31123039Y-45420185D01*
X31168794Y-45472989D01*
X31173188Y-45493188D01*
X31186027Y-45506027D01*
X31232540Y-45519685D01*
X31278295Y-45572489D01*
X31289500Y-45623999D01*
X31289501Y-45631518D01*
X31304354Y-45725304D01*
X31361950Y-45838342D01*
X31361951Y-45838343D01*
X31366381Y-45847037D01*
X31362824Y-45848848D01*
X31379794Y-45896337D01*
X31380000Y-45903475D01*
X31380000Y-46096524D01*
X31363811Y-46151653D01*
X31366381Y-46152963D01*
X31361951Y-46161656D01*
X31361950Y-46161658D01*
X31341999Y-46200813D01*
X31304352Y-46274698D01*
X31289500Y-46368475D01*
X31289500Y-46368480D01*
X31289500Y-46368481D01*
X31289501Y-46631518D01*
X31304354Y-46725304D01*
X31361950Y-46838342D01*
X31361951Y-46838343D01*
X31366381Y-46847037D01*
X31362824Y-46848848D01*
X31379794Y-46896337D01*
X31380000Y-46903475D01*
X31380000Y-47096524D01*
X31363811Y-47151653D01*
X31366381Y-47152963D01*
X31361951Y-47161656D01*
X31361950Y-47161658D01*
X31352444Y-47180315D01*
X31304352Y-47274698D01*
X31289500Y-47368475D01*
X31289500Y-47368480D01*
X31289500Y-47368481D01*
X31289501Y-47631518D01*
X31304354Y-47725304D01*
X31361950Y-47838342D01*
X31361951Y-47838343D01*
X31366381Y-47847037D01*
X31362824Y-47848848D01*
X31379794Y-47896337D01*
X31380000Y-47903475D01*
X31380000Y-48195959D01*
X31380001Y-48195959D01*
X31429704Y-48189417D01*
X31498739Y-48200183D01*
X31550994Y-48246564D01*
X31569879Y-48313833D01*
X31549398Y-48380633D01*
X31533569Y-48400037D01*
X30179522Y-49754084D01*
X30179518Y-49754090D01*
X30126792Y-49845412D01*
X30126793Y-49845413D01*
X30099500Y-49947273D01*
X30099500Y-56493419D01*
X30079815Y-56560458D01*
X30073876Y-56568905D01*
X29975464Y-56697157D01*
X29914956Y-56843237D01*
X29914955Y-56843239D01*
X29894318Y-56999998D01*
X29894318Y-57000001D01*
X29915735Y-57162682D01*
X29904969Y-57231717D01*
X29858589Y-57283973D01*
X29808980Y-57301806D01*
X29743372Y-57310442D01*
X29743366Y-57310444D01*
X29597414Y-57370899D01*
X29472075Y-57467075D01*
X29375899Y-57592413D01*
X29315445Y-57738365D01*
X29315444Y-57738369D01*
X29304038Y-57825000D01*
X29975500Y-57825000D01*
X30042539Y-57844685D01*
X30088294Y-57897489D01*
X30099500Y-57949000D01*
X30099500Y-58010500D01*
X30079815Y-58077539D01*
X30027011Y-58123294D01*
X29975501Y-58134500D01*
X29868482Y-58134500D01*
X29787519Y-58147323D01*
X29774696Y-58149354D01*
X29661658Y-58206950D01*
X29661656Y-58206951D01*
X29652963Y-58211381D01*
X29651151Y-58207824D01*
X29603663Y-58224794D01*
X29596525Y-58225000D01*
X29304041Y-58225000D01*
X29304039Y-58225001D01*
X29315442Y-58311627D01*
X29315444Y-58311633D01*
X29375899Y-58457586D01*
X29473876Y-58585271D01*
X29499070Y-58650441D01*
X29499500Y-58660758D01*
X29499500Y-58699991D01*
X29479815Y-58767030D01*
X29427011Y-58812785D01*
X29357853Y-58822729D01*
X29294297Y-58793704D01*
X29287819Y-58787672D01*
X29179669Y-58679522D01*
X29179667Y-58679520D01*
X29129301Y-58650441D01*
X29088343Y-58626793D01*
X29037411Y-58613146D01*
X28986481Y-58599500D01*
X28986480Y-58599500D01*
X28006580Y-58599500D01*
X27939541Y-58579815D01*
X27931093Y-58573876D01*
X27928283Y-58571720D01*
X27928282Y-58571718D01*
X27802841Y-58475464D01*
X27783621Y-58467503D01*
X27656762Y-58414956D01*
X27656760Y-58414955D01*
X27500001Y-58394318D01*
X27499999Y-58394318D01*
X27343239Y-58414955D01*
X27343237Y-58414956D01*
X27197160Y-58475463D01*
X27071718Y-58571718D01*
X26975463Y-58697160D01*
X26914956Y-58843237D01*
X26914955Y-58843239D01*
X26894318Y-58999998D01*
X26894318Y-59000001D01*
X26913476Y-59145526D01*
X26902710Y-59214562D01*
X26856330Y-59266817D01*
X26836996Y-59275251D01*
X26837477Y-59276411D01*
X26829971Y-59279519D01*
X26811749Y-59290040D01*
X26743848Y-59306511D01*
X26687751Y-59290040D01*
X26669529Y-59279519D01*
X26594837Y-59259506D01*
X26557493Y-59249500D01*
X26441507Y-59249500D01*
X26329471Y-59279519D01*
X26229027Y-59337512D01*
X26229024Y-59337514D01*
X26147014Y-59419524D01*
X26147012Y-59419527D01*
X26089019Y-59519971D01*
X26059000Y-59632007D01*
X26059000Y-60367994D01*
X26073142Y-60420775D01*
X26071478Y-60490625D01*
X26032315Y-60548487D01*
X25968086Y-60575990D01*
X25921275Y-60572642D01*
X25868494Y-60558500D01*
X25868493Y-60558500D01*
X25132507Y-60558500D01*
X25020471Y-60588519D01*
X24920027Y-60646512D01*
X24920024Y-60646514D01*
X24838014Y-60728524D01*
X24838012Y-60728527D01*
X24780019Y-60828971D01*
X24750000Y-60941007D01*
X24750000Y-61056992D01*
X24780019Y-61169029D01*
X24790540Y-61187251D01*
X24807011Y-61255152D01*
X24790540Y-61311249D01*
X24780019Y-61329470D01*
X24750000Y-61441507D01*
X24750000Y-61557492D01*
X24780019Y-61669526D01*
X24780021Y-61669531D01*
X24790396Y-61687502D01*
X24806867Y-61755403D01*
X24790396Y-61811498D01*
X24780021Y-61829468D01*
X24780019Y-61829473D01*
X24750000Y-61941507D01*
X24750000Y-62057492D01*
X24780019Y-62169529D01*
X24790540Y-62187751D01*
X24807011Y-62255652D01*
X24790540Y-62311749D01*
X24780019Y-62329970D01*
X24750000Y-62442007D01*
X24750000Y-62557992D01*
X24780019Y-62670029D01*
X24790540Y-62688251D01*
X24807011Y-62756152D01*
X24790540Y-62812249D01*
X24780019Y-62830470D01*
X24750000Y-62942507D01*
X24750000Y-63058492D01*
X24780019Y-63170529D01*
X24790540Y-63188751D01*
X24807011Y-63256652D01*
X24790540Y-63312749D01*
X24780019Y-63330970D01*
X24750000Y-63443007D01*
X24750000Y-63558992D01*
X24780019Y-63671029D01*
X24790540Y-63689251D01*
X24807011Y-63757152D01*
X24790540Y-63813249D01*
X24780019Y-63831470D01*
X24750000Y-63943507D01*
X24750000Y-64059492D01*
X24780019Y-64171528D01*
X24809015Y-64221750D01*
X24838012Y-64271973D01*
X24920027Y-64353988D01*
X25020473Y-64411981D01*
X25132507Y-64442000D01*
X25132509Y-64442000D01*
X25868489Y-64442000D01*
X25868493Y-64442000D01*
X25921133Y-64427895D01*
X25990978Y-64429558D01*
X26048841Y-64468720D01*
X26076346Y-64532948D01*
X26072998Y-64579761D01*
X26059000Y-64632002D01*
X26059000Y-65367992D01*
X26089019Y-65480028D01*
X26100551Y-65500001D01*
X26147012Y-65580473D01*
X26229027Y-65662488D01*
X26329473Y-65720481D01*
X26441507Y-65750500D01*
X26441509Y-65750500D01*
X26557491Y-65750500D01*
X26557493Y-65750500D01*
X26669527Y-65720481D01*
X26687750Y-65709959D01*
X26755648Y-65693486D01*
X26811749Y-65709959D01*
X26829973Y-65720481D01*
X26942007Y-65750500D01*
X26942009Y-65750500D01*
X27057991Y-65750500D01*
X27057993Y-65750500D01*
X27162760Y-65722428D01*
X27232607Y-65724091D01*
X27290470Y-65763253D01*
X27317974Y-65827482D01*
X27306388Y-65896384D01*
X27259389Y-65948084D01*
X27242305Y-65956764D01*
X27197159Y-65975464D01*
X27071718Y-66071718D01*
X26975463Y-66197160D01*
X26914956Y-66343237D01*
X26914955Y-66343239D01*
X26894318Y-66499998D01*
X26894318Y-66500001D01*
X26914955Y-66656760D01*
X26914956Y-66656762D01*
X26975464Y-66802841D01*
X27071718Y-66928282D01*
X27197159Y-67024536D01*
X27242300Y-67043234D01*
X27243220Y-67043615D01*
X27297623Y-67087456D01*
X27319688Y-67153750D01*
X27302409Y-67221449D01*
X27251272Y-67269060D01*
X27182512Y-67281466D01*
X27163677Y-67277951D01*
X27057493Y-67249500D01*
X26941507Y-67249500D01*
X26829470Y-67279519D01*
X26811249Y-67290040D01*
X26743348Y-67306511D01*
X26687251Y-67290040D01*
X26669029Y-67279519D01*
X26594337Y-67259506D01*
X26556993Y-67249500D01*
X26441007Y-67249500D01*
X26328971Y-67279519D01*
X26228527Y-67337512D01*
X26228524Y-67337514D01*
X26146514Y-67419524D01*
X26146512Y-67419527D01*
X26088519Y-67519971D01*
X26058500Y-67632007D01*
X26058500Y-68367994D01*
X26072642Y-68420775D01*
X26070978Y-68490625D01*
X26031815Y-68548487D01*
X25967586Y-68575990D01*
X25920775Y-68572642D01*
X25867994Y-68558500D01*
X25867993Y-68558500D01*
X25132007Y-68558500D01*
X25019971Y-68588519D01*
X24919527Y-68646512D01*
X24919524Y-68646514D01*
X24837514Y-68728524D01*
X24837512Y-68728527D01*
X24779519Y-68828971D01*
X24749500Y-68941007D01*
X24749500Y-69056992D01*
X24779519Y-69169029D01*
X24790040Y-69187251D01*
X24806511Y-69255152D01*
X24790040Y-69311249D01*
X24779519Y-69329470D01*
X24749500Y-69441507D01*
X24749500Y-69557492D01*
X24779519Y-69669526D01*
X24779521Y-69669531D01*
X24789896Y-69687502D01*
X24806367Y-69755403D01*
X24789896Y-69811498D01*
X24779521Y-69829468D01*
X24779519Y-69829473D01*
X24749500Y-69941507D01*
X24749500Y-70057492D01*
X24779519Y-70169529D01*
X24790040Y-70187751D01*
X24806511Y-70255652D01*
X24790040Y-70311749D01*
X24779519Y-70329970D01*
X24749500Y-70442007D01*
X24749500Y-70557992D01*
X24779519Y-70670029D01*
X24790040Y-70688251D01*
X24806511Y-70756152D01*
X24790040Y-70812249D01*
X24779519Y-70830470D01*
X24749500Y-70942507D01*
X24749500Y-71058492D01*
X24779519Y-71170529D01*
X24790040Y-71188751D01*
X24806511Y-71256652D01*
X24790040Y-71312749D01*
X24779519Y-71330970D01*
X24749500Y-71443007D01*
X24749500Y-71558992D01*
X24779519Y-71671029D01*
X24790040Y-71689251D01*
X24806511Y-71757152D01*
X24790040Y-71813249D01*
X24779519Y-71831470D01*
X24749500Y-71943507D01*
X24749500Y-72059492D01*
X24779519Y-72171528D01*
X24808515Y-72221750D01*
X24837512Y-72271973D01*
X24919527Y-72353988D01*
X25019973Y-72411981D01*
X25132007Y-72442000D01*
X25132009Y-72442000D01*
X25867989Y-72442000D01*
X25867993Y-72442000D01*
X25920633Y-72427895D01*
X25990478Y-72429558D01*
X26048341Y-72468720D01*
X26075846Y-72532948D01*
X26072498Y-72579761D01*
X26058500Y-72632002D01*
X26058500Y-73367992D01*
X26088519Y-73480028D01*
X26117515Y-73530250D01*
X26146512Y-73580473D01*
X26228527Y-73662488D01*
X26282217Y-73693486D01*
X26328969Y-73720479D01*
X26328973Y-73720481D01*
X26441007Y-73750500D01*
X26441009Y-73750500D01*
X26556991Y-73750500D01*
X26556993Y-73750500D01*
X26669027Y-73720481D01*
X26687250Y-73709959D01*
X26755148Y-73693486D01*
X26811249Y-73709959D01*
X26829473Y-73720481D01*
X26941507Y-73750500D01*
X26941509Y-73750500D01*
X27057491Y-73750500D01*
X27057493Y-73750500D01*
X27169527Y-73720481D01*
X27187497Y-73710106D01*
X27255397Y-73693631D01*
X27311503Y-73710106D01*
X27329469Y-73720479D01*
X27329470Y-73720479D01*
X27329473Y-73720481D01*
X27441507Y-73750500D01*
X27441509Y-73750500D01*
X27475500Y-73750500D01*
X27542539Y-73770185D01*
X27588294Y-73822989D01*
X27599500Y-73874500D01*
X27599500Y-74947726D01*
X27626793Y-75049589D01*
X27653156Y-75095250D01*
X27679520Y-75140913D01*
X27679522Y-75140915D01*
X28335880Y-75797273D01*
X28369365Y-75858596D01*
X28365524Y-75912297D01*
X28399948Y-75904657D01*
X28465514Y-75928798D01*
X28479303Y-75940696D01*
X28846805Y-76308198D01*
X28880290Y-76369521D01*
X28878390Y-76429813D01*
X28819244Y-76637687D01*
X28808471Y-76753951D01*
X28782685Y-76818888D01*
X28738130Y-76850804D01*
X28774503Y-76871668D01*
X28806693Y-76933681D01*
X28808470Y-76946047D01*
X28819244Y-77062310D01*
X28872675Y-77250099D01*
X28877596Y-77267392D01*
X28877596Y-77267394D01*
X28972632Y-77458253D01*
X28972634Y-77458255D01*
X29101128Y-77628407D01*
X29258698Y-77772052D01*
X29439981Y-77884298D01*
X29638802Y-77961321D01*
X29835613Y-77998111D01*
X29897893Y-78029779D01*
X29933166Y-78090092D01*
X29930232Y-78159900D01*
X29890023Y-78217040D01*
X29835613Y-78241888D01*
X29638802Y-78278679D01*
X29638799Y-78278679D01*
X29638799Y-78278680D01*
X29439982Y-78355701D01*
X29439980Y-78355702D01*
X29258699Y-78467947D01*
X29101127Y-78611593D01*
X28972632Y-78781746D01*
X28877596Y-78972605D01*
X28877596Y-78972607D01*
X28819244Y-79177689D01*
X28808471Y-79293951D01*
X28782685Y-79358888D01*
X28738130Y-79390804D01*
X28774503Y-79411668D01*
X28806693Y-79473681D01*
X28808470Y-79486047D01*
X28819244Y-79602310D01*
X28872675Y-79790099D01*
X28877596Y-79807392D01*
X28877596Y-79807394D01*
X28972632Y-79998253D01*
X29101127Y-80168406D01*
X29101128Y-80168407D01*
X29258698Y-80312052D01*
X29439981Y-80424298D01*
X29638802Y-80501321D01*
X29848390Y-80540500D01*
X29848392Y-80540500D01*
X30061608Y-80540500D01*
X30061610Y-80540500D01*
X30271198Y-80501321D01*
X30470019Y-80424298D01*
X30651302Y-80312052D01*
X30808872Y-80168407D01*
X30937366Y-79998255D01*
X30991270Y-79890000D01*
X31032403Y-79807394D01*
X31032403Y-79807393D01*
X31032405Y-79807389D01*
X31090756Y-79602310D01*
X31101529Y-79486047D01*
X31127315Y-79421111D01*
X31171869Y-79389194D01*
X31135497Y-79368331D01*
X31103307Y-79306318D01*
X31101529Y-79293951D01*
X31100849Y-79286613D01*
X31090756Y-79177690D01*
X31032405Y-78972611D01*
X31031609Y-78969813D01*
X31032195Y-78899946D01*
X31063192Y-78848199D01*
X31350910Y-78560481D01*
X31350913Y-78560480D01*
X31425480Y-78485913D01*
X31478207Y-78394587D01*
X31488626Y-78355702D01*
X31505501Y-78292727D01*
X31505501Y-78187273D01*
X31505501Y-78179678D01*
X31505500Y-78179660D01*
X31505500Y-77785599D01*
X31525185Y-77718560D01*
X31577989Y-77672805D01*
X31647147Y-77662861D01*
X31710703Y-77691886D01*
X31712996Y-77693924D01*
X31798698Y-77772052D01*
X31979981Y-77884298D01*
X32178802Y-77961321D01*
X32375613Y-77998111D01*
X32437893Y-78029779D01*
X32473166Y-78090092D01*
X32470232Y-78159900D01*
X32430023Y-78217040D01*
X32375613Y-78241888D01*
X32178802Y-78278679D01*
X32178799Y-78278679D01*
X32178799Y-78278680D01*
X31979982Y-78355701D01*
X31979980Y-78355702D01*
X31798699Y-78467947D01*
X31641125Y-78611595D01*
X31628684Y-78628070D01*
X31625523Y-78630415D01*
X31617331Y-78643104D01*
X31512633Y-78781746D01*
X31417596Y-78972605D01*
X31417596Y-78972607D01*
X31359244Y-79177689D01*
X31348471Y-79293951D01*
X31322685Y-79358888D01*
X31278130Y-79390804D01*
X31314503Y-79411668D01*
X31346693Y-79473681D01*
X31348470Y-79486047D01*
X31359244Y-79602310D01*
X31412675Y-79790099D01*
X31417596Y-79807392D01*
X31417596Y-79807394D01*
X31512632Y-79998253D01*
X31641127Y-80168406D01*
X31641128Y-80168407D01*
X31798698Y-80312052D01*
X31979981Y-80424298D01*
X32178802Y-80501321D01*
X32388390Y-80540500D01*
X32388392Y-80540500D01*
X32601608Y-80540500D01*
X32601610Y-80540500D01*
X32811198Y-80501321D01*
X33010019Y-80424298D01*
X33191302Y-80312052D01*
X33348872Y-80168407D01*
X33477366Y-79998255D01*
X33531270Y-79890000D01*
X33572403Y-79807394D01*
X33572403Y-79807393D01*
X33572405Y-79807389D01*
X33630756Y-79602310D01*
X33641529Y-79486047D01*
X33667315Y-79421111D01*
X33711869Y-79389194D01*
X33675497Y-79368331D01*
X33643307Y-79306318D01*
X33641529Y-79293951D01*
X33640849Y-79286613D01*
X33630756Y-79177690D01*
X33572405Y-78972611D01*
X33572403Y-78972606D01*
X33572403Y-78972605D01*
X33477367Y-78781746D01*
X33348872Y-78611593D01*
X33292804Y-78560480D01*
X33191302Y-78467948D01*
X33010019Y-78355702D01*
X33010017Y-78355701D01*
X32847455Y-78292725D01*
X32811198Y-78278679D01*
X32614385Y-78241888D01*
X32552106Y-78210221D01*
X32516833Y-78149908D01*
X32519767Y-78080100D01*
X32559976Y-78022960D01*
X32614384Y-77998111D01*
X32811198Y-77961321D01*
X33010019Y-77884298D01*
X33191302Y-77772052D01*
X33348872Y-77628407D01*
X33477366Y-77458255D01*
X33531270Y-77350000D01*
X33572403Y-77267394D01*
X33572403Y-77267393D01*
X33572405Y-77267389D01*
X33630756Y-77062310D01*
X33641529Y-76946047D01*
X33667315Y-76881111D01*
X33711869Y-76849194D01*
X33675497Y-76828331D01*
X33643307Y-76766318D01*
X33641529Y-76753951D01*
X33640849Y-76746613D01*
X33630756Y-76637690D01*
X33572405Y-76432611D01*
X33572403Y-76432606D01*
X33572403Y-76432605D01*
X33477367Y-76241746D01*
X33348872Y-76071593D01*
X33320927Y-76046118D01*
X33191302Y-75927948D01*
X33010019Y-75815702D01*
X33010017Y-75815701D01*
X32860829Y-75757906D01*
X32811198Y-75738679D01*
X32601610Y-75699500D01*
X32388390Y-75699500D01*
X32178802Y-75738679D01*
X32178799Y-75738679D01*
X32178799Y-75738680D01*
X31979982Y-75815701D01*
X31979980Y-75815702D01*
X31798699Y-75927947D01*
X31641127Y-76071593D01*
X31623454Y-76094997D01*
X31567345Y-76136633D01*
X31497633Y-76141324D01*
X31436451Y-76107582D01*
X31403224Y-76046118D01*
X31400500Y-76020270D01*
X31400500Y-75447275D01*
X31400500Y-75447273D01*
X31373207Y-75345413D01*
X31373207Y-75345412D01*
X31358811Y-75320477D01*
X31328632Y-75268206D01*
X31320482Y-75254090D01*
X31320481Y-75254089D01*
X31320480Y-75254087D01*
X31245913Y-75179520D01*
X31245912Y-75179519D01*
X31241582Y-75175189D01*
X31241571Y-75175179D01*
X30745915Y-74679522D01*
X30745914Y-74679521D01*
X30745913Y-74679520D01*
X30693200Y-74649086D01*
X30654589Y-74626793D01*
X30603657Y-74613146D01*
X30552727Y-74599500D01*
X30552726Y-74599500D01*
X29948601Y-74599500D01*
X29881562Y-74579815D01*
X29860920Y-74563181D01*
X29230791Y-73933052D01*
X29197306Y-73871729D01*
X29202290Y-73802037D01*
X29244162Y-73746104D01*
X29309626Y-73721687D01*
X29350561Y-73725595D01*
X29443507Y-73750500D01*
X29443509Y-73750500D01*
X29559491Y-73750500D01*
X29559493Y-73750500D01*
X29671527Y-73720481D01*
X29771973Y-73662488D01*
X29853988Y-73580473D01*
X29911981Y-73480027D01*
X29942000Y-73367993D01*
X29942000Y-72632007D01*
X29928039Y-72579903D01*
X29929702Y-72510058D01*
X29968864Y-72452196D01*
X30033092Y-72424691D01*
X30079901Y-72428038D01*
X30132007Y-72442000D01*
X30132010Y-72442000D01*
X30867991Y-72442000D01*
X30867993Y-72442000D01*
X30980027Y-72411981D01*
X31080473Y-72353988D01*
X31162488Y-72271973D01*
X31220481Y-72171527D01*
X31250500Y-72059493D01*
X31250500Y-71943507D01*
X31220481Y-71831473D01*
X31209959Y-71813249D01*
X31193486Y-71745352D01*
X31209959Y-71689250D01*
X31220481Y-71671027D01*
X31250500Y-71558993D01*
X31250500Y-71516459D01*
X31270185Y-71449420D01*
X31286821Y-71428776D01*
X31307119Y-71408478D01*
X31307121Y-71408475D01*
X31377159Y-71303657D01*
X31377160Y-71303654D01*
X31425404Y-71187183D01*
X31425406Y-71187175D01*
X31434691Y-71140500D01*
X31404050Y-71103164D01*
X31376738Y-71038854D01*
X31388530Y-70969986D01*
X31435682Y-70918427D01*
X31499904Y-70900500D01*
X32052725Y-70900500D01*
X32052727Y-70900500D01*
X32154588Y-70873207D01*
X32245913Y-70820480D01*
X33235703Y-69830687D01*
X33235708Y-69830684D01*
X33245911Y-69820480D01*
X33245913Y-69820480D01*
X33320480Y-69745913D01*
X33373207Y-69654587D01*
X33375237Y-69647012D01*
X33400501Y-69552727D01*
X33400501Y-69447273D01*
X33400501Y-69439678D01*
X33400500Y-69439660D01*
X33400500Y-59325712D01*
X33420185Y-59258673D01*
X33472989Y-59212918D01*
X33542147Y-59202974D01*
X33559508Y-59207739D01*
X33559652Y-59207205D01*
X33567501Y-59209308D01*
X33567503Y-59209309D01*
X33607404Y-59214562D01*
X33724264Y-59229947D01*
X33724265Y-59229947D01*
X33724266Y-59229947D01*
X33776519Y-59223067D01*
X33881027Y-59209309D01*
X34027106Y-59148801D01*
X34152547Y-59052547D01*
X34248801Y-58927106D01*
X34309309Y-58781027D01*
X34329947Y-58624265D01*
X34329946Y-58624262D01*
X34330409Y-58620750D01*
X34358675Y-58556854D01*
X34365655Y-58549266D01*
X35894919Y-57020001D01*
X36304039Y-57020001D01*
X36315442Y-57106627D01*
X36315444Y-57106633D01*
X36375899Y-57252585D01*
X36472075Y-57377924D01*
X36597414Y-57474100D01*
X36743366Y-57534555D01*
X36743372Y-57534557D01*
X36799998Y-57542011D01*
X36800000Y-57542010D01*
X36800000Y-57020000D01*
X36304041Y-57020000D01*
X36304039Y-57020001D01*
X35894919Y-57020001D01*
X36258602Y-56656318D01*
X36319925Y-56622834D01*
X36346283Y-56620000D01*
X36596525Y-56620000D01*
X36651654Y-56636187D01*
X36652963Y-56633619D01*
X36661656Y-56638048D01*
X36661658Y-56638050D01*
X36761350Y-56688846D01*
X36774698Y-56695647D01*
X36868475Y-56710499D01*
X36868481Y-56710500D01*
X37131518Y-56710499D01*
X37225304Y-56695646D01*
X37338342Y-56638050D01*
X37338343Y-56638048D01*
X37347037Y-56633619D01*
X37348848Y-56637175D01*
X37396337Y-56620206D01*
X37403475Y-56620000D01*
X37695959Y-56620000D01*
X37699103Y-56616415D01*
X37758104Y-56578991D01*
X37827973Y-56579407D01*
X37839778Y-56583611D01*
X37843238Y-56585044D01*
X37991686Y-56604587D01*
X38055582Y-56632853D01*
X38094053Y-56691178D01*
X38099500Y-56727526D01*
X38099500Y-57025500D01*
X38079815Y-57092539D01*
X38027011Y-57138294D01*
X37975501Y-57149500D01*
X37868480Y-57149500D01*
X37838883Y-57154188D01*
X37769590Y-57145231D01*
X37716139Y-57100234D01*
X37695501Y-57033482D01*
X37696267Y-57020348D01*
X37695962Y-57020000D01*
X37200000Y-57020000D01*
X37200000Y-57547688D01*
X37229307Y-57593897D01*
X37228891Y-57663765D01*
X37197807Y-57715800D01*
X37179523Y-57734084D01*
X37179520Y-57734088D01*
X37126792Y-57825413D01*
X37126792Y-57825414D01*
X37121433Y-57845411D01*
X37121434Y-57845412D01*
X37099500Y-57927272D01*
X37099500Y-58671184D01*
X37105455Y-58693408D01*
X37103792Y-58763257D01*
X37064629Y-58821120D01*
X37000400Y-58848623D01*
X36985680Y-58849500D01*
X36342990Y-58849500D01*
X36275951Y-58829815D01*
X36255309Y-58813181D01*
X36141402Y-58699274D01*
X36107917Y-58637951D01*
X36106144Y-58627778D01*
X36105681Y-58624263D01*
X36085044Y-58467503D01*
X36024536Y-58321424D01*
X35928282Y-58195983D01*
X35802841Y-58099729D01*
X35656762Y-58039221D01*
X35656760Y-58039220D01*
X35500001Y-58018583D01*
X35499999Y-58018583D01*
X35343239Y-58039220D01*
X35343237Y-58039221D01*
X35197160Y-58099728D01*
X35071718Y-58195983D01*
X34975463Y-58321425D01*
X34914956Y-58467502D01*
X34914955Y-58467504D01*
X34894318Y-58624263D01*
X34894318Y-58624266D01*
X34914955Y-58781025D01*
X34914956Y-58781027D01*
X34972646Y-58920304D01*
X34975464Y-58927106D01*
X35071718Y-59052547D01*
X35197159Y-59148801D01*
X35197160Y-59148801D01*
X35203608Y-59153749D01*
X35202749Y-59154867D01*
X35244943Y-59199109D01*
X35258174Y-59267715D01*
X35232213Y-59332582D01*
X35222416Y-59343623D01*
X35146512Y-59419527D01*
X35088519Y-59519971D01*
X35058500Y-59632007D01*
X35058500Y-60367994D01*
X35072642Y-60420775D01*
X35070978Y-60490625D01*
X35031815Y-60548487D01*
X34967586Y-60575990D01*
X34920775Y-60572642D01*
X34867994Y-60558500D01*
X34867993Y-60558500D01*
X34132007Y-60558500D01*
X34019971Y-60588519D01*
X33919527Y-60646512D01*
X33919524Y-60646514D01*
X33837514Y-60728524D01*
X33837512Y-60728527D01*
X33779519Y-60828971D01*
X33749500Y-60941007D01*
X33749500Y-61056992D01*
X33779519Y-61169029D01*
X33790040Y-61187251D01*
X33806511Y-61255152D01*
X33790040Y-61311249D01*
X33779519Y-61329470D01*
X33749500Y-61441507D01*
X33749500Y-61557492D01*
X33779519Y-61669526D01*
X33779521Y-61669531D01*
X33789896Y-61687502D01*
X33806367Y-61755403D01*
X33789896Y-61811498D01*
X33779521Y-61829468D01*
X33779519Y-61829473D01*
X33749500Y-61941507D01*
X33749500Y-62057492D01*
X33779519Y-62169529D01*
X33790040Y-62187751D01*
X33806511Y-62255652D01*
X33790040Y-62311749D01*
X33779519Y-62329970D01*
X33749500Y-62442007D01*
X33749500Y-62557992D01*
X33779519Y-62670029D01*
X33790040Y-62688251D01*
X33806511Y-62756152D01*
X33790040Y-62812249D01*
X33779519Y-62830470D01*
X33749500Y-62942507D01*
X33749500Y-63058492D01*
X33779519Y-63170529D01*
X33790040Y-63188751D01*
X33806511Y-63256652D01*
X33790040Y-63312749D01*
X33779519Y-63330970D01*
X33749500Y-63443007D01*
X33749500Y-63558992D01*
X33779519Y-63671029D01*
X33790040Y-63689251D01*
X33806511Y-63757152D01*
X33790040Y-63813249D01*
X33779519Y-63831470D01*
X33749500Y-63943507D01*
X33749500Y-64059492D01*
X33779519Y-64171528D01*
X33808515Y-64221750D01*
X33837512Y-64271973D01*
X33919527Y-64353988D01*
X34019973Y-64411981D01*
X34132007Y-64442000D01*
X34132009Y-64442000D01*
X34867989Y-64442000D01*
X34867993Y-64442000D01*
X34920633Y-64427895D01*
X34990478Y-64429558D01*
X35048341Y-64468720D01*
X35075846Y-64532948D01*
X35072498Y-64579761D01*
X35058500Y-64632002D01*
X35058500Y-65367992D01*
X35088519Y-65480028D01*
X35100051Y-65500001D01*
X35146512Y-65580473D01*
X35228527Y-65662488D01*
X35328973Y-65720481D01*
X35441007Y-65750500D01*
X35441009Y-65750500D01*
X35556991Y-65750500D01*
X35556993Y-65750500D01*
X35669027Y-65720481D01*
X35687250Y-65709959D01*
X35755148Y-65693486D01*
X35811249Y-65709959D01*
X35829473Y-65720481D01*
X35941507Y-65750500D01*
X35941509Y-65750500D01*
X36057490Y-65750500D01*
X36057493Y-65750500D01*
X36163678Y-65722048D01*
X36233523Y-65723711D01*
X36291386Y-65762873D01*
X36318890Y-65827101D01*
X36307304Y-65896004D01*
X36260305Y-65947704D01*
X36243222Y-65956383D01*
X36197161Y-65975462D01*
X36071718Y-66071718D01*
X35975463Y-66197160D01*
X35914956Y-66343237D01*
X35914955Y-66343239D01*
X35894318Y-66499998D01*
X35894318Y-66500001D01*
X35914955Y-66656760D01*
X35914956Y-66656762D01*
X35975464Y-66802841D01*
X36071718Y-66928282D01*
X36197159Y-67024536D01*
X36242300Y-67043234D01*
X36243220Y-67043615D01*
X36297623Y-67087456D01*
X36319688Y-67153750D01*
X36302409Y-67221449D01*
X36251272Y-67269060D01*
X36182512Y-67281466D01*
X36163677Y-67277951D01*
X36057493Y-67249500D01*
X35941507Y-67249500D01*
X35829470Y-67279519D01*
X35811249Y-67290040D01*
X35743348Y-67306511D01*
X35687251Y-67290040D01*
X35669029Y-67279519D01*
X35594337Y-67259506D01*
X35556993Y-67249500D01*
X35441007Y-67249500D01*
X35328971Y-67279519D01*
X35228527Y-67337512D01*
X35228524Y-67337514D01*
X35146514Y-67419524D01*
X35146512Y-67419527D01*
X35088519Y-67519971D01*
X35058500Y-67632007D01*
X35058500Y-68367994D01*
X35072642Y-68420775D01*
X35070978Y-68490625D01*
X35031815Y-68548487D01*
X34967586Y-68575990D01*
X34920775Y-68572642D01*
X34867994Y-68558500D01*
X34867993Y-68558500D01*
X34132007Y-68558500D01*
X34019971Y-68588519D01*
X33919527Y-68646512D01*
X33919524Y-68646514D01*
X33837514Y-68728524D01*
X33837512Y-68728527D01*
X33779519Y-68828971D01*
X33749500Y-68941007D01*
X33749500Y-69056992D01*
X33779519Y-69169029D01*
X33790040Y-69187251D01*
X33806511Y-69255152D01*
X33790040Y-69311249D01*
X33779519Y-69329470D01*
X33749500Y-69441507D01*
X33749500Y-69557492D01*
X33779519Y-69669526D01*
X33779521Y-69669531D01*
X33789896Y-69687502D01*
X33806367Y-69755403D01*
X33789896Y-69811498D01*
X33779521Y-69829468D01*
X33779519Y-69829473D01*
X33749500Y-69941507D01*
X33749500Y-70057492D01*
X33779519Y-70169529D01*
X33790040Y-70187751D01*
X33806511Y-70255652D01*
X33790040Y-70311749D01*
X33779519Y-70329970D01*
X33749500Y-70442007D01*
X33749500Y-70557992D01*
X33779519Y-70670029D01*
X33790040Y-70688251D01*
X33806511Y-70756152D01*
X33790040Y-70812249D01*
X33779519Y-70830470D01*
X33749500Y-70942507D01*
X33749500Y-71058492D01*
X33779519Y-71170529D01*
X33790040Y-71188751D01*
X33806511Y-71256652D01*
X33790040Y-71312749D01*
X33779519Y-71330970D01*
X33749500Y-71443007D01*
X33749500Y-71558992D01*
X33779519Y-71671029D01*
X33790040Y-71689251D01*
X33806511Y-71757152D01*
X33790040Y-71813249D01*
X33779519Y-71831470D01*
X33749500Y-71943507D01*
X33749500Y-72059492D01*
X33779519Y-72171528D01*
X33808515Y-72221750D01*
X33837512Y-72271973D01*
X33919527Y-72353988D01*
X34019973Y-72411981D01*
X34132007Y-72442000D01*
X34132009Y-72442000D01*
X34867989Y-72442000D01*
X34867993Y-72442000D01*
X34920633Y-72427895D01*
X34990478Y-72429558D01*
X35048341Y-72468720D01*
X35075846Y-72532948D01*
X35072498Y-72579761D01*
X35058500Y-72632002D01*
X35058500Y-73367992D01*
X35088519Y-73480028D01*
X35117515Y-73530250D01*
X35146512Y-73580473D01*
X35228527Y-73662488D01*
X35282217Y-73693486D01*
X35328969Y-73720479D01*
X35328973Y-73720481D01*
X35441007Y-73750500D01*
X35441009Y-73750500D01*
X35556991Y-73750500D01*
X35556993Y-73750500D01*
X35669027Y-73720481D01*
X35687250Y-73709959D01*
X35755148Y-73693486D01*
X35811249Y-73709959D01*
X35829473Y-73720481D01*
X35941507Y-73750500D01*
X35941509Y-73750500D01*
X36057491Y-73750500D01*
X36057493Y-73750500D01*
X36169527Y-73720481D01*
X36187497Y-73710106D01*
X36255397Y-73693631D01*
X36311503Y-73710106D01*
X36329469Y-73720479D01*
X36329470Y-73720479D01*
X36329473Y-73720481D01*
X36424594Y-73745968D01*
X36484255Y-73782333D01*
X36514784Y-73845180D01*
X36506489Y-73914555D01*
X36480182Y-73953424D01*
X35870426Y-74563181D01*
X35809103Y-74596666D01*
X35782745Y-74599500D01*
X35447273Y-74599500D01*
X35345413Y-74626793D01*
X35345412Y-74626793D01*
X35345410Y-74626794D01*
X35345407Y-74626795D01*
X35306800Y-74649086D01*
X35306799Y-74649087D01*
X35280443Y-74664303D01*
X35254088Y-74679519D01*
X35254085Y-74679521D01*
X34714522Y-75219084D01*
X34714520Y-75219087D01*
X34661793Y-75310410D01*
X34634500Y-75412273D01*
X34634500Y-75686394D01*
X34614815Y-75753433D01*
X34562011Y-75799188D01*
X34555295Y-75802020D01*
X34519987Y-75815698D01*
X34519979Y-75815702D01*
X34338699Y-75927947D01*
X34181127Y-76071593D01*
X34052632Y-76241746D01*
X33957596Y-76432605D01*
X33957596Y-76432607D01*
X33899244Y-76637689D01*
X33888471Y-76753951D01*
X33862685Y-76818888D01*
X33818130Y-76850804D01*
X33854503Y-76871668D01*
X33886693Y-76933681D01*
X33888470Y-76946047D01*
X33899244Y-77062310D01*
X33952675Y-77250099D01*
X33957596Y-77267392D01*
X33957596Y-77267394D01*
X34052632Y-77458253D01*
X34052634Y-77458255D01*
X34181128Y-77628407D01*
X34338698Y-77772052D01*
X34519981Y-77884298D01*
X34718802Y-77961321D01*
X34915613Y-77998111D01*
X34977893Y-78029779D01*
X35013166Y-78090092D01*
X35010232Y-78159900D01*
X34970023Y-78217040D01*
X34915613Y-78241888D01*
X34718802Y-78278679D01*
X34718799Y-78278679D01*
X34718799Y-78278680D01*
X34519982Y-78355701D01*
X34519980Y-78355702D01*
X34338699Y-78467947D01*
X34181127Y-78611593D01*
X34052632Y-78781746D01*
X33957596Y-78972605D01*
X33957596Y-78972607D01*
X33899244Y-79177689D01*
X33888471Y-79293951D01*
X33862685Y-79358888D01*
X33818130Y-79390804D01*
X33854503Y-79411668D01*
X33886693Y-79473681D01*
X33888470Y-79486047D01*
X33899244Y-79602310D01*
X33952675Y-79790099D01*
X33957596Y-79807392D01*
X33957596Y-79807394D01*
X34052632Y-79998253D01*
X34181127Y-80168406D01*
X34181128Y-80168407D01*
X34338698Y-80312052D01*
X34519981Y-80424298D01*
X34718802Y-80501321D01*
X34928390Y-80540500D01*
X34928392Y-80540500D01*
X35141608Y-80540500D01*
X35141610Y-80540500D01*
X35351198Y-80501321D01*
X35550019Y-80424298D01*
X35731302Y-80312052D01*
X35888872Y-80168407D01*
X36017366Y-79998255D01*
X36084325Y-79863781D01*
X36131825Y-79812548D01*
X36199488Y-79795126D01*
X36265828Y-79817051D01*
X36307705Y-79866651D01*
X36401399Y-80067578D01*
X36536894Y-80261082D01*
X36703917Y-80428105D01*
X36897421Y-80563600D01*
X37111507Y-80663429D01*
X37111516Y-80663433D01*
X37325000Y-80720634D01*
X37325000Y-79823012D01*
X37382007Y-79855925D01*
X37509174Y-79890000D01*
X37640826Y-79890000D01*
X37767993Y-79855925D01*
X37825000Y-79823012D01*
X37825000Y-80720633D01*
X38038483Y-80663433D01*
X38038492Y-80663429D01*
X38252578Y-80563600D01*
X38446082Y-80428105D01*
X38613105Y-80261082D01*
X38748600Y-80067578D01*
X38848429Y-79853492D01*
X38848432Y-79853486D01*
X38905636Y-79640000D01*
X38008012Y-79640000D01*
X38040925Y-79582993D01*
X38075000Y-79455826D01*
X38075000Y-79324174D01*
X38040925Y-79197007D01*
X38008012Y-79140000D01*
X38905636Y-79140000D01*
X38905635Y-79139999D01*
X38848432Y-78926513D01*
X38848429Y-78926507D01*
X38748600Y-78712422D01*
X38748599Y-78712420D01*
X38613113Y-78518926D01*
X38613108Y-78518920D01*
X38490665Y-78396477D01*
X38457180Y-78335154D01*
X38462164Y-78265462D01*
X38504036Y-78209529D01*
X38535013Y-78192614D01*
X38667086Y-78143354D01*
X38667093Y-78143350D01*
X38782187Y-78057190D01*
X38782190Y-78057187D01*
X38868350Y-77942093D01*
X38868354Y-77942086D01*
X38918596Y-77807379D01*
X38918598Y-77807372D01*
X38924999Y-77747844D01*
X38925000Y-77747827D01*
X38925000Y-77100000D01*
X38008012Y-77100000D01*
X38040925Y-77042993D01*
X38075000Y-76915826D01*
X38075000Y-76784174D01*
X38040925Y-76657007D01*
X38008012Y-76600000D01*
X38925000Y-76600000D01*
X38925000Y-75952172D01*
X38924999Y-75952155D01*
X38918598Y-75892627D01*
X38918596Y-75892620D01*
X38868354Y-75757913D01*
X38868350Y-75757906D01*
X38782190Y-75642812D01*
X38782187Y-75642809D01*
X38667093Y-75556649D01*
X38667086Y-75556645D01*
X38532379Y-75506403D01*
X38532372Y-75506401D01*
X38472844Y-75500000D01*
X37825000Y-75500000D01*
X37825000Y-76416988D01*
X37767993Y-76384075D01*
X37640826Y-76350000D01*
X37509174Y-76350000D01*
X37382007Y-76384075D01*
X37325000Y-76416988D01*
X37325000Y-75482643D01*
X37312392Y-75459554D01*
X37317376Y-75389862D01*
X37345875Y-75345517D01*
X37820980Y-74870413D01*
X37873707Y-74779088D01*
X37901000Y-74677227D01*
X37901000Y-74571773D01*
X37901000Y-73874500D01*
X37920685Y-73807461D01*
X37973489Y-73761706D01*
X38025000Y-73750500D01*
X38058991Y-73750500D01*
X38058993Y-73750500D01*
X38171027Y-73720481D01*
X38189250Y-73709959D01*
X38257148Y-73693486D01*
X38313249Y-73709959D01*
X38331473Y-73720481D01*
X38443507Y-73750500D01*
X38443509Y-73750500D01*
X38559491Y-73750500D01*
X38559493Y-73750500D01*
X38671527Y-73720481D01*
X38771973Y-73662488D01*
X38853988Y-73580473D01*
X38911981Y-73480027D01*
X38942000Y-73367993D01*
X38942000Y-72632007D01*
X38928039Y-72579903D01*
X38929702Y-72510058D01*
X38968864Y-72452196D01*
X39033092Y-72424691D01*
X39079901Y-72428038D01*
X39132007Y-72442000D01*
X39132010Y-72442000D01*
X39867991Y-72442000D01*
X39867993Y-72442000D01*
X39980027Y-72411981D01*
X40080473Y-72353988D01*
X40162488Y-72271973D01*
X40220481Y-72171527D01*
X40250500Y-72059493D01*
X40250500Y-71943507D01*
X40220481Y-71831473D01*
X40209959Y-71813249D01*
X40193486Y-71745352D01*
X40209959Y-71689250D01*
X40220481Y-71671027D01*
X40250500Y-71558993D01*
X40250500Y-71516459D01*
X40270185Y-71449420D01*
X40286821Y-71428776D01*
X40307119Y-71408478D01*
X40307121Y-71408475D01*
X40377159Y-71303657D01*
X40377160Y-71303654D01*
X40425404Y-71187183D01*
X40425406Y-71187175D01*
X40434691Y-71140500D01*
X40404050Y-71103164D01*
X40376738Y-71038854D01*
X40388530Y-70969986D01*
X40435682Y-70918427D01*
X40499904Y-70900500D01*
X41052725Y-70900500D01*
X41052727Y-70900500D01*
X41154588Y-70873207D01*
X41245913Y-70820480D01*
X42820480Y-69245913D01*
X42858812Y-69179520D01*
X42873207Y-69154587D01*
X42900500Y-69052727D01*
X42900500Y-57086470D01*
X42920185Y-57019431D01*
X42972989Y-56973676D01*
X42996901Y-56965580D01*
X43046881Y-56954172D01*
X43181805Y-56889188D01*
X43298884Y-56795807D01*
X43392246Y-56678713D01*
X43457208Y-56543778D01*
X43490512Y-56397771D01*
X43490500Y-56322892D01*
X43490500Y-56320480D01*
X43490500Y-56257580D01*
X43490509Y-56257443D01*
X43490507Y-56248478D01*
X43490509Y-56248475D01*
X43490508Y-56242305D01*
X43490550Y-56242159D01*
X43490540Y-56175194D01*
X43490532Y-56116023D01*
X43481164Y-56075008D01*
X43475603Y-56050658D01*
X43457192Y-55970046D01*
X43440136Y-55934639D01*
X43392209Y-55835146D01*
X43308894Y-55730692D01*
X43298838Y-55718085D01*
X43298832Y-55718080D01*
X43268532Y-55693920D01*
X43228387Y-55636735D01*
X43225532Y-55566923D01*
X43260873Y-55506651D01*
X43268490Y-55500048D01*
X43298884Y-55475807D01*
X43392246Y-55358713D01*
X43457208Y-55223778D01*
X43490512Y-55077771D01*
X43490500Y-55002892D01*
X43490500Y-54937580D01*
X43490509Y-54937443D01*
X43490507Y-54928478D01*
X43490509Y-54928475D01*
X43490508Y-54922305D01*
X43490550Y-54922159D01*
X43490532Y-54796025D01*
X43490531Y-54796017D01*
X43467952Y-54697159D01*
X43457192Y-54650046D01*
X43419460Y-54571718D01*
X43392209Y-54515146D01*
X43312294Y-54414955D01*
X43298838Y-54398085D01*
X43298837Y-54398084D01*
X43298836Y-54398083D01*
X43181762Y-54304734D01*
X43046851Y-54239772D01*
X42996906Y-54228373D01*
X42935930Y-54194267D01*
X42903072Y-54132606D01*
X42900500Y-54107483D01*
X42900500Y-53062729D01*
X42900501Y-53062716D01*
X42900501Y-52947274D01*
X42891528Y-52913787D01*
X42873207Y-52845413D01*
X42855339Y-52814465D01*
X42820480Y-52754087D01*
X42745913Y-52679520D01*
X42741582Y-52675189D01*
X42741571Y-52675179D01*
X40380657Y-50314264D01*
X40347172Y-50252941D01*
X40352156Y-50183249D01*
X40394028Y-50127316D01*
X40459492Y-50102899D01*
X40484517Y-50103643D01*
X40500000Y-50105682D01*
X40656762Y-50085044D01*
X40802841Y-50024536D01*
X40928282Y-49928282D01*
X41024536Y-49802841D01*
X41085044Y-49656762D01*
X41105682Y-49500000D01*
X41101323Y-49466893D01*
X41085044Y-49343239D01*
X41085044Y-49343238D01*
X41024536Y-49197159D01*
X40928282Y-49071718D01*
X40802841Y-48975464D01*
X40656762Y-48914956D01*
X40628219Y-48911198D01*
X40508314Y-48895412D01*
X40444418Y-48867145D01*
X40405947Y-48808821D01*
X40400500Y-48772473D01*
X40400500Y-48100787D01*
X40408624Y-48059944D01*
X40408377Y-48059878D01*
X40409388Y-48056101D01*
X40409940Y-48053331D01*
X40410475Y-48052037D01*
X40410481Y-48052027D01*
X40440500Y-47939993D01*
X40440500Y-47064500D01*
X40460185Y-46997461D01*
X40512989Y-46951706D01*
X40564500Y-46940500D01*
X41439991Y-46940500D01*
X41439993Y-46940500D01*
X41552027Y-46910481D01*
X41552035Y-46910476D01*
X41553337Y-46909938D01*
X41556112Y-46909385D01*
X41559878Y-46908377D01*
X41559944Y-46908623D01*
X41600788Y-46900500D01*
X42117745Y-46900500D01*
X42184784Y-46920185D01*
X42205426Y-46936819D01*
X42268181Y-46999574D01*
X42301666Y-47060897D01*
X42304500Y-47087252D01*
X42304500Y-47131516D01*
X42307897Y-47152963D01*
X42319354Y-47225304D01*
X42376950Y-47338342D01*
X42376952Y-47338344D01*
X42376953Y-47338346D01*
X42413992Y-47375384D01*
X42446087Y-47430972D01*
X42461793Y-47489589D01*
X42467804Y-47500000D01*
X42514520Y-47580913D01*
X42514522Y-47580915D01*
X42858597Y-47924990D01*
X42892082Y-47986313D01*
X42893855Y-47996485D01*
X42898711Y-48033366D01*
X42914956Y-48156762D01*
X42975464Y-48302841D01*
X43071718Y-48428282D01*
X43197159Y-48524536D01*
X43343238Y-48585044D01*
X43421619Y-48595363D01*
X43499999Y-48605682D01*
X43500000Y-48605682D01*
X43500001Y-48605682D01*
X43552254Y-48598802D01*
X43656762Y-48585044D01*
X43802841Y-48524536D01*
X43928282Y-48428282D01*
X44024536Y-48302841D01*
X44085044Y-48156762D01*
X44105682Y-48000000D01*
X44085044Y-47843238D01*
X44049171Y-47756633D01*
X44024538Y-47697163D01*
X44024537Y-47697161D01*
X44024536Y-47697160D01*
X44024536Y-47697159D01*
X44020901Y-47692422D01*
X43995706Y-47627255D01*
X44009743Y-47558810D01*
X44031601Y-47529248D01*
X44032923Y-47527925D01*
X44129100Y-47402586D01*
X44189555Y-47256631D01*
X44197012Y-47200000D01*
X43599000Y-47200000D01*
X43531961Y-47180315D01*
X43486206Y-47127511D01*
X43475000Y-47076000D01*
X43475000Y-46924000D01*
X43494685Y-46856961D01*
X43547489Y-46811206D01*
X43599000Y-46800000D01*
X44197010Y-46800000D01*
X44197011Y-46799998D01*
X44189557Y-46743372D01*
X44189555Y-46743366D01*
X44129100Y-46597414D01*
X44032922Y-46472072D01*
X43993953Y-46442170D01*
X43952750Y-46385742D01*
X43948596Y-46315996D01*
X43958955Y-46287500D01*
X43990646Y-46225304D01*
X43990646Y-46225302D01*
X43990647Y-46225301D01*
X44005499Y-46131524D01*
X44005500Y-46131519D01*
X44005499Y-45868482D01*
X43990646Y-45774696D01*
X43958953Y-45712496D01*
X43946058Y-45643830D01*
X43972334Y-45579089D01*
X43993954Y-45557827D01*
X44032923Y-45527925D01*
X44129100Y-45402586D01*
X44189555Y-45256631D01*
X44197012Y-45200000D01*
X43599000Y-45200000D01*
X43531961Y-45180315D01*
X43486206Y-45127511D01*
X43475000Y-45076000D01*
X43475000Y-45000000D01*
X43468972Y-44993972D01*
X43422460Y-44980315D01*
X43376705Y-44927511D01*
X43365499Y-44876000D01*
X43365499Y-44868482D01*
X43354653Y-44800000D01*
X43675000Y-44800000D01*
X44197010Y-44800000D01*
X44197011Y-44799998D01*
X44189557Y-44743372D01*
X44189555Y-44743366D01*
X44129100Y-44597412D01*
X44129098Y-44597410D01*
X44112276Y-44575487D01*
X44087081Y-44510318D01*
X44101119Y-44441873D01*
X44112276Y-44424513D01*
X44129098Y-44402589D01*
X44129099Y-44402587D01*
X44189555Y-44256631D01*
X44197012Y-44200000D01*
X43675000Y-44200000D01*
X43675000Y-44800000D01*
X43354653Y-44800000D01*
X43350646Y-44774696D01*
X43293050Y-44661658D01*
X43293048Y-44661656D01*
X43288619Y-44652963D01*
X43292128Y-44651174D01*
X43275183Y-44603252D01*
X43275000Y-44596524D01*
X43275000Y-44403475D01*
X43291187Y-44348345D01*
X43288619Y-44347037D01*
X43293048Y-44338343D01*
X43293050Y-44338342D01*
X43350646Y-44225304D01*
X43350646Y-44225302D01*
X43350647Y-44225301D01*
X43365499Y-44131524D01*
X43365500Y-44131519D01*
X43365499Y-43868482D01*
X43354653Y-43800000D01*
X43675000Y-43800000D01*
X44197010Y-43800000D01*
X44197011Y-43799998D01*
X44189557Y-43743372D01*
X44189555Y-43743366D01*
X44129100Y-43597412D01*
X44129098Y-43597410D01*
X44112276Y-43575487D01*
X44087081Y-43510318D01*
X44101119Y-43441873D01*
X44112276Y-43424513D01*
X44129098Y-43402589D01*
X44129099Y-43402587D01*
X44189555Y-43256631D01*
X44197012Y-43200000D01*
X43675000Y-43200000D01*
X43675000Y-43800000D01*
X43354653Y-43800000D01*
X43350646Y-43774696D01*
X43293050Y-43661658D01*
X43293048Y-43661656D01*
X43288619Y-43652963D01*
X43292128Y-43651174D01*
X43275183Y-43603252D01*
X43275000Y-43596524D01*
X43275000Y-43403475D01*
X43291187Y-43348345D01*
X43288619Y-43347037D01*
X43293048Y-43338343D01*
X43293050Y-43338342D01*
X43350646Y-43225304D01*
X43350646Y-43225302D01*
X43350647Y-43225301D01*
X43365500Y-43131524D01*
X43365500Y-43124000D01*
X43385185Y-43056961D01*
X43437989Y-43011206D01*
X43470968Y-43004031D01*
X43475000Y-43000000D01*
X43475000Y-42924000D01*
X43494685Y-42856961D01*
X43547489Y-42811206D01*
X43599000Y-42800000D01*
X44197010Y-42800000D01*
X44197011Y-42799998D01*
X44189557Y-42743372D01*
X44189555Y-42743366D01*
X44129100Y-42597414D01*
X44032922Y-42472072D01*
X43993953Y-42442170D01*
X43952750Y-42385742D01*
X43948596Y-42315996D01*
X43958955Y-42287500D01*
X43961410Y-42282682D01*
X43990646Y-42225304D01*
X43990646Y-42225302D01*
X43990647Y-42225301D01*
X44005499Y-42131524D01*
X44005500Y-42131519D01*
X44005499Y-41868482D01*
X43990646Y-41774696D01*
X43933050Y-41661658D01*
X43933046Y-41661654D01*
X43933045Y-41661652D01*
X43911819Y-41640426D01*
X43878334Y-41579103D01*
X43875500Y-41552745D01*
X43875500Y-34422275D01*
X43875500Y-34422273D01*
X43856006Y-34349520D01*
X43848207Y-34320412D01*
X43848206Y-34320411D01*
X43848206Y-34320409D01*
X43818814Y-34269504D01*
X43818812Y-34269499D01*
X43818812Y-34269500D01*
X43795481Y-34229088D01*
X43716582Y-34150189D01*
X43716571Y-34150179D01*
X41745915Y-32179522D01*
X41745914Y-32179521D01*
X41745913Y-32179520D01*
X41695649Y-32150500D01*
X41654589Y-32126793D01*
X41562098Y-32102011D01*
X41552727Y-32099500D01*
X38052727Y-32099500D01*
X37947273Y-32099500D01*
X37845410Y-32126793D01*
X37804351Y-32150500D01*
X37754087Y-32179520D01*
X37754084Y-32179522D01*
X37679520Y-32254087D01*
X37679517Y-32254089D01*
X37575006Y-32358598D01*
X37513683Y-32392082D01*
X37503512Y-32393855D01*
X37343238Y-32414956D01*
X37343237Y-32414956D01*
X37197160Y-32475463D01*
X37071718Y-32571718D01*
X36975463Y-32697160D01*
X36914956Y-32843237D01*
X36914955Y-32843239D01*
X36894318Y-32999998D01*
X36894318Y-33000001D01*
X36914955Y-33156760D01*
X36914956Y-33156762D01*
X36953576Y-33250000D01*
X36975464Y-33302841D01*
X37071718Y-33428282D01*
X37197159Y-33524536D01*
X37343238Y-33585044D01*
X37500000Y-33605682D01*
X37500001Y-33605681D01*
X37503513Y-33606144D01*
X37567410Y-33634410D01*
X37575009Y-33641402D01*
X38063181Y-34129573D01*
X38096666Y-34190896D01*
X38099500Y-34217254D01*
X38099500Y-36080549D01*
X38079815Y-36147588D01*
X38027011Y-36193343D01*
X37957853Y-36203287D01*
X37910552Y-36183364D01*
X37909628Y-36184965D01*
X37902587Y-36180900D01*
X37756631Y-36120444D01*
X37700000Y-36112987D01*
X37700000Y-36711000D01*
X37680315Y-36778039D01*
X37627511Y-36823794D01*
X37576000Y-36835000D01*
X37424000Y-36835000D01*
X37356961Y-36815315D01*
X37311206Y-36762511D01*
X37300000Y-36711000D01*
X37300000Y-36112987D01*
X37243368Y-36120444D01*
X37097413Y-36180899D01*
X36972075Y-36277075D01*
X36875899Y-36402413D01*
X36820504Y-36536152D01*
X36776663Y-36590556D01*
X36710369Y-36612621D01*
X36700931Y-36612171D01*
X36700000Y-36612987D01*
X36700000Y-37211000D01*
X36680315Y-37278039D01*
X36627511Y-37323794D01*
X36576000Y-37335000D01*
X36500000Y-37335000D01*
X36493972Y-37341027D01*
X36480315Y-37387539D01*
X36427511Y-37433294D01*
X36376010Y-37444500D01*
X36368485Y-37444500D01*
X36296435Y-37455911D01*
X36274696Y-37459354D01*
X36161658Y-37516950D01*
X36161656Y-37516951D01*
X36152963Y-37521381D01*
X36151151Y-37517824D01*
X36103663Y-37534794D01*
X36096525Y-37535000D01*
X35825594Y-37535000D01*
X35769300Y-37521485D01*
X35755304Y-37514353D01*
X35755301Y-37514352D01*
X35661524Y-37499500D01*
X35495758Y-37499500D01*
X35428719Y-37479815D01*
X35420271Y-37473876D01*
X35292586Y-37375899D01*
X35146631Y-37315444D01*
X35060000Y-37304038D01*
X35060000Y-37596524D01*
X35043811Y-37651653D01*
X35046381Y-37652963D01*
X35041951Y-37661656D01*
X35041950Y-37661658D01*
X35021522Y-37701749D01*
X34984352Y-37774698D01*
X34969500Y-37868475D01*
X34969500Y-37868480D01*
X34969500Y-37868481D01*
X34969500Y-37975500D01*
X34949817Y-38042539D01*
X34897013Y-38088294D01*
X34845501Y-38099500D01*
X34784000Y-38099500D01*
X34716961Y-38079815D01*
X34671206Y-38027011D01*
X34660000Y-37975500D01*
X34660000Y-37304038D01*
X34628383Y-37276311D01*
X34590959Y-37217309D01*
X34591375Y-37147441D01*
X34598806Y-37135000D01*
X35804038Y-37135000D01*
X36300000Y-37135000D01*
X36300000Y-36612987D01*
X36243371Y-36620443D01*
X36101962Y-36679016D01*
X36061129Y-36683405D01*
X36023548Y-36737533D01*
X36021229Y-36739357D01*
X35972077Y-36777072D01*
X35875899Y-36902413D01*
X35815445Y-37048365D01*
X35815444Y-37048369D01*
X35804038Y-37135000D01*
X34598806Y-37135000D01*
X34622459Y-37095403D01*
X35165153Y-36552709D01*
X35226474Y-36519226D01*
X35296165Y-36524210D01*
X35300284Y-36525831D01*
X35365179Y-36552711D01*
X35443238Y-36585044D01*
X35485106Y-36590556D01*
X35599999Y-36605682D01*
X35600000Y-36605682D01*
X35600001Y-36605682D01*
X35652254Y-36598802D01*
X35756762Y-36585044D01*
X35898290Y-36526420D01*
X35939121Y-36522030D01*
X35976705Y-36467902D01*
X35978977Y-36466114D01*
X36028282Y-36428282D01*
X36124536Y-36302841D01*
X36185044Y-36156762D01*
X36198802Y-36052254D01*
X36205682Y-36000001D01*
X36205682Y-35999998D01*
X36185044Y-35843239D01*
X36185044Y-35843238D01*
X36124536Y-35697159D01*
X36028282Y-35571718D01*
X35902841Y-35475464D01*
X35756762Y-35414956D01*
X35756760Y-35414955D01*
X35600001Y-35394318D01*
X35599999Y-35394318D01*
X35443239Y-35414955D01*
X35443237Y-35414956D01*
X35297160Y-35475463D01*
X35297159Y-35475464D01*
X35171718Y-35571718D01*
X35171716Y-35571720D01*
X35168907Y-35573876D01*
X35106734Y-35597911D01*
X35106804Y-35598439D01*
X35104628Y-35598725D01*
X35103737Y-35599070D01*
X35101212Y-35599175D01*
X35098744Y-35599500D01*
X34996881Y-35626793D01*
X34905558Y-35679520D01*
X34905555Y-35679522D01*
X33762181Y-36822897D01*
X33700858Y-36856382D01*
X33631166Y-36851398D01*
X33575233Y-36809526D01*
X33550816Y-36744062D01*
X33550500Y-36735216D01*
X33550500Y-35692500D01*
X33570185Y-35625461D01*
X33622989Y-35579706D01*
X33674500Y-35568500D01*
X33910147Y-35568500D01*
X34005351Y-35549561D01*
X34051662Y-35540350D01*
X34184969Y-35485133D01*
X34304941Y-35404970D01*
X34406970Y-35302941D01*
X34487133Y-35182969D01*
X34542350Y-35049662D01*
X34551561Y-35003351D01*
X34570500Y-34908147D01*
X34570500Y-34597852D01*
X34542351Y-34456343D01*
X34542350Y-34456342D01*
X34542350Y-34456338D01*
X34498105Y-34349520D01*
X34487136Y-34323037D01*
X34487129Y-34323024D01*
X34406970Y-34203059D01*
X34406967Y-34203055D01*
X34304944Y-34101032D01*
X34304940Y-34101029D01*
X34184975Y-34020870D01*
X34184962Y-34020863D01*
X34051666Y-33965651D01*
X34051656Y-33965648D01*
X33910147Y-33937500D01*
X33910145Y-33937500D01*
X33890727Y-33937500D01*
X33674500Y-33937500D01*
X33607461Y-33917815D01*
X33561706Y-33865011D01*
X33550500Y-33813500D01*
X33550500Y-33707778D01*
X33570185Y-33640739D01*
X33622989Y-33594984D01*
X33649009Y-33587512D01*
X33648912Y-33587147D01*
X33656754Y-33585044D01*
X33656762Y-33585044D01*
X33802841Y-33524536D01*
X33928282Y-33428282D01*
X34024536Y-33302841D01*
X34085044Y-33156762D01*
X34105682Y-33000000D01*
X34103202Y-32981166D01*
X34085044Y-32843239D01*
X34085044Y-32843238D01*
X34024536Y-32697159D01*
X33928282Y-32571718D01*
X33802841Y-32475464D01*
X33656762Y-32414956D01*
X33656760Y-32414955D01*
X33649253Y-32411846D01*
X33650424Y-32409018D01*
X33603173Y-32380206D01*
X33572655Y-32317353D01*
X33580962Y-32247979D01*
X33607261Y-32209131D01*
X33614599Y-32201793D01*
X33820480Y-31995913D01*
X33873207Y-31904588D01*
X33900500Y-31802727D01*
X33900500Y-31697273D01*
X33900500Y-28506580D01*
X33920185Y-28439541D01*
X33926124Y-28431093D01*
X33928279Y-28428283D01*
X33928282Y-28428282D01*
X34024536Y-28302841D01*
X34085044Y-28156762D01*
X34105682Y-28000000D01*
X34085044Y-27843238D01*
X34024536Y-27697159D01*
X33928282Y-27571718D01*
X33802841Y-27475464D01*
X33656762Y-27414956D01*
X33656760Y-27414955D01*
X33500001Y-27394318D01*
X33499999Y-27394318D01*
X33343239Y-27414955D01*
X33343234Y-27414957D01*
X33321950Y-27423773D01*
X33252480Y-27431240D01*
X33190002Y-27399964D01*
X33154351Y-27339874D01*
X33150500Y-27309211D01*
X33150500Y-27190788D01*
X33170185Y-27123749D01*
X33222989Y-27077994D01*
X33292147Y-27068050D01*
X33321949Y-27076226D01*
X33343238Y-27085044D01*
X33421619Y-27095363D01*
X33499999Y-27105682D01*
X33500000Y-27105682D01*
X33500001Y-27105682D01*
X33552254Y-27098802D01*
X33656762Y-27085044D01*
X33802841Y-27024536D01*
X33928282Y-26928282D01*
X34024536Y-26802841D01*
X34085044Y-26656762D01*
X34105682Y-26500000D01*
X34105236Y-26496615D01*
X34085044Y-26343239D01*
X34085044Y-26343238D01*
X34024536Y-26197159D01*
X33928282Y-26071718D01*
X33902645Y-26052046D01*
X33861443Y-25995617D01*
X33857289Y-25925871D01*
X33891503Y-25864951D01*
X33953221Y-25832199D01*
X33963845Y-25830497D01*
X33969991Y-25829785D01*
X33969991Y-25829784D01*
X33979265Y-25828710D01*
X33979470Y-25830481D01*
X34020540Y-25830481D01*
X34020745Y-25828710D01*
X34030007Y-25829784D01*
X34030009Y-25829785D01*
X34055135Y-25832700D01*
X34325501Y-25832699D01*
X34392539Y-25852383D01*
X34438294Y-25905187D01*
X34449500Y-25956699D01*
X34449500Y-26459310D01*
X34465275Y-26518184D01*
X34469500Y-26550275D01*
X34469500Y-26631517D01*
X34478186Y-26686357D01*
X34484354Y-26725304D01*
X34535985Y-26826636D01*
X34549500Y-26882928D01*
X34549500Y-27058580D01*
X34529815Y-27125619D01*
X34523876Y-27134066D01*
X34475464Y-27197157D01*
X34414956Y-27343237D01*
X34414955Y-27343239D01*
X34394318Y-27499998D01*
X34394318Y-27500001D01*
X34414955Y-27656760D01*
X34414956Y-27656762D01*
X34475464Y-27802841D01*
X34571718Y-27928282D01*
X34697159Y-28024536D01*
X34843238Y-28085044D01*
X34921619Y-28095363D01*
X34999999Y-28105682D01*
X35000000Y-28105682D01*
X35000001Y-28105682D01*
X35077925Y-28095423D01*
X35156762Y-28085044D01*
X35302841Y-28024536D01*
X35428282Y-27928282D01*
X35524536Y-27802841D01*
X35585044Y-27656762D01*
X35605682Y-27500000D01*
X35585044Y-27343238D01*
X35524536Y-27197159D01*
X35524535Y-27197158D01*
X35524535Y-27197157D01*
X35523616Y-27195959D01*
X35840000Y-27195959D01*
X35840001Y-27195960D01*
X35926627Y-27184557D01*
X35926633Y-27184555D01*
X36072585Y-27124100D01*
X36197924Y-27027924D01*
X36294100Y-26902586D01*
X36354555Y-26756631D01*
X36362012Y-26700000D01*
X35840000Y-26700000D01*
X35840000Y-27195959D01*
X35523616Y-27195959D01*
X35476124Y-27134066D01*
X35450930Y-27068896D01*
X35450500Y-27058580D01*
X35450500Y-26882928D01*
X35464016Y-26826633D01*
X35515646Y-26725304D01*
X35515646Y-26725302D01*
X35515647Y-26725301D01*
X35530499Y-26631524D01*
X35530500Y-26631519D01*
X35530499Y-26368482D01*
X35515646Y-26274696D01*
X35458050Y-26161658D01*
X35458048Y-26161656D01*
X35453619Y-26152963D01*
X35457128Y-26151174D01*
X35440183Y-26103252D01*
X35440000Y-26096524D01*
X35440000Y-25758765D01*
X35450566Y-25708678D01*
X35452205Y-25704965D01*
X35452206Y-25704965D01*
X35497585Y-25602191D01*
X35500500Y-25577065D01*
X35500499Y-25081198D01*
X35520183Y-25014161D01*
X35572987Y-24968406D01*
X35624499Y-24957200D01*
X35826000Y-24957200D01*
X35893039Y-24976885D01*
X35938794Y-25029689D01*
X35950000Y-25081200D01*
X35950000Y-26038200D01*
X35930315Y-26105239D01*
X35877511Y-26150994D01*
X35843892Y-26158307D01*
X35840000Y-26162200D01*
X35840000Y-26300000D01*
X36362010Y-26300000D01*
X36362011Y-26299998D01*
X36354557Y-26243372D01*
X36354555Y-26243366D01*
X36294100Y-26097413D01*
X36292124Y-26094838D01*
X36291131Y-26092271D01*
X36290035Y-26090372D01*
X36290331Y-26090200D01*
X36266928Y-26029670D01*
X36280965Y-25961225D01*
X36316187Y-25920082D01*
X36357850Y-25888893D01*
X36423314Y-25864476D01*
X36479615Y-25873600D01*
X36528303Y-25893768D01*
X36528308Y-25893769D01*
X36570000Y-25902062D01*
X36570000Y-25099188D01*
X36579940Y-25116405D01*
X36635795Y-25172260D01*
X36704204Y-25211756D01*
X36780504Y-25232200D01*
X36859496Y-25232200D01*
X36935796Y-25211756D01*
X37004205Y-25172260D01*
X37060060Y-25116405D01*
X37070000Y-25099188D01*
X37070000Y-25812245D01*
X37050315Y-25879284D01*
X37033681Y-25899926D01*
X37014522Y-25919084D01*
X37014520Y-25919087D01*
X36961792Y-26010413D01*
X36946088Y-26069024D01*
X36913996Y-26124610D01*
X36876951Y-26161656D01*
X36819352Y-26274698D01*
X36804500Y-26368475D01*
X36804500Y-26631517D01*
X36813186Y-26686357D01*
X36819354Y-26725304D01*
X36876950Y-26838342D01*
X36876952Y-26838344D01*
X36876954Y-26838347D01*
X36966652Y-26928045D01*
X36966654Y-26928046D01*
X36966658Y-26928050D01*
X37067689Y-26979528D01*
X37079698Y-26985647D01*
X37173475Y-27000499D01*
X37173481Y-27000500D01*
X37339241Y-27000499D01*
X37406280Y-27020183D01*
X37414728Y-27026123D01*
X37542413Y-27124100D01*
X37688365Y-27184554D01*
X37688369Y-27184555D01*
X37775000Y-27195961D01*
X37775000Y-27195959D01*
X38175000Y-27195959D01*
X38175001Y-27195960D01*
X38261627Y-27184557D01*
X38261633Y-27184555D01*
X38407585Y-27124100D01*
X38532924Y-27027924D01*
X38629100Y-26902586D01*
X38689555Y-26756631D01*
X38697012Y-26700000D01*
X38175000Y-26700000D01*
X38175000Y-27195959D01*
X37775000Y-27195959D01*
X37775000Y-26903475D01*
X37791187Y-26848345D01*
X37788619Y-26847037D01*
X37793048Y-26838343D01*
X37793050Y-26838342D01*
X37850646Y-26725304D01*
X37850646Y-26725302D01*
X37850647Y-26725301D01*
X37865500Y-26631524D01*
X37865500Y-26624000D01*
X37885185Y-26556961D01*
X37937989Y-26511206D01*
X37970968Y-26504031D01*
X37975000Y-26500000D01*
X37975000Y-26424000D01*
X37994685Y-26356961D01*
X38047489Y-26311206D01*
X38099000Y-26300000D01*
X38697010Y-26300000D01*
X38697011Y-26299998D01*
X38689557Y-26243372D01*
X38689555Y-26243366D01*
X38629100Y-26097414D01*
X38532924Y-25972075D01*
X38407586Y-25875899D01*
X38261634Y-25815445D01*
X38261630Y-25815444D01*
X38144330Y-25800000D01*
X38140273Y-25799735D01*
X38140335Y-25798777D01*
X38077461Y-25780315D01*
X38031706Y-25727511D01*
X38020500Y-25676000D01*
X38020500Y-23448104D01*
X38020500Y-23448102D01*
X37993207Y-23346242D01*
X37993207Y-23346241D01*
X37940480Y-23254916D01*
X36865084Y-22179520D01*
X36819421Y-22153156D01*
X36773760Y-22126793D01*
X36722828Y-22113146D01*
X36671898Y-22099500D01*
X35484927Y-22099500D01*
X35379473Y-22099500D01*
X35277610Y-22126793D01*
X35186287Y-22179520D01*
X35186284Y-22179522D01*
X33429522Y-23936284D01*
X33429515Y-23936293D01*
X33381359Y-24019701D01*
X33330792Y-24067916D01*
X33273974Y-24081700D01*
X33055143Y-24081700D01*
X33055117Y-24081702D01*
X33020742Y-24085689D01*
X33020537Y-24083927D01*
X32979459Y-24083925D01*
X32979255Y-24085690D01*
X32969991Y-24084615D01*
X32944865Y-24081700D01*
X32555143Y-24081700D01*
X32555117Y-24081702D01*
X32520742Y-24085689D01*
X32520537Y-24083927D01*
X32479459Y-24083925D01*
X32479255Y-24085690D01*
X32469991Y-24084615D01*
X32444865Y-24081700D01*
X32055143Y-24081700D01*
X32055117Y-24081702D01*
X32020742Y-24085689D01*
X32020537Y-24083927D01*
X31979459Y-24083925D01*
X31979255Y-24085690D01*
X31969991Y-24084615D01*
X31944865Y-24081700D01*
X31555143Y-24081700D01*
X31555117Y-24081702D01*
X31520742Y-24085689D01*
X31520537Y-24083927D01*
X31479459Y-24083925D01*
X31479255Y-24085690D01*
X31469991Y-24084615D01*
X31464044Y-24083925D01*
X31444868Y-24081700D01*
X31444865Y-24081700D01*
X31274500Y-24081700D01*
X31207461Y-24062015D01*
X31161706Y-24009211D01*
X31150500Y-23957700D01*
X31150500Y-23663576D01*
X31150500Y-23663574D01*
X31123207Y-23561714D01*
X31123207Y-23561713D01*
X31070480Y-23470388D01*
X30242249Y-22642157D01*
X30196586Y-22615793D01*
X30150925Y-22589430D01*
X30099993Y-22575783D01*
X30049063Y-22562137D01*
X27865465Y-22562137D01*
X27763605Y-22589430D01*
X27763602Y-22589431D01*
X27672277Y-22642158D01*
X27059522Y-23254913D01*
X27059518Y-23254919D01*
X27006792Y-23346241D01*
X27006793Y-23346242D01*
X26979500Y-23448102D01*
X26979500Y-25432726D01*
X27006793Y-25534589D01*
X27056689Y-25621009D01*
X27073162Y-25688909D01*
X27050310Y-25754936D01*
X26995389Y-25798127D01*
X26965487Y-25805949D01*
X26893371Y-25815442D01*
X26893366Y-25815444D01*
X26747414Y-25875899D01*
X26622075Y-25972075D01*
X26525899Y-26097413D01*
X26465444Y-26243368D01*
X26457987Y-26300000D01*
X27056000Y-26300000D01*
X27123039Y-26319685D01*
X27168794Y-26372489D01*
X27180000Y-26424000D01*
X27180000Y-26500000D01*
X27186027Y-26506027D01*
X27232540Y-26519685D01*
X27278295Y-26572489D01*
X27289500Y-26623999D01*
X27289501Y-26631518D01*
X27304354Y-26725304D01*
X27361950Y-26838342D01*
X27361951Y-26838343D01*
X27366381Y-26847037D01*
X27362824Y-26848848D01*
X27379794Y-26896337D01*
X27380000Y-26903475D01*
X27380000Y-27195959D01*
X27380001Y-27195960D01*
X27466627Y-27184557D01*
X27466633Y-27184555D01*
X27612587Y-27124100D01*
X27612589Y-27124098D01*
X27740274Y-27026123D01*
X27805443Y-27000929D01*
X27815747Y-27000499D01*
X27981518Y-27000499D01*
X28075304Y-26985646D01*
X28188342Y-26928050D01*
X28278050Y-26838342D01*
X28278053Y-26838335D01*
X28283783Y-26830450D01*
X28284843Y-26831220D01*
X28325941Y-26787703D01*
X28393762Y-26770906D01*
X28459897Y-26793441D01*
X28503016Y-26847340D01*
X28525899Y-26902586D01*
X28622075Y-27027924D01*
X28747413Y-27124100D01*
X28893365Y-27184554D01*
X28893369Y-27184555D01*
X28980000Y-27195961D01*
X28980000Y-25791362D01*
X28999685Y-25724323D01*
X29016319Y-25703681D01*
X29050000Y-25670000D01*
X29050000Y-25081200D01*
X29069685Y-25014161D01*
X29122489Y-24968406D01*
X29174000Y-24957200D01*
X29375500Y-24957200D01*
X29442539Y-24976885D01*
X29488294Y-25029689D01*
X29499500Y-25081200D01*
X29499500Y-25577056D01*
X29499502Y-25577082D01*
X29502413Y-25602187D01*
X29502414Y-25602188D01*
X29502414Y-25602190D01*
X29502415Y-25602191D01*
X29539434Y-25686032D01*
X29550000Y-25736117D01*
X29550000Y-25945855D01*
X29530315Y-26012894D01*
X29482296Y-26056339D01*
X29451659Y-26071949D01*
X29451652Y-26071954D01*
X29361954Y-26161652D01*
X29361951Y-26161657D01*
X29304352Y-26274698D01*
X29289500Y-26368475D01*
X29289500Y-26368480D01*
X29289500Y-26368481D01*
X29289501Y-26631518D01*
X29304354Y-26725304D01*
X29355985Y-26826636D01*
X29366749Y-26871472D01*
X29368439Y-26871250D01*
X29369500Y-26879309D01*
X29375737Y-26902586D01*
X29375774Y-26902722D01*
X29380000Y-26934818D01*
X29380000Y-27195959D01*
X29380001Y-27195960D01*
X29474690Y-27183496D01*
X29475064Y-27186339D01*
X29531041Y-27187658D01*
X29580996Y-27218099D01*
X29775215Y-27412318D01*
X29808700Y-27473641D01*
X29803716Y-27543333D01*
X29775215Y-27587680D01*
X28549714Y-28813181D01*
X28488391Y-28846666D01*
X28462033Y-28849500D01*
X26675143Y-28849500D01*
X26675117Y-28849502D01*
X26650012Y-28852413D01*
X26650008Y-28852415D01*
X26547235Y-28897793D01*
X26467794Y-28977234D01*
X26422415Y-29080006D01*
X26422415Y-29080008D01*
X26419500Y-29105131D01*
X26419500Y-30294856D01*
X26419502Y-30294882D01*
X26422413Y-30319987D01*
X26422415Y-30319991D01*
X26467793Y-30422764D01*
X26467794Y-30422765D01*
X26547235Y-30502206D01*
X26650009Y-30547585D01*
X26675135Y-30550500D01*
X29264864Y-30550499D01*
X29264879Y-30550497D01*
X29264882Y-30550497D01*
X29289987Y-30547586D01*
X29289988Y-30547585D01*
X29289991Y-30547585D01*
X29392765Y-30502206D01*
X29472206Y-30422765D01*
X29517585Y-30319991D01*
X29520500Y-30294865D01*
X29520499Y-30142355D01*
X29540183Y-30075318D01*
X29592987Y-30029563D01*
X29662145Y-30019619D01*
X29725701Y-30048644D01*
X29747601Y-30073466D01*
X29806247Y-30161236D01*
X29806250Y-30161240D01*
X29922759Y-30277749D01*
X29922767Y-30277755D01*
X30059766Y-30369295D01*
X30104354Y-30387764D01*
X30212002Y-30432353D01*
X30212006Y-30432353D01*
X30212007Y-30432354D01*
X30373609Y-30464500D01*
X30373612Y-30464500D01*
X30403273Y-30464500D01*
X32225500Y-30464500D01*
X32292539Y-30484185D01*
X32338294Y-30536989D01*
X32349500Y-30588500D01*
X32349500Y-32309211D01*
X32329815Y-32376250D01*
X32277011Y-32422005D01*
X32207853Y-32431949D01*
X32178050Y-32423773D01*
X32156765Y-32414957D01*
X32156763Y-32414956D01*
X32156762Y-32414956D01*
X32089737Y-32406132D01*
X31996485Y-32393855D01*
X31932589Y-32365588D01*
X31924990Y-32358597D01*
X31820915Y-32254522D01*
X31820913Y-32254520D01*
X31742298Y-32209131D01*
X31729589Y-32201793D01*
X31678657Y-32188146D01*
X31627727Y-32174500D01*
X31627726Y-32174500D01*
X31406592Y-32174500D01*
X31339553Y-32154815D01*
X31293798Y-32102011D01*
X31291238Y-32095990D01*
X31259362Y-32015160D01*
X31259361Y-32015158D01*
X31167922Y-31894577D01*
X31047343Y-31803139D01*
X30906561Y-31747622D01*
X30860926Y-31742142D01*
X30818102Y-31737000D01*
X30181898Y-31737000D01*
X30142853Y-31741688D01*
X30093438Y-31747622D01*
X29952654Y-31803140D01*
X29952653Y-31803140D01*
X29948871Y-31806009D01*
X29883557Y-31830827D01*
X29815194Y-31816393D01*
X29786273Y-31794880D01*
X29670915Y-31679522D01*
X29670913Y-31679520D01*
X29582498Y-31628473D01*
X29534283Y-31577905D01*
X29520499Y-31521086D01*
X29520499Y-31405143D01*
X29520499Y-31405136D01*
X29520497Y-31405117D01*
X29517586Y-31380012D01*
X29517585Y-31380010D01*
X29517585Y-31380009D01*
X29472206Y-31277235D01*
X29392765Y-31197794D01*
X29392763Y-31197793D01*
X29289992Y-31152415D01*
X29264865Y-31149500D01*
X26675143Y-31149500D01*
X26675117Y-31149502D01*
X26650012Y-31152413D01*
X26650008Y-31152415D01*
X26547235Y-31197793D01*
X26467794Y-31277234D01*
X26424367Y-31375587D01*
X26379281Y-31428963D01*
X26312495Y-31449490D01*
X26310933Y-31449500D01*
X23624499Y-31449500D01*
X23557460Y-31429815D01*
X23511705Y-31377011D01*
X23500499Y-31325500D01*
X23500499Y-30155143D01*
X23500499Y-30155136D01*
X23500497Y-30155117D01*
X23497586Y-30130012D01*
X23497585Y-30130010D01*
X23497585Y-30130009D01*
X23452206Y-30027235D01*
X23372765Y-29947794D01*
X23323148Y-29925886D01*
X23269992Y-29902415D01*
X23244865Y-29899500D01*
X20815143Y-29899500D01*
X20815117Y-29899502D01*
X20790012Y-29902413D01*
X20790008Y-29902415D01*
X20676724Y-29952435D01*
X20675237Y-29949068D01*
X20628123Y-29964412D01*
X20560537Y-29946695D01*
X20513259Y-29895250D01*
X20500500Y-29840465D01*
X20500500Y-26700001D01*
X26457988Y-26700001D01*
X26465442Y-26756627D01*
X26465444Y-26756633D01*
X26525899Y-26902585D01*
X26622075Y-27027924D01*
X26747413Y-27124100D01*
X26893365Y-27184554D01*
X26893369Y-27184555D01*
X26980000Y-27195961D01*
X26980000Y-26700000D01*
X26457990Y-26700000D01*
X26457988Y-26700001D01*
X20500500Y-26700001D01*
X20500500Y-19124500D01*
X20520185Y-19057461D01*
X20572989Y-19011706D01*
X20624500Y-19000500D01*
X27301046Y-19000500D01*
X27368085Y-19020185D01*
G37*
%TD.AperFunction*%
%TA.AperFunction,Conductor*%
G36*
X37825000Y-78956988D02*
G01*
X37767993Y-78924075D01*
X37640826Y-78890000D01*
X37509174Y-78890000D01*
X37382007Y-78924075D01*
X37325000Y-78956988D01*
X37325000Y-77283012D01*
X37382007Y-77315925D01*
X37509174Y-77350000D01*
X37640826Y-77350000D01*
X37767993Y-77315925D01*
X37825000Y-77283012D01*
X37825000Y-78956988D01*
G37*
%TD.AperFunction*%
%TA.AperFunction,Conductor*%
G36*
X41518833Y-62150072D02*
G01*
X41574767Y-62191943D01*
X41599184Y-62257408D01*
X41599500Y-62266254D01*
X41599500Y-65774588D01*
X41579815Y-65841627D01*
X41527011Y-65887382D01*
X41457853Y-65897326D01*
X41394297Y-65868301D01*
X41368115Y-65836591D01*
X41346844Y-65799751D01*
X41346841Y-65799747D01*
X41332316Y-65774588D01*
X41320480Y-65754087D01*
X41245913Y-65679520D01*
X41245912Y-65679519D01*
X41241587Y-65675194D01*
X41241576Y-65675184D01*
X41141401Y-65575008D01*
X41107917Y-65513684D01*
X41106144Y-65503512D01*
X41105681Y-65499998D01*
X41085044Y-65343238D01*
X41024536Y-65197159D01*
X40928282Y-65071718D01*
X40802841Y-64975464D01*
X40656762Y-64914956D01*
X40656760Y-64914955D01*
X40500001Y-64894318D01*
X40499999Y-64894318D01*
X40343239Y-64914955D01*
X40343237Y-64914956D01*
X40197160Y-64975463D01*
X40071718Y-65071718D01*
X39975463Y-65197160D01*
X39914956Y-65343237D01*
X39914955Y-65343239D01*
X39894318Y-65499998D01*
X39894318Y-65500001D01*
X39914955Y-65656760D01*
X39914956Y-65656762D01*
X39974183Y-65799750D01*
X39975464Y-65802841D01*
X40052901Y-65903759D01*
X40078094Y-65968925D01*
X40064056Y-66037370D01*
X40030012Y-66077618D01*
X39972076Y-66122074D01*
X39875899Y-66247413D01*
X39815445Y-66393365D01*
X39815444Y-66393369D01*
X39804038Y-66480000D01*
X40475500Y-66480000D01*
X40542539Y-66499685D01*
X40588294Y-66552489D01*
X40599500Y-66604000D01*
X40599500Y-66665500D01*
X40579815Y-66732539D01*
X40527011Y-66778294D01*
X40475501Y-66789500D01*
X40368482Y-66789500D01*
X40287519Y-66802323D01*
X40274696Y-66804354D01*
X40161658Y-66861950D01*
X40161656Y-66861951D01*
X40152963Y-66866381D01*
X40151151Y-66862824D01*
X40103663Y-66879794D01*
X40096525Y-66880000D01*
X39804041Y-66880000D01*
X39804039Y-66880001D01*
X39815442Y-66966627D01*
X39815444Y-66966633D01*
X39875899Y-67112586D01*
X39973876Y-67240271D01*
X39999070Y-67305441D01*
X39999500Y-67315757D01*
X39999500Y-67481517D01*
X40005591Y-67519973D01*
X40014354Y-67575304D01*
X40071949Y-67688340D01*
X40075819Y-67693666D01*
X40099298Y-67759473D01*
X40099500Y-67766551D01*
X40099500Y-67781745D01*
X40079815Y-67848784D01*
X40063181Y-67869426D01*
X39410426Y-68522181D01*
X39349103Y-68555666D01*
X39322745Y-68558500D01*
X39132002Y-68558500D01*
X39079761Y-68572498D01*
X39009912Y-68570834D01*
X38952050Y-68531671D01*
X38924547Y-68467442D01*
X38927894Y-68420636D01*
X38942000Y-68367993D01*
X38942000Y-67632007D01*
X38911981Y-67519973D01*
X38911976Y-67519965D01*
X38909936Y-67515036D01*
X38900500Y-67467590D01*
X38900500Y-67006580D01*
X38920185Y-66939541D01*
X38926124Y-66931093D01*
X38928279Y-66928283D01*
X38928282Y-66928282D01*
X39024536Y-66802841D01*
X39085044Y-66656762D01*
X39103451Y-66516950D01*
X39105682Y-66500001D01*
X39105682Y-66499998D01*
X39085044Y-66343239D01*
X39085044Y-66343238D01*
X39024536Y-66197159D01*
X38928282Y-66071718D01*
X38802841Y-65975464D01*
X38802836Y-65975462D01*
X38701536Y-65933502D01*
X38647133Y-65889661D01*
X38625068Y-65823367D01*
X38642347Y-65755667D01*
X38686989Y-65711554D01*
X38718283Y-65693486D01*
X38771973Y-65662488D01*
X38853988Y-65580473D01*
X38911981Y-65480027D01*
X38942000Y-65367993D01*
X38942000Y-64632007D01*
X38928039Y-64579903D01*
X38929702Y-64510058D01*
X38968864Y-64452196D01*
X39033092Y-64424691D01*
X39079901Y-64428038D01*
X39132007Y-64442000D01*
X39132010Y-64442000D01*
X39867991Y-64442000D01*
X39867993Y-64442000D01*
X39980027Y-64411981D01*
X40080473Y-64353988D01*
X40162488Y-64271973D01*
X40220481Y-64171527D01*
X40250500Y-64059493D01*
X40250500Y-63943507D01*
X40220481Y-63831473D01*
X40209959Y-63813249D01*
X40193486Y-63745352D01*
X40209959Y-63689250D01*
X40220481Y-63671027D01*
X40250500Y-63558993D01*
X40250500Y-63516459D01*
X40270185Y-63449420D01*
X40286821Y-63428776D01*
X40307119Y-63408478D01*
X40307121Y-63408475D01*
X40377159Y-63303657D01*
X40377160Y-63303654D01*
X40425404Y-63187183D01*
X40425406Y-63187175D01*
X40434691Y-63140500D01*
X40404050Y-63103164D01*
X40376738Y-63038854D01*
X40388530Y-62969986D01*
X40435682Y-62918427D01*
X40499904Y-62900500D01*
X40552725Y-62900500D01*
X40552727Y-62900500D01*
X40654588Y-62873207D01*
X40745913Y-62820480D01*
X41387819Y-62178572D01*
X41449142Y-62145088D01*
X41518833Y-62150072D01*
G37*
%TD.AperFunction*%
%TA.AperFunction,Conductor*%
G36*
X31933618Y-65015544D02*
G01*
X31983612Y-65064354D01*
X31999500Y-65125081D01*
X31999500Y-66380464D01*
X31979815Y-66447503D01*
X31927011Y-66493258D01*
X31857853Y-66503202D01*
X31828048Y-66495025D01*
X31756631Y-66465444D01*
X31700000Y-66457987D01*
X31700000Y-67056000D01*
X31680315Y-67123039D01*
X31627511Y-67168794D01*
X31576000Y-67180000D01*
X31524500Y-67180000D01*
X31457461Y-67160315D01*
X31411706Y-67107511D01*
X31400500Y-67056000D01*
X31400500Y-66295804D01*
X31400500Y-66295802D01*
X31373207Y-66193942D01*
X31320480Y-66102616D01*
X31320478Y-66102614D01*
X31317113Y-66096785D01*
X31300500Y-66034785D01*
X31300500Y-65317255D01*
X31320185Y-65250216D01*
X31336814Y-65229578D01*
X31424991Y-65141400D01*
X31486312Y-65107917D01*
X31496486Y-65106144D01*
X31499997Y-65105681D01*
X31500000Y-65105682D01*
X31656762Y-65085044D01*
X31802841Y-65024536D01*
X31802845Y-65024532D01*
X31809881Y-65020472D01*
X31811023Y-65022451D01*
X31865172Y-65001512D01*
X31933618Y-65015544D01*
G37*
%TD.AperFunction*%
%TA.AperFunction,Conductor*%
G36*
X30080401Y-64428038D02*
G01*
X30132507Y-64442000D01*
X30132510Y-64442000D01*
X30692244Y-64442000D01*
X30759283Y-64461685D01*
X30805038Y-64514489D01*
X30814982Y-64583647D01*
X30785957Y-64647203D01*
X30779925Y-64653681D01*
X30579522Y-64854084D01*
X30579520Y-64854087D01*
X30526792Y-64945413D01*
X30525431Y-64950495D01*
X30525430Y-64950500D01*
X30499500Y-65047273D01*
X30499500Y-65481000D01*
X30479815Y-65548039D01*
X30427011Y-65593794D01*
X30375507Y-65605000D01*
X30360677Y-65605000D01*
X30243371Y-65620442D01*
X30243366Y-65620444D01*
X30097412Y-65680899D01*
X30097411Y-65680900D01*
X30051737Y-65715947D01*
X29986568Y-65741140D01*
X29918123Y-65727101D01*
X29868134Y-65678286D01*
X29852472Y-65610195D01*
X29868864Y-65555571D01*
X29912481Y-65480027D01*
X29942500Y-65367993D01*
X29942500Y-64632007D01*
X29928539Y-64579903D01*
X29930202Y-64510058D01*
X29969364Y-64452196D01*
X30033592Y-64424691D01*
X30080401Y-64428038D01*
G37*
%TD.AperFunction*%
%TA.AperFunction,Conductor*%
G36*
X39751040Y-58817433D02*
G01*
X40063181Y-59129574D01*
X40096666Y-59190897D01*
X40099500Y-59217255D01*
X40099500Y-59774589D01*
X40079815Y-59841628D01*
X40027011Y-59887383D01*
X39957853Y-59897327D01*
X39894297Y-59868302D01*
X39868113Y-59836590D01*
X39851753Y-59808254D01*
X39820480Y-59754087D01*
X39745913Y-59679520D01*
X39745912Y-59679519D01*
X39741582Y-59675189D01*
X39741571Y-59675179D01*
X39277770Y-59211378D01*
X39244285Y-59150055D01*
X39249269Y-59080363D01*
X39291141Y-59024430D01*
X39318000Y-59009135D01*
X39402587Y-58974099D01*
X39527925Y-58877923D01*
X39564982Y-58829629D01*
X39621409Y-58788425D01*
X39691155Y-58784270D01*
X39751040Y-58817433D01*
G37*
%TD.AperFunction*%
%TA.AperFunction,Conductor*%
G36*
X38651654Y-58136187D02*
G01*
X38652963Y-58133619D01*
X38661656Y-58138048D01*
X38661658Y-58138050D01*
X38774694Y-58195645D01*
X38774698Y-58195647D01*
X38868473Y-58210499D01*
X38868475Y-58210499D01*
X38868481Y-58210500D01*
X38875993Y-58210499D01*
X38943031Y-58230178D01*
X38988790Y-58282978D01*
X39000000Y-58334499D01*
X39000000Y-58396000D01*
X38980315Y-58463039D01*
X38927511Y-58508794D01*
X38876000Y-58520000D01*
X38612650Y-58520000D01*
X38550650Y-58503387D01*
X38531151Y-58492129D01*
X38504589Y-58476793D01*
X38432905Y-58457586D01*
X38402727Y-58449500D01*
X38402726Y-58449500D01*
X38198100Y-58449500D01*
X38131061Y-58429815D01*
X38085306Y-58377011D01*
X38075362Y-58307853D01*
X38104387Y-58244297D01*
X38163165Y-58206523D01*
X38178699Y-58203026D01*
X38225304Y-58195646D01*
X38338342Y-58138050D01*
X38338343Y-58138048D01*
X38347037Y-58133619D01*
X38348848Y-58137175D01*
X38396337Y-58120206D01*
X38403475Y-58120000D01*
X38596525Y-58120000D01*
X38651654Y-58136187D01*
G37*
%TD.AperFunction*%
%TA.AperFunction,Conductor*%
G36*
X35502539Y-46960185D02*
G01*
X35548294Y-47012989D01*
X35559500Y-47064500D01*
X35559500Y-47939993D01*
X35589519Y-48052027D01*
X35589521Y-48052031D01*
X35590060Y-48053331D01*
X35590611Y-48056101D01*
X35591623Y-48059878D01*
X35591375Y-48059944D01*
X35599500Y-48100787D01*
X35599500Y-48782745D01*
X35579815Y-48849784D01*
X35563181Y-48870426D01*
X32179522Y-52254084D01*
X32179520Y-52254087D01*
X32126793Y-52345412D01*
X32104911Y-52427079D01*
X32104910Y-52427078D01*
X32099500Y-52447268D01*
X32099500Y-54279187D01*
X32079815Y-54346226D01*
X32027011Y-54391981D01*
X31959316Y-54402126D01*
X31900003Y-54394318D01*
X31899999Y-54394318D01*
X31743239Y-54414955D01*
X31743237Y-54414956D01*
X31597160Y-54475463D01*
X31471718Y-54571718D01*
X31375463Y-54697160D01*
X31314956Y-54843237D01*
X31314955Y-54843239D01*
X31294318Y-54999998D01*
X31294318Y-55000001D01*
X31314955Y-55156760D01*
X31314956Y-55156762D01*
X31352347Y-55247033D01*
X31375464Y-55302841D01*
X31471718Y-55428282D01*
X31519662Y-55465071D01*
X31550986Y-55489106D01*
X31592189Y-55545534D01*
X31599500Y-55587482D01*
X31599500Y-57270549D01*
X31579815Y-57337588D01*
X31527011Y-57383343D01*
X31457853Y-57393287D01*
X31410552Y-57373364D01*
X31409628Y-57374965D01*
X31402587Y-57370900D01*
X31256634Y-57310445D01*
X31256630Y-57310444D01*
X31191016Y-57301805D01*
X31127120Y-57273538D01*
X31088650Y-57215213D01*
X31084264Y-57162680D01*
X31085042Y-57156765D01*
X31085044Y-57156762D01*
X31105682Y-57000000D01*
X31102216Y-56973676D01*
X31085044Y-56843239D01*
X31085044Y-56843238D01*
X31024536Y-56697159D01*
X31024535Y-56697158D01*
X31024535Y-56697157D01*
X30926124Y-56568905D01*
X30900930Y-56503736D01*
X30900500Y-56493419D01*
X30900500Y-50217253D01*
X30920185Y-50150214D01*
X30936814Y-50129577D01*
X32546389Y-48520001D01*
X33304039Y-48520001D01*
X33315442Y-48606627D01*
X33315444Y-48606633D01*
X33375899Y-48752585D01*
X33472075Y-48877924D01*
X33597414Y-48974100D01*
X33743366Y-49034555D01*
X33743372Y-49034557D01*
X33799998Y-49042011D01*
X33800000Y-49042010D01*
X34200000Y-49042010D01*
X34200001Y-49042011D01*
X34256627Y-49034557D01*
X34256633Y-49034555D01*
X34402585Y-48974100D01*
X34527924Y-48877924D01*
X34624100Y-48752586D01*
X34684554Y-48606634D01*
X34684555Y-48606630D01*
X34695961Y-48520000D01*
X34200000Y-48520000D01*
X34200000Y-49042010D01*
X33800000Y-49042010D01*
X33800000Y-48520000D01*
X33304041Y-48520000D01*
X33304039Y-48520001D01*
X32546389Y-48520001D01*
X33099964Y-47966426D01*
X33161285Y-47932943D01*
X33230977Y-47937927D01*
X33286910Y-47979799D01*
X33311327Y-48045263D01*
X33310582Y-48070294D01*
X33304038Y-48119999D01*
X33304039Y-48120000D01*
X33596525Y-48120000D01*
X33651654Y-48136187D01*
X33652963Y-48133619D01*
X33661656Y-48138048D01*
X33661658Y-48138050D01*
X33752927Y-48184554D01*
X33774698Y-48195647D01*
X33868475Y-48210499D01*
X33868481Y-48210500D01*
X34131518Y-48210499D01*
X34225304Y-48195646D01*
X34338342Y-48138050D01*
X34338343Y-48138048D01*
X34347037Y-48133619D01*
X34348848Y-48137175D01*
X34396337Y-48120206D01*
X34403475Y-48120000D01*
X34695959Y-48120000D01*
X34695960Y-48119998D01*
X34684557Y-48033372D01*
X34684555Y-48033366D01*
X34624100Y-47887412D01*
X34624098Y-47887410D01*
X34526123Y-47759726D01*
X34500929Y-47694557D01*
X34500499Y-47684240D01*
X34500499Y-47645255D01*
X34520184Y-47578216D01*
X34536818Y-47557574D01*
X35117573Y-46976819D01*
X35178896Y-46943334D01*
X35205254Y-46940500D01*
X35435500Y-46940500D01*
X35502539Y-46960185D01*
G37*
%TD.AperFunction*%
%TA.AperFunction,Conductor*%
G36*
X33755703Y-38322541D02*
G01*
X33762168Y-38328561D01*
X34083108Y-38649500D01*
X34105872Y-38672264D01*
X34139357Y-38733587D01*
X34141130Y-38776130D01*
X34137987Y-38799999D01*
X34137988Y-38800000D01*
X34185388Y-38800000D01*
X34247384Y-38816611D01*
X34270130Y-38829742D01*
X34297268Y-38845410D01*
X34297270Y-38845412D01*
X34297271Y-38845412D01*
X34345412Y-38873207D01*
X34447273Y-38900500D01*
X34736000Y-38900500D01*
X34803039Y-38920185D01*
X34848794Y-38972989D01*
X34860000Y-39024500D01*
X34860000Y-39076000D01*
X34840315Y-39143039D01*
X34787511Y-39188794D01*
X34736000Y-39200000D01*
X34137990Y-39200000D01*
X34137988Y-39200001D01*
X34145442Y-39256627D01*
X34145444Y-39256633D01*
X34183319Y-39348074D01*
X34189695Y-39355702D01*
X34200000Y-39405194D01*
X34200000Y-40056000D01*
X34180315Y-40123039D01*
X34127511Y-40168794D01*
X34076000Y-40180000D01*
X33924000Y-40180000D01*
X33856961Y-40160315D01*
X33811206Y-40107511D01*
X33800000Y-40056000D01*
X33800000Y-39457987D01*
X33743370Y-39465443D01*
X33721949Y-39474316D01*
X33652479Y-39481782D01*
X33590001Y-39450505D01*
X33554351Y-39390415D01*
X33550500Y-39359753D01*
X33550500Y-38416254D01*
X33570185Y-38349215D01*
X33622989Y-38303460D01*
X33692147Y-38293516D01*
X33755703Y-38322541D01*
G37*
%TD.AperFunction*%
%TD*%
M02*
