M48
; DRILL file {KiCad 8.0.8} date 2025-04-09T23:46:11+0800
; FORMAT={-:-/ absolute / metric / decimal}
; #@! TF.CreationDate,2025-04-09T23:46:11+08:00
; #@! TF.GenerationSoftware,Kicad,Pcbnew,8.0.8
; #@! TF.FileFunction,Plated,1,2,PTH
FMAT,2
METRIC
; #@! TA.AperFunction,Plated,PTH,ViaDrill
T1C0.300
; #@! TA.AperFunction,Plated,PTH,ComponentDrill
T2C0.600
; #@! TA.AperFunction,Plated,PTH,ComponentDrill
T3C1.000
%
G90
G05
T1
X23.0Y-76.5
X24.0Y-21.0
X24.5Y-41.5
X24.5Y-73.5
X26.5Y-58.0
X27.0Y-62.5
X27.0Y-70.5
X27.5Y-59.0
X27.5Y-66.5
X28.0Y-37.0
X28.0Y-61.5
X28.0Y-63.5
X28.0Y-69.5
X28.0Y-70.5
X28.0Y-71.5
X28.0Y-62.5
X28.5Y-66.5
X29.0Y-62.5
X29.0Y-70.5
X29.5Y-66.5
X30.5Y-27.5
X30.5Y-57.0
X31.5Y-26.5
X31.5Y-64.5
X31.5Y-66.0
X31.9Y-55.0
X32.0Y-28.0
X32.0Y-33.0
X32.0Y-41.5
X32.4Y-63.5
X33.5Y-26.5
X33.5Y-28.0
X33.5Y-33.0
X33.5Y-47.0
X33.5Y-53.0
X33.724Y-58.624
X34.0Y-39.0
X34.5Y-74.0
X35.0Y-27.5
X35.0Y-37.0
X35.0Y-40.0
X35.0Y-48.5
X35.024Y-40.824
X35.5Y-58.624
X35.6Y-36.0
X36.0Y-62.5
X36.0Y-70.5
X36.5Y-43.0
X36.5Y-46.0
X36.5Y-66.5
X37.0Y-44.5
X37.0Y-61.5
X37.0Y-62.5
X37.0Y-63.5
X37.0Y-69.5
X37.0Y-70.5
X37.0Y-71.5
X37.5Y-33.0
X37.5Y-34.5
X37.5Y-66.5
X38.0Y-43.5
X38.0Y-44.5
X38.0Y-45.5
X38.0Y-56.0
X38.0Y-62.5
X38.0Y-70.5
X38.5Y-66.5
X39.0Y-44.5
X39.1Y-54.5
X39.5Y-43.0
X39.5Y-46.0
X39.5Y-59.0
X40.5Y-49.5
X40.5Y-65.5
X40.776Y-58.124
X41.5Y-21.0
X41.5Y-53.5
X41.5Y-76.5
X42.5Y-49.0
X43.5Y-48.0
T3
X27.415Y-76.85
X27.415Y-79.39
X29.955Y-76.85
X29.955Y-79.39
X32.495Y-76.85
X32.495Y-79.39
X35.035Y-76.85
X35.035Y-79.39
X37.575Y-76.85
X37.575Y-79.39
T2
X28.18Y-20.632G85X28.18Y-19.832
G05
X28.18Y-24.932G85X28.18Y-23.832
G05
X36.82Y-20.632G85X36.82Y-19.832
G05
X36.82Y-24.932G85X36.82Y-23.832
G05
M30
