%TF.GenerationSoftware,KiCad,Pcbnew,8.0.8*%
%TF.CreationDate,2025-04-09T23:46:09+08:00*%
%TF.ProjectId,usb-4uart,7573622d-3475-4617-9274-2e6b69636164,rev?*%
%TF.SameCoordinates,Original*%
%TF.FileFunction,Copper,L2,Bot*%
%TF.FilePolarity,Positive*%
%FSLAX46Y46*%
G04 Gerber Fmt 4.6, Leading zero omitted, Abs format (unit mm)*
G04 Created by KiCad (PCBNEW 8.0.8) date 2025-04-09 23:46:09*
%MOMM*%
%LPD*%
G01*
G04 APERTURE LIST*
%TA.AperFunction,ComponentPad*%
%ADD10O,1.000000X2.100000*%
%TD*%
%TA.AperFunction,ComponentPad*%
%ADD11O,1.000000X1.800000*%
%TD*%
%TA.AperFunction,ComponentPad*%
%ADD12R,1.700000X1.700000*%
%TD*%
%TA.AperFunction,ComponentPad*%
%ADD13O,1.700000X1.700000*%
%TD*%
%TA.AperFunction,ViaPad*%
%ADD14C,0.600000*%
%TD*%
%TA.AperFunction,Conductor*%
%ADD15C,0.200000*%
%TD*%
%TA.AperFunction,Conductor*%
%ADD16C,0.300000*%
%TD*%
G04 APERTURE END LIST*
D10*
%TO.P,USB1,1,SHELL*%
%TO.N,GND*%
X36820000Y-24382200D03*
%TO.P,USB1,2,SHELL*%
X28180000Y-24382200D03*
D11*
%TO.P,USB1,3,SHELL*%
X36820000Y-20232200D03*
%TO.P,USB1,4,SHELL*%
X28180000Y-20232200D03*
%TD*%
D12*
%TO.P,J1,1,Pin_1*%
%TO.N,GND*%
X37575000Y-76850000D03*
D13*
%TO.P,J1,2,Pin_2*%
X37575000Y-79390000D03*
%TO.P,J1,3,Pin_3*%
%TO.N,RX4*%
X35035000Y-76850000D03*
%TO.P,J1,4,Pin_4*%
%TO.N,TX4*%
X35035000Y-79390000D03*
%TO.P,J1,5,Pin_5*%
%TO.N,RX3*%
X32495000Y-76850000D03*
%TO.P,J1,6,Pin_6*%
%TO.N,TX3*%
X32495000Y-79390000D03*
%TO.P,J1,7,Pin_7*%
%TO.N,RX2*%
X29955000Y-76850000D03*
%TO.P,J1,8,Pin_8*%
%TO.N,TX2*%
X29955000Y-79390000D03*
%TO.P,J1,9,Pin_9*%
%TO.N,RX1*%
X27415000Y-76850000D03*
%TO.P,J1,10,Pin_10*%
%TO.N,TX1*%
X27415000Y-79390000D03*
%TD*%
D14*
%TO.N,GND*%
X28000500Y-62500000D03*
X36500000Y-43000000D03*
X37000000Y-71500000D03*
X29000000Y-62500000D03*
X29000000Y-70500000D03*
X37000000Y-61500000D03*
X37500000Y-34500000D03*
X36000000Y-70500000D03*
X28000000Y-70500000D03*
X37000000Y-69500000D03*
X39500000Y-43000000D03*
X28000000Y-61500000D03*
X28000000Y-37000000D03*
X41500000Y-21000000D03*
X36500000Y-46000000D03*
X37000000Y-44500000D03*
X42500000Y-49000000D03*
X38000000Y-62500000D03*
X24000000Y-21000000D03*
X37000000Y-70500000D03*
X38000000Y-45500000D03*
X38000000Y-44500000D03*
X35000000Y-37000000D03*
X39000000Y-44500000D03*
X37000000Y-62500000D03*
X28000000Y-63500000D03*
X34500000Y-74000000D03*
X39500000Y-59000000D03*
X41500000Y-76500000D03*
X39500000Y-46000000D03*
X23000000Y-76500000D03*
X28000000Y-69500000D03*
X27000000Y-62500000D03*
X37000000Y-63500000D03*
X27000000Y-70500000D03*
X38000000Y-43500000D03*
X36000000Y-62500000D03*
X35000000Y-48500000D03*
X24500000Y-73500000D03*
X24500000Y-41500000D03*
X31500000Y-66000000D03*
X26500000Y-58000000D03*
X28000000Y-71500000D03*
X34000000Y-39000000D03*
X38000000Y-70500000D03*
%TO.N,+3.3V*%
X30500000Y-57000000D03*
X37500000Y-33000000D03*
X31500000Y-64500000D03*
X38000000Y-56000000D03*
X35000000Y-40000000D03*
X33500000Y-47000000D03*
X43500000Y-48000000D03*
X40500000Y-65500000D03*
X32000000Y-33000000D03*
X35600000Y-36000000D03*
%TO.N,+5V*%
X30500000Y-27500000D03*
X27500000Y-59000000D03*
X29500000Y-66500000D03*
X35000000Y-27500000D03*
X35500000Y-58624265D03*
X38500000Y-66500000D03*
%TO.N,TX1*%
X28500000Y-66500000D03*
%TO.N,SUSP_IND*%
X35024263Y-40824266D03*
X32000000Y-41500000D03*
%TO.N,RX3*%
X36500000Y-66500000D03*
%TO.N,RX1*%
X27500000Y-66500000D03*
%TO.N,TX3*%
X37500000Y-66500000D03*
%TO.N,D1-*%
X33500000Y-53000000D03*
X31900000Y-55000000D03*
%TO.N,D4-*%
X40500000Y-49500000D03*
X41500000Y-53500000D03*
%TO.N,D3-*%
X40775735Y-58124265D03*
X39100000Y-54500000D03*
%TO.N,D2-*%
X32400000Y-63500000D03*
X33724265Y-58624265D03*
%TO.N,USB_IN+*%
X31500000Y-26500000D03*
X33500000Y-28000000D03*
%TO.N,USB_IN-*%
X33500000Y-33000000D03*
X32000000Y-28000000D03*
X33500000Y-26500000D03*
%TD*%
D15*
%TO.N,+3.3V*%
X42944650Y-65500000D02*
X44000000Y-64444650D01*
X43500000Y-48000000D02*
X44000000Y-47500000D01*
X44000000Y-48500000D02*
X43500000Y-48000000D01*
X35600000Y-34900000D02*
X37500000Y-33000000D01*
X42500000Y-47000000D02*
X33500000Y-47000000D01*
X35500000Y-33000000D02*
X37500000Y-33000000D01*
X35600000Y-36000000D02*
X35600000Y-34900000D01*
X32000000Y-33000000D02*
X32600000Y-33600000D01*
X40500000Y-65500000D02*
X42944650Y-65500000D01*
X43500000Y-48000000D02*
X42500000Y-47000000D01*
X44000000Y-64444650D02*
X44000000Y-48500000D01*
X32600000Y-33600000D02*
X34900000Y-33600000D01*
X31500000Y-64500000D02*
X31500000Y-58000000D01*
X34900000Y-33600000D02*
X35500000Y-33000000D01*
X44000000Y-47500000D02*
X44000000Y-39500000D01*
X44000000Y-39500000D02*
X37500000Y-33000000D01*
X30500000Y-57000000D02*
X31524265Y-58024265D01*
X31500000Y-58000000D02*
X30500000Y-57000000D01*
X35000000Y-40000000D02*
X35600000Y-39400000D01*
X35975735Y-58024265D02*
X38000000Y-56000000D01*
X31524265Y-58024265D02*
X35975735Y-58024265D01*
X35600000Y-39400000D02*
X35600000Y-36000000D01*
%TO.N,+5V*%
X37500000Y-55000000D02*
X37500000Y-53748529D01*
X33500000Y-60624265D02*
X33500000Y-64500000D01*
X27500000Y-59000000D02*
X30500000Y-62000000D01*
X35500000Y-58624265D02*
X36224264Y-58624265D01*
X33500000Y-64500000D02*
X34500000Y-65500000D01*
X37500000Y-65500000D02*
X38500000Y-66500000D01*
X30500000Y-62000000D02*
X30500000Y-65500000D01*
X30500000Y-46748529D02*
X30500000Y-46000000D01*
X38600000Y-56248529D02*
X38600000Y-55751471D01*
D16*
X34000000Y-25000000D02*
X35000000Y-26000000D01*
X30500000Y-27500000D02*
X30500000Y-25500000D01*
X30500000Y-25500000D02*
X31000000Y-25000000D01*
X35000000Y-26000000D02*
X35000000Y-27500000D01*
D15*
X35500000Y-58624265D02*
X33500000Y-60624265D01*
D16*
X30500000Y-56000000D02*
X30500000Y-46000000D01*
D15*
X36224264Y-58624265D02*
X38600000Y-56248529D01*
D16*
X30500000Y-27500000D02*
X30500000Y-46000000D01*
D15*
X30500000Y-65500000D02*
X29500000Y-66500000D01*
X34500000Y-65500000D02*
X37500000Y-65500000D01*
X38600000Y-55751471D02*
X38248529Y-55400000D01*
D16*
X31000000Y-25000000D02*
X34000000Y-25000000D01*
D15*
X37900000Y-55400000D02*
X37500000Y-55000000D01*
X38248529Y-55400000D02*
X37900000Y-55400000D01*
D16*
X27500000Y-59000000D02*
X30500000Y-56000000D01*
D15*
X37500000Y-53748529D02*
X30500000Y-46748529D01*
%TO.N,TX1*%
X28565000Y-78240000D02*
X27415000Y-79390000D01*
X27900000Y-67100000D02*
X25400000Y-67100000D01*
X24000000Y-74500000D02*
X26691346Y-74500000D01*
X28500000Y-66500000D02*
X27900000Y-67100000D01*
X26691346Y-74500000D02*
X28565000Y-76373654D01*
X25400000Y-67100000D02*
X23500000Y-69000000D01*
X23500000Y-69000000D02*
X23500000Y-74000000D01*
X28565000Y-76373654D02*
X28565000Y-78240000D01*
X23500000Y-74000000D02*
X24000000Y-74500000D01*
%TO.N,SUSP_IND*%
X35024263Y-40824266D02*
X34348529Y-41500000D01*
X34348529Y-41500000D02*
X32000000Y-41500000D01*
%TO.N,RX3*%
X32495000Y-68505000D02*
X32495000Y-76850000D01*
X36500000Y-66500000D02*
X34500000Y-66500000D01*
X34500000Y-66500000D02*
X32495000Y-68505000D01*
%TO.N,RX1*%
X27500000Y-66500000D02*
X25000000Y-66500000D01*
X25000000Y-66500000D02*
X23000000Y-68500000D01*
X23500000Y-75000000D02*
X25565000Y-75000000D01*
X23000000Y-68500000D02*
X23000000Y-74500000D01*
X25565000Y-75000000D02*
X27415000Y-76850000D01*
X23000000Y-74500000D02*
X23500000Y-75000000D01*
%TO.N,TX3*%
X36500000Y-67500000D02*
X35000000Y-67500000D01*
X37500000Y-66500000D02*
X36500000Y-67500000D01*
X33645000Y-68855000D02*
X33645000Y-78240000D01*
X33645000Y-78240000D02*
X32495000Y-79390000D01*
X35000000Y-67500000D02*
X33645000Y-68855000D01*
%TO.N,D1-*%
X31900000Y-54600000D02*
X33500000Y-53000000D01*
X31900000Y-55000000D02*
X31900000Y-54600000D01*
%TO.N,D4-*%
X40500000Y-49500000D02*
X41500000Y-50500000D01*
X41500000Y-50500000D02*
X41500000Y-53500000D01*
%TO.N,D3-*%
X40900000Y-58000000D02*
X40775735Y-58124265D01*
X39250000Y-54500000D02*
X40900000Y-56150000D01*
X39100000Y-54500000D02*
X39250000Y-54500000D01*
X40900000Y-56150000D02*
X40900000Y-58000000D01*
%TO.N,D2-*%
X32400000Y-59948530D02*
X32400000Y-63500000D01*
X33724265Y-58624265D02*
X32400000Y-59948530D01*
%TO.N,USB_IN+*%
X32500000Y-27000000D02*
X33500000Y-28000000D01*
X31500000Y-26500000D02*
X32000000Y-27000000D01*
X32000000Y-27000000D02*
X32500000Y-27000000D01*
%TO.N,USB_IN-*%
X34100000Y-27100000D02*
X34100000Y-30400000D01*
X32000000Y-29500000D02*
X33500000Y-31000000D01*
X32000000Y-28000000D02*
X32000000Y-29500000D01*
X33500000Y-31000000D02*
X33500000Y-33000000D01*
X33500000Y-26500000D02*
X34100000Y-27100000D01*
X34100000Y-30400000D02*
X33500000Y-31000000D01*
%TD*%
%TA.AperFunction,Conductor*%
%TO.N,GND*%
G36*
X27368085Y-19020185D02*
G01*
X27413840Y-19072989D01*
X27423784Y-19142147D01*
X27404148Y-19193391D01*
X27293814Y-19358515D01*
X27293807Y-19358528D01*
X27218430Y-19540506D01*
X27218427Y-19540518D01*
X27180000Y-19733704D01*
X27180000Y-19982200D01*
X27880000Y-19982200D01*
X27880000Y-20482200D01*
X27180000Y-20482200D01*
X27180000Y-20730695D01*
X27218427Y-20923881D01*
X27218430Y-20923893D01*
X27293807Y-21105871D01*
X27293814Y-21105884D01*
X27403248Y-21269662D01*
X27403251Y-21269666D01*
X27542533Y-21408948D01*
X27542537Y-21408951D01*
X27706315Y-21518385D01*
X27706328Y-21518392D01*
X27888308Y-21593769D01*
X27930000Y-21602062D01*
X27930000Y-20799188D01*
X27939940Y-20816405D01*
X27995795Y-20872260D01*
X28064204Y-20911756D01*
X28140504Y-20932200D01*
X28219496Y-20932200D01*
X28295796Y-20911756D01*
X28364205Y-20872260D01*
X28420060Y-20816405D01*
X28430000Y-20799188D01*
X28430000Y-21602062D01*
X28471690Y-21593769D01*
X28471692Y-21593769D01*
X28653671Y-21518392D01*
X28653684Y-21518385D01*
X28817462Y-21408951D01*
X28817466Y-21408948D01*
X28956748Y-21269666D01*
X28956751Y-21269662D01*
X29066185Y-21105884D01*
X29066192Y-21105871D01*
X29141569Y-20923893D01*
X29141572Y-20923881D01*
X29179999Y-20730695D01*
X29180000Y-20730692D01*
X29180000Y-20482200D01*
X28480000Y-20482200D01*
X28480000Y-19982200D01*
X29180000Y-19982200D01*
X29180000Y-19733708D01*
X29179999Y-19733704D01*
X29141572Y-19540518D01*
X29141569Y-19540506D01*
X29066192Y-19358528D01*
X29066185Y-19358515D01*
X28955852Y-19193391D01*
X28934974Y-19126714D01*
X28953458Y-19059333D01*
X29005437Y-19012643D01*
X29058954Y-19000500D01*
X35941046Y-19000500D01*
X36008085Y-19020185D01*
X36053840Y-19072989D01*
X36063784Y-19142147D01*
X36044148Y-19193391D01*
X35933814Y-19358515D01*
X35933807Y-19358528D01*
X35858430Y-19540506D01*
X35858427Y-19540518D01*
X35820000Y-19733704D01*
X35820000Y-19982200D01*
X36520000Y-19982200D01*
X36520000Y-20482200D01*
X35820000Y-20482200D01*
X35820000Y-20730695D01*
X35858427Y-20923881D01*
X35858430Y-20923893D01*
X35933807Y-21105871D01*
X35933814Y-21105884D01*
X36043248Y-21269662D01*
X36043251Y-21269666D01*
X36182533Y-21408948D01*
X36182537Y-21408951D01*
X36346315Y-21518385D01*
X36346328Y-21518392D01*
X36528308Y-21593769D01*
X36570000Y-21602062D01*
X36570000Y-20799188D01*
X36579940Y-20816405D01*
X36635795Y-20872260D01*
X36704204Y-20911756D01*
X36780504Y-20932200D01*
X36859496Y-20932200D01*
X36935796Y-20911756D01*
X37004205Y-20872260D01*
X37060060Y-20816405D01*
X37070000Y-20799188D01*
X37070000Y-21602062D01*
X37111690Y-21593769D01*
X37111692Y-21593769D01*
X37293671Y-21518392D01*
X37293684Y-21518385D01*
X37457462Y-21408951D01*
X37457466Y-21408948D01*
X37596748Y-21269666D01*
X37596751Y-21269662D01*
X37706185Y-21105884D01*
X37706192Y-21105871D01*
X37781569Y-20923893D01*
X37781572Y-20923881D01*
X37819999Y-20730695D01*
X37820000Y-20730692D01*
X37820000Y-20482200D01*
X37120000Y-20482200D01*
X37120000Y-19982200D01*
X37820000Y-19982200D01*
X37820000Y-19733708D01*
X37819999Y-19733704D01*
X37781572Y-19540518D01*
X37781569Y-19540506D01*
X37706192Y-19358528D01*
X37706185Y-19358515D01*
X37595852Y-19193391D01*
X37574974Y-19126714D01*
X37593458Y-19059333D01*
X37645437Y-19012643D01*
X37698954Y-19000500D01*
X44375500Y-19000500D01*
X44442539Y-19020185D01*
X44488294Y-19072989D01*
X44499500Y-19124500D01*
X44499500Y-39133745D01*
X44479815Y-39200784D01*
X44427011Y-39246539D01*
X44357853Y-39256483D01*
X44294297Y-39227458D01*
X44287819Y-39221426D01*
X38141402Y-33075009D01*
X38107917Y-33013686D01*
X38106144Y-33003513D01*
X38105681Y-32999999D01*
X38085044Y-32843238D01*
X38024536Y-32697159D01*
X37928282Y-32571718D01*
X37802841Y-32475464D01*
X37656762Y-32414956D01*
X37656760Y-32414955D01*
X37500001Y-32394318D01*
X37499999Y-32394318D01*
X37343239Y-32414955D01*
X37343237Y-32414956D01*
X37197160Y-32475463D01*
X37197159Y-32475464D01*
X37071718Y-32571718D01*
X37071716Y-32571720D01*
X37068907Y-32573876D01*
X37003737Y-32599070D01*
X36993420Y-32599500D01*
X35447273Y-32599500D01*
X35345410Y-32626793D01*
X35254087Y-32679520D01*
X35254084Y-32679522D01*
X34770426Y-33163181D01*
X34709103Y-33196666D01*
X34682745Y-33199500D01*
X34220812Y-33199500D01*
X34153773Y-33179815D01*
X34108018Y-33127011D01*
X34097873Y-33059314D01*
X34105220Y-33003513D01*
X34105682Y-33000000D01*
X34085044Y-32843238D01*
X34024536Y-32697159D01*
X34024535Y-32697158D01*
X34024535Y-32697157D01*
X33926124Y-32568905D01*
X33900930Y-32503736D01*
X33900500Y-32493419D01*
X33900500Y-31217255D01*
X33920185Y-31150216D01*
X33936819Y-31129574D01*
X34420480Y-30645913D01*
X34473207Y-30554588D01*
X34500500Y-30452727D01*
X34500500Y-30347273D01*
X34500500Y-28125081D01*
X34520185Y-28058042D01*
X34572989Y-28012287D01*
X34642147Y-28002343D01*
X34689153Y-28022144D01*
X34690119Y-28020472D01*
X34697157Y-28024534D01*
X34697159Y-28024536D01*
X34843238Y-28085044D01*
X34921619Y-28095363D01*
X34999999Y-28105682D01*
X35000000Y-28105682D01*
X35000001Y-28105682D01*
X35052254Y-28098802D01*
X35156762Y-28085044D01*
X35302841Y-28024536D01*
X35428282Y-27928282D01*
X35524536Y-27802841D01*
X35585044Y-27656762D01*
X35605682Y-27500000D01*
X35601808Y-27470577D01*
X35588989Y-27373207D01*
X35585044Y-27343238D01*
X35524536Y-27197159D01*
X35524535Y-27197158D01*
X35524535Y-27197157D01*
X35476124Y-27134066D01*
X35450930Y-27068896D01*
X35450500Y-27058580D01*
X35450500Y-25940693D01*
X35450500Y-25940691D01*
X35419799Y-25826114D01*
X35391220Y-25776614D01*
X35360490Y-25723387D01*
X34276614Y-24639511D01*
X34225250Y-24609856D01*
X34173888Y-24580201D01*
X34161780Y-24576957D01*
X34149673Y-24573713D01*
X34149670Y-24573712D01*
X34111478Y-24563478D01*
X34059309Y-24549500D01*
X30940691Y-24549500D01*
X30850325Y-24573713D01*
X30850324Y-24573712D01*
X30826115Y-24580200D01*
X30826106Y-24580204D01*
X30723392Y-24639505D01*
X30723384Y-24639511D01*
X30139513Y-25223383D01*
X30139509Y-25223389D01*
X30080201Y-25326112D01*
X30080200Y-25326117D01*
X30049500Y-25440691D01*
X30049500Y-27058580D01*
X30029815Y-27125619D01*
X30023876Y-27134066D01*
X29975464Y-27197157D01*
X29914956Y-27343237D01*
X29914955Y-27343239D01*
X29894318Y-27499998D01*
X29894318Y-27500001D01*
X29914955Y-27656760D01*
X29914957Y-27656765D01*
X29975461Y-27802836D01*
X29975464Y-27802841D01*
X30023876Y-27865933D01*
X30049070Y-27931102D01*
X30049500Y-27941419D01*
X30049500Y-55762034D01*
X30029815Y-55829073D01*
X30013181Y-55849715D01*
X27493578Y-58369317D01*
X27432255Y-58402802D01*
X27422084Y-58404575D01*
X27343238Y-58414956D01*
X27197160Y-58475463D01*
X27071718Y-58571718D01*
X26975463Y-58697160D01*
X26914956Y-58843237D01*
X26914955Y-58843239D01*
X26894318Y-58999998D01*
X26894318Y-59000001D01*
X26914955Y-59156760D01*
X26914956Y-59156762D01*
X26975464Y-59302841D01*
X27071718Y-59428282D01*
X27197159Y-59524536D01*
X27343238Y-59585044D01*
X27500000Y-59605682D01*
X27500001Y-59605681D01*
X27503513Y-59606144D01*
X27567410Y-59634410D01*
X27575009Y-59641402D01*
X30063181Y-62129573D01*
X30096666Y-62190896D01*
X30099500Y-62217254D01*
X30099500Y-65282744D01*
X30079815Y-65349783D01*
X30063181Y-65370425D01*
X29575008Y-65858597D01*
X29513685Y-65892082D01*
X29503513Y-65893855D01*
X29343238Y-65914956D01*
X29343237Y-65914956D01*
X29197157Y-65975464D01*
X29075486Y-66068826D01*
X29010317Y-66094020D01*
X28941872Y-66079981D01*
X28924514Y-66068826D01*
X28802842Y-65975464D01*
X28656762Y-65914956D01*
X28656760Y-65914955D01*
X28500001Y-65894318D01*
X28499999Y-65894318D01*
X28343239Y-65914955D01*
X28343237Y-65914956D01*
X28197157Y-65975464D01*
X28075486Y-66068826D01*
X28010317Y-66094020D01*
X27941872Y-66079981D01*
X27924514Y-66068826D01*
X27802842Y-65975464D01*
X27656762Y-65914956D01*
X27656760Y-65914955D01*
X27500001Y-65894318D01*
X27499999Y-65894318D01*
X27343239Y-65914955D01*
X27343237Y-65914956D01*
X27197160Y-65975463D01*
X27197159Y-65975464D01*
X27071718Y-66071718D01*
X27071716Y-66071720D01*
X27068907Y-66073876D01*
X27003737Y-66099070D01*
X26993420Y-66099500D01*
X24947273Y-66099500D01*
X24845410Y-66126793D01*
X24754087Y-66179520D01*
X24754084Y-66179522D01*
X22679522Y-68254084D01*
X22679520Y-68254087D01*
X22626792Y-68345412D01*
X22625452Y-68350412D01*
X22625453Y-68350413D01*
X22599500Y-68447273D01*
X22599500Y-74552726D01*
X22626793Y-74654589D01*
X22653156Y-74700250D01*
X22679520Y-74745913D01*
X22679521Y-74745914D01*
X22679522Y-74745915D01*
X23175179Y-75241571D01*
X23175189Y-75241582D01*
X23254088Y-75320481D01*
X23299750Y-75346843D01*
X23299752Y-75346845D01*
X23334421Y-75366861D01*
X23345412Y-75373207D01*
X23447273Y-75400500D01*
X23552727Y-75400500D01*
X25347745Y-75400500D01*
X25414784Y-75420185D01*
X25435426Y-75436819D01*
X26306805Y-76308198D01*
X26340290Y-76369521D01*
X26338390Y-76429813D01*
X26279244Y-76637687D01*
X26262454Y-76818888D01*
X26259571Y-76850000D01*
X26279244Y-77062310D01*
X26332675Y-77250099D01*
X26337596Y-77267392D01*
X26337596Y-77267394D01*
X26432632Y-77458253D01*
X26504385Y-77553268D01*
X26561128Y-77628407D01*
X26718698Y-77772052D01*
X26899981Y-77884298D01*
X27098802Y-77961321D01*
X27295613Y-77998111D01*
X27357893Y-78029779D01*
X27393166Y-78090092D01*
X27390232Y-78159900D01*
X27350023Y-78217040D01*
X27295613Y-78241888D01*
X27098802Y-78278679D01*
X27098799Y-78278679D01*
X27098799Y-78278680D01*
X26899982Y-78355701D01*
X26899980Y-78355702D01*
X26718699Y-78467947D01*
X26561127Y-78611593D01*
X26432632Y-78781746D01*
X26337596Y-78972605D01*
X26337596Y-78972607D01*
X26279244Y-79177689D01*
X26265671Y-79324174D01*
X26259571Y-79390000D01*
X26279244Y-79602310D01*
X26332675Y-79790099D01*
X26337596Y-79807392D01*
X26337596Y-79807394D01*
X26432632Y-79998253D01*
X26561127Y-80168406D01*
X26561128Y-80168407D01*
X26718698Y-80312052D01*
X26899981Y-80424298D01*
X27098802Y-80501321D01*
X27308390Y-80540500D01*
X27308392Y-80540500D01*
X27521608Y-80540500D01*
X27521610Y-80540500D01*
X27731198Y-80501321D01*
X27930019Y-80424298D01*
X28111302Y-80312052D01*
X28268872Y-80168407D01*
X28397366Y-79998255D01*
X28451270Y-79890000D01*
X28492403Y-79807394D01*
X28492403Y-79807393D01*
X28492405Y-79807389D01*
X28550756Y-79602310D01*
X28561529Y-79486047D01*
X28587315Y-79421111D01*
X28631869Y-79389194D01*
X28595497Y-79368331D01*
X28563307Y-79306318D01*
X28561529Y-79293951D01*
X28560849Y-79286613D01*
X28550756Y-79177690D01*
X28492405Y-78972611D01*
X28491609Y-78969813D01*
X28492195Y-78899946D01*
X28523192Y-78848199D01*
X28810910Y-78560481D01*
X28810913Y-78560480D01*
X28885480Y-78485913D01*
X28938207Y-78394587D01*
X28948626Y-78355702D01*
X28965501Y-78292727D01*
X28965501Y-78187273D01*
X28965501Y-78179678D01*
X28965500Y-78179660D01*
X28965500Y-77785599D01*
X28985185Y-77718560D01*
X29037989Y-77672805D01*
X29107147Y-77662861D01*
X29170703Y-77691886D01*
X29172996Y-77693924D01*
X29258698Y-77772052D01*
X29439981Y-77884298D01*
X29638802Y-77961321D01*
X29835613Y-77998111D01*
X29897893Y-78029779D01*
X29933166Y-78090092D01*
X29930232Y-78159900D01*
X29890023Y-78217040D01*
X29835613Y-78241888D01*
X29638802Y-78278679D01*
X29638799Y-78278679D01*
X29638799Y-78278680D01*
X29439982Y-78355701D01*
X29439980Y-78355702D01*
X29258699Y-78467947D01*
X29101125Y-78611595D01*
X29088684Y-78628070D01*
X29085523Y-78630415D01*
X29077331Y-78643104D01*
X28972633Y-78781746D01*
X28877596Y-78972605D01*
X28877596Y-78972607D01*
X28819244Y-79177689D01*
X28808471Y-79293951D01*
X28782685Y-79358888D01*
X28738130Y-79390804D01*
X28774503Y-79411668D01*
X28806693Y-79473681D01*
X28808470Y-79486047D01*
X28819244Y-79602310D01*
X28872675Y-79790099D01*
X28877596Y-79807392D01*
X28877596Y-79807394D01*
X28972632Y-79998253D01*
X29101127Y-80168406D01*
X29101128Y-80168407D01*
X29258698Y-80312052D01*
X29439981Y-80424298D01*
X29638802Y-80501321D01*
X29848390Y-80540500D01*
X29848392Y-80540500D01*
X30061608Y-80540500D01*
X30061610Y-80540500D01*
X30271198Y-80501321D01*
X30470019Y-80424298D01*
X30651302Y-80312052D01*
X30808872Y-80168407D01*
X30937366Y-79998255D01*
X30991270Y-79890000D01*
X31032403Y-79807394D01*
X31032403Y-79807393D01*
X31032405Y-79807389D01*
X31090756Y-79602310D01*
X31101529Y-79486047D01*
X31127315Y-79421111D01*
X31171869Y-79389194D01*
X31135497Y-79368331D01*
X31103307Y-79306318D01*
X31101529Y-79293951D01*
X31100849Y-79286613D01*
X31090756Y-79177690D01*
X31032405Y-78972611D01*
X31032403Y-78972606D01*
X31032403Y-78972605D01*
X30937367Y-78781746D01*
X30808872Y-78611593D01*
X30752804Y-78560480D01*
X30651302Y-78467948D01*
X30470019Y-78355702D01*
X30470017Y-78355701D01*
X30360718Y-78313359D01*
X30271198Y-78278679D01*
X30074385Y-78241888D01*
X30012106Y-78210221D01*
X29976833Y-78149908D01*
X29979767Y-78080100D01*
X30019976Y-78022960D01*
X30074384Y-77998111D01*
X30271198Y-77961321D01*
X30470019Y-77884298D01*
X30651302Y-77772052D01*
X30808872Y-77628407D01*
X30937366Y-77458255D01*
X30991270Y-77350000D01*
X31032403Y-77267394D01*
X31032403Y-77267393D01*
X31032405Y-77267389D01*
X31090756Y-77062310D01*
X31101529Y-76946047D01*
X31127315Y-76881111D01*
X31171869Y-76849194D01*
X31135497Y-76828331D01*
X31103307Y-76766318D01*
X31101529Y-76753951D01*
X31100849Y-76746613D01*
X31090756Y-76637690D01*
X31032405Y-76432611D01*
X31032403Y-76432606D01*
X31032403Y-76432605D01*
X30937367Y-76241746D01*
X30808872Y-76071593D01*
X30677874Y-75952172D01*
X30651302Y-75927948D01*
X30470019Y-75815702D01*
X30470017Y-75815701D01*
X30320829Y-75757906D01*
X30271198Y-75738679D01*
X30061610Y-75699500D01*
X29848390Y-75699500D01*
X29638802Y-75738679D01*
X29638799Y-75738679D01*
X29638799Y-75738680D01*
X29439982Y-75815701D01*
X29439980Y-75815702D01*
X29258699Y-75927947D01*
X29101128Y-76071592D01*
X29070059Y-76112734D01*
X29013949Y-76154369D01*
X28944237Y-76159059D01*
X28883425Y-76125686D01*
X26937261Y-74179522D01*
X26937259Y-74179520D01*
X26891596Y-74153156D01*
X26845935Y-74126793D01*
X26795003Y-74113146D01*
X26744073Y-74099500D01*
X26744072Y-74099500D01*
X24217254Y-74099500D01*
X24150215Y-74079815D01*
X24129573Y-74063181D01*
X23936819Y-73870426D01*
X23903334Y-73809103D01*
X23900500Y-73782745D01*
X23900500Y-69217254D01*
X23920185Y-69150215D01*
X23936819Y-69129573D01*
X25529573Y-67536819D01*
X25590896Y-67503334D01*
X25617254Y-67500500D01*
X27952725Y-67500500D01*
X27952727Y-67500500D01*
X28054588Y-67473207D01*
X28145913Y-67420480D01*
X28424992Y-67141399D01*
X28486311Y-67107917D01*
X28496485Y-67106144D01*
X28499997Y-67105681D01*
X28500000Y-67105682D01*
X28656762Y-67085044D01*
X28802841Y-67024536D01*
X28924515Y-66931171D01*
X28989683Y-66905979D01*
X29058127Y-66920017D01*
X29075478Y-66931167D01*
X29197159Y-67024536D01*
X29343238Y-67085044D01*
X29421619Y-67095363D01*
X29499999Y-67105682D01*
X29500000Y-67105682D01*
X29500001Y-67105682D01*
X29552254Y-67098802D01*
X29656762Y-67085044D01*
X29802841Y-67024536D01*
X29928282Y-66928282D01*
X30024536Y-66802841D01*
X30085044Y-66656762D01*
X30105682Y-66500000D01*
X30105681Y-66499997D01*
X30106144Y-66496485D01*
X30134410Y-66432589D01*
X30141391Y-66425000D01*
X30735703Y-65830687D01*
X30735708Y-65830684D01*
X30745911Y-65820480D01*
X30745913Y-65820480D01*
X30820480Y-65745913D01*
X30873207Y-65654587D01*
X30900501Y-65552727D01*
X30900501Y-65447273D01*
X30900501Y-65439678D01*
X30900500Y-65439660D01*
X30900500Y-65048348D01*
X30920185Y-64981309D01*
X30972989Y-64935554D01*
X31042147Y-64925610D01*
X31099985Y-64949972D01*
X31133206Y-64975463D01*
X31197157Y-65024535D01*
X31197158Y-65024535D01*
X31197159Y-65024536D01*
X31343238Y-65085044D01*
X31421619Y-65095363D01*
X31499999Y-65105682D01*
X31500000Y-65105682D01*
X31500001Y-65105682D01*
X31552254Y-65098802D01*
X31656762Y-65085044D01*
X31802841Y-65024536D01*
X31928282Y-64928282D01*
X32024536Y-64802841D01*
X32085044Y-64656762D01*
X32105682Y-64500000D01*
X32098740Y-64447273D01*
X32085044Y-64343239D01*
X32085044Y-64343238D01*
X32037743Y-64229045D01*
X32030275Y-64159579D01*
X32061550Y-64097100D01*
X32121638Y-64061447D01*
X32191464Y-64063940D01*
X32199757Y-64067034D01*
X32211066Y-64071718D01*
X32243238Y-64085044D01*
X32321619Y-64095363D01*
X32399999Y-64105682D01*
X32400000Y-64105682D01*
X32400001Y-64105682D01*
X32465187Y-64097100D01*
X32556762Y-64085044D01*
X32702841Y-64024536D01*
X32828282Y-63928282D01*
X32877125Y-63864628D01*
X32933552Y-63823426D01*
X33003298Y-63819271D01*
X33064218Y-63853483D01*
X33096971Y-63915200D01*
X33099500Y-63940115D01*
X33099500Y-64552726D01*
X33126793Y-64654589D01*
X33147563Y-64690563D01*
X33179520Y-64745913D01*
X33179521Y-64745914D01*
X33179522Y-64745915D01*
X34175179Y-65741571D01*
X34175189Y-65741582D01*
X34179519Y-65745912D01*
X34179520Y-65745913D01*
X34254087Y-65820480D01*
X34294768Y-65843967D01*
X34345413Y-65873207D01*
X34371605Y-65880225D01*
X34431265Y-65916591D01*
X34461794Y-65979438D01*
X34453499Y-66048813D01*
X34409013Y-66102691D01*
X34371606Y-66119774D01*
X34363364Y-66121982D01*
X34345410Y-66126793D01*
X34254087Y-66179520D01*
X34254084Y-66179522D01*
X32174522Y-68259084D01*
X32174518Y-68259090D01*
X32121792Y-68350412D01*
X32121793Y-68350413D01*
X32094500Y-68452273D01*
X32094500Y-75686394D01*
X32074815Y-75753433D01*
X32022011Y-75799188D01*
X32015295Y-75802020D01*
X31979987Y-75815698D01*
X31979979Y-75815702D01*
X31798699Y-75927947D01*
X31641127Y-76071593D01*
X31512632Y-76241746D01*
X31417596Y-76432605D01*
X31417596Y-76432607D01*
X31359244Y-76637689D01*
X31348471Y-76753951D01*
X31322685Y-76818888D01*
X31278130Y-76850804D01*
X31314503Y-76871668D01*
X31346693Y-76933681D01*
X31348470Y-76946047D01*
X31359244Y-77062310D01*
X31412675Y-77250099D01*
X31417596Y-77267392D01*
X31417596Y-77267394D01*
X31512632Y-77458253D01*
X31584385Y-77553268D01*
X31641128Y-77628407D01*
X31798698Y-77772052D01*
X31979981Y-77884298D01*
X32178802Y-77961321D01*
X32375613Y-77998111D01*
X32437893Y-78029779D01*
X32473166Y-78090092D01*
X32470232Y-78159900D01*
X32430023Y-78217040D01*
X32375613Y-78241888D01*
X32178802Y-78278679D01*
X32178799Y-78278679D01*
X32178799Y-78278680D01*
X31979982Y-78355701D01*
X31979980Y-78355702D01*
X31798699Y-78467947D01*
X31641127Y-78611593D01*
X31512632Y-78781746D01*
X31417596Y-78972605D01*
X31417596Y-78972607D01*
X31359244Y-79177689D01*
X31348471Y-79293951D01*
X31322685Y-79358888D01*
X31278130Y-79390804D01*
X31314503Y-79411668D01*
X31346693Y-79473681D01*
X31348470Y-79486047D01*
X31359244Y-79602310D01*
X31412675Y-79790099D01*
X31417596Y-79807392D01*
X31417596Y-79807394D01*
X31512632Y-79998253D01*
X31641127Y-80168406D01*
X31641128Y-80168407D01*
X31798698Y-80312052D01*
X31979981Y-80424298D01*
X32178802Y-80501321D01*
X32388390Y-80540500D01*
X32388392Y-80540500D01*
X32601608Y-80540500D01*
X32601610Y-80540500D01*
X32811198Y-80501321D01*
X33010019Y-80424298D01*
X33191302Y-80312052D01*
X33348872Y-80168407D01*
X33477366Y-79998255D01*
X33531270Y-79890000D01*
X33572403Y-79807394D01*
X33572403Y-79807393D01*
X33572405Y-79807389D01*
X33630756Y-79602310D01*
X33641529Y-79486047D01*
X33667315Y-79421111D01*
X33711869Y-79389194D01*
X33675497Y-79368331D01*
X33643307Y-79306318D01*
X33641529Y-79293951D01*
X33640849Y-79286613D01*
X33630756Y-79177690D01*
X33572405Y-78972611D01*
X33571609Y-78969813D01*
X33572195Y-78899946D01*
X33603192Y-78848199D01*
X33890910Y-78560481D01*
X33890913Y-78560480D01*
X33965480Y-78485913D01*
X34018207Y-78394587D01*
X34028626Y-78355702D01*
X34045501Y-78292727D01*
X34045501Y-78187273D01*
X34045501Y-78179678D01*
X34045500Y-78179660D01*
X34045500Y-77785599D01*
X34065185Y-77718560D01*
X34117989Y-77672805D01*
X34187147Y-77662861D01*
X34250703Y-77691886D01*
X34252996Y-77693924D01*
X34338698Y-77772052D01*
X34519981Y-77884298D01*
X34718802Y-77961321D01*
X34915613Y-77998111D01*
X34977893Y-78029779D01*
X35013166Y-78090092D01*
X35010232Y-78159900D01*
X34970023Y-78217040D01*
X34915613Y-78241888D01*
X34718802Y-78278679D01*
X34718799Y-78278679D01*
X34718799Y-78278680D01*
X34519982Y-78355701D01*
X34519980Y-78355702D01*
X34338699Y-78467947D01*
X34181125Y-78611595D01*
X34168684Y-78628070D01*
X34165523Y-78630415D01*
X34157331Y-78643104D01*
X34052633Y-78781746D01*
X33957596Y-78972605D01*
X33957596Y-78972607D01*
X33899244Y-79177689D01*
X33888471Y-79293951D01*
X33862685Y-79358888D01*
X33818130Y-79390804D01*
X33854503Y-79411668D01*
X33886693Y-79473681D01*
X33888470Y-79486047D01*
X33899244Y-79602310D01*
X33952675Y-79790099D01*
X33957596Y-79807392D01*
X33957596Y-79807394D01*
X34052632Y-79998253D01*
X34181127Y-80168406D01*
X34181128Y-80168407D01*
X34338698Y-80312052D01*
X34519981Y-80424298D01*
X34718802Y-80501321D01*
X34928390Y-80540500D01*
X34928392Y-80540500D01*
X35141608Y-80540500D01*
X35141610Y-80540500D01*
X35351198Y-80501321D01*
X35550019Y-80424298D01*
X35731302Y-80312052D01*
X35888872Y-80168407D01*
X36017366Y-79998255D01*
X36084325Y-79863781D01*
X36131825Y-79812548D01*
X36199488Y-79795126D01*
X36265828Y-79817051D01*
X36307705Y-79866651D01*
X36401399Y-80067578D01*
X36536894Y-80261082D01*
X36703917Y-80428105D01*
X36897421Y-80563600D01*
X37111507Y-80663429D01*
X37111516Y-80663433D01*
X37325000Y-80720634D01*
X37325000Y-79823012D01*
X37382007Y-79855925D01*
X37509174Y-79890000D01*
X37640826Y-79890000D01*
X37767993Y-79855925D01*
X37825000Y-79823012D01*
X37825000Y-80720633D01*
X38038483Y-80663433D01*
X38038492Y-80663429D01*
X38252578Y-80563600D01*
X38446082Y-80428105D01*
X38613105Y-80261082D01*
X38748600Y-80067578D01*
X38848429Y-79853492D01*
X38848432Y-79853486D01*
X38905636Y-79640000D01*
X38008012Y-79640000D01*
X38040925Y-79582993D01*
X38075000Y-79455826D01*
X38075000Y-79324174D01*
X38040925Y-79197007D01*
X38008012Y-79140000D01*
X38905636Y-79140000D01*
X38905635Y-79139999D01*
X38848432Y-78926513D01*
X38848429Y-78926507D01*
X38748600Y-78712422D01*
X38748599Y-78712420D01*
X38613113Y-78518926D01*
X38613108Y-78518920D01*
X38490665Y-78396477D01*
X38457180Y-78335154D01*
X38462164Y-78265462D01*
X38504036Y-78209529D01*
X38535013Y-78192614D01*
X38667086Y-78143354D01*
X38667093Y-78143350D01*
X38782187Y-78057190D01*
X38782190Y-78057187D01*
X38868350Y-77942093D01*
X38868354Y-77942086D01*
X38918596Y-77807379D01*
X38918598Y-77807372D01*
X38924999Y-77747844D01*
X38925000Y-77747827D01*
X38925000Y-77100000D01*
X38008012Y-77100000D01*
X38040925Y-77042993D01*
X38075000Y-76915826D01*
X38075000Y-76784174D01*
X38040925Y-76657007D01*
X38008012Y-76600000D01*
X38925000Y-76600000D01*
X38925000Y-75952172D01*
X38924999Y-75952155D01*
X38918598Y-75892627D01*
X38918596Y-75892620D01*
X38868354Y-75757913D01*
X38868350Y-75757906D01*
X38782190Y-75642812D01*
X38782187Y-75642809D01*
X38667093Y-75556649D01*
X38667086Y-75556645D01*
X38532379Y-75506403D01*
X38532372Y-75506401D01*
X38472844Y-75500000D01*
X37825000Y-75500000D01*
X37825000Y-76416988D01*
X37767993Y-76384075D01*
X37640826Y-76350000D01*
X37509174Y-76350000D01*
X37382007Y-76384075D01*
X37325000Y-76416988D01*
X37325000Y-75500000D01*
X36677155Y-75500000D01*
X36617627Y-75506401D01*
X36617620Y-75506403D01*
X36482913Y-75556645D01*
X36482906Y-75556649D01*
X36367812Y-75642809D01*
X36367809Y-75642812D01*
X36281649Y-75757906D01*
X36281645Y-75757913D01*
X36231403Y-75892620D01*
X36231401Y-75892627D01*
X36225000Y-75952155D01*
X36225000Y-76146731D01*
X36205315Y-76213770D01*
X36152511Y-76259525D01*
X36083353Y-76269469D01*
X36019797Y-76240444D01*
X36002046Y-76221458D01*
X35888872Y-76071593D01*
X35757874Y-75952172D01*
X35731302Y-75927948D01*
X35550019Y-75815702D01*
X35550017Y-75815701D01*
X35400829Y-75757906D01*
X35351198Y-75738679D01*
X35141610Y-75699500D01*
X34928390Y-75699500D01*
X34718802Y-75738679D01*
X34718799Y-75738679D01*
X34718799Y-75738680D01*
X34519982Y-75815701D01*
X34519980Y-75815702D01*
X34338696Y-75927949D01*
X34253038Y-76006037D01*
X34190234Y-76036654D01*
X34120847Y-76028456D01*
X34066907Y-75984047D01*
X34045539Y-75917524D01*
X34045500Y-75914400D01*
X34045500Y-69072255D01*
X34065185Y-69005216D01*
X34081819Y-68984574D01*
X35129574Y-67936819D01*
X35190897Y-67903334D01*
X35217255Y-67900500D01*
X36552725Y-67900500D01*
X36552727Y-67900500D01*
X36654588Y-67873207D01*
X36745913Y-67820480D01*
X37424991Y-67141400D01*
X37486312Y-67107917D01*
X37496485Y-67106144D01*
X37499997Y-67105681D01*
X37500000Y-67105682D01*
X37656762Y-67085044D01*
X37802841Y-67024536D01*
X37924515Y-66931171D01*
X37989683Y-66905979D01*
X38058127Y-66920017D01*
X38075478Y-66931167D01*
X38197159Y-67024536D01*
X38343238Y-67085044D01*
X38421619Y-67095363D01*
X38499999Y-67105682D01*
X38500000Y-67105682D01*
X38500001Y-67105682D01*
X38552254Y-67098802D01*
X38656762Y-67085044D01*
X38802841Y-67024536D01*
X38928282Y-66928282D01*
X39024536Y-66802841D01*
X39085044Y-66656762D01*
X39105682Y-66500000D01*
X39085044Y-66343238D01*
X39024536Y-66197159D01*
X38928282Y-66071718D01*
X38802841Y-65975464D01*
X38656762Y-65914956D01*
X38600577Y-65907559D01*
X38496485Y-65893855D01*
X38432589Y-65865588D01*
X38424990Y-65858597D01*
X37745915Y-65179522D01*
X37745913Y-65179520D01*
X37700250Y-65153156D01*
X37654589Y-65126793D01*
X37603657Y-65113146D01*
X37552727Y-65099500D01*
X37552726Y-65099500D01*
X34717254Y-65099500D01*
X34650215Y-65079815D01*
X34629573Y-65063181D01*
X33936819Y-64370426D01*
X33903334Y-64309103D01*
X33900500Y-64282745D01*
X33900500Y-60841519D01*
X33920185Y-60774480D01*
X33936814Y-60753843D01*
X35424991Y-59265665D01*
X35486312Y-59232182D01*
X35496485Y-59230409D01*
X35499997Y-59229946D01*
X35500000Y-59229947D01*
X35656762Y-59209309D01*
X35802841Y-59148801D01*
X35928282Y-59052547D01*
X35928283Y-59052544D01*
X35931093Y-59050389D01*
X35996263Y-59025195D01*
X36006580Y-59024765D01*
X36276989Y-59024765D01*
X36276991Y-59024765D01*
X36378852Y-58997472D01*
X36470177Y-58944745D01*
X38920480Y-56494442D01*
X38973207Y-56403117D01*
X39000500Y-56301256D01*
X39000500Y-56195802D01*
X39000500Y-55698744D01*
X38986344Y-55645912D01*
X38973207Y-55596883D01*
X38920480Y-55505558D01*
X38597559Y-55182637D01*
X38564074Y-55121314D01*
X38566949Y-55081109D01*
X38535829Y-55088269D01*
X38481202Y-55071875D01*
X38403120Y-55026794D01*
X38403117Y-55026793D01*
X38301256Y-54999500D01*
X38301255Y-54999500D01*
X38117255Y-54999500D01*
X38050216Y-54979815D01*
X38029574Y-54963181D01*
X37936819Y-54870426D01*
X37903334Y-54809103D01*
X37900500Y-54782745D01*
X37900500Y-54499998D01*
X38494318Y-54499998D01*
X38494318Y-54500001D01*
X38514955Y-54656760D01*
X38514956Y-54656762D01*
X38575464Y-54802842D01*
X38641577Y-54889001D01*
X38666772Y-54954170D01*
X38662176Y-54976574D01*
X38676394Y-54971272D01*
X38744667Y-54986124D01*
X38760719Y-54996575D01*
X38797159Y-55024536D01*
X38943238Y-55085044D01*
X38993355Y-55091642D01*
X39099999Y-55105682D01*
X39100000Y-55105682D01*
X39206642Y-55091642D01*
X39275675Y-55102407D01*
X39310507Y-55126900D01*
X40463181Y-56279574D01*
X40496666Y-56340897D01*
X40499500Y-56367255D01*
X40499500Y-57518163D01*
X40479815Y-57585202D01*
X40450987Y-57616539D01*
X40347453Y-57695983D01*
X40251198Y-57821425D01*
X40190691Y-57967502D01*
X40190690Y-57967504D01*
X40170053Y-58124263D01*
X40170053Y-58124266D01*
X40190690Y-58281025D01*
X40190691Y-58281027D01*
X40251199Y-58427106D01*
X40347453Y-58552547D01*
X40472894Y-58648801D01*
X40618973Y-58709309D01*
X40697354Y-58719628D01*
X40775734Y-58729947D01*
X40775735Y-58729947D01*
X40775736Y-58729947D01*
X40827989Y-58723067D01*
X40932497Y-58709309D01*
X41078576Y-58648801D01*
X41204017Y-58552547D01*
X41300271Y-58427106D01*
X41360779Y-58281027D01*
X41381417Y-58124265D01*
X41360779Y-57967503D01*
X41345105Y-57929663D01*
X41309939Y-57844762D01*
X41300500Y-57797310D01*
X41300500Y-56097275D01*
X41300500Y-56097273D01*
X41273207Y-55995413D01*
X41220480Y-55904087D01*
X41145913Y-55829520D01*
X39717840Y-54401447D01*
X39688490Y-54350609D01*
X39688155Y-54350748D01*
X39687099Y-54348200D01*
X39685744Y-54345852D01*
X39685044Y-54343244D01*
X39685044Y-54343238D01*
X39624536Y-54197159D01*
X39528282Y-54071718D01*
X39402841Y-53975464D01*
X39379471Y-53965784D01*
X39256762Y-53914956D01*
X39256760Y-53914955D01*
X39100001Y-53894318D01*
X39099999Y-53894318D01*
X38943239Y-53914955D01*
X38943237Y-53914956D01*
X38797160Y-53975463D01*
X38671718Y-54071718D01*
X38575463Y-54197160D01*
X38514956Y-54343237D01*
X38514955Y-54343239D01*
X38494318Y-54499998D01*
X37900500Y-54499998D01*
X37900500Y-53695804D01*
X37900500Y-53695802D01*
X37873207Y-53593942D01*
X37873207Y-53593941D01*
X37820480Y-53502616D01*
X33817862Y-49499998D01*
X39894318Y-49499998D01*
X39894318Y-49500001D01*
X39914955Y-49656760D01*
X39914956Y-49656762D01*
X39975464Y-49802841D01*
X40071718Y-49928282D01*
X40197159Y-50024536D01*
X40343238Y-50085044D01*
X40500000Y-50105682D01*
X40500001Y-50105681D01*
X40503513Y-50106144D01*
X40567410Y-50134410D01*
X40575009Y-50141402D01*
X41063181Y-50629573D01*
X41096666Y-50690896D01*
X41099500Y-50717254D01*
X41099500Y-52993419D01*
X41079815Y-53060458D01*
X41073876Y-53068905D01*
X40975464Y-53197157D01*
X40914956Y-53343237D01*
X40914955Y-53343239D01*
X40894318Y-53499998D01*
X40894318Y-53500001D01*
X40914955Y-53656760D01*
X40914956Y-53656762D01*
X40975464Y-53802841D01*
X41071718Y-53928282D01*
X41197159Y-54024536D01*
X41343238Y-54085044D01*
X41421619Y-54095363D01*
X41499999Y-54105682D01*
X41500000Y-54105682D01*
X41500001Y-54105682D01*
X41552254Y-54098802D01*
X41656762Y-54085044D01*
X41802841Y-54024536D01*
X41928282Y-53928282D01*
X42024536Y-53802841D01*
X42085044Y-53656762D01*
X42105682Y-53500000D01*
X42085044Y-53343238D01*
X42024536Y-53197159D01*
X42024535Y-53197158D01*
X42024535Y-53197157D01*
X41926124Y-53068905D01*
X41900930Y-53003736D01*
X41900500Y-52993419D01*
X41900500Y-50562729D01*
X41900501Y-50562716D01*
X41900501Y-50447274D01*
X41900501Y-50447273D01*
X41873207Y-50345413D01*
X41820480Y-50254087D01*
X41745913Y-50179520D01*
X41745912Y-50179519D01*
X41741582Y-50175189D01*
X41741571Y-50175179D01*
X41141402Y-49575009D01*
X41107917Y-49513686D01*
X41106144Y-49503513D01*
X41105681Y-49499998D01*
X41085044Y-49343238D01*
X41024536Y-49197159D01*
X40928282Y-49071718D01*
X40802841Y-48975464D01*
X40656762Y-48914956D01*
X40656760Y-48914955D01*
X40500001Y-48894318D01*
X40499999Y-48894318D01*
X40343239Y-48914955D01*
X40343237Y-48914956D01*
X40197160Y-48975463D01*
X40071718Y-49071718D01*
X39975463Y-49197160D01*
X39914956Y-49343237D01*
X39914955Y-49343239D01*
X39894318Y-49499998D01*
X33817862Y-49499998D01*
X30986819Y-46668955D01*
X30953334Y-46607632D01*
X30950500Y-46581274D01*
X30950500Y-27941419D01*
X30970185Y-27874380D01*
X30976124Y-27865933D01*
X30999500Y-27835468D01*
X31024536Y-27802841D01*
X31085044Y-27656762D01*
X31105682Y-27500000D01*
X31101808Y-27470577D01*
X31088989Y-27373207D01*
X31085044Y-27343238D01*
X31024536Y-27197159D01*
X31024534Y-27197156D01*
X31020472Y-27190119D01*
X31023228Y-27188527D01*
X31003429Y-27137320D01*
X31017465Y-27068875D01*
X31066278Y-27018884D01*
X31134369Y-27003218D01*
X31188787Y-27022778D01*
X31190119Y-27020472D01*
X31197157Y-27024534D01*
X31197159Y-27024536D01*
X31343238Y-27085044D01*
X31500000Y-27105682D01*
X31500001Y-27105681D01*
X31503512Y-27106144D01*
X31567409Y-27134410D01*
X31575008Y-27141401D01*
X31675184Y-27241576D01*
X31675205Y-27241599D01*
X31717236Y-27283629D01*
X31750722Y-27344951D01*
X31745738Y-27414643D01*
X31703868Y-27470577D01*
X31701445Y-27472175D01*
X31571718Y-27571718D01*
X31475463Y-27697160D01*
X31414956Y-27843237D01*
X31414955Y-27843239D01*
X31394318Y-27999998D01*
X31394318Y-28000001D01*
X31414955Y-28156760D01*
X31414956Y-28156761D01*
X31414956Y-28156762D01*
X31475464Y-28302841D01*
X31571718Y-28428282D01*
X31571720Y-28428283D01*
X31573876Y-28431093D01*
X31599070Y-28496263D01*
X31599500Y-28506580D01*
X31599500Y-29552726D01*
X31626793Y-29654589D01*
X31653156Y-29700250D01*
X31679520Y-29745913D01*
X31679522Y-29745915D01*
X33063181Y-31129574D01*
X33096666Y-31190897D01*
X33099500Y-31217255D01*
X33099500Y-32493419D01*
X33079815Y-32560458D01*
X33073876Y-32568905D01*
X32975464Y-32697157D01*
X32914956Y-32843237D01*
X32914955Y-32843239D01*
X32894318Y-32999998D01*
X32894318Y-33000002D01*
X32896355Y-33015477D01*
X32885589Y-33084512D01*
X32839208Y-33136768D01*
X32771939Y-33155652D01*
X32705139Y-33135170D01*
X32685735Y-33119342D01*
X32641402Y-33075009D01*
X32607917Y-33013686D01*
X32606144Y-33003513D01*
X32605681Y-32999999D01*
X32585044Y-32843238D01*
X32524536Y-32697159D01*
X32428282Y-32571718D01*
X32302841Y-32475464D01*
X32156762Y-32414956D01*
X32156760Y-32414955D01*
X32000001Y-32394318D01*
X31999999Y-32394318D01*
X31843239Y-32414955D01*
X31843237Y-32414956D01*
X31697160Y-32475463D01*
X31571718Y-32571718D01*
X31475463Y-32697160D01*
X31414956Y-32843237D01*
X31414955Y-32843239D01*
X31394318Y-32999998D01*
X31394318Y-33000001D01*
X31414955Y-33156760D01*
X31414956Y-33156762D01*
X31475464Y-33302841D01*
X31571718Y-33428282D01*
X31697159Y-33524536D01*
X31843238Y-33585044D01*
X32000000Y-33605682D01*
X32000001Y-33605681D01*
X32003513Y-33606144D01*
X32067410Y-33634410D01*
X32075009Y-33641402D01*
X32354087Y-33920480D01*
X32445412Y-33973207D01*
X32547273Y-34000500D01*
X32547275Y-34000500D01*
X34952725Y-34000500D01*
X34952727Y-34000500D01*
X35054588Y-33973207D01*
X35145913Y-33920480D01*
X35629574Y-33436819D01*
X35690897Y-33403334D01*
X35717255Y-33400500D01*
X36233746Y-33400500D01*
X36300785Y-33420185D01*
X36346540Y-33472989D01*
X36356484Y-33542147D01*
X36327459Y-33605703D01*
X36321427Y-33612181D01*
X35279522Y-34654084D01*
X35279518Y-34654090D01*
X35226792Y-34745412D01*
X35226793Y-34745413D01*
X35199500Y-34847273D01*
X35199500Y-35493419D01*
X35179815Y-35560458D01*
X35173876Y-35568905D01*
X35075464Y-35697157D01*
X35014956Y-35843237D01*
X35014955Y-35843239D01*
X34994318Y-35999998D01*
X34994318Y-36000001D01*
X35014955Y-36156760D01*
X35014956Y-36156762D01*
X35075464Y-36302841D01*
X35171718Y-36428282D01*
X35171720Y-36428283D01*
X35173876Y-36431093D01*
X35199070Y-36496263D01*
X35199500Y-36506580D01*
X35199500Y-39182743D01*
X35179815Y-39249782D01*
X35163181Y-39270425D01*
X35075007Y-39358598D01*
X35013683Y-39392082D01*
X35003512Y-39393855D01*
X34843238Y-39414956D01*
X34843237Y-39414956D01*
X34697160Y-39475463D01*
X34571718Y-39571718D01*
X34475463Y-39697160D01*
X34414956Y-39843237D01*
X34414955Y-39843239D01*
X34394318Y-39999998D01*
X34394318Y-40000001D01*
X34414955Y-40156760D01*
X34414956Y-40156762D01*
X34475464Y-40302842D01*
X34513535Y-40352457D01*
X34538729Y-40417626D01*
X34524690Y-40486071D01*
X34513536Y-40503428D01*
X34499727Y-40521424D01*
X34439219Y-40667503D01*
X34439219Y-40667504D01*
X34418118Y-40827779D01*
X34389851Y-40891675D01*
X34382861Y-40899274D01*
X34218953Y-41063182D01*
X34157633Y-41096666D01*
X34131274Y-41099500D01*
X32506580Y-41099500D01*
X32439541Y-41079815D01*
X32431093Y-41073876D01*
X32428283Y-41071720D01*
X32428282Y-41071718D01*
X32302841Y-40975464D01*
X32156762Y-40914956D01*
X32156760Y-40914955D01*
X32000001Y-40894318D01*
X31999999Y-40894318D01*
X31843239Y-40914955D01*
X31843237Y-40914956D01*
X31697160Y-40975463D01*
X31571718Y-41071718D01*
X31475463Y-41197160D01*
X31414956Y-41343237D01*
X31414955Y-41343239D01*
X31394318Y-41499998D01*
X31394318Y-41500001D01*
X31414955Y-41656760D01*
X31414956Y-41656762D01*
X31475464Y-41802841D01*
X31571718Y-41928282D01*
X31697159Y-42024536D01*
X31843238Y-42085044D01*
X31921619Y-42095363D01*
X31999999Y-42105682D01*
X32000000Y-42105682D01*
X32000001Y-42105682D01*
X32052254Y-42098802D01*
X32156762Y-42085044D01*
X32302841Y-42024536D01*
X32428282Y-41928282D01*
X32428283Y-41928279D01*
X32431093Y-41926124D01*
X32496263Y-41900930D01*
X32506580Y-41900500D01*
X34401254Y-41900500D01*
X34401256Y-41900500D01*
X34503117Y-41873207D01*
X34594442Y-41820480D01*
X34949254Y-41465666D01*
X35010575Y-41432183D01*
X35020748Y-41430410D01*
X35024260Y-41429947D01*
X35024263Y-41429948D01*
X35181025Y-41409310D01*
X35327104Y-41348802D01*
X35452545Y-41252548D01*
X35548799Y-41127107D01*
X35609307Y-40981028D01*
X35629945Y-40824266D01*
X35609307Y-40667504D01*
X35548799Y-40521425D01*
X35548798Y-40521424D01*
X35548798Y-40521423D01*
X35510727Y-40471808D01*
X35485533Y-40406639D01*
X35499571Y-40338194D01*
X35510723Y-40320842D01*
X35524536Y-40302841D01*
X35585044Y-40156762D01*
X35605682Y-40000000D01*
X35605681Y-39999997D01*
X35606144Y-39996485D01*
X35634410Y-39932589D01*
X35641377Y-39925014D01*
X35920480Y-39645913D01*
X35973207Y-39554588D01*
X36000500Y-39452727D01*
X36000500Y-39347273D01*
X36000500Y-36506580D01*
X36020185Y-36439541D01*
X36026124Y-36431093D01*
X36028279Y-36428283D01*
X36028282Y-36428282D01*
X36124536Y-36302841D01*
X36185044Y-36156762D01*
X36205682Y-36000000D01*
X36185044Y-35843238D01*
X36124536Y-35697159D01*
X36124535Y-35697158D01*
X36124535Y-35697157D01*
X36026124Y-35568905D01*
X36000930Y-35503736D01*
X36000500Y-35493419D01*
X36000500Y-35117253D01*
X36020185Y-35050214D01*
X36036814Y-35029577D01*
X37412318Y-33654072D01*
X37473641Y-33620588D01*
X37543333Y-33625572D01*
X37587680Y-33654073D01*
X43563181Y-39629574D01*
X43596666Y-39690897D01*
X43599500Y-39717255D01*
X43599500Y-47233745D01*
X43579815Y-47300784D01*
X43527011Y-47346539D01*
X43457853Y-47356483D01*
X43394297Y-47327458D01*
X43387819Y-47321426D01*
X42745915Y-46679522D01*
X42745913Y-46679520D01*
X42700250Y-46653156D01*
X42654589Y-46626793D01*
X42603657Y-46613146D01*
X42552727Y-46599500D01*
X42552726Y-46599500D01*
X34006580Y-46599500D01*
X33939541Y-46579815D01*
X33931093Y-46573876D01*
X33928283Y-46571720D01*
X33928282Y-46571718D01*
X33802841Y-46475464D01*
X33656762Y-46414956D01*
X33656760Y-46414955D01*
X33500001Y-46394318D01*
X33499999Y-46394318D01*
X33343239Y-46414955D01*
X33343237Y-46414956D01*
X33197160Y-46475463D01*
X33071718Y-46571718D01*
X32975463Y-46697160D01*
X32914956Y-46843237D01*
X32914955Y-46843239D01*
X32894318Y-46999998D01*
X32894318Y-47000001D01*
X32914955Y-47156760D01*
X32914956Y-47156762D01*
X32975464Y-47302841D01*
X33071718Y-47428282D01*
X33197159Y-47524536D01*
X33343238Y-47585044D01*
X33421619Y-47595363D01*
X33499999Y-47605682D01*
X33500000Y-47605682D01*
X33500001Y-47605682D01*
X33552254Y-47598802D01*
X33656762Y-47585044D01*
X33802841Y-47524536D01*
X33928282Y-47428282D01*
X33928283Y-47428279D01*
X33931093Y-47426124D01*
X33996263Y-47400930D01*
X34006580Y-47400500D01*
X42282745Y-47400500D01*
X42349784Y-47420185D01*
X42370426Y-47436819D01*
X42858597Y-47924990D01*
X42892082Y-47986313D01*
X42893855Y-47996485D01*
X42914956Y-48156761D01*
X42914956Y-48156762D01*
X42974183Y-48299750D01*
X42975464Y-48302841D01*
X43071718Y-48428282D01*
X43197159Y-48524536D01*
X43343238Y-48585044D01*
X43491686Y-48604587D01*
X43555582Y-48632853D01*
X43594053Y-48691178D01*
X43599500Y-48727526D01*
X43599500Y-64227395D01*
X43579815Y-64294434D01*
X43563181Y-64315076D01*
X42815076Y-65063181D01*
X42753753Y-65096666D01*
X42727395Y-65099500D01*
X41006580Y-65099500D01*
X40939541Y-65079815D01*
X40931093Y-65073876D01*
X40928283Y-65071720D01*
X40928282Y-65071718D01*
X40802841Y-64975464D01*
X40741300Y-64949973D01*
X40656762Y-64914956D01*
X40656760Y-64914955D01*
X40500001Y-64894318D01*
X40499999Y-64894318D01*
X40343239Y-64914955D01*
X40343237Y-64914956D01*
X40197160Y-64975463D01*
X40071718Y-65071718D01*
X39975463Y-65197160D01*
X39914956Y-65343237D01*
X39914955Y-65343239D01*
X39894318Y-65499998D01*
X39894318Y-65500001D01*
X39914955Y-65656760D01*
X39914956Y-65656762D01*
X39975464Y-65802841D01*
X40071718Y-65928282D01*
X40197159Y-66024536D01*
X40343238Y-66085044D01*
X40411418Y-66094020D01*
X40499999Y-66105682D01*
X40500000Y-66105682D01*
X40500001Y-66105682D01*
X40552254Y-66098802D01*
X40656762Y-66085044D01*
X40802841Y-66024536D01*
X40928282Y-65928282D01*
X40928283Y-65928279D01*
X40931093Y-65926124D01*
X40996263Y-65900930D01*
X41006580Y-65900500D01*
X42997375Y-65900500D01*
X42997377Y-65900500D01*
X43099238Y-65873207D01*
X43190563Y-65820480D01*
X44287819Y-64723224D01*
X44349142Y-64689739D01*
X44418834Y-64694723D01*
X44474767Y-64736595D01*
X44499184Y-64802059D01*
X44499500Y-64810905D01*
X44499500Y-82875500D01*
X44479815Y-82942539D01*
X44427011Y-82988294D01*
X44375500Y-82999500D01*
X20624500Y-82999500D01*
X20557461Y-82979815D01*
X20511706Y-82927011D01*
X20500500Y-82875500D01*
X20500500Y-23733704D01*
X27180000Y-23733704D01*
X27180000Y-24132200D01*
X27880000Y-24132200D01*
X27880000Y-24632200D01*
X27180000Y-24632200D01*
X27180000Y-25030695D01*
X27218427Y-25223881D01*
X27218430Y-25223893D01*
X27293807Y-25405871D01*
X27293814Y-25405884D01*
X27403248Y-25569662D01*
X27403251Y-25569666D01*
X27542533Y-25708948D01*
X27542537Y-25708951D01*
X27706315Y-25818385D01*
X27706328Y-25818392D01*
X27888308Y-25893769D01*
X27930000Y-25902062D01*
X27930000Y-25099188D01*
X27939940Y-25116405D01*
X27995795Y-25172260D01*
X28064204Y-25211756D01*
X28140504Y-25232200D01*
X28219496Y-25232200D01*
X28295796Y-25211756D01*
X28364205Y-25172260D01*
X28420060Y-25116405D01*
X28430000Y-25099188D01*
X28430000Y-25902062D01*
X28471690Y-25893769D01*
X28471692Y-25893769D01*
X28653671Y-25818392D01*
X28653684Y-25818385D01*
X28817462Y-25708951D01*
X28817466Y-25708948D01*
X28956748Y-25569666D01*
X28956751Y-25569662D01*
X29066185Y-25405884D01*
X29066192Y-25405871D01*
X29141569Y-25223893D01*
X29141572Y-25223881D01*
X29179999Y-25030695D01*
X29180000Y-25030692D01*
X29180000Y-24781828D01*
X29199685Y-24714789D01*
X29252489Y-24669034D01*
X29321647Y-24659090D01*
X29346410Y-24665306D01*
X29380669Y-24677776D01*
X29411142Y-24687785D01*
X29411143Y-24687785D01*
X29411148Y-24687787D01*
X29553564Y-24708263D01*
X29553567Y-24708263D01*
X29666423Y-24708263D01*
X29666436Y-24708263D01*
X29698500Y-24707245D01*
X29839331Y-24677776D01*
X29945395Y-24639171D01*
X29975171Y-24627251D01*
X30097429Y-24551393D01*
X30183893Y-24478841D01*
X30207797Y-24457455D01*
X30296739Y-24344358D01*
X30353175Y-24246609D01*
X30368325Y-24218333D01*
X30413220Y-24081636D01*
X30432820Y-23970479D01*
X30437385Y-23938729D01*
X30433828Y-23826666D01*
X34562615Y-23826666D01*
X34562615Y-23826668D01*
X34567180Y-23970481D01*
X34586779Y-24081633D01*
X34593349Y-24113034D01*
X34646823Y-24246605D01*
X34646824Y-24246608D01*
X34703250Y-24344340D01*
X34703258Y-24344354D01*
X34703261Y-24344358D01*
X34720172Y-24371612D01*
X34720174Y-24371614D01*
X34816105Y-24478840D01*
X34885990Y-24537480D01*
X34902571Y-24551393D01*
X34902574Y-24551395D01*
X34927783Y-24571221D01*
X34991193Y-24605195D01*
X35054605Y-24639171D01*
X35160669Y-24677776D01*
X35160689Y-24677782D01*
X35160693Y-24677784D01*
X35191142Y-24687785D01*
X35191143Y-24687785D01*
X35191148Y-24687787D01*
X35333564Y-24708263D01*
X35333567Y-24708263D01*
X35446423Y-24708263D01*
X35446436Y-24708263D01*
X35478500Y-24707245D01*
X35619331Y-24677776D01*
X35653588Y-24665306D01*
X35723317Y-24660874D01*
X35784373Y-24694844D01*
X35817371Y-24756430D01*
X35820000Y-24781828D01*
X35820000Y-25030695D01*
X35858427Y-25223881D01*
X35858430Y-25223893D01*
X35933807Y-25405871D01*
X35933814Y-25405884D01*
X36043248Y-25569662D01*
X36043251Y-25569666D01*
X36182533Y-25708948D01*
X36182537Y-25708951D01*
X36346315Y-25818385D01*
X36346328Y-25818392D01*
X36528308Y-25893769D01*
X36570000Y-25902062D01*
X36570000Y-25099188D01*
X36579940Y-25116405D01*
X36635795Y-25172260D01*
X36704204Y-25211756D01*
X36780504Y-25232200D01*
X36859496Y-25232200D01*
X36935796Y-25211756D01*
X37004205Y-25172260D01*
X37060060Y-25116405D01*
X37070000Y-25099188D01*
X37070000Y-25902062D01*
X37111690Y-25893769D01*
X37111692Y-25893769D01*
X37293671Y-25818392D01*
X37293684Y-25818385D01*
X37457462Y-25708951D01*
X37457466Y-25708948D01*
X37596748Y-25569666D01*
X37596751Y-25569662D01*
X37706185Y-25405884D01*
X37706192Y-25405871D01*
X37781569Y-25223893D01*
X37781572Y-25223881D01*
X37819999Y-25030695D01*
X37820000Y-25030692D01*
X37820000Y-24632200D01*
X37120000Y-24632200D01*
X37120000Y-24132200D01*
X37820000Y-24132200D01*
X37820000Y-23733708D01*
X37819999Y-23733704D01*
X37781572Y-23540518D01*
X37781569Y-23540506D01*
X37706192Y-23358528D01*
X37706185Y-23358515D01*
X37596751Y-23194737D01*
X37596748Y-23194733D01*
X37457466Y-23055451D01*
X37457462Y-23055448D01*
X37293684Y-22946014D01*
X37293671Y-22946007D01*
X37111691Y-22870629D01*
X37111683Y-22870627D01*
X37070000Y-22862335D01*
X37070000Y-23665211D01*
X37060060Y-23647995D01*
X37004205Y-23592140D01*
X36935796Y-23552644D01*
X36859496Y-23532200D01*
X36780504Y-23532200D01*
X36704204Y-23552644D01*
X36635795Y-23592140D01*
X36579940Y-23647995D01*
X36570000Y-23665211D01*
X36570000Y-22862336D01*
X36569999Y-22862335D01*
X36528316Y-22870627D01*
X36528308Y-22870629D01*
X36346328Y-22946007D01*
X36346315Y-22946014D01*
X36182537Y-23055448D01*
X36182533Y-23055451D01*
X36038941Y-23199044D01*
X36037366Y-23197469D01*
X35987851Y-23231172D01*
X35918006Y-23233018D01*
X35873131Y-23210627D01*
X35852218Y-23194180D01*
X35852217Y-23194179D01*
X35725395Y-23126229D01*
X35725393Y-23126228D01*
X35619306Y-23087615D01*
X35588857Y-23077614D01*
X35588859Y-23077614D01*
X35585742Y-23077165D01*
X35446436Y-23057137D01*
X35333564Y-23057137D01*
X35307512Y-23057964D01*
X35301497Y-23058155D01*
X35160672Y-23087623D01*
X35054583Y-23126237D01*
X35024835Y-23138146D01*
X35024828Y-23138149D01*
X34902574Y-23214004D01*
X34902573Y-23214005D01*
X34816107Y-23286558D01*
X34792207Y-23307940D01*
X34703263Y-23421039D01*
X34646818Y-23518802D01*
X34631673Y-23547069D01*
X34586782Y-23683756D01*
X34586779Y-23683766D01*
X34567179Y-23794923D01*
X34562615Y-23826666D01*
X30433828Y-23826666D01*
X30432820Y-23794921D01*
X30413220Y-23683764D01*
X30406650Y-23652365D01*
X30353175Y-23518791D01*
X30296739Y-23421042D01*
X30279828Y-23393788D01*
X30248270Y-23358515D01*
X30183894Y-23286559D01*
X30097429Y-23214007D01*
X30072216Y-23194178D01*
X29945395Y-23126229D01*
X29945393Y-23126228D01*
X29839306Y-23087615D01*
X29808857Y-23077614D01*
X29808859Y-23077614D01*
X29805742Y-23077165D01*
X29666436Y-23057137D01*
X29553564Y-23057137D01*
X29527512Y-23057964D01*
X29521497Y-23058155D01*
X29380672Y-23087623D01*
X29274583Y-23126237D01*
X29244835Y-23138146D01*
X29244828Y-23138149D01*
X29118807Y-23216342D01*
X29118215Y-23215389D01*
X29057167Y-23237060D01*
X28989139Y-23221124D01*
X28961904Y-23198198D01*
X28961059Y-23199044D01*
X28817466Y-23055451D01*
X28817462Y-23055448D01*
X28653684Y-22946014D01*
X28653671Y-22946007D01*
X28471691Y-22870629D01*
X28471683Y-22870627D01*
X28430000Y-22862335D01*
X28430000Y-23665211D01*
X28420060Y-23647995D01*
X28364205Y-23592140D01*
X28295796Y-23552644D01*
X28219496Y-23532200D01*
X28140504Y-23532200D01*
X28064204Y-23552644D01*
X27995795Y-23592140D01*
X27939940Y-23647995D01*
X27930000Y-23665211D01*
X27930000Y-22862336D01*
X27929999Y-22862335D01*
X27888316Y-22870627D01*
X27888308Y-22870629D01*
X27706328Y-22946007D01*
X27706315Y-22946014D01*
X27542537Y-23055448D01*
X27542533Y-23055451D01*
X27403251Y-23194733D01*
X27403248Y-23194737D01*
X27293814Y-23358515D01*
X27293807Y-23358528D01*
X27218430Y-23540506D01*
X27218427Y-23540518D01*
X27180000Y-23733704D01*
X20500500Y-23733704D01*
X20500500Y-19124500D01*
X20520185Y-19057461D01*
X20572989Y-19011706D01*
X20624500Y-19000500D01*
X27301046Y-19000500D01*
X27368085Y-19020185D01*
G37*
%TD.AperFunction*%
%TA.AperFunction,Conductor*%
G36*
X37825000Y-78956988D02*
G01*
X37767993Y-78924075D01*
X37640826Y-78890000D01*
X37509174Y-78890000D01*
X37382007Y-78924075D01*
X37325000Y-78956988D01*
X37325000Y-77283012D01*
X37382007Y-77315925D01*
X37509174Y-77350000D01*
X37640826Y-77350000D01*
X37767993Y-77315925D01*
X37825000Y-77283012D01*
X37825000Y-78956988D01*
G37*
%TD.AperFunction*%
%TD*%
M02*
