%TF.GenerationSoftware,KiCad,Pcbnew,8.0.8*%
%TF.CreationDate,2025-04-09T23:46:12+08:00*%
%TF.ProjectId,usb-4uart,7573622d-3475-4617-9274-2e6b69636164,rev?*%
%TF.SameCoordinates,Original*%
%TF.FileFunction,Drillmap*%
%TF.FilePolarity,Positive*%
%FSLAX45Y45*%
G04 Gerber Fmt 4.5, Leading zero omitted, Abs format (unit mm)*
G04 Created by KiCad (PCBNEW 8.0.8) date 2025-04-09 23:46:12*
%MOMM*%
%LPD*%
G01*
G04 APERTURE LIST*
%ADD10C,0.050000*%
%ADD11C,0.000000*%
%ADD12C,0.200000*%
%ADD13C,0.100000*%
G04 APERTURE END LIST*
D10*
X2000000Y-1850000D02*
X4500000Y-1850000D01*
X4500000Y-8350000D01*
X2000000Y-8350000D01*
X2000000Y-1850000D01*
D11*
G36*
X2977250Y-2360124D02*
G01*
X2985896Y-2367379D01*
X2991540Y-2377154D01*
X2993500Y-2388270D01*
X2991540Y-2399386D01*
X2985896Y-2409161D01*
X2977250Y-2416416D01*
X2966644Y-2420276D01*
X2955356Y-2420276D01*
X2944750Y-2416416D01*
X2936104Y-2409161D01*
X2930460Y-2399386D01*
X2928500Y-2388270D01*
X2930460Y-2377154D01*
X2936104Y-2367379D01*
X2944750Y-2360124D01*
X2955356Y-2356264D01*
X2966644Y-2356264D01*
X2977250Y-2360124D01*
G37*
G36*
X3555250Y-2360124D02*
G01*
X3563896Y-2367379D01*
X3569540Y-2377154D01*
X3571500Y-2388270D01*
X3569540Y-2399386D01*
X3563896Y-2409161D01*
X3555250Y-2416416D01*
X3544644Y-2420276D01*
X3533356Y-2420276D01*
X3522750Y-2416416D01*
X3514104Y-2409161D01*
X3508460Y-2399386D01*
X3506500Y-2388270D01*
X3508460Y-2377154D01*
X3514104Y-2367379D01*
X3522750Y-2360124D01*
X3533356Y-2356264D01*
X3544644Y-2356264D01*
X3555250Y-2360124D01*
G37*
D12*
D13*
X2285000Y-7635000D02*
X2315000Y-7665000D01*
X2315000Y-7635000D02*
X2285000Y-7665000D01*
X2385000Y-2085000D02*
X2415000Y-2115000D01*
X2415000Y-2085000D02*
X2385000Y-2115000D01*
X2435000Y-4135000D02*
X2465000Y-4165000D01*
X2465000Y-4135000D02*
X2435000Y-4165000D01*
X2435000Y-7335000D02*
X2465000Y-7365000D01*
X2465000Y-7335000D02*
X2435000Y-7365000D01*
X2635000Y-5785000D02*
X2665000Y-5815000D01*
X2665000Y-5785000D02*
X2635000Y-5815000D01*
X2685000Y-6235000D02*
X2715000Y-6265000D01*
X2715000Y-6235000D02*
X2685000Y-6265000D01*
X2685000Y-7035000D02*
X2715000Y-7065000D01*
X2715000Y-7035000D02*
X2685000Y-7065000D01*
X2735000Y-5885000D02*
X2765000Y-5915000D01*
X2765000Y-5885000D02*
X2735000Y-5915000D01*
X2735000Y-6635000D02*
X2765000Y-6665000D01*
X2765000Y-6635000D02*
X2735000Y-6665000D01*
X2785000Y-3685000D02*
X2815000Y-3715000D01*
X2815000Y-3685000D02*
X2785000Y-3715000D01*
X2785000Y-6135000D02*
X2815000Y-6165000D01*
X2815000Y-6135000D02*
X2785000Y-6165000D01*
X2785000Y-6335000D02*
X2815000Y-6365000D01*
X2815000Y-6335000D02*
X2785000Y-6365000D01*
X2785000Y-6935000D02*
X2815000Y-6965000D01*
X2815000Y-6935000D02*
X2785000Y-6965000D01*
X2785000Y-7035000D02*
X2815000Y-7065000D01*
X2815000Y-7035000D02*
X2785000Y-7065000D01*
X2785000Y-7135000D02*
X2815000Y-7165000D01*
X2815000Y-7135000D02*
X2785000Y-7165000D01*
X2785050Y-6235000D02*
X2815050Y-6265000D01*
X2815050Y-6235000D02*
X2785050Y-6265000D01*
X2835000Y-6635000D02*
X2865000Y-6665000D01*
X2865000Y-6635000D02*
X2835000Y-6665000D01*
X2885000Y-6235000D02*
X2915000Y-6265000D01*
X2915000Y-6235000D02*
X2885000Y-6265000D01*
X2885000Y-7035000D02*
X2915000Y-7065000D01*
X2915000Y-7035000D02*
X2885000Y-7065000D01*
X2935000Y-6635000D02*
X2965000Y-6665000D01*
X2965000Y-6635000D02*
X2935000Y-6665000D01*
X3035000Y-2735000D02*
X3065000Y-2765000D01*
X3065000Y-2735000D02*
X3035000Y-2765000D01*
X3035000Y-5685000D02*
X3065000Y-5715000D01*
X3065000Y-5685000D02*
X3035000Y-5715000D01*
X3135000Y-2635000D02*
X3165000Y-2665000D01*
X3165000Y-2635000D02*
X3135000Y-2665000D01*
X3135000Y-6435000D02*
X3165000Y-6465000D01*
X3165000Y-6435000D02*
X3135000Y-6465000D01*
X3135000Y-6585000D02*
X3165000Y-6615000D01*
X3165000Y-6585000D02*
X3135000Y-6615000D01*
X3175000Y-5485000D02*
X3205000Y-5515000D01*
X3205000Y-5485000D02*
X3175000Y-5515000D01*
X3185000Y-2785000D02*
X3215000Y-2815000D01*
X3215000Y-2785000D02*
X3185000Y-2815000D01*
X3185000Y-3285000D02*
X3215000Y-3315000D01*
X3215000Y-3285000D02*
X3185000Y-3315000D01*
X3185000Y-4135000D02*
X3215000Y-4165000D01*
X3215000Y-4135000D02*
X3185000Y-4165000D01*
X3225000Y-6335000D02*
X3255000Y-6365000D01*
X3255000Y-6335000D02*
X3225000Y-6365000D01*
X3335000Y-2635000D02*
X3365000Y-2665000D01*
X3365000Y-2635000D02*
X3335000Y-2665000D01*
X3335000Y-2785000D02*
X3365000Y-2815000D01*
X3365000Y-2785000D02*
X3335000Y-2815000D01*
X3335000Y-3285000D02*
X3365000Y-3315000D01*
X3365000Y-3285000D02*
X3335000Y-3315000D01*
X3335000Y-4685000D02*
X3365000Y-4715000D01*
X3365000Y-4685000D02*
X3335000Y-4715000D01*
X3335000Y-5285000D02*
X3365000Y-5315000D01*
X3365000Y-5285000D02*
X3335000Y-5315000D01*
X3357426Y-5847426D02*
X3387426Y-5877426D01*
X3387426Y-5847426D02*
X3357426Y-5877426D01*
X3385000Y-3885000D02*
X3415000Y-3915000D01*
X3415000Y-3885000D02*
X3385000Y-3915000D01*
X3435000Y-7385000D02*
X3465000Y-7415000D01*
X3465000Y-7385000D02*
X3435000Y-7415000D01*
X3485000Y-2735000D02*
X3515000Y-2765000D01*
X3515000Y-2735000D02*
X3485000Y-2765000D01*
X3485000Y-3685000D02*
X3515000Y-3715000D01*
X3515000Y-3685000D02*
X3485000Y-3715000D01*
X3485000Y-3985000D02*
X3515000Y-4015000D01*
X3515000Y-3985000D02*
X3485000Y-4015000D01*
X3485000Y-4835000D02*
X3515000Y-4865000D01*
X3515000Y-4835000D02*
X3485000Y-4865000D01*
X3487426Y-4067427D02*
X3517426Y-4097427D01*
X3517426Y-4067427D02*
X3487426Y-4097427D01*
X3535000Y-5847426D02*
X3565000Y-5877426D01*
X3565000Y-5847426D02*
X3535000Y-5877426D01*
X3545000Y-3585000D02*
X3575000Y-3615000D01*
X3575000Y-3585000D02*
X3545000Y-3615000D01*
X3585000Y-6235000D02*
X3615000Y-6265000D01*
X3615000Y-6235000D02*
X3585000Y-6265000D01*
X3585000Y-7035000D02*
X3615000Y-7065000D01*
X3615000Y-7035000D02*
X3585000Y-7065000D01*
X3635000Y-4285000D02*
X3665000Y-4315000D01*
X3665000Y-4285000D02*
X3635000Y-4315000D01*
X3635000Y-4585000D02*
X3665000Y-4615000D01*
X3665000Y-4585000D02*
X3635000Y-4615000D01*
X3635000Y-6635000D02*
X3665000Y-6665000D01*
X3665000Y-6635000D02*
X3635000Y-6665000D01*
X3685000Y-4435000D02*
X3715000Y-4465000D01*
X3715000Y-4435000D02*
X3685000Y-4465000D01*
X3685000Y-6135000D02*
X3715000Y-6165000D01*
X3715000Y-6135000D02*
X3685000Y-6165000D01*
X3685000Y-6235000D02*
X3715000Y-6265000D01*
X3715000Y-6235000D02*
X3685000Y-6265000D01*
X3685000Y-6335000D02*
X3715000Y-6365000D01*
X3715000Y-6335000D02*
X3685000Y-6365000D01*
X3685000Y-6935000D02*
X3715000Y-6965000D01*
X3715000Y-6935000D02*
X3685000Y-6965000D01*
X3685000Y-7035000D02*
X3715000Y-7065000D01*
X3715000Y-7035000D02*
X3685000Y-7065000D01*
X3685000Y-7135000D02*
X3715000Y-7165000D01*
X3715000Y-7135000D02*
X3685000Y-7165000D01*
X3735000Y-3285000D02*
X3765000Y-3315000D01*
X3765000Y-3285000D02*
X3735000Y-3315000D01*
X3735000Y-3435000D02*
X3765000Y-3465000D01*
X3765000Y-3435000D02*
X3735000Y-3465000D01*
X3735000Y-6635000D02*
X3765000Y-6665000D01*
X3765000Y-6635000D02*
X3735000Y-6665000D01*
X3785000Y-4335000D02*
X3815000Y-4365000D01*
X3815000Y-4335000D02*
X3785000Y-4365000D01*
X3785000Y-4435000D02*
X3815000Y-4465000D01*
X3815000Y-4435000D02*
X3785000Y-4465000D01*
X3785000Y-4535000D02*
X3815000Y-4565000D01*
X3815000Y-4535000D02*
X3785000Y-4565000D01*
X3785000Y-5585000D02*
X3815000Y-5615000D01*
X3815000Y-5585000D02*
X3785000Y-5615000D01*
X3785000Y-6235000D02*
X3815000Y-6265000D01*
X3815000Y-6235000D02*
X3785000Y-6265000D01*
X3785000Y-7035000D02*
X3815000Y-7065000D01*
X3815000Y-7035000D02*
X3785000Y-7065000D01*
X3835000Y-6635000D02*
X3865000Y-6665000D01*
X3865000Y-6635000D02*
X3835000Y-6665000D01*
X3885000Y-4435000D02*
X3915000Y-4465000D01*
X3915000Y-4435000D02*
X3885000Y-4465000D01*
X3895000Y-5435000D02*
X3925000Y-5465000D01*
X3925000Y-5435000D02*
X3895000Y-5465000D01*
X3935000Y-4285000D02*
X3965000Y-4315000D01*
X3965000Y-4285000D02*
X3935000Y-4315000D01*
X3935000Y-4585000D02*
X3965000Y-4615000D01*
X3965000Y-4585000D02*
X3935000Y-4615000D01*
X3935000Y-5885000D02*
X3965000Y-5915000D01*
X3965000Y-5885000D02*
X3935000Y-5915000D01*
X4035000Y-4935000D02*
X4065000Y-4965000D01*
X4065000Y-4935000D02*
X4035000Y-4965000D01*
X4035000Y-6535000D02*
X4065000Y-6565000D01*
X4065000Y-6535000D02*
X4035000Y-6565000D01*
X4062573Y-5797426D02*
X4092573Y-5827426D01*
X4092573Y-5797426D02*
X4062573Y-5827426D01*
X4135000Y-2085000D02*
X4165000Y-2115000D01*
X4165000Y-2085000D02*
X4135000Y-2115000D01*
X4135000Y-5335000D02*
X4165000Y-5365000D01*
X4165000Y-5335000D02*
X4135000Y-5365000D01*
X4135000Y-7635000D02*
X4165000Y-7665000D01*
X4165000Y-7635000D02*
X4135000Y-7665000D01*
X4235000Y-4885000D02*
X4265000Y-4915000D01*
X4265000Y-4885000D02*
X4235000Y-4915000D01*
X4335000Y-4785000D02*
X4365000Y-4815000D01*
X4365000Y-4785000D02*
X4335000Y-4815000D01*
X2848000Y-2023220D02*
G75*
G02*
X2788000Y-2023220I-30000J0D01*
G01*
X2788000Y-2023220D02*
G75*
G02*
X2848000Y-2023220I30000J0D01*
G01*
X2848000Y-2063220D02*
X2848000Y-1983220D01*
X2788000Y-1983220D02*
G75*
G02*
X2848000Y-1983220I30000J0D01*
G01*
X2788000Y-1983220D02*
X2788000Y-2063220D01*
X2788000Y-2063220D02*
G75*
G03*
X2848000Y-2063220I30000J0D01*
G01*
X2848000Y-2438220D02*
G75*
G02*
X2788000Y-2438220I-30000J0D01*
G01*
X2788000Y-2438220D02*
G75*
G02*
X2848000Y-2438220I30000J0D01*
G01*
X2848000Y-2493220D02*
X2848000Y-2383220D01*
X2788000Y-2383220D02*
G75*
G02*
X2848000Y-2383220I30000J0D01*
G01*
X2788000Y-2383220D02*
X2788000Y-2493220D01*
X2788000Y-2493220D02*
G75*
G03*
X2848000Y-2493220I30000J0D01*
G01*
X3712000Y-2023220D02*
G75*
G02*
X3652000Y-2023220I-30000J0D01*
G01*
X3652000Y-2023220D02*
G75*
G02*
X3712000Y-2023220I30000J0D01*
G01*
X3712000Y-2063220D02*
X3712000Y-1983220D01*
X3652000Y-1983220D02*
G75*
G02*
X3712000Y-1983220I30000J0D01*
G01*
X3652000Y-1983220D02*
X3652000Y-2063220D01*
X3652000Y-2063220D02*
G75*
G03*
X3712000Y-2063220I30000J0D01*
G01*
X3712000Y-2438220D02*
G75*
G02*
X3652000Y-2438220I-30000J0D01*
G01*
X3652000Y-2438220D02*
G75*
G02*
X3712000Y-2438220I30000J0D01*
G01*
X3712000Y-2493220D02*
X3712000Y-2383220D01*
X3652000Y-2383220D02*
G75*
G02*
X3712000Y-2383220I30000J0D01*
G01*
X3652000Y-2383220D02*
X3652000Y-2493220D01*
X3652000Y-2493220D02*
G75*
G03*
X3712000Y-2493220I30000J0D01*
G01*
X2741500Y-7635000D02*
X2741500Y-7735000D01*
X2691500Y-7685000D02*
X2791500Y-7685000D01*
X2741500Y-7889000D02*
X2741500Y-7989000D01*
X2691500Y-7939000D02*
X2791500Y-7939000D01*
X2995500Y-7635000D02*
X2995500Y-7735000D01*
X2945500Y-7685000D02*
X3045500Y-7685000D01*
X2995500Y-7889000D02*
X2995500Y-7989000D01*
X2945500Y-7939000D02*
X3045500Y-7939000D01*
X3249500Y-7635000D02*
X3249500Y-7735000D01*
X3199500Y-7685000D02*
X3299500Y-7685000D01*
X3249500Y-7889000D02*
X3249500Y-7989000D01*
X3199500Y-7939000D02*
X3299500Y-7939000D01*
X3503500Y-7635000D02*
X3503500Y-7735000D01*
X3453500Y-7685000D02*
X3553500Y-7685000D01*
X3503500Y-7889000D02*
X3503500Y-7989000D01*
X3453500Y-7939000D02*
X3553500Y-7939000D01*
X3757500Y-7635000D02*
X3757500Y-7735000D01*
X3707500Y-7685000D02*
X3807500Y-7685000D01*
X3757500Y-7889000D02*
X3757500Y-7989000D01*
X3707500Y-7939000D02*
X3807500Y-7939000D01*
D12*
X2258277Y-8663984D02*
X2258277Y-8463984D01*
X2258277Y-8463984D02*
X2305896Y-8463984D01*
X2305896Y-8463984D02*
X2334467Y-8473508D01*
X2334467Y-8473508D02*
X2353515Y-8492555D01*
X2353515Y-8492555D02*
X2363039Y-8511603D01*
X2363039Y-8511603D02*
X2372563Y-8549698D01*
X2372563Y-8549698D02*
X2372563Y-8578270D01*
X2372563Y-8578270D02*
X2363039Y-8616365D01*
X2363039Y-8616365D02*
X2353515Y-8635412D01*
X2353515Y-8635412D02*
X2334467Y-8654460D01*
X2334467Y-8654460D02*
X2305896Y-8663984D01*
X2305896Y-8663984D02*
X2258277Y-8663984D01*
X2458277Y-8663984D02*
X2458277Y-8530650D01*
X2458277Y-8568746D02*
X2467801Y-8549698D01*
X2467801Y-8549698D02*
X2477324Y-8540174D01*
X2477324Y-8540174D02*
X2496372Y-8530650D01*
X2496372Y-8530650D02*
X2515420Y-8530650D01*
X2582086Y-8663984D02*
X2582086Y-8530650D01*
X2582086Y-8463984D02*
X2572563Y-8473508D01*
X2572563Y-8473508D02*
X2582086Y-8483031D01*
X2582086Y-8483031D02*
X2591610Y-8473508D01*
X2591610Y-8473508D02*
X2582086Y-8463984D01*
X2582086Y-8463984D02*
X2582086Y-8483031D01*
X2705896Y-8663984D02*
X2686848Y-8654460D01*
X2686848Y-8654460D02*
X2677324Y-8635412D01*
X2677324Y-8635412D02*
X2677324Y-8463984D01*
X2810658Y-8663984D02*
X2791610Y-8654460D01*
X2791610Y-8654460D02*
X2782086Y-8635412D01*
X2782086Y-8635412D02*
X2782086Y-8463984D01*
X3039229Y-8663984D02*
X3039229Y-8463984D01*
X3039229Y-8463984D02*
X3105896Y-8606841D01*
X3105896Y-8606841D02*
X3172562Y-8463984D01*
X3172562Y-8463984D02*
X3172562Y-8663984D01*
X3353515Y-8663984D02*
X3353515Y-8559222D01*
X3353515Y-8559222D02*
X3343991Y-8540174D01*
X3343991Y-8540174D02*
X3324943Y-8530650D01*
X3324943Y-8530650D02*
X3286848Y-8530650D01*
X3286848Y-8530650D02*
X3267801Y-8540174D01*
X3353515Y-8654460D02*
X3334467Y-8663984D01*
X3334467Y-8663984D02*
X3286848Y-8663984D01*
X3286848Y-8663984D02*
X3267801Y-8654460D01*
X3267801Y-8654460D02*
X3258277Y-8635412D01*
X3258277Y-8635412D02*
X3258277Y-8616365D01*
X3258277Y-8616365D02*
X3267801Y-8597317D01*
X3267801Y-8597317D02*
X3286848Y-8587793D01*
X3286848Y-8587793D02*
X3334467Y-8587793D01*
X3334467Y-8587793D02*
X3353515Y-8578270D01*
X3448753Y-8530650D02*
X3448753Y-8730650D01*
X3448753Y-8540174D02*
X3467801Y-8530650D01*
X3467801Y-8530650D02*
X3505896Y-8530650D01*
X3505896Y-8530650D02*
X3524943Y-8540174D01*
X3524943Y-8540174D02*
X3534467Y-8549698D01*
X3534467Y-8549698D02*
X3543991Y-8568746D01*
X3543991Y-8568746D02*
X3543991Y-8625889D01*
X3543991Y-8625889D02*
X3534467Y-8644936D01*
X3534467Y-8644936D02*
X3524943Y-8654460D01*
X3524943Y-8654460D02*
X3505896Y-8663984D01*
X3505896Y-8663984D02*
X3467801Y-8663984D01*
X3467801Y-8663984D02*
X3448753Y-8654460D01*
X3629705Y-8644936D02*
X3639229Y-8654460D01*
X3639229Y-8654460D02*
X3629705Y-8663984D01*
X3629705Y-8663984D02*
X3620182Y-8654460D01*
X3620182Y-8654460D02*
X3629705Y-8644936D01*
X3629705Y-8644936D02*
X3629705Y-8663984D01*
X3629705Y-8540174D02*
X3639229Y-8549698D01*
X3639229Y-8549698D02*
X3629705Y-8559222D01*
X3629705Y-8559222D02*
X3620182Y-8549698D01*
X3620182Y-8549698D02*
X3629705Y-8540174D01*
X3629705Y-8540174D02*
X3629705Y-8559222D01*
D13*
X1967500Y-8977500D02*
X1997500Y-9007500D01*
X1997500Y-8977500D02*
X1967500Y-9007500D01*
D12*
X2296372Y-8883984D02*
X2315420Y-8883984D01*
X2315420Y-8883984D02*
X2334467Y-8893508D01*
X2334467Y-8893508D02*
X2343991Y-8903031D01*
X2343991Y-8903031D02*
X2353515Y-8922079D01*
X2353515Y-8922079D02*
X2363039Y-8960174D01*
X2363039Y-8960174D02*
X2363039Y-9007793D01*
X2363039Y-9007793D02*
X2353515Y-9045889D01*
X2353515Y-9045889D02*
X2343991Y-9064936D01*
X2343991Y-9064936D02*
X2334467Y-9074460D01*
X2334467Y-9074460D02*
X2315420Y-9083984D01*
X2315420Y-9083984D02*
X2296372Y-9083984D01*
X2296372Y-9083984D02*
X2277324Y-9074460D01*
X2277324Y-9074460D02*
X2267801Y-9064936D01*
X2267801Y-9064936D02*
X2258277Y-9045889D01*
X2258277Y-9045889D02*
X2248753Y-9007793D01*
X2248753Y-9007793D02*
X2248753Y-8960174D01*
X2248753Y-8960174D02*
X2258277Y-8922079D01*
X2258277Y-8922079D02*
X2267801Y-8903031D01*
X2267801Y-8903031D02*
X2277324Y-8893508D01*
X2277324Y-8893508D02*
X2296372Y-8883984D01*
X2448753Y-9064936D02*
X2458277Y-9074460D01*
X2458277Y-9074460D02*
X2448753Y-9083984D01*
X2448753Y-9083984D02*
X2439229Y-9074460D01*
X2439229Y-9074460D02*
X2448753Y-9064936D01*
X2448753Y-9064936D02*
X2448753Y-9083984D01*
X2524944Y-8883984D02*
X2648753Y-8883984D01*
X2648753Y-8883984D02*
X2582086Y-8960174D01*
X2582086Y-8960174D02*
X2610658Y-8960174D01*
X2610658Y-8960174D02*
X2629705Y-8969698D01*
X2629705Y-8969698D02*
X2639229Y-8979222D01*
X2639229Y-8979222D02*
X2648753Y-8998270D01*
X2648753Y-8998270D02*
X2648753Y-9045889D01*
X2648753Y-9045889D02*
X2639229Y-9064936D01*
X2639229Y-9064936D02*
X2629705Y-9074460D01*
X2629705Y-9074460D02*
X2610658Y-9083984D01*
X2610658Y-9083984D02*
X2553515Y-9083984D01*
X2553515Y-9083984D02*
X2534467Y-9074460D01*
X2534467Y-9074460D02*
X2524944Y-9064936D01*
X2772563Y-8883984D02*
X2791610Y-8883984D01*
X2791610Y-8883984D02*
X2810658Y-8893508D01*
X2810658Y-8893508D02*
X2820182Y-8903031D01*
X2820182Y-8903031D02*
X2829705Y-8922079D01*
X2829705Y-8922079D02*
X2839229Y-8960174D01*
X2839229Y-8960174D02*
X2839229Y-9007793D01*
X2839229Y-9007793D02*
X2829705Y-9045889D01*
X2829705Y-9045889D02*
X2820182Y-9064936D01*
X2820182Y-9064936D02*
X2810658Y-9074460D01*
X2810658Y-9074460D02*
X2791610Y-9083984D01*
X2791610Y-9083984D02*
X2772563Y-9083984D01*
X2772563Y-9083984D02*
X2753515Y-9074460D01*
X2753515Y-9074460D02*
X2743991Y-9064936D01*
X2743991Y-9064936D02*
X2734467Y-9045889D01*
X2734467Y-9045889D02*
X2724944Y-9007793D01*
X2724944Y-9007793D02*
X2724944Y-8960174D01*
X2724944Y-8960174D02*
X2734467Y-8922079D01*
X2734467Y-8922079D02*
X2743991Y-8903031D01*
X2743991Y-8903031D02*
X2753515Y-8893508D01*
X2753515Y-8893508D02*
X2772563Y-8883984D01*
X2963039Y-8883984D02*
X2982086Y-8883984D01*
X2982086Y-8883984D02*
X3001134Y-8893508D01*
X3001134Y-8893508D02*
X3010658Y-8903031D01*
X3010658Y-8903031D02*
X3020182Y-8922079D01*
X3020182Y-8922079D02*
X3029705Y-8960174D01*
X3029705Y-8960174D02*
X3029705Y-9007793D01*
X3029705Y-9007793D02*
X3020182Y-9045889D01*
X3020182Y-9045889D02*
X3010658Y-9064936D01*
X3010658Y-9064936D02*
X3001134Y-9074460D01*
X3001134Y-9074460D02*
X2982086Y-9083984D01*
X2982086Y-9083984D02*
X2963039Y-9083984D01*
X2963039Y-9083984D02*
X2943991Y-9074460D01*
X2943991Y-9074460D02*
X2934467Y-9064936D01*
X2934467Y-9064936D02*
X2924943Y-9045889D01*
X2924943Y-9045889D02*
X2915420Y-9007793D01*
X2915420Y-9007793D02*
X2915420Y-8960174D01*
X2915420Y-8960174D02*
X2924943Y-8922079D01*
X2924943Y-8922079D02*
X2934467Y-8903031D01*
X2934467Y-8903031D02*
X2943991Y-8893508D01*
X2943991Y-8893508D02*
X2963039Y-8883984D01*
X3115420Y-9083984D02*
X3115420Y-8950650D01*
X3115420Y-8969698D02*
X3124943Y-8960174D01*
X3124943Y-8960174D02*
X3143991Y-8950650D01*
X3143991Y-8950650D02*
X3172563Y-8950650D01*
X3172563Y-8950650D02*
X3191610Y-8960174D01*
X3191610Y-8960174D02*
X3201134Y-8979222D01*
X3201134Y-8979222D02*
X3201134Y-9083984D01*
X3201134Y-8979222D02*
X3210658Y-8960174D01*
X3210658Y-8960174D02*
X3229705Y-8950650D01*
X3229705Y-8950650D02*
X3258277Y-8950650D01*
X3258277Y-8950650D02*
X3277324Y-8960174D01*
X3277324Y-8960174D02*
X3286848Y-8979222D01*
X3286848Y-8979222D02*
X3286848Y-9083984D01*
X3382086Y-9083984D02*
X3382086Y-8950650D01*
X3382086Y-8969698D02*
X3391610Y-8960174D01*
X3391610Y-8960174D02*
X3410658Y-8950650D01*
X3410658Y-8950650D02*
X3439229Y-8950650D01*
X3439229Y-8950650D02*
X3458277Y-8960174D01*
X3458277Y-8960174D02*
X3467801Y-8979222D01*
X3467801Y-8979222D02*
X3467801Y-9083984D01*
X3467801Y-8979222D02*
X3477324Y-8960174D01*
X3477324Y-8960174D02*
X3496372Y-8950650D01*
X3496372Y-8950650D02*
X3524943Y-8950650D01*
X3524943Y-8950650D02*
X3543991Y-8960174D01*
X3543991Y-8960174D02*
X3553515Y-8979222D01*
X3553515Y-8979222D02*
X3553515Y-9083984D01*
X3943991Y-8874460D02*
X3772563Y-9131603D01*
X4201134Y-8883984D02*
X4220182Y-8883984D01*
X4220182Y-8883984D02*
X4239229Y-8893508D01*
X4239229Y-8893508D02*
X4248753Y-8903031D01*
X4248753Y-8903031D02*
X4258277Y-8922079D01*
X4258277Y-8922079D02*
X4267801Y-8960174D01*
X4267801Y-8960174D02*
X4267801Y-9007793D01*
X4267801Y-9007793D02*
X4258277Y-9045889D01*
X4258277Y-9045889D02*
X4248753Y-9064936D01*
X4248753Y-9064936D02*
X4239229Y-9074460D01*
X4239229Y-9074460D02*
X4220182Y-9083984D01*
X4220182Y-9083984D02*
X4201134Y-9083984D01*
X4201134Y-9083984D02*
X4182086Y-9074460D01*
X4182086Y-9074460D02*
X4172563Y-9064936D01*
X4172563Y-9064936D02*
X4163039Y-9045889D01*
X4163039Y-9045889D02*
X4153515Y-9007793D01*
X4153515Y-9007793D02*
X4153515Y-8960174D01*
X4153515Y-8960174D02*
X4163039Y-8922079D01*
X4163039Y-8922079D02*
X4172563Y-8903031D01*
X4172563Y-8903031D02*
X4182086Y-8893508D01*
X4182086Y-8893508D02*
X4201134Y-8883984D01*
X4353515Y-9064936D02*
X4363039Y-9074460D01*
X4363039Y-9074460D02*
X4353515Y-9083984D01*
X4353515Y-9083984D02*
X4343991Y-9074460D01*
X4343991Y-9074460D02*
X4353515Y-9064936D01*
X4353515Y-9064936D02*
X4353515Y-9083984D01*
X4486848Y-8883984D02*
X4505896Y-8883984D01*
X4505896Y-8883984D02*
X4524944Y-8893508D01*
X4524944Y-8893508D02*
X4534468Y-8903031D01*
X4534468Y-8903031D02*
X4543991Y-8922079D01*
X4543991Y-8922079D02*
X4553515Y-8960174D01*
X4553515Y-8960174D02*
X4553515Y-9007793D01*
X4553515Y-9007793D02*
X4543991Y-9045889D01*
X4543991Y-9045889D02*
X4534468Y-9064936D01*
X4534468Y-9064936D02*
X4524944Y-9074460D01*
X4524944Y-9074460D02*
X4505896Y-9083984D01*
X4505896Y-9083984D02*
X4486848Y-9083984D01*
X4486848Y-9083984D02*
X4467801Y-9074460D01*
X4467801Y-9074460D02*
X4458277Y-9064936D01*
X4458277Y-9064936D02*
X4448753Y-9045889D01*
X4448753Y-9045889D02*
X4439229Y-9007793D01*
X4439229Y-9007793D02*
X4439229Y-8960174D01*
X4439229Y-8960174D02*
X4448753Y-8922079D01*
X4448753Y-8922079D02*
X4458277Y-8903031D01*
X4458277Y-8903031D02*
X4467801Y-8893508D01*
X4467801Y-8893508D02*
X4486848Y-8883984D01*
X4743991Y-9083984D02*
X4629706Y-9083984D01*
X4686848Y-9083984D02*
X4686848Y-8883984D01*
X4686848Y-8883984D02*
X4667801Y-8912555D01*
X4667801Y-8912555D02*
X4648753Y-8931603D01*
X4648753Y-8931603D02*
X4629706Y-8941127D01*
X4934468Y-9083984D02*
X4820182Y-9083984D01*
X4877325Y-9083984D02*
X4877325Y-8883984D01*
X4877325Y-8883984D02*
X4858277Y-8912555D01*
X4858277Y-8912555D02*
X4839229Y-8931603D01*
X4839229Y-8931603D02*
X4820182Y-8941127D01*
X5048753Y-8969698D02*
X5029706Y-8960174D01*
X5029706Y-8960174D02*
X5020182Y-8950650D01*
X5020182Y-8950650D02*
X5010658Y-8931603D01*
X5010658Y-8931603D02*
X5010658Y-8922079D01*
X5010658Y-8922079D02*
X5020182Y-8903031D01*
X5020182Y-8903031D02*
X5029706Y-8893508D01*
X5029706Y-8893508D02*
X5048753Y-8883984D01*
X5048753Y-8883984D02*
X5086849Y-8883984D01*
X5086849Y-8883984D02*
X5105896Y-8893508D01*
X5105896Y-8893508D02*
X5115420Y-8903031D01*
X5115420Y-8903031D02*
X5124944Y-8922079D01*
X5124944Y-8922079D02*
X5124944Y-8931603D01*
X5124944Y-8931603D02*
X5115420Y-8950650D01*
X5115420Y-8950650D02*
X5105896Y-8960174D01*
X5105896Y-8960174D02*
X5086849Y-8969698D01*
X5086849Y-8969698D02*
X5048753Y-8969698D01*
X5048753Y-8969698D02*
X5029706Y-8979222D01*
X5029706Y-8979222D02*
X5020182Y-8988746D01*
X5020182Y-8988746D02*
X5010658Y-9007793D01*
X5010658Y-9007793D02*
X5010658Y-9045889D01*
X5010658Y-9045889D02*
X5020182Y-9064936D01*
X5020182Y-9064936D02*
X5029706Y-9074460D01*
X5029706Y-9074460D02*
X5048753Y-9083984D01*
X5048753Y-9083984D02*
X5086849Y-9083984D01*
X5086849Y-9083984D02*
X5105896Y-9074460D01*
X5105896Y-9074460D02*
X5115420Y-9064936D01*
X5115420Y-9064936D02*
X5124944Y-9045889D01*
X5124944Y-9045889D02*
X5124944Y-9007793D01*
X5124944Y-9007793D02*
X5115420Y-8988746D01*
X5115420Y-8988746D02*
X5105896Y-8979222D01*
X5105896Y-8979222D02*
X5086849Y-8969698D01*
X5201134Y-8883984D02*
X5201134Y-8922079D01*
X5277325Y-8883984D02*
X5277325Y-8922079D01*
X5572563Y-9160174D02*
X5563039Y-9150650D01*
X5563039Y-9150650D02*
X5543991Y-9122079D01*
X5543991Y-9122079D02*
X5534468Y-9103031D01*
X5534468Y-9103031D02*
X5524944Y-9074460D01*
X5524944Y-9074460D02*
X5515420Y-9026841D01*
X5515420Y-9026841D02*
X5515420Y-8988746D01*
X5515420Y-8988746D02*
X5524944Y-8941127D01*
X5524944Y-8941127D02*
X5534468Y-8912555D01*
X5534468Y-8912555D02*
X5543991Y-8893508D01*
X5543991Y-8893508D02*
X5563039Y-8864936D01*
X5563039Y-8864936D02*
X5572563Y-8855412D01*
X5677325Y-8969698D02*
X5658277Y-8960174D01*
X5658277Y-8960174D02*
X5648753Y-8950650D01*
X5648753Y-8950650D02*
X5639229Y-8931603D01*
X5639229Y-8931603D02*
X5639229Y-8922079D01*
X5639229Y-8922079D02*
X5648753Y-8903031D01*
X5648753Y-8903031D02*
X5658277Y-8893508D01*
X5658277Y-8893508D02*
X5677325Y-8883984D01*
X5677325Y-8883984D02*
X5715420Y-8883984D01*
X5715420Y-8883984D02*
X5734468Y-8893508D01*
X5734468Y-8893508D02*
X5743991Y-8903031D01*
X5743991Y-8903031D02*
X5753515Y-8922079D01*
X5753515Y-8922079D02*
X5753515Y-8931603D01*
X5753515Y-8931603D02*
X5743991Y-8950650D01*
X5743991Y-8950650D02*
X5734468Y-8960174D01*
X5734468Y-8960174D02*
X5715420Y-8969698D01*
X5715420Y-8969698D02*
X5677325Y-8969698D01*
X5677325Y-8969698D02*
X5658277Y-8979222D01*
X5658277Y-8979222D02*
X5648753Y-8988746D01*
X5648753Y-8988746D02*
X5639229Y-9007793D01*
X5639229Y-9007793D02*
X5639229Y-9045889D01*
X5639229Y-9045889D02*
X5648753Y-9064936D01*
X5648753Y-9064936D02*
X5658277Y-9074460D01*
X5658277Y-9074460D02*
X5677325Y-9083984D01*
X5677325Y-9083984D02*
X5715420Y-9083984D01*
X5715420Y-9083984D02*
X5734468Y-9074460D01*
X5734468Y-9074460D02*
X5743991Y-9064936D01*
X5743991Y-9064936D02*
X5753515Y-9045889D01*
X5753515Y-9045889D02*
X5753515Y-9007793D01*
X5753515Y-9007793D02*
X5743991Y-8988746D01*
X5743991Y-8988746D02*
X5734468Y-8979222D01*
X5734468Y-8979222D02*
X5715420Y-8969698D01*
X5877325Y-8883984D02*
X5896372Y-8883984D01*
X5896372Y-8883984D02*
X5915420Y-8893508D01*
X5915420Y-8893508D02*
X5924944Y-8903031D01*
X5924944Y-8903031D02*
X5934468Y-8922079D01*
X5934468Y-8922079D02*
X5943991Y-8960174D01*
X5943991Y-8960174D02*
X5943991Y-9007793D01*
X5943991Y-9007793D02*
X5934468Y-9045889D01*
X5934468Y-9045889D02*
X5924944Y-9064936D01*
X5924944Y-9064936D02*
X5915420Y-9074460D01*
X5915420Y-9074460D02*
X5896372Y-9083984D01*
X5896372Y-9083984D02*
X5877325Y-9083984D01*
X5877325Y-9083984D02*
X5858277Y-9074460D01*
X5858277Y-9074460D02*
X5848753Y-9064936D01*
X5848753Y-9064936D02*
X5839229Y-9045889D01*
X5839229Y-9045889D02*
X5829706Y-9007793D01*
X5829706Y-9007793D02*
X5829706Y-8960174D01*
X5829706Y-8960174D02*
X5839229Y-8922079D01*
X5839229Y-8922079D02*
X5848753Y-8903031D01*
X5848753Y-8903031D02*
X5858277Y-8893508D01*
X5858277Y-8893508D02*
X5877325Y-8883984D01*
X6182087Y-9083984D02*
X6182087Y-8883984D01*
X6267801Y-9083984D02*
X6267801Y-8979222D01*
X6267801Y-8979222D02*
X6258277Y-8960174D01*
X6258277Y-8960174D02*
X6239230Y-8950650D01*
X6239230Y-8950650D02*
X6210658Y-8950650D01*
X6210658Y-8950650D02*
X6191610Y-8960174D01*
X6191610Y-8960174D02*
X6182087Y-8969698D01*
X6391610Y-9083984D02*
X6372563Y-9074460D01*
X6372563Y-9074460D02*
X6363039Y-9064936D01*
X6363039Y-9064936D02*
X6353515Y-9045889D01*
X6353515Y-9045889D02*
X6353515Y-8988746D01*
X6353515Y-8988746D02*
X6363039Y-8969698D01*
X6363039Y-8969698D02*
X6372563Y-8960174D01*
X6372563Y-8960174D02*
X6391610Y-8950650D01*
X6391610Y-8950650D02*
X6420182Y-8950650D01*
X6420182Y-8950650D02*
X6439230Y-8960174D01*
X6439230Y-8960174D02*
X6448753Y-8969698D01*
X6448753Y-8969698D02*
X6458277Y-8988746D01*
X6458277Y-8988746D02*
X6458277Y-9045889D01*
X6458277Y-9045889D02*
X6448753Y-9064936D01*
X6448753Y-9064936D02*
X6439230Y-9074460D01*
X6439230Y-9074460D02*
X6420182Y-9083984D01*
X6420182Y-9083984D02*
X6391610Y-9083984D01*
X6572563Y-9083984D02*
X6553515Y-9074460D01*
X6553515Y-9074460D02*
X6543991Y-9055412D01*
X6543991Y-9055412D02*
X6543991Y-8883984D01*
X6724944Y-9074460D02*
X6705896Y-9083984D01*
X6705896Y-9083984D02*
X6667801Y-9083984D01*
X6667801Y-9083984D02*
X6648753Y-9074460D01*
X6648753Y-9074460D02*
X6639230Y-9055412D01*
X6639230Y-9055412D02*
X6639230Y-8979222D01*
X6639230Y-8979222D02*
X6648753Y-8960174D01*
X6648753Y-8960174D02*
X6667801Y-8950650D01*
X6667801Y-8950650D02*
X6705896Y-8950650D01*
X6705896Y-8950650D02*
X6724944Y-8960174D01*
X6724944Y-8960174D02*
X6734468Y-8979222D01*
X6734468Y-8979222D02*
X6734468Y-8998270D01*
X6734468Y-8998270D02*
X6639230Y-9017317D01*
X6810658Y-9074460D02*
X6829706Y-9083984D01*
X6829706Y-9083984D02*
X6867801Y-9083984D01*
X6867801Y-9083984D02*
X6886849Y-9074460D01*
X6886849Y-9074460D02*
X6896372Y-9055412D01*
X6896372Y-9055412D02*
X6896372Y-9045889D01*
X6896372Y-9045889D02*
X6886849Y-9026841D01*
X6886849Y-9026841D02*
X6867801Y-9017317D01*
X6867801Y-9017317D02*
X6839230Y-9017317D01*
X6839230Y-9017317D02*
X6820182Y-9007793D01*
X6820182Y-9007793D02*
X6810658Y-8988746D01*
X6810658Y-8988746D02*
X6810658Y-8979222D01*
X6810658Y-8979222D02*
X6820182Y-8960174D01*
X6820182Y-8960174D02*
X6839230Y-8950650D01*
X6839230Y-8950650D02*
X6867801Y-8950650D01*
X6867801Y-8950650D02*
X6886849Y-8960174D01*
X6963039Y-9160174D02*
X6972563Y-9150650D01*
X6972563Y-9150650D02*
X6991611Y-9122079D01*
X6991611Y-9122079D02*
X7001134Y-9103031D01*
X7001134Y-9103031D02*
X7010658Y-9074460D01*
X7010658Y-9074460D02*
X7020182Y-9026841D01*
X7020182Y-9026841D02*
X7020182Y-8988746D01*
X7020182Y-8988746D02*
X7010658Y-8941127D01*
X7010658Y-8941127D02*
X7001134Y-8912555D01*
X7001134Y-8912555D02*
X6991611Y-8893508D01*
X6991611Y-8893508D02*
X6972563Y-8864936D01*
X6972563Y-8864936D02*
X6963039Y-8855412D01*
D13*
X1997500Y-9256500D02*
G75*
G02*
X1937500Y-9256500I-30000J0D01*
G01*
X1937500Y-9256500D02*
G75*
G02*
X1997500Y-9256500I30000J0D01*
G01*
D12*
X2296372Y-9147984D02*
X2315420Y-9147984D01*
X2315420Y-9147984D02*
X2334467Y-9157508D01*
X2334467Y-9157508D02*
X2343991Y-9167031D01*
X2343991Y-9167031D02*
X2353515Y-9186079D01*
X2353515Y-9186079D02*
X2363039Y-9224174D01*
X2363039Y-9224174D02*
X2363039Y-9271793D01*
X2363039Y-9271793D02*
X2353515Y-9309889D01*
X2353515Y-9309889D02*
X2343991Y-9328936D01*
X2343991Y-9328936D02*
X2334467Y-9338460D01*
X2334467Y-9338460D02*
X2315420Y-9347984D01*
X2315420Y-9347984D02*
X2296372Y-9347984D01*
X2296372Y-9347984D02*
X2277324Y-9338460D01*
X2277324Y-9338460D02*
X2267801Y-9328936D01*
X2267801Y-9328936D02*
X2258277Y-9309889D01*
X2258277Y-9309889D02*
X2248753Y-9271793D01*
X2248753Y-9271793D02*
X2248753Y-9224174D01*
X2248753Y-9224174D02*
X2258277Y-9186079D01*
X2258277Y-9186079D02*
X2267801Y-9167031D01*
X2267801Y-9167031D02*
X2277324Y-9157508D01*
X2277324Y-9157508D02*
X2296372Y-9147984D01*
X2448753Y-9328936D02*
X2458277Y-9338460D01*
X2458277Y-9338460D02*
X2448753Y-9347984D01*
X2448753Y-9347984D02*
X2439229Y-9338460D01*
X2439229Y-9338460D02*
X2448753Y-9328936D01*
X2448753Y-9328936D02*
X2448753Y-9347984D01*
X2629705Y-9147984D02*
X2591610Y-9147984D01*
X2591610Y-9147984D02*
X2572563Y-9157508D01*
X2572563Y-9157508D02*
X2563039Y-9167031D01*
X2563039Y-9167031D02*
X2543991Y-9195603D01*
X2543991Y-9195603D02*
X2534467Y-9233698D01*
X2534467Y-9233698D02*
X2534467Y-9309889D01*
X2534467Y-9309889D02*
X2543991Y-9328936D01*
X2543991Y-9328936D02*
X2553515Y-9338460D01*
X2553515Y-9338460D02*
X2572563Y-9347984D01*
X2572563Y-9347984D02*
X2610658Y-9347984D01*
X2610658Y-9347984D02*
X2629705Y-9338460D01*
X2629705Y-9338460D02*
X2639229Y-9328936D01*
X2639229Y-9328936D02*
X2648753Y-9309889D01*
X2648753Y-9309889D02*
X2648753Y-9262270D01*
X2648753Y-9262270D02*
X2639229Y-9243222D01*
X2639229Y-9243222D02*
X2629705Y-9233698D01*
X2629705Y-9233698D02*
X2610658Y-9224174D01*
X2610658Y-9224174D02*
X2572563Y-9224174D01*
X2572563Y-9224174D02*
X2553515Y-9233698D01*
X2553515Y-9233698D02*
X2543991Y-9243222D01*
X2543991Y-9243222D02*
X2534467Y-9262270D01*
X2772563Y-9147984D02*
X2791610Y-9147984D01*
X2791610Y-9147984D02*
X2810658Y-9157508D01*
X2810658Y-9157508D02*
X2820182Y-9167031D01*
X2820182Y-9167031D02*
X2829705Y-9186079D01*
X2829705Y-9186079D02*
X2839229Y-9224174D01*
X2839229Y-9224174D02*
X2839229Y-9271793D01*
X2839229Y-9271793D02*
X2829705Y-9309889D01*
X2829705Y-9309889D02*
X2820182Y-9328936D01*
X2820182Y-9328936D02*
X2810658Y-9338460D01*
X2810658Y-9338460D02*
X2791610Y-9347984D01*
X2791610Y-9347984D02*
X2772563Y-9347984D01*
X2772563Y-9347984D02*
X2753515Y-9338460D01*
X2753515Y-9338460D02*
X2743991Y-9328936D01*
X2743991Y-9328936D02*
X2734467Y-9309889D01*
X2734467Y-9309889D02*
X2724944Y-9271793D01*
X2724944Y-9271793D02*
X2724944Y-9224174D01*
X2724944Y-9224174D02*
X2734467Y-9186079D01*
X2734467Y-9186079D02*
X2743991Y-9167031D01*
X2743991Y-9167031D02*
X2753515Y-9157508D01*
X2753515Y-9157508D02*
X2772563Y-9147984D01*
X2963039Y-9147984D02*
X2982086Y-9147984D01*
X2982086Y-9147984D02*
X3001134Y-9157508D01*
X3001134Y-9157508D02*
X3010658Y-9167031D01*
X3010658Y-9167031D02*
X3020182Y-9186079D01*
X3020182Y-9186079D02*
X3029705Y-9224174D01*
X3029705Y-9224174D02*
X3029705Y-9271793D01*
X3029705Y-9271793D02*
X3020182Y-9309889D01*
X3020182Y-9309889D02*
X3010658Y-9328936D01*
X3010658Y-9328936D02*
X3001134Y-9338460D01*
X3001134Y-9338460D02*
X2982086Y-9347984D01*
X2982086Y-9347984D02*
X2963039Y-9347984D01*
X2963039Y-9347984D02*
X2943991Y-9338460D01*
X2943991Y-9338460D02*
X2934467Y-9328936D01*
X2934467Y-9328936D02*
X2924943Y-9309889D01*
X2924943Y-9309889D02*
X2915420Y-9271793D01*
X2915420Y-9271793D02*
X2915420Y-9224174D01*
X2915420Y-9224174D02*
X2924943Y-9186079D01*
X2924943Y-9186079D02*
X2934467Y-9167031D01*
X2934467Y-9167031D02*
X2943991Y-9157508D01*
X2943991Y-9157508D02*
X2963039Y-9147984D01*
X3115420Y-9347984D02*
X3115420Y-9214650D01*
X3115420Y-9233698D02*
X3124943Y-9224174D01*
X3124943Y-9224174D02*
X3143991Y-9214650D01*
X3143991Y-9214650D02*
X3172563Y-9214650D01*
X3172563Y-9214650D02*
X3191610Y-9224174D01*
X3191610Y-9224174D02*
X3201134Y-9243222D01*
X3201134Y-9243222D02*
X3201134Y-9347984D01*
X3201134Y-9243222D02*
X3210658Y-9224174D01*
X3210658Y-9224174D02*
X3229705Y-9214650D01*
X3229705Y-9214650D02*
X3258277Y-9214650D01*
X3258277Y-9214650D02*
X3277324Y-9224174D01*
X3277324Y-9224174D02*
X3286848Y-9243222D01*
X3286848Y-9243222D02*
X3286848Y-9347984D01*
X3382086Y-9347984D02*
X3382086Y-9214650D01*
X3382086Y-9233698D02*
X3391610Y-9224174D01*
X3391610Y-9224174D02*
X3410658Y-9214650D01*
X3410658Y-9214650D02*
X3439229Y-9214650D01*
X3439229Y-9214650D02*
X3458277Y-9224174D01*
X3458277Y-9224174D02*
X3467801Y-9243222D01*
X3467801Y-9243222D02*
X3467801Y-9347984D01*
X3467801Y-9243222D02*
X3477324Y-9224174D01*
X3477324Y-9224174D02*
X3496372Y-9214650D01*
X3496372Y-9214650D02*
X3524943Y-9214650D01*
X3524943Y-9214650D02*
X3543991Y-9224174D01*
X3543991Y-9224174D02*
X3553515Y-9243222D01*
X3553515Y-9243222D02*
X3553515Y-9347984D01*
X3943991Y-9138460D02*
X3772563Y-9395603D01*
X4201134Y-9147984D02*
X4220182Y-9147984D01*
X4220182Y-9147984D02*
X4239229Y-9157508D01*
X4239229Y-9157508D02*
X4248753Y-9167031D01*
X4248753Y-9167031D02*
X4258277Y-9186079D01*
X4258277Y-9186079D02*
X4267801Y-9224174D01*
X4267801Y-9224174D02*
X4267801Y-9271793D01*
X4267801Y-9271793D02*
X4258277Y-9309889D01*
X4258277Y-9309889D02*
X4248753Y-9328936D01*
X4248753Y-9328936D02*
X4239229Y-9338460D01*
X4239229Y-9338460D02*
X4220182Y-9347984D01*
X4220182Y-9347984D02*
X4201134Y-9347984D01*
X4201134Y-9347984D02*
X4182086Y-9338460D01*
X4182086Y-9338460D02*
X4172563Y-9328936D01*
X4172563Y-9328936D02*
X4163039Y-9309889D01*
X4163039Y-9309889D02*
X4153515Y-9271793D01*
X4153515Y-9271793D02*
X4153515Y-9224174D01*
X4153515Y-9224174D02*
X4163039Y-9186079D01*
X4163039Y-9186079D02*
X4172563Y-9167031D01*
X4172563Y-9167031D02*
X4182086Y-9157508D01*
X4182086Y-9157508D02*
X4201134Y-9147984D01*
X4353515Y-9328936D02*
X4363039Y-9338460D01*
X4363039Y-9338460D02*
X4353515Y-9347984D01*
X4353515Y-9347984D02*
X4343991Y-9338460D01*
X4343991Y-9338460D02*
X4353515Y-9328936D01*
X4353515Y-9328936D02*
X4353515Y-9347984D01*
X4486848Y-9147984D02*
X4505896Y-9147984D01*
X4505896Y-9147984D02*
X4524944Y-9157508D01*
X4524944Y-9157508D02*
X4534468Y-9167031D01*
X4534468Y-9167031D02*
X4543991Y-9186079D01*
X4543991Y-9186079D02*
X4553515Y-9224174D01*
X4553515Y-9224174D02*
X4553515Y-9271793D01*
X4553515Y-9271793D02*
X4543991Y-9309889D01*
X4543991Y-9309889D02*
X4534468Y-9328936D01*
X4534468Y-9328936D02*
X4524944Y-9338460D01*
X4524944Y-9338460D02*
X4505896Y-9347984D01*
X4505896Y-9347984D02*
X4486848Y-9347984D01*
X4486848Y-9347984D02*
X4467801Y-9338460D01*
X4467801Y-9338460D02*
X4458277Y-9328936D01*
X4458277Y-9328936D02*
X4448753Y-9309889D01*
X4448753Y-9309889D02*
X4439229Y-9271793D01*
X4439229Y-9271793D02*
X4439229Y-9224174D01*
X4439229Y-9224174D02*
X4448753Y-9186079D01*
X4448753Y-9186079D02*
X4458277Y-9167031D01*
X4458277Y-9167031D02*
X4467801Y-9157508D01*
X4467801Y-9157508D02*
X4486848Y-9147984D01*
X4629706Y-9167031D02*
X4639229Y-9157508D01*
X4639229Y-9157508D02*
X4658277Y-9147984D01*
X4658277Y-9147984D02*
X4705896Y-9147984D01*
X4705896Y-9147984D02*
X4724944Y-9157508D01*
X4724944Y-9157508D02*
X4734468Y-9167031D01*
X4734468Y-9167031D02*
X4743991Y-9186079D01*
X4743991Y-9186079D02*
X4743991Y-9205127D01*
X4743991Y-9205127D02*
X4734468Y-9233698D01*
X4734468Y-9233698D02*
X4620182Y-9347984D01*
X4620182Y-9347984D02*
X4743991Y-9347984D01*
X4810658Y-9147984D02*
X4934468Y-9147984D01*
X4934468Y-9147984D02*
X4867801Y-9224174D01*
X4867801Y-9224174D02*
X4896372Y-9224174D01*
X4896372Y-9224174D02*
X4915420Y-9233698D01*
X4915420Y-9233698D02*
X4924944Y-9243222D01*
X4924944Y-9243222D02*
X4934468Y-9262270D01*
X4934468Y-9262270D02*
X4934468Y-9309889D01*
X4934468Y-9309889D02*
X4924944Y-9328936D01*
X4924944Y-9328936D02*
X4915420Y-9338460D01*
X4915420Y-9338460D02*
X4896372Y-9347984D01*
X4896372Y-9347984D02*
X4839229Y-9347984D01*
X4839229Y-9347984D02*
X4820182Y-9338460D01*
X4820182Y-9338460D02*
X4810658Y-9328936D01*
X5105896Y-9147984D02*
X5067801Y-9147984D01*
X5067801Y-9147984D02*
X5048753Y-9157508D01*
X5048753Y-9157508D02*
X5039229Y-9167031D01*
X5039229Y-9167031D02*
X5020182Y-9195603D01*
X5020182Y-9195603D02*
X5010658Y-9233698D01*
X5010658Y-9233698D02*
X5010658Y-9309889D01*
X5010658Y-9309889D02*
X5020182Y-9328936D01*
X5020182Y-9328936D02*
X5029706Y-9338460D01*
X5029706Y-9338460D02*
X5048753Y-9347984D01*
X5048753Y-9347984D02*
X5086849Y-9347984D01*
X5086849Y-9347984D02*
X5105896Y-9338460D01*
X5105896Y-9338460D02*
X5115420Y-9328936D01*
X5115420Y-9328936D02*
X5124944Y-9309889D01*
X5124944Y-9309889D02*
X5124944Y-9262270D01*
X5124944Y-9262270D02*
X5115420Y-9243222D01*
X5115420Y-9243222D02*
X5105896Y-9233698D01*
X5105896Y-9233698D02*
X5086849Y-9224174D01*
X5086849Y-9224174D02*
X5048753Y-9224174D01*
X5048753Y-9224174D02*
X5029706Y-9233698D01*
X5029706Y-9233698D02*
X5020182Y-9243222D01*
X5020182Y-9243222D02*
X5010658Y-9262270D01*
X5201134Y-9147984D02*
X5201134Y-9186079D01*
X5277325Y-9147984D02*
X5277325Y-9186079D01*
X5572563Y-9424174D02*
X5563039Y-9414650D01*
X5563039Y-9414650D02*
X5543991Y-9386079D01*
X5543991Y-9386079D02*
X5534468Y-9367031D01*
X5534468Y-9367031D02*
X5524944Y-9338460D01*
X5524944Y-9338460D02*
X5515420Y-9290841D01*
X5515420Y-9290841D02*
X5515420Y-9252746D01*
X5515420Y-9252746D02*
X5524944Y-9205127D01*
X5524944Y-9205127D02*
X5534468Y-9176555D01*
X5534468Y-9176555D02*
X5543991Y-9157508D01*
X5543991Y-9157508D02*
X5563039Y-9128936D01*
X5563039Y-9128936D02*
X5572563Y-9119412D01*
X5686848Y-9147984D02*
X5705896Y-9147984D01*
X5705896Y-9147984D02*
X5724944Y-9157508D01*
X5724944Y-9157508D02*
X5734468Y-9167031D01*
X5734468Y-9167031D02*
X5743991Y-9186079D01*
X5743991Y-9186079D02*
X5753515Y-9224174D01*
X5753515Y-9224174D02*
X5753515Y-9271793D01*
X5753515Y-9271793D02*
X5743991Y-9309889D01*
X5743991Y-9309889D02*
X5734468Y-9328936D01*
X5734468Y-9328936D02*
X5724944Y-9338460D01*
X5724944Y-9338460D02*
X5705896Y-9347984D01*
X5705896Y-9347984D02*
X5686848Y-9347984D01*
X5686848Y-9347984D02*
X5667801Y-9338460D01*
X5667801Y-9338460D02*
X5658277Y-9328936D01*
X5658277Y-9328936D02*
X5648753Y-9309889D01*
X5648753Y-9309889D02*
X5639229Y-9271793D01*
X5639229Y-9271793D02*
X5639229Y-9224174D01*
X5639229Y-9224174D02*
X5648753Y-9186079D01*
X5648753Y-9186079D02*
X5658277Y-9167031D01*
X5658277Y-9167031D02*
X5667801Y-9157508D01*
X5667801Y-9157508D02*
X5686848Y-9147984D01*
X5991610Y-9347984D02*
X5991610Y-9147984D01*
X6077325Y-9347984D02*
X6077325Y-9243222D01*
X6077325Y-9243222D02*
X6067801Y-9224174D01*
X6067801Y-9224174D02*
X6048753Y-9214650D01*
X6048753Y-9214650D02*
X6020182Y-9214650D01*
X6020182Y-9214650D02*
X6001134Y-9224174D01*
X6001134Y-9224174D02*
X5991610Y-9233698D01*
X6201134Y-9347984D02*
X6182087Y-9338460D01*
X6182087Y-9338460D02*
X6172563Y-9328936D01*
X6172563Y-9328936D02*
X6163039Y-9309889D01*
X6163039Y-9309889D02*
X6163039Y-9252746D01*
X6163039Y-9252746D02*
X6172563Y-9233698D01*
X6172563Y-9233698D02*
X6182087Y-9224174D01*
X6182087Y-9224174D02*
X6201134Y-9214650D01*
X6201134Y-9214650D02*
X6229706Y-9214650D01*
X6229706Y-9214650D02*
X6248753Y-9224174D01*
X6248753Y-9224174D02*
X6258277Y-9233698D01*
X6258277Y-9233698D02*
X6267801Y-9252746D01*
X6267801Y-9252746D02*
X6267801Y-9309889D01*
X6267801Y-9309889D02*
X6258277Y-9328936D01*
X6258277Y-9328936D02*
X6248753Y-9338460D01*
X6248753Y-9338460D02*
X6229706Y-9347984D01*
X6229706Y-9347984D02*
X6201134Y-9347984D01*
X6382087Y-9347984D02*
X6363039Y-9338460D01*
X6363039Y-9338460D02*
X6353515Y-9319412D01*
X6353515Y-9319412D02*
X6353515Y-9147984D01*
X6534468Y-9338460D02*
X6515420Y-9347984D01*
X6515420Y-9347984D02*
X6477325Y-9347984D01*
X6477325Y-9347984D02*
X6458277Y-9338460D01*
X6458277Y-9338460D02*
X6448753Y-9319412D01*
X6448753Y-9319412D02*
X6448753Y-9243222D01*
X6448753Y-9243222D02*
X6458277Y-9224174D01*
X6458277Y-9224174D02*
X6477325Y-9214650D01*
X6477325Y-9214650D02*
X6515420Y-9214650D01*
X6515420Y-9214650D02*
X6534468Y-9224174D01*
X6534468Y-9224174D02*
X6543991Y-9243222D01*
X6543991Y-9243222D02*
X6543991Y-9262270D01*
X6543991Y-9262270D02*
X6448753Y-9281317D01*
X6620182Y-9338460D02*
X6639230Y-9347984D01*
X6639230Y-9347984D02*
X6677325Y-9347984D01*
X6677325Y-9347984D02*
X6696372Y-9338460D01*
X6696372Y-9338460D02*
X6705896Y-9319412D01*
X6705896Y-9319412D02*
X6705896Y-9309889D01*
X6705896Y-9309889D02*
X6696372Y-9290841D01*
X6696372Y-9290841D02*
X6677325Y-9281317D01*
X6677325Y-9281317D02*
X6648753Y-9281317D01*
X6648753Y-9281317D02*
X6629706Y-9271793D01*
X6629706Y-9271793D02*
X6620182Y-9252746D01*
X6620182Y-9252746D02*
X6620182Y-9243222D01*
X6620182Y-9243222D02*
X6629706Y-9224174D01*
X6629706Y-9224174D02*
X6648753Y-9214650D01*
X6648753Y-9214650D02*
X6677325Y-9214650D01*
X6677325Y-9214650D02*
X6696372Y-9224174D01*
X6943992Y-9271793D02*
X7096373Y-9271793D01*
X7020182Y-9347984D02*
X7020182Y-9195603D01*
X7429706Y-9214650D02*
X7429706Y-9347984D01*
X7382087Y-9138460D02*
X7334468Y-9281317D01*
X7334468Y-9281317D02*
X7458277Y-9281317D01*
X7677325Y-9338460D02*
X7696373Y-9347984D01*
X7696373Y-9347984D02*
X7734468Y-9347984D01*
X7734468Y-9347984D02*
X7753515Y-9338460D01*
X7753515Y-9338460D02*
X7763039Y-9319412D01*
X7763039Y-9319412D02*
X7763039Y-9309889D01*
X7763039Y-9309889D02*
X7753515Y-9290841D01*
X7753515Y-9290841D02*
X7734468Y-9281317D01*
X7734468Y-9281317D02*
X7705896Y-9281317D01*
X7705896Y-9281317D02*
X7686849Y-9271793D01*
X7686849Y-9271793D02*
X7677325Y-9252746D01*
X7677325Y-9252746D02*
X7677325Y-9243222D01*
X7677325Y-9243222D02*
X7686849Y-9224174D01*
X7686849Y-9224174D02*
X7705896Y-9214650D01*
X7705896Y-9214650D02*
X7734468Y-9214650D01*
X7734468Y-9214650D02*
X7753515Y-9224174D01*
X7877325Y-9347984D02*
X7858277Y-9338460D01*
X7858277Y-9338460D02*
X7848754Y-9319412D01*
X7848754Y-9319412D02*
X7848754Y-9147984D01*
X7982087Y-9347984D02*
X7963039Y-9338460D01*
X7963039Y-9338460D02*
X7953515Y-9328936D01*
X7953515Y-9328936D02*
X7943992Y-9309889D01*
X7943992Y-9309889D02*
X7943992Y-9252746D01*
X7943992Y-9252746D02*
X7953515Y-9233698D01*
X7953515Y-9233698D02*
X7963039Y-9224174D01*
X7963039Y-9224174D02*
X7982087Y-9214650D01*
X7982087Y-9214650D02*
X8010658Y-9214650D01*
X8010658Y-9214650D02*
X8029706Y-9224174D01*
X8029706Y-9224174D02*
X8039230Y-9233698D01*
X8039230Y-9233698D02*
X8048754Y-9252746D01*
X8048754Y-9252746D02*
X8048754Y-9309889D01*
X8048754Y-9309889D02*
X8039230Y-9328936D01*
X8039230Y-9328936D02*
X8029706Y-9338460D01*
X8029706Y-9338460D02*
X8010658Y-9347984D01*
X8010658Y-9347984D02*
X7982087Y-9347984D01*
X8105896Y-9214650D02*
X8182087Y-9214650D01*
X8134468Y-9147984D02*
X8134468Y-9319412D01*
X8134468Y-9319412D02*
X8143992Y-9338460D01*
X8143992Y-9338460D02*
X8163039Y-9347984D01*
X8163039Y-9347984D02*
X8182087Y-9347984D01*
X8239230Y-9338460D02*
X8258277Y-9347984D01*
X8258277Y-9347984D02*
X8296373Y-9347984D01*
X8296373Y-9347984D02*
X8315420Y-9338460D01*
X8315420Y-9338460D02*
X8324944Y-9319412D01*
X8324944Y-9319412D02*
X8324944Y-9309889D01*
X8324944Y-9309889D02*
X8315420Y-9290841D01*
X8315420Y-9290841D02*
X8296373Y-9281317D01*
X8296373Y-9281317D02*
X8267801Y-9281317D01*
X8267801Y-9281317D02*
X8248754Y-9271793D01*
X8248754Y-9271793D02*
X8239230Y-9252746D01*
X8239230Y-9252746D02*
X8239230Y-9243222D01*
X8239230Y-9243222D02*
X8248754Y-9224174D01*
X8248754Y-9224174D02*
X8267801Y-9214650D01*
X8267801Y-9214650D02*
X8296373Y-9214650D01*
X8296373Y-9214650D02*
X8315420Y-9224174D01*
X8391611Y-9424174D02*
X8401135Y-9414650D01*
X8401135Y-9414650D02*
X8420182Y-9386079D01*
X8420182Y-9386079D02*
X8429706Y-9367031D01*
X8429706Y-9367031D02*
X8439230Y-9338460D01*
X8439230Y-9338460D02*
X8448754Y-9290841D01*
X8448754Y-9290841D02*
X8448754Y-9252746D01*
X8448754Y-9252746D02*
X8439230Y-9205127D01*
X8439230Y-9205127D02*
X8429706Y-9176555D01*
X8429706Y-9176555D02*
X8420182Y-9157508D01*
X8420182Y-9157508D02*
X8401135Y-9128936D01*
X8401135Y-9128936D02*
X8391611Y-9119412D01*
D13*
X1947500Y-9470500D02*
X1947500Y-9570500D01*
X1897500Y-9520500D02*
X1997500Y-9520500D01*
D12*
X2363039Y-9611984D02*
X2248753Y-9611984D01*
X2305896Y-9611984D02*
X2305896Y-9411984D01*
X2305896Y-9411984D02*
X2286848Y-9440555D01*
X2286848Y-9440555D02*
X2267801Y-9459603D01*
X2267801Y-9459603D02*
X2248753Y-9469127D01*
X2448753Y-9592936D02*
X2458277Y-9602460D01*
X2458277Y-9602460D02*
X2448753Y-9611984D01*
X2448753Y-9611984D02*
X2439229Y-9602460D01*
X2439229Y-9602460D02*
X2448753Y-9592936D01*
X2448753Y-9592936D02*
X2448753Y-9611984D01*
X2582086Y-9411984D02*
X2601134Y-9411984D01*
X2601134Y-9411984D02*
X2620182Y-9421508D01*
X2620182Y-9421508D02*
X2629705Y-9431031D01*
X2629705Y-9431031D02*
X2639229Y-9450079D01*
X2639229Y-9450079D02*
X2648753Y-9488174D01*
X2648753Y-9488174D02*
X2648753Y-9535793D01*
X2648753Y-9535793D02*
X2639229Y-9573889D01*
X2639229Y-9573889D02*
X2629705Y-9592936D01*
X2629705Y-9592936D02*
X2620182Y-9602460D01*
X2620182Y-9602460D02*
X2601134Y-9611984D01*
X2601134Y-9611984D02*
X2582086Y-9611984D01*
X2582086Y-9611984D02*
X2563039Y-9602460D01*
X2563039Y-9602460D02*
X2553515Y-9592936D01*
X2553515Y-9592936D02*
X2543991Y-9573889D01*
X2543991Y-9573889D02*
X2534467Y-9535793D01*
X2534467Y-9535793D02*
X2534467Y-9488174D01*
X2534467Y-9488174D02*
X2543991Y-9450079D01*
X2543991Y-9450079D02*
X2553515Y-9431031D01*
X2553515Y-9431031D02*
X2563039Y-9421508D01*
X2563039Y-9421508D02*
X2582086Y-9411984D01*
X2772563Y-9411984D02*
X2791610Y-9411984D01*
X2791610Y-9411984D02*
X2810658Y-9421508D01*
X2810658Y-9421508D02*
X2820182Y-9431031D01*
X2820182Y-9431031D02*
X2829705Y-9450079D01*
X2829705Y-9450079D02*
X2839229Y-9488174D01*
X2839229Y-9488174D02*
X2839229Y-9535793D01*
X2839229Y-9535793D02*
X2829705Y-9573889D01*
X2829705Y-9573889D02*
X2820182Y-9592936D01*
X2820182Y-9592936D02*
X2810658Y-9602460D01*
X2810658Y-9602460D02*
X2791610Y-9611984D01*
X2791610Y-9611984D02*
X2772563Y-9611984D01*
X2772563Y-9611984D02*
X2753515Y-9602460D01*
X2753515Y-9602460D02*
X2743991Y-9592936D01*
X2743991Y-9592936D02*
X2734467Y-9573889D01*
X2734467Y-9573889D02*
X2724944Y-9535793D01*
X2724944Y-9535793D02*
X2724944Y-9488174D01*
X2724944Y-9488174D02*
X2734467Y-9450079D01*
X2734467Y-9450079D02*
X2743991Y-9431031D01*
X2743991Y-9431031D02*
X2753515Y-9421508D01*
X2753515Y-9421508D02*
X2772563Y-9411984D01*
X2963039Y-9411984D02*
X2982086Y-9411984D01*
X2982086Y-9411984D02*
X3001134Y-9421508D01*
X3001134Y-9421508D02*
X3010658Y-9431031D01*
X3010658Y-9431031D02*
X3020182Y-9450079D01*
X3020182Y-9450079D02*
X3029705Y-9488174D01*
X3029705Y-9488174D02*
X3029705Y-9535793D01*
X3029705Y-9535793D02*
X3020182Y-9573889D01*
X3020182Y-9573889D02*
X3010658Y-9592936D01*
X3010658Y-9592936D02*
X3001134Y-9602460D01*
X3001134Y-9602460D02*
X2982086Y-9611984D01*
X2982086Y-9611984D02*
X2963039Y-9611984D01*
X2963039Y-9611984D02*
X2943991Y-9602460D01*
X2943991Y-9602460D02*
X2934467Y-9592936D01*
X2934467Y-9592936D02*
X2924943Y-9573889D01*
X2924943Y-9573889D02*
X2915420Y-9535793D01*
X2915420Y-9535793D02*
X2915420Y-9488174D01*
X2915420Y-9488174D02*
X2924943Y-9450079D01*
X2924943Y-9450079D02*
X2934467Y-9431031D01*
X2934467Y-9431031D02*
X2943991Y-9421508D01*
X2943991Y-9421508D02*
X2963039Y-9411984D01*
X3115420Y-9611984D02*
X3115420Y-9478650D01*
X3115420Y-9497698D02*
X3124943Y-9488174D01*
X3124943Y-9488174D02*
X3143991Y-9478650D01*
X3143991Y-9478650D02*
X3172563Y-9478650D01*
X3172563Y-9478650D02*
X3191610Y-9488174D01*
X3191610Y-9488174D02*
X3201134Y-9507222D01*
X3201134Y-9507222D02*
X3201134Y-9611984D01*
X3201134Y-9507222D02*
X3210658Y-9488174D01*
X3210658Y-9488174D02*
X3229705Y-9478650D01*
X3229705Y-9478650D02*
X3258277Y-9478650D01*
X3258277Y-9478650D02*
X3277324Y-9488174D01*
X3277324Y-9488174D02*
X3286848Y-9507222D01*
X3286848Y-9507222D02*
X3286848Y-9611984D01*
X3382086Y-9611984D02*
X3382086Y-9478650D01*
X3382086Y-9497698D02*
X3391610Y-9488174D01*
X3391610Y-9488174D02*
X3410658Y-9478650D01*
X3410658Y-9478650D02*
X3439229Y-9478650D01*
X3439229Y-9478650D02*
X3458277Y-9488174D01*
X3458277Y-9488174D02*
X3467801Y-9507222D01*
X3467801Y-9507222D02*
X3467801Y-9611984D01*
X3467801Y-9507222D02*
X3477324Y-9488174D01*
X3477324Y-9488174D02*
X3496372Y-9478650D01*
X3496372Y-9478650D02*
X3524943Y-9478650D01*
X3524943Y-9478650D02*
X3543991Y-9488174D01*
X3543991Y-9488174D02*
X3553515Y-9507222D01*
X3553515Y-9507222D02*
X3553515Y-9611984D01*
X3943991Y-9402460D02*
X3772563Y-9659603D01*
X4201134Y-9411984D02*
X4220182Y-9411984D01*
X4220182Y-9411984D02*
X4239229Y-9421508D01*
X4239229Y-9421508D02*
X4248753Y-9431031D01*
X4248753Y-9431031D02*
X4258277Y-9450079D01*
X4258277Y-9450079D02*
X4267801Y-9488174D01*
X4267801Y-9488174D02*
X4267801Y-9535793D01*
X4267801Y-9535793D02*
X4258277Y-9573889D01*
X4258277Y-9573889D02*
X4248753Y-9592936D01*
X4248753Y-9592936D02*
X4239229Y-9602460D01*
X4239229Y-9602460D02*
X4220182Y-9611984D01*
X4220182Y-9611984D02*
X4201134Y-9611984D01*
X4201134Y-9611984D02*
X4182086Y-9602460D01*
X4182086Y-9602460D02*
X4172563Y-9592936D01*
X4172563Y-9592936D02*
X4163039Y-9573889D01*
X4163039Y-9573889D02*
X4153515Y-9535793D01*
X4153515Y-9535793D02*
X4153515Y-9488174D01*
X4153515Y-9488174D02*
X4163039Y-9450079D01*
X4163039Y-9450079D02*
X4172563Y-9431031D01*
X4172563Y-9431031D02*
X4182086Y-9421508D01*
X4182086Y-9421508D02*
X4201134Y-9411984D01*
X4353515Y-9592936D02*
X4363039Y-9602460D01*
X4363039Y-9602460D02*
X4353515Y-9611984D01*
X4353515Y-9611984D02*
X4343991Y-9602460D01*
X4343991Y-9602460D02*
X4353515Y-9592936D01*
X4353515Y-9592936D02*
X4353515Y-9611984D01*
X4486848Y-9411984D02*
X4505896Y-9411984D01*
X4505896Y-9411984D02*
X4524944Y-9421508D01*
X4524944Y-9421508D02*
X4534468Y-9431031D01*
X4534468Y-9431031D02*
X4543991Y-9450079D01*
X4543991Y-9450079D02*
X4553515Y-9488174D01*
X4553515Y-9488174D02*
X4553515Y-9535793D01*
X4553515Y-9535793D02*
X4543991Y-9573889D01*
X4543991Y-9573889D02*
X4534468Y-9592936D01*
X4534468Y-9592936D02*
X4524944Y-9602460D01*
X4524944Y-9602460D02*
X4505896Y-9611984D01*
X4505896Y-9611984D02*
X4486848Y-9611984D01*
X4486848Y-9611984D02*
X4467801Y-9602460D01*
X4467801Y-9602460D02*
X4458277Y-9592936D01*
X4458277Y-9592936D02*
X4448753Y-9573889D01*
X4448753Y-9573889D02*
X4439229Y-9535793D01*
X4439229Y-9535793D02*
X4439229Y-9488174D01*
X4439229Y-9488174D02*
X4448753Y-9450079D01*
X4448753Y-9450079D02*
X4458277Y-9431031D01*
X4458277Y-9431031D02*
X4467801Y-9421508D01*
X4467801Y-9421508D02*
X4486848Y-9411984D01*
X4620182Y-9411984D02*
X4743991Y-9411984D01*
X4743991Y-9411984D02*
X4677325Y-9488174D01*
X4677325Y-9488174D02*
X4705896Y-9488174D01*
X4705896Y-9488174D02*
X4724944Y-9497698D01*
X4724944Y-9497698D02*
X4734468Y-9507222D01*
X4734468Y-9507222D02*
X4743991Y-9526270D01*
X4743991Y-9526270D02*
X4743991Y-9573889D01*
X4743991Y-9573889D02*
X4734468Y-9592936D01*
X4734468Y-9592936D02*
X4724944Y-9602460D01*
X4724944Y-9602460D02*
X4705896Y-9611984D01*
X4705896Y-9611984D02*
X4648753Y-9611984D01*
X4648753Y-9611984D02*
X4629706Y-9602460D01*
X4629706Y-9602460D02*
X4620182Y-9592936D01*
X4839229Y-9611984D02*
X4877325Y-9611984D01*
X4877325Y-9611984D02*
X4896372Y-9602460D01*
X4896372Y-9602460D02*
X4905896Y-9592936D01*
X4905896Y-9592936D02*
X4924944Y-9564365D01*
X4924944Y-9564365D02*
X4934468Y-9526270D01*
X4934468Y-9526270D02*
X4934468Y-9450079D01*
X4934468Y-9450079D02*
X4924944Y-9431031D01*
X4924944Y-9431031D02*
X4915420Y-9421508D01*
X4915420Y-9421508D02*
X4896372Y-9411984D01*
X4896372Y-9411984D02*
X4858277Y-9411984D01*
X4858277Y-9411984D02*
X4839229Y-9421508D01*
X4839229Y-9421508D02*
X4829706Y-9431031D01*
X4829706Y-9431031D02*
X4820182Y-9450079D01*
X4820182Y-9450079D02*
X4820182Y-9497698D01*
X4820182Y-9497698D02*
X4829706Y-9516746D01*
X4829706Y-9516746D02*
X4839229Y-9526270D01*
X4839229Y-9526270D02*
X4858277Y-9535793D01*
X4858277Y-9535793D02*
X4896372Y-9535793D01*
X4896372Y-9535793D02*
X4915420Y-9526270D01*
X4915420Y-9526270D02*
X4924944Y-9516746D01*
X4924944Y-9516746D02*
X4934468Y-9497698D01*
X5105896Y-9478650D02*
X5105896Y-9611984D01*
X5058277Y-9402460D02*
X5010658Y-9545317D01*
X5010658Y-9545317D02*
X5134468Y-9545317D01*
X5201134Y-9411984D02*
X5201134Y-9450079D01*
X5277325Y-9411984D02*
X5277325Y-9450079D01*
X5572563Y-9688174D02*
X5563039Y-9678650D01*
X5563039Y-9678650D02*
X5543991Y-9650079D01*
X5543991Y-9650079D02*
X5534468Y-9631031D01*
X5534468Y-9631031D02*
X5524944Y-9602460D01*
X5524944Y-9602460D02*
X5515420Y-9554841D01*
X5515420Y-9554841D02*
X5515420Y-9516746D01*
X5515420Y-9516746D02*
X5524944Y-9469127D01*
X5524944Y-9469127D02*
X5534468Y-9440555D01*
X5534468Y-9440555D02*
X5543991Y-9421508D01*
X5543991Y-9421508D02*
X5563039Y-9392936D01*
X5563039Y-9392936D02*
X5572563Y-9383412D01*
X5753515Y-9611984D02*
X5639229Y-9611984D01*
X5696372Y-9611984D02*
X5696372Y-9411984D01*
X5696372Y-9411984D02*
X5677325Y-9440555D01*
X5677325Y-9440555D02*
X5658277Y-9459603D01*
X5658277Y-9459603D02*
X5639229Y-9469127D01*
X5877325Y-9411984D02*
X5896372Y-9411984D01*
X5896372Y-9411984D02*
X5915420Y-9421508D01*
X5915420Y-9421508D02*
X5924944Y-9431031D01*
X5924944Y-9431031D02*
X5934468Y-9450079D01*
X5934468Y-9450079D02*
X5943991Y-9488174D01*
X5943991Y-9488174D02*
X5943991Y-9535793D01*
X5943991Y-9535793D02*
X5934468Y-9573889D01*
X5934468Y-9573889D02*
X5924944Y-9592936D01*
X5924944Y-9592936D02*
X5915420Y-9602460D01*
X5915420Y-9602460D02*
X5896372Y-9611984D01*
X5896372Y-9611984D02*
X5877325Y-9611984D01*
X5877325Y-9611984D02*
X5858277Y-9602460D01*
X5858277Y-9602460D02*
X5848753Y-9592936D01*
X5848753Y-9592936D02*
X5839229Y-9573889D01*
X5839229Y-9573889D02*
X5829706Y-9535793D01*
X5829706Y-9535793D02*
X5829706Y-9488174D01*
X5829706Y-9488174D02*
X5839229Y-9450079D01*
X5839229Y-9450079D02*
X5848753Y-9431031D01*
X5848753Y-9431031D02*
X5858277Y-9421508D01*
X5858277Y-9421508D02*
X5877325Y-9411984D01*
X6182087Y-9611984D02*
X6182087Y-9411984D01*
X6267801Y-9611984D02*
X6267801Y-9507222D01*
X6267801Y-9507222D02*
X6258277Y-9488174D01*
X6258277Y-9488174D02*
X6239230Y-9478650D01*
X6239230Y-9478650D02*
X6210658Y-9478650D01*
X6210658Y-9478650D02*
X6191610Y-9488174D01*
X6191610Y-9488174D02*
X6182087Y-9497698D01*
X6391610Y-9611984D02*
X6372563Y-9602460D01*
X6372563Y-9602460D02*
X6363039Y-9592936D01*
X6363039Y-9592936D02*
X6353515Y-9573889D01*
X6353515Y-9573889D02*
X6353515Y-9516746D01*
X6353515Y-9516746D02*
X6363039Y-9497698D01*
X6363039Y-9497698D02*
X6372563Y-9488174D01*
X6372563Y-9488174D02*
X6391610Y-9478650D01*
X6391610Y-9478650D02*
X6420182Y-9478650D01*
X6420182Y-9478650D02*
X6439230Y-9488174D01*
X6439230Y-9488174D02*
X6448753Y-9497698D01*
X6448753Y-9497698D02*
X6458277Y-9516746D01*
X6458277Y-9516746D02*
X6458277Y-9573889D01*
X6458277Y-9573889D02*
X6448753Y-9592936D01*
X6448753Y-9592936D02*
X6439230Y-9602460D01*
X6439230Y-9602460D02*
X6420182Y-9611984D01*
X6420182Y-9611984D02*
X6391610Y-9611984D01*
X6572563Y-9611984D02*
X6553515Y-9602460D01*
X6553515Y-9602460D02*
X6543991Y-9583412D01*
X6543991Y-9583412D02*
X6543991Y-9411984D01*
X6724944Y-9602460D02*
X6705896Y-9611984D01*
X6705896Y-9611984D02*
X6667801Y-9611984D01*
X6667801Y-9611984D02*
X6648753Y-9602460D01*
X6648753Y-9602460D02*
X6639230Y-9583412D01*
X6639230Y-9583412D02*
X6639230Y-9507222D01*
X6639230Y-9507222D02*
X6648753Y-9488174D01*
X6648753Y-9488174D02*
X6667801Y-9478650D01*
X6667801Y-9478650D02*
X6705896Y-9478650D01*
X6705896Y-9478650D02*
X6724944Y-9488174D01*
X6724944Y-9488174D02*
X6734468Y-9507222D01*
X6734468Y-9507222D02*
X6734468Y-9526270D01*
X6734468Y-9526270D02*
X6639230Y-9545317D01*
X6810658Y-9602460D02*
X6829706Y-9611984D01*
X6829706Y-9611984D02*
X6867801Y-9611984D01*
X6867801Y-9611984D02*
X6886849Y-9602460D01*
X6886849Y-9602460D02*
X6896372Y-9583412D01*
X6896372Y-9583412D02*
X6896372Y-9573889D01*
X6896372Y-9573889D02*
X6886849Y-9554841D01*
X6886849Y-9554841D02*
X6867801Y-9545317D01*
X6867801Y-9545317D02*
X6839230Y-9545317D01*
X6839230Y-9545317D02*
X6820182Y-9535793D01*
X6820182Y-9535793D02*
X6810658Y-9516746D01*
X6810658Y-9516746D02*
X6810658Y-9507222D01*
X6810658Y-9507222D02*
X6820182Y-9488174D01*
X6820182Y-9488174D02*
X6839230Y-9478650D01*
X6839230Y-9478650D02*
X6867801Y-9478650D01*
X6867801Y-9478650D02*
X6886849Y-9488174D01*
X6963039Y-9688174D02*
X6972563Y-9678650D01*
X6972563Y-9678650D02*
X6991611Y-9650079D01*
X6991611Y-9650079D02*
X7001134Y-9631031D01*
X7001134Y-9631031D02*
X7010658Y-9602460D01*
X7010658Y-9602460D02*
X7020182Y-9554841D01*
X7020182Y-9554841D02*
X7020182Y-9516746D01*
X7020182Y-9516746D02*
X7010658Y-9469127D01*
X7010658Y-9469127D02*
X7001134Y-9440555D01*
X7001134Y-9440555D02*
X6991611Y-9421508D01*
X6991611Y-9421508D02*
X6972563Y-9392936D01*
X6972563Y-9392936D02*
X6963039Y-9383412D01*
M02*
